<svg width="594" height="731" viewBox="0 0 594 731" fill="none" xmlns="http://www.w3.org/2000/svg">
<g clip-path="url(#clip0_38_9330)">
<path d="M286.236 577.425L289.086 571.244L295.77 578.053L286.236 577.425Z" fill="#FF57C8"/>
<path d="M535.192 707.309L540.242 711.876L531.735 716.213L535.192 707.309Z" fill="#FF57C8"/>
<path d="M309.472 536.379L311.316 526.72L316.701 532.922L309.472 536.379Z" fill="#FFE110"/>
<path d="M325.815 458.562L330.634 464.785L334.343 456.32L325.815 458.562Z" fill="#DF1929"/>
<path d="M268.343 441.109L274.838 434.97L265.933 430.716L268.343 441.109Z" fill="#03E1CE"/>
<path d="M543.615 451.815L551.053 449.992V459.274L543.615 451.815Z" fill="#03E1CE"/>
<path d="M564.798 411.063L568.276 417.684L574.038 409.261L564.798 411.063Z" fill="#FF57C8"/>
<path d="M547.093 675.021H554.301L550.697 666.095L547.093 675.021Z" fill="#F95D00"/>
<path d="M583.613 684.01L590.926 679.84L592.309 687.907L583.613 684.01Z" fill="#BAE5FF"/>
<path d="M395.754 719.733L398.541 709.886L403.737 716.758L395.754 719.733Z" fill="#DF1929"/>
<path d="M313.076 422.377L318.629 412.97L320.598 417.684L313.076 422.377Z" fill="#BAE5FF"/>
<path d="M404.701 736.055C389.951 730.21 375.347 723.379 363.194 713.196C351.042 702.992 341.425 689.038 339.162 673.345C335.223 645.981 353.619 618.659 348.151 591.568C345.762 579.73 338.911 568.96 337.716 556.933C335.726 536.882 349.659 518.947 363.991 504.804C381.255 487.79 400.888 472.328 423.914 464.743C446.941 457.158 473.907 458.478 493.476 472.768C502.842 479.598 510.029 488.943 517.09 498.141C538.272 525.735 559.455 553.33 580.617 580.924C593.629 597.895 607.373 617.234 604.985 638.48C602.848 657.442 588.411 672.381 574.604 685.539C557.297 702.029 539.467 718.371 518.535 729.916C485.116 748.375 440.215 750.135 404.701 736.055Z" fill="#EEFAFF"/>
<path d="M618.541 667.709C605.048 639.528 582.733 616.354 555.307 601.436C541.75 594.061 527.084 588.697 511.935 585.68C504.539 584.213 497.038 583.291 489.516 582.956C481.219 582.6 472.189 583.627 465.547 577.613C460.078 572.669 457.354 565.524 453.562 559.364C449.728 553.141 444.615 547.798 438.79 543.419C425.255 533.236 408.661 528.564 392.13 525.966C384.587 524.792 376.981 523.912 369.375 523.179C366.798 510.063 356.175 499.754 342.577 498.56C327.617 497.261 312.888 505.558 301.783 514.798C278.4 534.305 261.366 561.312 252.524 590.331C243.703 619.35 243.347 650.465 251.916 679.589C260.381 708.293 276.912 734.63 299.269 754.556C304.57 759.291 310.227 763.65 316.135 767.61C316.701 767.987 317.225 767.086 316.659 766.709C292.627 750.617 273.476 727.695 261.303 701.505C249.004 675.021 244.185 645.436 247.956 616.438C251.791 587.063 263.964 558.756 282.674 535.771C292.019 524.31 303.04 513.373 316.135 506.27C328.958 499.314 345.867 495.71 358.124 505.872C363.592 510.398 366.903 516.516 368.181 523.074C367.364 522.99 366.568 522.928 365.751 522.844C357.81 522.11 349.638 521.733 341.844 523.703C335.223 525.379 329.356 528.794 325.438 534.493C322.253 539.166 320.389 545.095 321.311 550.752C322.253 556.493 326.36 561.103 331.871 562.905C338.135 564.958 345.217 563.47 350.916 560.495C363.341 554 371.491 539.208 369.669 525.232C369.627 524.876 369.564 524.541 369.522 524.185C373.147 524.562 376.771 525.023 380.396 525.442C397.284 527.411 414.507 530.408 429.571 538.726C436.046 542.309 442.038 546.813 446.983 552.324C451.844 557.75 454.84 564.141 458.549 570.322C461.859 575.832 466.091 580.798 472.461 582.642C476.149 583.71 480.025 583.773 483.817 583.836C487.526 583.899 491.234 584.025 494.922 584.318C509.819 585.533 524.507 589.074 538.356 594.606C566.202 605.731 590.695 625.07 607.31 650.109C624.177 675.524 633.061 706.135 632.537 736.642C632.411 744.164 631.699 751.665 630.4 759.082C630.295 759.731 631.301 760.025 631.406 759.354C636.832 728.408 632.097 696.015 618.541 667.709ZM364.43 545.703C360.848 551.989 355.358 557.478 348.695 560.432C342.493 563.177 334.573 564.078 328.623 560.223C316.701 552.47 323.05 534.891 332.981 528.543C339.749 524.206 348.13 523.221 355.987 523.326C360.114 523.389 364.242 523.682 368.37 524.101C369.564 531.35 368.202 539.082 364.43 545.703Z" fill="#BAE5FF"/>
<path d="M450.922 634.101C449.225 624.589 447.528 615.076 445.83 605.585C444.783 599.76 449.12 593.495 454.945 592.406C460.77 591.316 467.055 595.611 468.166 601.436C470.366 612.897 472.566 624.337 474.766 635.798C466.804 636.07 458.863 636.343 450.922 634.101Z" fill="#6424D4"/>
<path d="M359.821 428.202C359.821 428.202 400.448 471.846 385.32 618.345C385.32 618.345 509.086 608.12 516.503 600.347C516.503 600.347 517.802 488.419 486.059 405.427C486.059 405.448 416.267 447.269 359.821 428.202Z" fill="#E7E2F2"/>
<path d="M452.263 618.617C444.552 615.055 436.716 618.91 435.103 627.103C423.474 636.552 424.501 643.634 427.35 648.432C427.644 650.004 421.044 651.596 418.928 660.438C417.251 667.478 429.844 676.194 432.798 680.217C415.848 706.24 419.787 719.356 431.96 768.364C435.27 781.71 435.061 777.29 432.84 790.385C459.491 794.408 487.484 788.813 510.552 774.88C499.804 758.726 490.04 753.425 496.137 734.693C503.324 712.63 532.678 664.733 523.606 647.992L503.512 605.543C500.286 597.581 489.139 587.817 480.57 588.467C460.832 589.996 441.074 591.505 421.337 593.034C418.76 593.223 417.147 595.884 418.131 598.272C420.52 603.971 427.749 606.779 434.013 608.811C443.84 612.017 460.455 609.859 468.71 611.074C469.507 611.2 476.735 610.76 483.629 632.613C479.564 630.728 463.682 623.876 452.263 618.617Z" fill="#8255FF"/>
<path d="M478.998 678.352C478.893 676.823 478.935 674.979 477.741 673.827C475.667 671.899 473.467 670.139 471.309 668.316C468.752 666.2 466.217 664.084 463.703 661.947C458.716 657.63 453.876 653.168 448.743 649.019C446.857 647.51 444.93 646.044 442.834 644.829C440.823 643.613 438.35 642.356 435.983 643.278C431.017 645.562 426.659 649.082 423.034 653.126C427.162 649.941 432.798 646.484 436.842 644.745C438.162 644.389 439.712 644.912 441.514 645.981C443.379 647.05 445.139 648.286 446.836 649.606C452.305 653.943 459.198 660.375 465.17 665.362C467.998 667.73 470.827 670.097 473.676 672.423C474.64 673.177 476.065 674.246 476.17 674.33C476.484 674.581 476.84 674.811 477.112 675.105C477.175 675.189 477.238 675.272 477.28 675.377C477.322 675.44 477.385 675.587 477.427 675.65C477.867 676.823 478.034 678.059 478.265 679.274C478.537 680.783 478.768 682.312 478.998 683.842C479.061 682.04 479.061 680.196 478.998 678.352Z" fill="#121212"/>
<path d="M488.511 659.432C485.326 655.703 481.282 652.832 477.552 649.648C475.017 647.552 472.545 645.352 469.989 643.278C466.741 640.68 463.389 638.25 460.057 635.756C457.878 634.122 455.741 632.467 453.583 630.811C452.137 629.722 450.691 628.611 449.099 627.731C447.8 627.061 446.48 626.265 444.992 626.034C443.882 625.888 442.771 626.076 441.682 626.265C440.32 626.516 438.958 626.872 437.617 627.25C440.069 627.082 442.939 626.684 444.93 627.187C446.082 627.564 447.926 628.779 449.33 629.743C452.284 631.88 455.133 634.143 458.046 636.343C460.77 638.396 464.876 641.434 466.93 643.027C470.952 646.128 474.703 649.564 478.642 652.749C481.45 655.032 484.236 657.337 486.855 659.83C489.872 662.701 491.465 664.733 491.025 669.133C492.261 665.152 491.13 662.491 488.511 659.432Z" fill="#121212"/>
<path d="M510.992 651.701C510.93 650.632 510.825 649.522 510.343 648.537C508.499 644.87 503.596 642.063 500.16 639.968C494.671 636.741 488.804 634.227 482.979 631.65C479.291 630.015 475.667 628.255 472 626.579C468.354 624.819 464.688 623.101 460.874 621.655C458.36 620.67 455.867 619.665 453.248 618.973C455.783 620.21 458.192 621.655 460.707 622.933C464.52 624.903 468.417 626.726 472.314 628.549C475.792 630.162 479.25 631.838 482.791 633.368C489.516 636.322 496.284 639.297 502.465 643.341C503.931 644.263 506.215 645.897 506.655 646.274C507.871 647.259 508.897 648.139 509.505 649.25C510.008 650.088 510.175 651.051 510.385 651.994C510.657 653.189 510.867 654.383 511.034 655.577C511.097 654.299 511.097 653 510.992 651.701Z" fill="#121212"/>
<path d="M436.109 592.322C435.291 591.84 434.411 591.253 433.427 591.295C433.93 591.379 434.349 591.693 434.747 591.987C434.956 592.154 435.501 592.615 435.815 592.93C438.204 595.025 436.213 596.869 433.72 598.189C432.128 599.006 430.598 599.823 428.985 600.347C430.43 600.284 431.834 599.907 433.217 599.467C434.642 598.985 436.109 598.398 437.093 597.246C438.56 595.528 438.099 593.39 436.109 592.322Z" fill="#121212"/>
<path d="M448.994 672.507C449.267 671.019 449.33 669.49 449.288 667.981C448.512 670.244 448.051 673.68 447.674 676.404C447.57 676.278 447.486 676.152 447.402 676.027C446.354 674.434 445.663 672.653 444.783 670.977C443.903 669.238 442.855 667.541 442.206 665.781C442.52 669.301 444.741 673.973 447.423 676.299C447.528 676.383 447.632 676.446 447.737 676.509C447.025 677.787 446.208 679.002 445.453 680.259C443.651 683.15 441.808 686.042 440.09 688.996C437.324 693.585 435.019 698.404 432.526 703.118C432.4 703.328 432.295 703.537 432.17 703.768C432.882 702.971 433.531 702.112 434.16 701.253C437.68 696.35 440.907 691.238 443.735 685.895C444.741 683.989 445.663 682.061 446.543 680.07C447.192 678.562 447.863 677.074 448.282 675.482C448.114 675.817 447.947 676.131 447.779 676.446C447.758 676.425 447.737 676.404 447.716 676.383C448.261 675.168 448.743 673.869 448.994 672.507Z" fill="#121212"/>
<path d="M481.156 739.638C483.775 735.594 489.244 734.211 493.979 734.987C498.735 735.783 502.968 738.318 507.116 740.749C511.265 743.179 515.623 745.61 520.4 746.091C528.173 746.909 535.444 742.55 542.149 738.549C548.853 734.547 556.501 730.608 564.149 732.263C572.299 734.023 578.354 741.838 586.631 742.781C592.916 743.493 598.846 740.078 604.608 737.459C610.37 734.84 617.493 732.996 622.752 736.537" stroke="#F95D00" stroke-width="30" stroke-miterlimit="10" stroke-linecap="round" stroke-linejoin="round"/>
<path d="M587.971 735.531C593.503 735.531 597.987 731.047 597.987 725.516C597.987 719.985 593.503 715.501 587.971 715.501C582.44 715.501 577.956 719.985 577.956 725.516C577.956 731.047 582.44 735.531 587.971 735.531Z" fill="#FFE110"/>
<path d="M267.295 495.648C269.008 495.648 270.396 494.259 270.396 492.547C270.396 490.834 269.008 489.446 267.295 489.446C265.583 489.446 264.194 490.834 264.194 492.547C264.194 494.259 265.583 495.648 267.295 495.648Z" fill="#F95D00"/>
<path d="M275.194 491.499C276.907 491.499 278.295 490.111 278.295 488.398C278.295 486.685 276.907 485.297 275.194 485.297C273.482 485.297 272.093 486.685 272.093 488.398C272.093 490.111 273.482 491.499 275.194 491.499Z" fill="#F95D00"/>
<path d="M271.528 503.714C273.24 503.714 274.629 502.326 274.629 500.613C274.629 498.901 273.24 497.512 271.528 497.512C269.815 497.512 268.427 498.901 268.427 500.613C268.427 502.326 269.815 503.714 271.528 503.714Z" fill="#F95D00"/>
<path d="M279.427 499.545C281.139 499.545 282.528 498.156 282.528 496.444C282.528 494.731 281.139 493.343 279.427 493.343C277.714 493.343 276.326 494.731 276.326 496.444C276.326 498.156 277.714 499.545 279.427 499.545Z" fill="#F95D00"/>
<path d="M518.933 425.813C520.646 425.813 522.034 424.425 522.034 422.712C522.034 421 520.646 419.611 518.933 419.611C517.221 419.611 515.832 421 515.832 422.712C515.832 424.425 517.221 425.813 518.933 425.813Z" fill="#8255FF"/>
<path d="M525.45 419.674C527.162 419.674 528.551 418.286 528.551 416.573C528.551 414.861 527.162 413.472 525.45 413.472C523.737 413.472 522.349 414.861 522.349 416.573C522.349 418.286 523.737 419.674 525.45 419.674Z" fill="#8255FF"/>
<path d="M525.198 432.413C526.911 432.413 528.299 431.025 528.299 429.312C528.299 427.6 526.911 426.211 525.198 426.211C523.486 426.211 522.097 427.6 522.097 429.312C522.097 431.025 523.486 432.413 525.198 432.413Z" fill="#8255FF"/>
<path d="M531.693 426.295C533.406 426.295 534.794 424.907 534.794 423.194C534.794 421.482 533.406 420.093 531.693 420.093C529.981 420.093 528.592 421.482 528.592 423.194C528.592 424.907 529.981 426.295 531.693 426.295Z" fill="#8255FF"/>
<path d="M358.543 583.564L360.638 587.796" stroke="#FF57C8" stroke-width="10" stroke-miterlimit="10" stroke-linecap="round" stroke-linejoin="round"/>
<path d="M353.703 573.863L355.798 578.095" stroke="#FF57C8" stroke-width="10" stroke-miterlimit="10" stroke-linecap="round" stroke-linejoin="round"/>
<path d="M354.436 582.202L350.204 584.297" stroke="#FF57C8" stroke-width="10" stroke-miterlimit="10" stroke-linecap="round" stroke-linejoin="round"/>
<path d="M364.137 577.362L359.905 579.457" stroke="#FF57C8" stroke-width="10" stroke-miterlimit="10" stroke-linecap="round" stroke-linejoin="round"/>
<path d="M542.295 638.983L543.112 643.634" stroke="#03E1CE" stroke-width="10" stroke-miterlimit="10" stroke-linecap="round" stroke-linejoin="round"/>
<path d="M540.389 628.318L541.206 632.97" stroke="#03E1CE" stroke-width="10" stroke-miterlimit="10" stroke-linecap="round" stroke-linejoin="round"/>
<path d="M538.733 636.51L534.082 637.349" stroke="#03E1CE" stroke-width="10" stroke-miterlimit="10" stroke-linecap="round" stroke-linejoin="round"/>
<path d="M549.398 634.604L544.768 635.442" stroke="#03E1CE" stroke-width="10" stroke-miterlimit="10" stroke-linecap="round" stroke-linejoin="round"/>
<path d="M598.699 455.775L599.537 460.427" stroke="#FF57C8" stroke-width="10" stroke-miterlimit="10" stroke-linecap="round" stroke-linejoin="round"/>
<path d="M596.792 445.11L597.631 449.762" stroke="#FF57C8" stroke-width="10" stroke-miterlimit="10" stroke-linecap="round" stroke-linejoin="round"/>
<path d="M595.158 453.303L590.507 454.141" stroke="#FF57C8" stroke-width="10" stroke-miterlimit="10" stroke-linecap="round" stroke-linejoin="round"/>
<path d="M525.324 519.806L568.004 482.175L587.971 486.345C599.37 504.49 621.516 534.347 648.335 543.21L607.855 595.486C607.855 595.486 550.823 565.482 525.324 519.806Z" fill="#E7E2F2"/>
<path d="M567.983 482.175L587.951 486.345C585.206 492.002 580.994 497.03 575.861 501.64C575.023 495.585 572.111 489.027 567.983 482.175Z" fill="#D0CAE0"/>
<path d="M550.341 529.611L582.23 500.069" stroke="#8255FF" stroke-width="5" stroke-miterlimit="10" stroke-linecap="round" stroke-linejoin="round"/>
<path d="M558.659 538.579L589.396 507.821" stroke="#8255FF" stroke-width="5" stroke-miterlimit="10" stroke-linecap="round" stroke-linejoin="round"/>
<path d="M566.411 546.918L597.149 516.181" stroke="#8255FF" stroke-width="5" stroke-miterlimit="10" stroke-linecap="round" stroke-linejoin="round"/>
<path d="M574.143 555.278L604.88 524.541" stroke="#8255FF" stroke-width="5" stroke-miterlimit="10" stroke-linecap="round" stroke-linejoin="round"/>
<path d="M582.775 564.476L611.731 532.042" stroke="#8255FF" stroke-width="5" stroke-miterlimit="10" stroke-linecap="round" stroke-linejoin="round"/>
<path d="M591.512 573.716L620.469 541.303" stroke="#8255FF" stroke-width="5" stroke-miterlimit="10" stroke-linecap="round" stroke-linejoin="round"/>
<path d="M395.105 454.644L474.766 447.394" stroke="#8255FF" stroke-width="5" stroke-miterlimit="10" stroke-linecap="round" stroke-linejoin="round"/>
<path d="M398.122 471.091L477.783 463.842" stroke="#8255FF" stroke-width="5" stroke-miterlimit="10" stroke-linecap="round" stroke-linejoin="round"/>
<path d="M402.606 486.952L482.267 479.703" stroke="#8255FF" stroke-width="5" stroke-miterlimit="10" stroke-linecap="round" stroke-linejoin="round"/>
<path d="M407.194 503.987L486.855 496.737" stroke="#8255FF" stroke-width="5" stroke-miterlimit="10" stroke-linecap="round" stroke-linejoin="round"/>
<path d="M410.17 520.56L489.83 513.331" stroke="#8255FF" stroke-width="5" stroke-miterlimit="10" stroke-linecap="round" stroke-linejoin="round"/>
<path d="M411.196 536.882L490.857 529.632" stroke="#8255FF" stroke-width="5" stroke-miterlimit="10" stroke-linecap="round" stroke-linejoin="round"/>
<path d="M411.678 553.33L491.339 546.08" stroke="#8255FF" stroke-width="5" stroke-miterlimit="10" stroke-linecap="round" stroke-linejoin="round"/>
<path d="M410.128 569.903L489.81 562.674" stroke="#8255FF" stroke-width="5" stroke-miterlimit="10" stroke-linecap="round" stroke-linejoin="round"/>
<path d="M277.918 605.166L326.695 594.459L353.032 607.051C353.598 628.067 360.387 662.533 394.874 687.236C394.874 687.236 341.404 725.013 331.389 739.827C331.389 739.848 276.808 691.825 277.918 605.166Z" fill="#E7E2F2"/>
<path d="M326.695 594.459L353.032 607.051C353.032 607.051 332.813 614.49 329.461 618.806C329.482 618.827 329.251 598.712 326.695 594.459Z" fill="#D0CAE0"/>
<path d="M290.846 627.543L342.137 617.255" stroke="#8255FF" stroke-width="5" stroke-miterlimit="10" stroke-linecap="round" stroke-linejoin="round"/>
<path d="M294.24 644.389L345.133 632.257" stroke="#8255FF" stroke-width="5" stroke-miterlimit="10" stroke-linecap="round" stroke-linejoin="round"/>
<path d="M298.661 659.642L349.135 645.897" stroke="#8255FF" stroke-width="5" stroke-miterlimit="10" stroke-linecap="round" stroke-linejoin="round"/>
<path d="M305.156 673.701L355.002 657.819" stroke="#8255FF" stroke-width="5" stroke-miterlimit="10" stroke-linecap="round" stroke-linejoin="round"/>
<path d="M312.008 689.331L360.785 670.411" stroke="#8255FF" stroke-width="5" stroke-miterlimit="10" stroke-linecap="round" stroke-linejoin="round"/>
<path d="M319.257 702.783L368.034 683.884" stroke="#8255FF" stroke-width="5" stroke-miterlimit="10" stroke-linecap="round" stroke-linejoin="round"/>
</g>
<defs>
<clipPath id="clip0_38_9330">
<rect width="630" height="731" fill="white"/>
</clipPath>
</defs>
</svg>
