<svg width="662" height="731" viewBox="0 0 662 731" fill="none" xmlns="http://www.w3.org/2000/svg">
<g clip-path="url(#clip0_38_9556)">
<rect width="662" height="731" rx="24" fill="#D8DCFF"/>
<path d="M294.195 557.719C301.402 543.462 313.858 534.002 326.336 526.028C374.132 495.464 428.392 479.517 482.877 476.206C501.346 475.08 520.086 475.417 537.948 480.868C555.831 486.319 572.905 497.311 584.076 514.406C595.676 532.155 600.023 554.701 604.077 576.482C607.929 597.204 611.668 619.547 604.325 638.963C597.275 657.613 581.554 669.438 566.643 680.159C540.763 698.831 514.68 717.593 486.233 730.252C457.785 742.91 426.477 749.217 396.633 742.077C360.685 733.473 330.458 705.881 308.61 672.501C289.127 642.724 276.401 592.902 294.195 557.719Z" fill="#FFEDDC"/>
<path d="M368.208 553.147C379.042 549.273 389.876 545.422 401.476 540.984C407.445 538.709 414.179 541.232 417.152 546.886C430.959 573.058 441.906 600.74 450.217 629.233C452.087 635.652 449.97 642.589 444.789 646.846C437.919 652.5 429.586 656.329 420.959 657.658C403.098 623.692 385.236 589.748 368.208 553.147Z" fill="#D859D8"/>
<path d="M449.744 530.488C443.888 532.358 438.032 534.227 431.996 536.187C424.315 538.664 420.283 547.066 423.144 554.589C433.797 582.631 444.496 610.673 455.398 638.805C459.047 648.22 469.926 652.77 479.048 648.445C480.737 647.634 482.291 646.576 483.643 645.224C473.101 607.7 462.56 570.198 449.744 530.488Z" fill="#6225D5"/>
<path d="M565.584 467.084C527.452 484.067 489.048 501.072 448.28 518.19C441.929 520.87 438.325 527.65 439.676 534.407L462.11 646.418C463.664 654.211 470.218 660.743 478.012 662.275C485.805 663.807 494.341 660.248 500.063 654.549C492.044 665 491.076 681.983 496.909 692.907C499.207 697.187 504.883 698.223 508.554 695.002C578.22 633.917 616.353 609.209 637.278 544.813C639.688 537.425 640.521 529.587 638.944 521.974C634.192 498.865 618.605 478.12 596.555 467.444C586.824 462.759 575.472 462.692 565.584 467.084Z" fill="#8255FF"/>
<path d="M273.586 561.639C310.998 554.994 351 548.012 389.02 540.556C396.43 539.115 403.863 542.809 407.197 549.566C418.053 571.662 426.747 593.78 444.068 630.314C448.505 639.661 445.42 650.855 436.838 656.621C431.342 660.315 425.779 664.099 420.013 668.064C434.023 673.312 438.505 676.668 436.703 691.781C435.442 702.3 429.405 706.084 399.719 704.935C355.865 701.309 318.115 699.912 276.378 686.713C260.499 681.713 248.066 669.235 243.268 653.288C236.151 629.66 237.75 603.353 248.607 580.604C253.337 570.648 262.684 563.576 273.586 561.639Z" fill="#FF80FC"/>
<path d="M543.601 570.063C543.376 567.81 543.083 565.58 542.678 563.373C542.205 560.985 541.619 558.62 541.214 556.233C541.168 558.823 541.394 561.413 541.574 564.004C541.777 568.035 542.024 572.045 542.047 576.076C542.024 582.315 541.484 587.901 540.425 593.555C539.772 597.046 538.421 602.024 537.384 604.524C536.596 606.348 535.605 608.083 534.614 609.795C533.465 611.777 532.339 613.781 531.1 615.718C528.375 620.155 525.154 623.512 521.595 627.701C519.884 629.706 518.69 631.44 517.271 633.107C514.703 636.012 511.978 638.783 509.568 641.823C506.324 645.9 502.495 649.527 499.725 653.986C497.968 656.734 496.684 659.73 495.67 662.816C495.017 664.663 494.454 666.532 494.049 668.447C493.801 669.911 493.643 671.397 493.576 672.884C493.418 676.758 493.531 680.654 493.981 684.529C494.004 684.664 494.004 684.776 494.026 684.911C494.049 684.619 494.071 684.326 494.094 684.056C494.296 681.127 494.589 678.222 494.927 675.294C495.333 671.577 495.625 668.537 496.932 664.708C498.171 660.924 499.139 658.266 501.279 654.91C503.644 651.058 506.73 648.13 509.838 644.346C512.563 640.922 515.536 637.747 518.464 634.503C520.244 632.431 521.055 631.125 522.812 629.075C526.213 625.066 529.839 621.237 532.609 616.754C533.871 614.795 535.019 612.79 536.168 610.763C537.227 608.916 538.308 607.047 539.119 605.065C540.943 600.222 542.092 595.132 542.835 590.019C543.736 583.374 544.142 576.707 543.601 570.063ZM523.713 677.321C522.969 676.195 521.956 675.294 520.875 674.505C519.118 673.131 517.136 672.636 514.951 672.951C512.653 673.154 510.424 673.83 508.374 674.888C505.603 676.285 503.283 678.425 501.099 680.587C499.409 682.366 497.652 684.213 496.616 686.488C497.63 685.024 499.026 683.808 500.4 682.637C501.797 681.488 502.608 680.857 504.049 679.753C504.455 679.506 506.504 677.929 507.54 677.366C509.793 676.105 511.122 675.474 513.442 674.798C515.897 674.19 517.428 673.762 519.681 674.731C521.055 675.361 522.429 676.15 523.487 677.163L523.758 677.434C523.735 677.366 523.735 677.343 523.713 677.321Z" fill="#2E2E2E"/>
<path d="M517.721 584.838C515.491 586.122 513.352 587.563 511.347 589.185C510.378 589.996 509.477 590.852 508.554 591.708C509.05 588.464 509.275 585.199 509.432 581.933C511.302 581.482 513.194 581.054 515.086 580.626C523.532 578.757 532.046 577.112 540.47 575.108C535.92 575.288 531.371 575.671 526.866 576.392C522.721 577.045 518.645 578.036 514.568 578.914C510.401 579.86 506.234 580.806 502.112 581.865C498.216 582.879 494.387 584.05 490.535 585.199C489.814 585.424 489.071 585.649 488.373 585.942C488.891 585.829 489.499 585.762 489.949 585.694C494.341 585.198 498.891 584.41 503.261 583.419C505.266 582.946 507.248 582.473 509.252 582C508.149 586.663 507.135 591.325 505.964 595.965C504.905 600.537 504.004 605.132 503.013 609.704C502.901 610.2 502.788 610.673 502.675 611.168C502.878 610.718 503.081 610.267 503.283 609.794C505.333 604.839 507 599.704 508.126 594.433C508.261 593.735 508.374 593.037 508.486 592.339C509.793 591.46 511.099 590.582 512.428 589.748C514.748 588.352 517.158 587.091 519.568 585.874C524.636 583.171 529.771 580.604 535.019 578.284C535.673 578.013 537.024 577.428 538.06 577.135C538.105 577.112 538.173 577.112 538.218 577.09C537.137 577.18 536.056 577.405 534.997 577.676C528.916 579.185 523.104 581.685 517.721 584.838ZM462.29 641.148C461.682 637.364 461.344 633.535 460.466 629.796C459.722 626.8 458.754 623.849 457.988 620.854C457.132 617.655 456.411 614.389 455.646 611.168C454.767 607.542 453.979 603.871 453.393 600.177C452.515 594.501 451.929 588.78 450.848 583.149C450.037 578.892 449.361 574.59 448.415 570.355C447.244 565.333 445.87 560.377 444.722 555.332C443.798 551.278 443.257 547.133 442.447 543.056C441.681 539.07 440.532 535.173 439.316 531.322C439.609 533.957 440.104 537.538 440.352 539.385C440.87 543.732 441.343 547.268 442.176 551.773C443.28 557.855 444.992 563.801 446.433 569.792C447.132 572.675 447.65 575.626 448.19 578.531C448.753 581.685 449.384 584.816 449.879 587.991C450.623 592.879 451.186 597.767 451.997 602.632C452.695 606.686 453.686 610.673 454.609 614.66C455.736 619.795 457.245 624.818 458.641 629.886C459.722 634.03 460.556 638.242 461.907 642.319C462.223 643.31 462.56 644.278 462.898 645.247C462.696 643.873 462.493 642.522 462.29 641.148ZM420.126 667.185C417.242 665.631 414.359 663.987 411.341 662.68C407.737 661.104 403.998 659.842 400.35 658.423C396.16 656.869 393.142 655.585 389.088 653.693C385.416 652.027 381.79 650.225 378.456 647.972C378.411 647.927 378.344 647.905 378.299 647.86L378.231 647.454C384.268 644.098 390.214 640.517 395.62 636.192C399.561 633.039 403.075 629.368 406.431 625.606C406.724 625.268 406.994 624.953 407.287 624.615L405.868 625.764C401.16 629.413 396.791 633.062 392.489 636.373C388.412 639.256 382.826 643.265 378.164 647.049C377.691 644.031 377.308 641.463 376.947 638.535C376.542 635.472 376.091 632.544 375.866 628.737C375.731 624.165 376.069 619.57 376.362 614.997C376.497 613.331 376.655 611.687 376.857 610.02C376.88 609.907 376.88 609.794 376.902 609.682C376.79 609.997 376.7 610.313 376.61 610.628C376.317 611.619 376.024 612.61 375.776 613.624C374.672 618.286 373.929 623.061 374.042 627.859C374.222 634.481 375.799 640.967 377.938 647.229C377.848 647.297 377.781 647.364 377.691 647.432C374.267 645.067 371.114 642.206 367.938 638.895C366.699 637.656 364.402 635.044 363.884 634.368C362.487 632.521 361.316 630.516 360.145 628.512C357.194 623.647 356.383 621.349 356.023 615.628C355.189 621.98 356.248 625.133 359.311 630.629C361.361 634.458 364.199 637.724 367.24 640.787C370.573 644.256 374.222 647.409 378.276 650C381.587 652.162 385.146 653.874 388.75 655.495C394.989 658.468 401.521 660.766 407.985 663.198C411.904 664.753 416.702 667.208 421.319 668.92C423.166 669.618 424.991 670.339 426.815 671.037C424.63 669.685 422.4 668.424 420.126 667.185ZM445.195 631.17C443.685 626.575 441.118 621.957 438.865 616.822C437.401 613.443 435.171 608.285 433.324 604.186C431.68 600.672 429.923 597.226 428.279 593.712C426.477 589.883 425.238 586.955 423.774 583.261C422.513 580.108 421.162 577.022 419.81 573.914C418.774 571.391 417.558 568.959 416.387 566.504C415.418 564.454 414.562 562.359 413.639 560.287C412.22 557.246 410.801 554.183 408.886 551.413C407.94 550.084 407.039 548.687 405.688 547.719C406.454 548.507 406.972 549.453 407.467 550.422C408.03 551.548 408.593 552.674 409.089 553.823C410.238 556.526 411.837 560.715 412.918 563.125C414.202 566.211 415.711 569.207 417.107 572.225C419.495 577.653 421.387 582.045 423.482 587.383C425.869 593.127 428.662 598.69 431.387 604.276C433.685 609.321 435.802 614.344 437.807 618.894C439.046 621.687 440.465 624.412 441.974 627.093C443.167 629.255 444.519 631.35 445.149 633.715C445.397 634.638 445.622 635.562 445.803 636.485C445.825 634.706 445.713 632.904 445.195 631.17Z" fill="#2E2E2E"/>
<path d="M587.387 649.301L587.185 648.49C587.23 648.941 587.275 649.414 587.297 649.864C587.477 652.365 587.545 654.887 587.658 657.41C587.86 660.406 587.928 663.379 587.793 666.374C587.635 670.609 587.23 675.812 586.644 679.551C585.585 685.475 584.121 691.331 582.455 697.119C581.779 699.259 580.653 702.277 580.09 704.012C578.198 708.561 576.103 712.999 573.963 717.413C572.544 720.049 571.103 722.706 569.684 725.342C568.31 727.527 566.936 729.689 565.562 731.874C564.503 733.293 562.926 735.5 562.138 736.559C560.043 739.126 557.836 741.604 555.561 744.036C554.097 745.523 552.566 746.987 551.079 748.451C547.633 751.469 544.164 754.6 540.673 757.078C538.421 758.677 536.056 760.141 533.578 761.425C531.528 762.551 528.488 763.79 526.798 764.623C521.19 766.786 515.514 768.925 509.545 769.826C506.775 770.277 503.283 770.479 500.108 770.322C496.166 770.254 492.765 769.894 489.026 769.128C485.242 768.385 480.602 767.236 477.449 765.885C471.277 763.114 466.119 759.33 461.885 754.082C460.601 752.348 458.889 749.33 457.853 746.965C457.02 745.208 456.231 743.158 455.646 741.108C460.961 740.388 466.209 738.833 470.579 736.401C473.777 734.667 476.705 732.414 478.53 729.193C480.197 726.333 482.043 722.751 480.534 719.463C479.656 717.796 478.462 716.175 476.773 715.274C473.372 713.697 469.723 713.584 466.344 715.274C463.799 716.49 461.502 718.202 459.497 720.184C458.281 721.468 457.38 722.977 456.546 724.531C453.844 729.621 453.1 733.788 454.294 739.487C454.362 739.779 454.407 740.072 454.497 740.343H454.452C450.893 740.748 447.289 740.861 443.708 740.455C441.906 740.23 438.64 739.464 436.433 738.924C430.194 737.482 424.63 735.432 419.382 731.761C414.968 728.698 410.846 725.274 407.174 721.017C405.282 718.81 403.683 716.265 401.926 713.652C400.214 711.039 398.48 708.449 396.768 705.814C398.48 709.71 400.597 713.427 403.007 716.918C404.359 718.877 405.733 720.814 407.332 722.594C409.81 725.319 412.558 727.774 415.463 730.027C418.166 732.121 421.004 734.081 424.067 735.635C428.504 737.865 433.324 739.194 438.167 740.275C440.239 740.771 442.311 741.244 444.406 741.446C447.672 741.717 451.186 741.649 454.7 741.244C455.353 743.609 456.321 745.861 457.335 748.068C458.326 750.163 459.407 752.213 460.736 754.105C461.614 755.343 462.65 756.47 463.732 757.551C467.516 761.447 472.133 764.533 477.088 766.718C481.188 768.43 485.535 769.353 489.859 770.209C492.472 770.682 495.13 771.043 497.788 771.155C501.887 771.358 506.031 771.358 510.108 770.637C516.077 769.669 521.775 767.551 527.361 765.321C530.537 763.857 533.736 762.483 536.709 760.682C540.177 758.654 543.376 756.199 546.439 753.609C548.218 752.1 549.93 750.546 551.687 749.037C553.038 747.708 554.39 746.379 555.764 745.05C558.377 742.28 560.967 739.464 563.287 736.423C564.391 734.847 565.607 733.36 566.665 731.738C568.174 729.261 569.841 726.896 571.215 724.328C572.386 722.143 573.58 719.959 574.751 717.774C576.013 715.116 577.342 712.481 578.558 709.778C579.346 707.953 580.135 706.129 580.9 704.304C581.509 702.525 582.139 700.768 582.747 698.989C583.738 696.106 584.414 693.155 585.248 690.227C586.058 686.781 586.847 683.335 587.477 679.844C587.95 676.555 588.288 673.267 588.491 669.956C588.987 663.086 588.874 656.081 587.387 649.301ZM454.79 736.851C454.272 732.527 455.195 729.126 457.11 725.454C458.056 723.675 458.934 722.121 460.173 720.837C462.223 718.81 464.182 717.368 466.84 716.062C467.966 715.499 469.813 714.981 471.052 714.958C473.011 714.913 475.061 715.409 476.638 716.22C478.034 717.075 479.115 718.472 479.926 720.251C480.805 722.414 479.633 725.68 478.124 728.18C476.413 731.356 474.025 733.45 470.849 735.252C466.277 738.023 460.556 739.554 455.42 740.275C455.127 739.081 454.902 737.933 454.79 736.851Z" fill="#EFC7A5"/>
<path d="M505.378 399.985C511.896 399.985 517.181 394.701 517.181 388.183C517.181 381.664 511.896 376.38 505.378 376.38C498.86 376.38 493.576 381.664 493.576 388.183C493.576 394.701 498.86 399.985 505.378 399.985Z" fill="#FFEC3E"/>
<path d="M303.092 748.721C309.61 748.721 314.894 743.437 314.894 736.919C314.894 730.401 309.61 725.116 303.092 725.116C296.573 725.116 291.289 730.401 291.289 736.919C291.289 743.437 296.573 748.721 303.092 748.721Z" fill="#FF8B17"/>
<path d="M286.987 426.451C288.828 426.451 290.321 424.958 290.321 423.117C290.321 421.276 288.828 419.784 286.987 419.784C285.146 419.784 283.654 421.276 283.654 423.117C283.654 424.958 285.146 426.451 286.987 426.451Z" fill="#FFEC3E"/>
<path d="M294.443 420.392C296.284 420.392 297.776 418.899 297.776 417.058C297.776 415.217 296.284 413.725 294.443 413.725C292.602 413.725 291.109 415.217 291.109 417.058C291.109 418.899 292.602 420.392 294.443 420.392Z" fill="#FFEC3E"/>
<path d="M293.181 434.041C295.022 434.041 296.515 432.549 296.515 430.708C296.515 428.867 295.022 427.374 293.181 427.374C291.34 427.374 289.848 428.867 289.848 430.708C289.848 432.549 291.34 434.041 293.181 434.041Z" fill="#FFEC3E"/>
<path d="M300.614 427.96C302.455 427.96 303.948 426.467 303.948 424.626C303.948 422.785 302.455 421.293 300.614 421.293C298.773 421.293 297.281 422.785 297.281 424.626C297.281 426.467 298.773 427.96 300.614 427.96Z" fill="#FFEC3E"/>
<path d="M535.538 445.438C537.379 445.438 538.871 443.946 538.871 442.105C538.871 440.264 537.379 438.771 535.538 438.771C533.696 438.771 532.204 440.264 532.204 442.105C532.204 443.946 533.696 445.438 535.538 445.438Z" fill="#FF8B17"/>
<path d="M542.97 439.357C544.811 439.357 546.304 437.864 546.304 436.023C546.304 434.182 544.811 432.69 542.97 432.69C541.129 432.69 539.637 434.182 539.637 436.023C539.637 437.864 541.129 439.357 542.97 439.357Z" fill="#FF8B17"/>
<path d="M541.731 453.006C543.573 453.006 545.065 451.514 545.065 449.673C545.065 447.832 543.573 446.339 541.731 446.339C539.89 446.339 538.398 447.832 538.398 449.673C538.398 451.514 539.89 453.006 541.731 453.006Z" fill="#FF8B17"/>
<path d="M549.164 446.947C551.005 446.947 552.498 445.455 552.498 443.614C552.498 441.773 551.005 440.28 549.164 440.28C547.323 440.28 545.831 441.773 545.831 443.614C545.831 445.455 547.323 446.947 549.164 446.947Z" fill="#FF8B17"/>
<path d="M509.095 716.242C510.936 716.242 512.428 714.75 512.428 712.908C512.428 711.067 510.936 709.575 509.095 709.575C507.253 709.575 505.761 711.067 505.761 712.908C505.761 714.75 507.253 716.242 509.095 716.242Z" fill="#FF80FC"/>
<path d="M518.217 713.224C520.058 713.224 521.55 711.731 521.55 709.89C521.55 708.049 520.058 706.557 518.217 706.557C516.376 706.557 514.883 708.049 514.883 709.89C514.883 711.731 516.376 713.224 518.217 713.224Z" fill="#FF80FC"/>
<path d="M512.18 725.522C514.021 725.522 515.514 724.029 515.514 722.188C515.514 720.347 514.021 718.855 512.18 718.855C510.339 718.855 508.847 720.347 508.847 722.188C508.847 724.029 510.339 725.522 512.18 725.522Z" fill="#FF80FC"/>
<path d="M521.303 722.504C523.144 722.504 524.636 721.011 524.636 719.17C524.636 717.329 523.144 715.837 521.303 715.837C519.461 715.837 517.969 717.329 517.969 719.17C517.969 721.011 519.461 722.504 521.303 722.504Z" fill="#FF80FC"/>
<path d="M637.075 694.754L638.989 699.439M632.66 683.965L634.597 688.65M632.795 692.952L628.088 694.867M643.584 688.538L638.877 690.452" stroke="#FF80FC" strokeWidth="10" stroke-miterlimit="10" strokeLinecap="round" strokeLinejoin="round"/>
<path d="M243.359 702.976L245.273 707.683M238.944 692.209L240.858 696.894M239.057 701.174L234.372 703.111M249.845 696.782L245.138 698.696" stroke="#5288FF" strokeWidth="10" stroke-miterlimit="10" strokeLinecap="round" strokeLinejoin="round"/>
<path d="M292.798 510.712L293.159 515.758M291.988 499.09L292.348 504.135M289.285 507.649L284.239 508.009M300.907 506.838L295.862 507.199" stroke="#FF80FC" strokeWidth="10" stroke-miterlimit="10" strokeLinecap="round" strokeLinejoin="round"/>
<path d="M628.223 398.927L630.025 403.657M624.101 388.025L625.903 392.755M623.988 397.012L619.236 398.814M634.867 392.868L630.137 394.67" stroke="#5288FF" strokeWidth="10" stroke-miterlimit="10" strokeLinecap="round" strokeLinejoin="round"/>
<path d="M243.449 478.075C249.967 478.075 255.251 472.791 255.251 466.273C255.251 459.754 249.967 454.47 243.449 454.47C236.93 454.47 231.646 459.754 231.646 466.273C231.646 472.791 236.93 478.075 243.449 478.075Z" fill="#A288FF"/>
<mask id="mask0_38_9556" style="mask-type:luminance" maskUnits="userSpaceOnUse" x="235" y="451" width="24" height="25">
<path d="M252.526 473.818C258.274 470.743 260.441 463.591 257.366 457.844C254.292 452.096 247.14 449.929 241.392 453.004C235.644 456.078 233.478 463.23 236.552 468.978C239.627 474.726 246.779 476.892 252.526 473.818Z" fill="white"/>
</mask>
<g mask="url(#mask0_38_9556)">
<path d="M223.425 466.166L255.341 449.092L255.575 449.529L223.659 466.602L223.425 466.166Z" fill="white"/>
</g>
<mask id="mask1_38_9556" style="mask-type:luminance" maskUnits="userSpaceOnUse" x="234" y="452" width="24" height="25">
<path d="M251.59 474.667C257.337 471.593 259.504 464.441 256.429 458.693C253.355 452.946 246.203 450.779 240.455 453.853C234.708 456.928 232.541 464.08 235.615 469.828C238.69 475.575 245.842 477.742 251.59 474.667Z" fill="white"/>
</mask>
<g mask="url(#mask1_38_9556)">
<path d="M224.665 468.457L256.581 451.384L256.814 451.82L224.898 468.894L224.665 468.457Z" fill="white"/>
</g>
<mask id="mask2_38_9556" style="mask-type:luminance" maskUnits="userSpaceOnUse" x="233" y="453" width="24" height="24">
<path d="M250.653 475.517C256.4 472.443 258.567 465.291 255.493 459.543C252.418 453.795 245.266 451.629 239.519 454.703C233.771 457.778 231.604 464.93 234.679 470.677C237.753 476.425 244.905 478.592 250.653 475.517Z" fill="white"/>
</mask>
<g mask="url(#mask2_38_9556)">
<path d="M225.884 470.758L257.8 453.685L258.034 454.122L226.118 471.195L225.884 470.758Z" fill="white"/>
</g>
<mask id="mask3_38_9556" style="mask-type:luminance" maskUnits="userSpaceOnUse" x="232" y="454" width="24" height="24">
<path d="M249.716 476.367C255.464 473.292 257.631 466.14 254.556 460.393C251.481 454.645 244.329 452.478 238.582 455.553C232.834 458.628 230.667 465.779 233.742 471.527C236.817 477.275 243.968 479.442 249.716 476.367Z" fill="white"/>
</mask>
<g mask="url(#mask3_38_9556)">
<path d="M227.123 473.05L259.039 455.977L259.273 456.413L227.357 473.487L227.123 473.05Z" fill="white"/>
</g>
<mask id="mask4_38_9556" style="mask-type:luminance" maskUnits="userSpaceOnUse" x="231" y="455" width="25" height="24">
<path d="M248.779 477.217C254.527 474.142 256.694 466.99 253.619 461.243C250.545 455.495 243.393 453.328 237.645 456.403C231.898 459.477 229.731 466.629 232.805 472.377C235.88 478.124 243.032 480.291 248.779 477.217Z" fill="white"/>
</mask>
<g mask="url(#mask4_38_9556)">
<path d="M228.332 475.332L260.248 458.259L260.482 458.695L228.566 475.769L228.332 475.332Z" fill="white"/>
</g>
<mask id="mask5_38_9556" style="mask-type:luminance" maskUnits="userSpaceOnUse" x="230" y="455" width="25" height="25">
<path d="M247.843 478.066C253.59 474.992 255.757 467.84 252.683 462.092C249.608 456.345 242.456 454.178 236.708 457.252C230.961 460.327 228.794 467.479 231.868 473.226C234.943 478.974 242.095 481.141 247.843 478.066Z" fill="white"/>
</mask>
<g mask="url(#mask5_38_9556)">
<path d="M229.571 477.623L261.487 460.55L261.721 460.987L229.805 478.06L229.571 477.623Z" fill="white"/>
</g>
<mask id="mask6_38_9556" style="mask-type:luminance" maskUnits="userSpaceOnUse" x="229" y="456" width="25" height="25">
<path d="M246.906 478.916C252.653 475.841 254.82 468.69 251.746 462.942C248.671 457.194 241.519 455.027 235.772 458.102C230.024 461.177 227.857 468.328 230.932 474.076C234.006 479.824 241.158 481.991 246.906 478.916Z" fill="white"/>
</mask>
<g mask="url(#mask6_38_9556)">
<path d="M230.791 479.925L262.707 462.851L262.941 463.288L231.024 480.361L230.791 479.925Z" fill="white"/>
</g>
<mask id="mask7_38_9556" style="mask-type:luminance" maskUnits="userSpaceOnUse" x="228" y="457" width="25" height="25">
<path d="M245.969 479.766C251.717 476.691 253.884 469.539 250.809 463.792C247.734 458.044 240.583 455.877 234.835 458.952C229.087 462.026 226.92 469.178 229.995 474.926C233.07 480.673 240.222 482.84 245.969 479.766Z" fill="white"/>
</mask>
<g mask="url(#mask7_38_9556)">
<path d="M232.01 482.226L263.926 465.153L264.16 465.59L232.244 482.663L232.01 482.226Z" fill="white"/>
</g>
<path d="M327.035 490.261L388.097 520.285" stroke="#5288FF" strokeWidth="10" stroke-miterlimit="10" strokeLinecap="round" strokeLinejoin="round"/>
<path d="M374.335 478.233L405.688 514.068M359.672 461.453L368.095 471.093M345.572 445.326L352.306 453.029" stroke="#FFEC3E" strokeWidth="10" stroke-miterlimit="10" strokeLinecap="round" strokeLinejoin="round"/>
<path d="M406.476 477.174L411.341 489.427M376.474 401.697L399.719 460.169" stroke="#FF8B17" strokeWidth="10" stroke-miterlimit="10" strokeLinecap="round" strokeLinejoin="round"/>
<path d="M424.09 436.969L426.793 493.256M422.22 398.364L423.234 419.581" stroke="#5288FF" strokeWidth="10" stroke-miterlimit="10" strokeLinecap="round" strokeLinejoin="round"/>
<path d="M448.505 492.49L445.848 504.608M458.799 445.799L451.343 479.697M462.898 427.239L461.164 435.145" stroke="#FFEC3E" strokeWidth="10" stroke-miterlimit="10" strokeLinecap="round" strokeLinejoin="round"/>
<path d="M326.787 375.84H337.553L332.17 386.156L326.787 375.84Z" fill="#FFEDDC"/>
<path d="M229.574 386.043L236.759 382.462L224.776 366.132L229.574 386.043Z" fill="#3AFCCE"/>
<path d="M217.907 663.536L216.668 648.49L224.101 654.302L217.907 663.536Z" fill="#FFEDDC"/>
<path d="M540.02 786.426L549.615 782.867V789.197L540.02 786.426ZM633.629 619.57V608.803L641.219 614.187L633.629 619.57Z" fill="#FFEDDC"/>
<path d="M572.386 414.603H580.473L574.797 400.954L572.386 414.603Z" fill="#3AFCCE"/>
<path d="M637.097 458.682H642.773L633.291 469.043L637.097 458.682Z" fill="#FFEDDC"/>
</g>
<defs>
<clipPath id="clip0_38_9556">
<rect width="662" height="731" rx="24" fill="white"/>
</clipPath>
</defs>
</svg>
