<svg width="1280" height="523" viewBox="0 0 1280 523" fill="none" xmlns="http://www.w3.org/2000/svg">
<rect width="1280" height="523" rx="24" fill="#E0FFF7"/>
<g clip-path="url(#clip0_38_9474)">
<path d="M1089.17 467.614L1090.4 337.935C1090.46 332.734 1088.58 327.71 1085.14 323.817C1065.12 301.188 995.433 222.675 989.978 220.09C983.607 217.07 959.532 206.92 942.232 219.228C919.492 235.41 933.485 274.766 932.172 294.007C930.848 313.445 931.734 353.042 931.299 377.971C932.089 404.789 971.532 433.283 971.532 439.192V466.824L1089.17 467.614Z" fill="#FBBB98"/>
<path d="M1089.17 468.259H1089.17L971.532 467.468C971.18 467.464 970.896 467.18 970.896 466.828V439.192C970.896 437.544 966.481 432.966 961.37 427.666C949.358 415.216 931.204 396.394 930.663 377.986C930.825 368.651 930.805 357.5 930.781 345.702C930.746 326.263 930.706 306.161 931.536 293.963C931.892 288.718 931.082 281.805 930.224 274.489C927.932 254.955 925.082 230.643 941.86 218.703C959.184 206.375 983.279 216.201 990.255 219.509C995.635 222.058 1058.74 293.007 1085.62 323.39C1089.17 327.406 1091.1 332.572 1091.05 337.939L1089.81 467.618C1089.81 467.974 1089.52 468.259 1089.17 468.259ZM972.18 466.188L1088.54 466.97L1089.76 337.931C1089.81 332.88 1088 328.022 1084.66 324.244C1041.52 275.485 993.931 222.671 989.71 220.671C982.896 217.442 959.366 207.829 942.611 219.75C926.449 231.248 929.252 255.141 931.505 274.339C932.37 281.718 933.189 288.686 932.821 294.05C931.991 306.204 932.03 326.283 932.066 345.698C932.09 357.504 932.109 368.658 931.947 377.979C932.473 395.86 950.418 414.465 962.295 426.773C968.789 433.508 972.18 437.117 972.18 439.188V466.188Z" fill="#FC9247"/>
<path d="M956.467 528.401V466.623C956.467 461.437 963.807 457.231 972.862 457.231H1085.9C1094.96 457.231 1102.3 461.437 1102.3 466.623V528.401H956.467Z" fill="#F16832"/>
<path d="M837.952 389.895L821.553 73.9321C821.312 69.3234 824.853 65.3946 829.462 65.1574L981.789 57.2523C986.398 57.0112 990.327 60.5527 990.564 65.1614L1006.96 381.124C1007.2 385.733 1003.66 389.662 999.054 389.899L846.726 397.804C842.122 398.045 838.193 394.504 837.952 389.895Z" fill="#327B32"/>
<path d="M852.323 387.216C851.224 387.216 850.177 386.816 849.35 386.073C848.469 385.279 847.947 384.188 847.888 383.002L832.149 79.7703C832.086 78.5845 832.493 77.4462 833.287 76.5648C834.082 75.6833 835.173 75.1616 836.358 75.1023L975.959 67.8573C977.148 67.798 978.283 68.2012 979.164 68.9956C980.046 69.7901 980.567 70.881 980.627 72.0668L996.366 375.303C996.492 377.749 994.603 379.844 992.156 379.971L852.556 387.216C852.481 387.212 852.402 387.216 852.323 387.216ZM976.196 70.13C976.156 70.13 976.121 70.13 976.081 70.134L836.481 77.379C835.904 77.4106 835.374 77.6596 834.987 78.0904C834.6 78.5173 834.406 79.0707 834.434 79.6477L850.173 382.884C850.204 383.461 850.453 383.99 850.884 384.378C851.311 384.765 851.868 384.967 852.441 384.931L992.042 377.686C993.231 377.623 994.148 376.607 994.085 375.417L978.346 72.1853C978.314 71.6083 978.065 71.0786 977.635 70.6913C977.239 70.3237 976.729 70.13 976.196 70.13Z" fill="#A5D6A7"/>
<path d="M992.101 378.82L969.69 379.982C969.686 379.978 969.682 379.974 969.678 379.97C968.564 365.698 979.702 353.425 994.074 353.192L994.078 353.196L995.228 375.35C995.323 377.172 993.923 378.725 992.101 378.82Z" fill="#A5D6A7"/>
<path d="M874.418 384.931L852.501 386.069C850.679 386.164 849.126 384.765 849.031 382.943L847.881 360.789C847.889 360.781 847.889 360.777 847.897 360.773C861.999 359.82 874.063 370.781 874.43 384.923C874.426 384.923 874.422 384.923 874.418 384.931Z" fill="#A5D6A7"/>
<path d="M980.67 94.9082C966.572 96.1414 954.386 85.4458 953.659 71.4577C953.635 71.0229 953.635 70.5882 953.631 70.1573L976.022 68.9953C977.844 68.9004 979.398 70.2996 979.492 72.1217L980.67 94.9082C980.67 94.9043 980.67 94.9043 980.67 94.9082Z" fill="#A5D6A7"/>
<path d="M834.491 102.505C834.483 102.497 834.479 102.497 834.475 102.489L833.294 79.7029C833.199 77.8808 834.598 76.3274 836.42 76.2326L858.317 75.0942C858.361 75.5251 858.4 75.9598 858.424 76.3907C859.143 90.2207 848.396 102.003 834.491 102.505Z" fill="#A5D6A7"/>
<path d="M913.013 285.774C945.658 285.774 972.123 259.309 972.123 226.663C972.123 194.017 945.658 167.553 913.013 167.553C880.367 167.553 853.902 194.017 853.902 226.663C853.902 259.309 880.367 285.774 913.013 285.774Z" fill="#A5D6A7"/>
<path d="M933.554 236.168C934.02 245.184 927.921 250.88 919.198 252.453L919.775 263.556L911.542 263.983L910.957 252.734C904.665 252.089 898.546 249.493 893.949 245.698L897.771 235.864C902.957 240.378 910.115 243.066 915.19 242.805C919.649 242.572 922.23 240.647 922.064 237.441C921.554 227.607 896.265 234.67 895.305 216.192C894.89 208.22 899.953 202.429 908.246 200.505L907.684 189.702L915.918 189.275L916.463 199.781C922.052 200.09 927.506 201.896 931.633 204.52L927.953 214.497C922.708 211.481 916.562 209.71 912.72 209.908C909.084 210.097 906.688 211.639 906.835 214.473C907.34 224.082 932.649 217.39 933.554 236.168Z" fill="#327B32"/>
<path d="M842.146 360.801L897.292 49.2569C898.095 44.7154 902.431 41.6838 906.976 42.4862L1057.17 69.075C1061.71 69.8773 1064.75 74.2133 1063.94 78.7587L1008.8 390.303C1008 394.844 1003.66 397.876 999.114 397.074L848.917 370.485C844.376 369.678 841.344 365.346 842.146 360.801Z" fill="#409140"/>
<path d="M995.41 385.904C995.153 385.904 994.892 385.88 994.631 385.836L856.984 361.473C854.569 361.046 852.956 358.734 853.383 356.323L906.308 57.328C906.513 56.158 907.165 55.1422 908.138 54.4584C909.11 53.7786 910.292 53.5177 911.458 53.7232L1049.11 78.0907C1050.28 78.2963 1051.29 78.9484 1051.97 79.9207C1052.65 80.8931 1052.92 82.0749 1052.71 83.2409L999.785 382.236C999.402 384.386 997.525 385.904 995.41 385.904ZM910.679 55.9367C910.24 55.9367 909.814 56.071 909.446 56.328C908.972 56.66 908.655 57.154 908.557 57.7232L855.632 356.718C855.422 357.892 856.209 359.014 857.383 359.22L995.031 383.583C996.201 383.789 997.327 383.006 997.533 381.832L1050.46 82.8377C1050.56 82.2686 1050.43 81.6954 1050.1 81.2251C1049.77 80.7508 1049.28 80.4346 1048.71 80.3358L911.059 55.9683C910.932 55.9485 910.806 55.9367 910.679 55.9367Z" fill="#A5D6A7"/>
<path d="M994.835 384.71L972.736 380.797C972.732 380.793 972.732 380.789 972.729 380.785C974.859 366.627 988.472 357.181 1002.53 360.184C1002.53 360.184 1002.53 360.188 1002.53 360.188L998.665 382.034C998.345 383.833 996.63 385.03 994.835 384.71Z" fill="#A5D6A7"/>
<path d="M878.795 364.172L857.183 360.346C855.388 360.03 854.187 358.315 854.507 356.52L858.372 334.674C858.38 334.67 858.384 334.667 858.392 334.663C872.349 336.908 881.633 350.303 878.807 364.164C878.803 364.164 878.803 364.168 878.795 364.172Z" fill="#A5D6A7"/>
<path d="M1047.61 105.51C1033.59 103.537 1024.12 90.3755 1026.57 76.5811C1026.64 76.1542 1026.74 75.7313 1026.83 75.3044L1048.91 79.2135C1050.7 79.5297 1051.91 81.2451 1051.59 83.0395L1047.61 105.506C1047.61 105.51 1047.61 105.51 1047.61 105.51Z" fill="#A5D6A7"/>
<path d="M903.471 80.0119C903.467 80.004 903.463 80 903.459 79.9921L907.435 57.5258C907.752 55.7313 909.467 54.5298 911.261 54.8499L932.854 58.6721C932.799 59.1029 932.744 59.5337 932.665 59.9606C930.253 73.589 917.131 82.6482 903.471 80.0119Z" fill="#A5D6A7"/>
<path d="M952.026 277.766C984.672 277.766 1011.14 251.301 1011.14 218.655C1011.14 186.01 984.672 159.545 952.026 159.545C919.381 159.545 892.916 186.01 892.916 218.655C892.916 251.301 919.381 277.766 952.026 277.766Z" fill="#A5D6A7"/>
<path d="M969.905 232.541C968.332 241.43 961.107 245.608 952.253 245.177L950.316 256.121L942.197 254.683L944.162 243.588C938.178 241.544 932.798 237.635 929.174 232.904L935.111 224.181C939.15 229.746 945.514 233.979 950.522 234.865C954.917 235.643 957.869 234.347 958.427 231.189C960.142 221.489 933.913 222.683 937.138 204.462C938.53 196.6 944.767 192.098 953.277 192.09L955.162 181.438L963.28 182.877L961.446 193.236C966.822 194.794 971.731 197.782 975.162 201.272L969.328 210.161C964.893 206.043 959.308 202.932 955.522 202.26C951.937 201.624 949.253 202.588 948.759 205.383C947.083 214.861 973.249 214.039 969.905 232.541Z" fill="#409140"/>
<path d="M855.296 322.018L985.311 33.5807C987.208 29.3752 992.153 27.5016 996.358 29.3989L1135.42 92.0824C1139.62 93.9796 1141.5 98.9243 1139.6 103.13L1009.59 391.563C1007.69 395.769 1002.75 397.642 998.54 395.745L859.481 333.066C855.272 331.172 853.402 326.224 855.296 322.018Z" fill="#58A358"/>
<path d="M998.782 384.152C998.162 384.152 997.541 384.022 996.956 383.757L869.514 326.311C868.431 325.824 867.605 324.943 867.182 323.832C866.763 322.722 866.799 321.516 867.289 320.433L992.067 43.6121C993.075 41.3789 995.711 40.3789 997.944 41.3868L1125.39 98.8332C1126.47 99.3194 1127.3 100.201 1127.72 101.311C1128.14 102.422 1128.1 103.628 1127.62 104.711L1002.83 381.532C1002.35 382.615 1001.47 383.441 1000.36 383.864C999.846 384.053 999.312 384.152 998.782 384.152ZM996.122 43.2801C995.3 43.2801 994.51 43.7544 994.15 44.5528L869.372 321.37C869.135 321.896 869.115 322.484 869.321 323.022C869.526 323.564 869.925 323.99 870.455 324.228L997.897 381.674C998.423 381.911 999.012 381.931 999.549 381.725C1000.09 381.52 1000.52 381.117 1000.75 380.591L1125.53 103.77C1126.02 102.683 1125.54 101.402 1124.45 100.912L997.008 43.4698C996.719 43.3394 996.419 43.2801 996.122 43.2801Z" fill="#A5D6A7"/>
<path d="M997.425 382.714L976.967 373.493C976.963 373.489 976.963 373.485 976.963 373.477C982.504 360.275 998.026 354.465 1010.91 360.829V360.833L1001.79 381.058C1001.04 382.726 999.085 383.465 997.425 382.714Z" fill="#A5D6A7"/>
<path d="M889.993 334.291L869.985 325.271C868.321 324.52 867.582 322.568 868.333 320.904L877.451 300.678C877.459 300.674 877.463 300.674 877.471 300.67C890.447 306.275 896.159 321.54 890.008 334.287C890.005 334.287 890.001 334.287 889.993 334.291Z" fill="#A5D6A7"/>
<path d="M1117.19 125.043C1104.09 119.687 1098.14 104.6 1103.9 91.8294C1104.08 91.4342 1104.28 91.0468 1104.47 90.6595L1124.92 99.8729C1126.58 100.624 1127.32 102.576 1126.57 104.24L1117.19 125.043C1117.19 125.043 1117.19 125.043 1117.19 125.043Z" fill="#A5D6A7"/>
<path d="M983.744 64.9041C983.74 64.8962 983.74 64.8923 983.736 64.8804L993.112 44.0781C993.863 42.4141 995.815 41.675 997.479 42.4259L1017.47 51.4378C1017.31 51.8409 1017.15 52.2441 1016.97 52.6393C1011.28 65.2638 996.337 70.8211 983.744 64.9041Z" fill="#A5D6A7"/>
<path d="M996.739 270.342C1029.39 270.342 1055.85 243.878 1055.85 211.232C1055.85 178.586 1029.39 152.122 996.739 152.122C964.094 152.122 937.629 178.586 937.629 211.232C937.629 243.878 964.094 270.342 996.739 270.342Z" fill="#A5D6A7"/>
<path d="M1010.66 229.086C1006.95 237.315 998.918 239.588 990.44 236.995L985.871 247.129L978.357 243.742L982.985 233.473C977.685 230.023 973.432 224.912 971.08 219.434L978.981 212.438C981.527 218.825 986.661 224.489 991.293 226.58C995.361 228.414 998.542 227.884 999.859 224.96C1003.91 215.979 978.187 210.691 985.791 193.821C989.072 186.545 996.222 183.711 1004.48 185.794L1008.92 175.932L1016.44 179.319L1012.11 188.912C1016.94 191.742 1020.96 195.849 1023.43 200.07L1015.59 207.26C1012.31 202.177 1007.66 197.79 1004.15 196.209C1000.83 194.715 997.993 194.987 996.831 197.572C992.878 206.339 1018.44 211.972 1010.66 229.086Z" fill="#58A358"/>
<path d="M1011.77 437.441C993.072 423.721 991.851 378.073 992.088 362.662C992.175 356.919 990.013 351.374 986.072 347.196C953.06 312.208 946.535 268.674 967.163 269.117C985.969 269.52 1019.17 310.449 1033.09 328.117C1045.88 344.35 1067.2 373.706 1067.2 373.706L1059 454.934L1039.76 451.875L1011.77 437.441Z" fill="#FBBB98"/>
<path d="M1016.03 440.927C1015.91 440.927 1015.78 440.891 1015.67 440.816C1005.55 433.974 998.467 420.737 994.609 401.473C991.724 387.058 991.297 372.406 991.447 362.651C991.53 357.121 989.455 351.789 985.601 347.631C974.289 335.425 965.064 321.145 959.625 307.422C954.487 294.453 953.198 283.011 956.092 276.027C958.052 271.287 961.874 268.675 967.135 268.473C987.953 267.683 1030.46 323.346 1035.24 329.698C1037.71 332.979 1040.62 336.781 1043.43 340.461C1047.91 346.303 1052.53 352.346 1055.74 356.765C1055.95 357.054 1055.89 357.453 1055.6 357.663C1055.31 357.872 1054.91 357.809 1054.7 357.52C1051.5 353.117 1046.88 347.078 1042.41 341.244C1039.59 337.564 1036.68 333.757 1034.21 330.473C1030.45 325.473 1017.01 307.987 1002 292.849C986.74 277.457 974.688 269.457 967.178 269.762C962.384 269.944 959.052 272.22 957.269 276.525C951.949 289.378 961.625 319.888 986.534 346.765C990.613 351.168 992.811 356.817 992.724 362.678C992.443 380.856 994.19 424.753 1016.38 439.757C1016.68 439.955 1016.76 440.354 1016.56 440.65C1016.44 440.828 1016.24 440.927 1016.03 440.927Z" fill="#FC9247"/>
</g>
<defs>
<clipPath id="clip0_38_9474">
<rect width="593" height="523" fill="white" transform="translate(687)"/>
</clipPath>
</defs>
</svg>
