<svg width="630" height="731" viewBox="0 0 630 731" fill="none" xmlns="http://www.w3.org/2000/svg">
<rect width="626" height="731" rx="24" fill="#FFF9CE"/>
<g clip-path="url(#clip0_38_9679)">
<path d="M212.56 469.816C212.372 469.816 212.189 469.76 212.032 469.656C211.876 469.551 211.755 469.403 211.683 469.229C211.611 469.055 211.593 468.864 211.63 468.68C211.667 468.496 211.758 468.327 211.892 468.194L238.971 441.115C239.059 441.027 239.164 440.957 239.279 440.91C239.394 440.862 239.517 440.837 239.642 440.837C239.766 440.837 239.89 440.862 240.005 440.91C240.12 440.957 240.224 441.027 240.313 441.115C240.401 441.203 240.47 441.308 240.518 441.423C240.566 441.538 240.59 441.661 240.59 441.786C240.59 441.911 240.566 442.034 240.518 442.149C240.47 442.264 240.401 442.369 240.313 442.457L213.233 469.536C213.145 469.625 213.04 469.695 212.925 469.743C212.809 469.791 212.685 469.816 212.56 469.816Z" fill="#FFC600"/>
<path d="M239.643 469.816C239.518 469.816 239.394 469.791 239.279 469.743C239.163 469.695 239.058 469.625 238.97 469.536L211.891 442.452C211.713 442.274 211.613 442.033 211.613 441.781C211.613 441.53 211.713 441.288 211.891 441.11C212.069 440.932 212.31 440.833 212.562 440.833C212.814 440.833 213.055 440.932 213.233 441.11L240.312 468.189C240.447 468.322 240.54 468.491 240.578 468.676C240.616 468.861 240.598 469.053 240.526 469.228C240.454 469.403 240.332 469.552 240.175 469.657C240.017 469.761 239.832 469.817 239.643 469.816ZM424.665 808.75H387.436C387.269 808.751 387.105 808.707 386.961 808.624C386.816 808.542 386.696 808.422 386.612 808.278C386.528 808.133 386.484 807.97 386.484 807.803C386.484 807.636 386.528 807.472 386.611 807.328L405.242 775.062C405.326 774.919 405.445 774.799 405.589 774.717C405.733 774.634 405.896 774.59 406.062 774.59C406.229 774.59 406.392 774.634 406.536 774.717C406.68 774.799 406.799 774.919 406.883 775.062L425.509 807.328C425.593 807.474 425.637 807.639 425.636 807.808C425.635 807.976 425.589 808.141 425.503 808.286C425.417 808.431 425.294 808.55 425.147 808.632C425 808.713 424.833 808.754 424.665 808.75ZM389.053 806.854H423.025L406.039 777.433L389.053 806.854ZM621.524 604.415C618.243 604.415 615.035 603.442 612.306 601.618C609.577 599.795 607.451 597.204 606.195 594.172C604.939 591.14 604.61 587.804 605.251 584.585C605.891 581.366 607.471 578.41 609.792 576.089C612.112 573.769 615.069 572.189 618.287 571.548C621.506 570.908 624.842 571.237 627.874 572.493C630.906 573.748 633.497 575.875 635.321 578.604C637.144 581.332 638.117 584.54 638.117 587.822C638.117 592.223 636.369 596.443 633.257 599.555C630.145 602.667 625.925 604.415 621.524 604.415ZM621.524 573.126C618.618 573.126 615.776 573.988 613.359 575.603C610.943 577.217 609.059 579.513 607.947 582.198C606.834 584.883 606.543 587.838 607.11 590.689C607.677 593.54 609.077 596.159 611.132 598.214C613.188 600.269 615.806 601.669 618.657 602.236C621.508 602.803 624.463 602.512 627.148 601.4C629.834 600.287 632.129 598.404 633.744 595.987C635.359 593.57 636.221 590.729 636.221 587.822C636.219 583.925 634.67 580.188 631.914 577.433C629.159 574.678 625.421 573.131 621.524 573.131V573.126Z" fill="#FFC600"/>
<path d="M540.454 759.058L515.802 716.33C515.802 716.33 474.837 705.426 453.48 665.921C408.395 647.29 413.094 628.156 416.64 623.207C425.201 611.284 472.249 629.237 472.249 629.237L454.84 549.972C454.84 549.972 530.043 558.733 552.22 591.899C576.758 628.597 584.855 662.223 649.846 724.64L540.454 759.058Z" fill="white"/>
<path d="M649.847 725.583C649.602 725.582 649.368 725.487 649.192 725.318C584.178 662.896 575.806 628.881 551.433 592.43C545.195 583.1 530.332 569.802 494.948 559.411C481.782 555.576 468.347 552.736 454.756 550.915C454.631 550.901 454.511 550.862 454.401 550.801C454.291 550.74 454.195 550.659 454.117 550.56C454.039 550.462 453.981 550.35 453.947 550.229C453.912 550.109 453.902 549.983 453.916 549.858C453.931 549.734 453.969 549.613 454.03 549.504C454.091 549.394 454.173 549.297 454.271 549.22C454.369 549.142 454.482 549.084 454.602 549.049C454.723 549.015 454.849 549.005 454.974 549.019C468.68 550.849 482.23 553.709 495.507 557.576C524.354 566.048 543.706 577.416 553.031 591.358C577.493 627.948 585.771 661.749 650.529 723.933C650.674 724.065 650.775 724.237 650.818 724.428C650.861 724.619 650.844 724.818 650.769 724.999C650.694 725.179 650.565 725.332 650.4 725.437C650.235 725.542 650.042 725.593 649.847 725.583Z" fill="#67017B"/>
<path d="M517.123 540.789L325.613 421.074C321.65 418.597 316.429 419.801 313.952 423.764L232.478 554.098C230.001 558.061 231.205 563.282 235.168 565.76L426.678 685.475C430.641 687.952 435.862 686.748 438.339 682.785L519.813 552.45C522.29 548.487 521.086 543.266 517.123 540.789Z" fill="#F75028"/>
<path d="M298.604 447.751L504.718 576.595L484.506 608.928L278.392 480.083L298.604 447.751Z" fill="#08C7D1"/>
<path d="M487.477 538.898L264.951 500.301C260.346 499.502 255.966 502.588 255.167 507.193L228.899 658.636C228.101 663.241 231.186 667.621 235.791 668.42L458.317 707.017C462.922 707.815 467.303 704.73 468.101 700.125L494.369 548.682C495.168 544.077 492.082 539.697 487.477 538.898Z" fill="#FFC600"/>
<path d="M422.707 685.585C429.578 685.585 435.147 680.016 435.147 673.146C435.147 666.275 429.578 660.706 422.707 660.706C415.837 660.706 410.268 666.275 410.268 673.146C410.268 680.016 415.837 685.585 422.707 685.585Z" fill="#F75028"/>
<path d="M313.623 593.075C313.495 593.075 317.354 593.734 268.733 585.3C268.486 585.255 268.267 585.114 268.124 584.908C267.981 584.702 267.926 584.447 267.97 584.2L273.408 552.854C273.451 552.607 273.59 552.386 273.795 552.241C274.001 552.096 274.255 552.039 274.503 552.082L319.236 559.842C319.483 559.886 319.703 560.026 319.846 560.231C319.99 560.436 320.047 560.69 320.004 560.937L314.567 592.283C314.53 592.506 314.414 592.708 314.241 592.853C314.068 592.998 313.849 593.077 313.623 593.075ZM270.009 583.593L312.865 591.032L317.98 561.554L275.119 554.115L270.009 583.593Z" fill="#F75028"/>
<path d="M380.924 544.598L465.45 559.259L462.925 573.819L378.398 559.158L380.924 544.598Z" fill="white"/>
<path d="M265.022 606.733L304.253 613.538L302.848 621.638L263.617 614.833L265.022 606.733Z" fill="white"/>
<path d="M314.129 615.251L353.361 622.056L351.956 630.155L312.724 623.351L314.129 615.251Z" fill="white"/>
<path d="M363.232 623.764L402.464 630.569L401.059 638.668L361.828 631.864L363.232 623.764Z" fill="white"/>
<path d="M412.344 632.283L451.575 639.087L450.171 647.187L410.939 640.382L412.344 632.283Z" fill="white"/>
<path d="M329.457 650.3C329.329 650.3 332.544 650.85 259.56 638.188C259.434 638.17 259.314 638.127 259.205 638.062C259.096 637.996 259.002 637.91 258.927 637.807C258.852 637.705 258.799 637.588 258.77 637.465C258.741 637.341 258.738 637.213 258.759 637.088C258.781 636.963 258.827 636.843 258.896 636.737C258.964 636.63 259.054 636.538 259.158 636.466C259.263 636.395 259.381 636.345 259.506 636.32C259.63 636.295 259.758 636.295 259.882 636.32L329.6 648.418C329.724 648.429 329.845 648.464 329.956 648.521C330.067 648.579 330.166 648.658 330.247 648.753C330.327 648.849 330.388 648.959 330.426 649.078C330.464 649.197 330.478 649.323 330.467 649.447C330.457 649.572 330.422 649.693 330.364 649.804C330.307 649.915 330.228 650.013 330.133 650.094C330.037 650.175 329.927 650.235 329.807 650.273C329.688 650.311 329.563 650.325 329.438 650.315L329.457 650.3ZM327.319 662.626C327.191 662.626 330.406 663.176 257.422 650.519C257.296 650.501 257.176 650.458 257.067 650.392C256.958 650.327 256.864 650.24 256.789 650.138C256.714 650.035 256.661 649.919 256.632 649.795C256.603 649.672 256.6 649.544 256.621 649.419C256.643 649.294 256.689 649.174 256.758 649.067C256.826 648.961 256.916 648.869 257.02 648.797C257.125 648.726 257.243 648.676 257.367 648.651C257.492 648.625 257.62 648.625 257.744 648.651L327.481 660.744C327.732 660.766 327.965 660.886 328.127 661.079C328.29 661.272 328.369 661.522 328.348 661.773C328.327 662.025 328.206 662.257 328.013 662.42C327.821 662.583 327.571 662.662 327.319 662.641V662.626Z" fill="#F75028"/>
<path d="M490.34 634.955L472.249 629.237C472.249 629.237 425.202 611.275 416.659 623.198C413.113 628.147 408.415 647.281 453.499 665.912C474.833 705.421 515.821 716.32 515.821 716.32" fill="white"/>
<path d="M540.453 760.006C540.286 760.006 540.122 759.963 539.977 759.88C539.832 759.796 539.712 759.676 539.628 759.532L515.194 717.135C513.194 716.552 503.67 713.57 492.183 706.758C480.355 699.737 463.956 687.074 452.825 666.689C437.394 660.28 418.322 649.727 414.302 635.675C412.676 629.986 414.055 625.245 415.885 622.676C424.717 610.35 470.262 627.497 472.561 628.365L490.623 634.054C490.863 634.129 491.064 634.297 491.18 634.52C491.297 634.743 491.32 635.004 491.244 635.244C491.169 635.484 491.001 635.684 490.778 635.801C490.555 635.917 490.294 635.94 490.054 635.865L471.911 630.138C459.012 625.217 424.082 614.493 417.426 623.766C416.886 624.525 414.264 628.64 416.122 635.144C418.242 642.549 426.509 653.752 453.859 665.053C454.061 665.137 454.229 665.287 454.333 665.48C465.236 685.676 481.436 698.191 493.098 705.103C505.756 712.627 515.962 715.395 516.067 715.424C516.187 715.456 516.301 715.511 516.4 715.587C516.499 715.662 516.582 715.757 516.645 715.865L541.297 758.598C541.378 758.743 541.419 758.907 541.416 759.074C541.413 759.24 541.367 759.402 541.281 759.545C541.196 759.688 541.074 759.805 540.929 759.886C540.783 759.967 540.619 760.008 540.453 760.006Z" fill="#67017B"/>
<path d="M339.811 746.817C363.768 746.817 383.189 727.396 383.189 703.439C383.189 679.482 363.768 660.062 339.811 660.062C315.854 660.062 296.433 679.482 296.433 703.439C296.433 727.396 315.854 746.817 339.811 746.817Z" fill="#08C7D1"/>
<path d="M311.604 702.06L319.21 694.453L341.468 716.712L333.862 724.318L311.604 702.06Z" fill="white"/>
<path d="M360.412 682.553L368.018 690.159L333.863 724.315L326.256 716.709L360.412 682.553Z" fill="white"/>
<path d="M402.711 435.071C402.486 435.074 402.268 434.998 402.094 434.856C401.921 434.714 401.803 434.514 401.763 434.293L392.926 386.374C392.88 386.126 392.935 385.87 393.077 385.663C393.22 385.455 393.439 385.313 393.687 385.267C393.935 385.221 394.19 385.275 394.398 385.418C394.606 385.561 394.748 385.78 394.794 386.028L403.645 433.947C403.671 434.084 403.666 434.225 403.631 434.361C403.596 434.496 403.531 434.621 403.442 434.729C403.353 434.836 403.241 434.922 403.115 434.981C402.988 435.041 402.851 435.071 402.711 435.071ZM437.29 437.811C437.138 437.811 436.989 437.774 436.854 437.704C436.72 437.634 436.604 437.533 436.517 437.409C436.429 437.285 436.373 437.141 436.353 436.991C436.332 436.841 436.348 436.688 436.399 436.545L452.688 390.617C452.772 390.38 452.947 390.186 453.174 390.078C453.401 389.97 453.662 389.957 453.899 390.041C454.136 390.125 454.33 390.3 454.438 390.527C454.546 390.754 454.559 391.015 454.475 391.252L438.162 437.18C438.098 437.361 437.98 437.519 437.824 437.631C437.668 437.744 437.482 437.807 437.29 437.811ZM461.743 460.984C461.549 460.984 461.36 460.924 461.201 460.813C461.042 460.703 460.92 460.546 460.853 460.364C460.786 460.182 460.776 459.984 460.825 459.797C460.874 459.609 460.979 459.441 461.126 459.315L502.319 424.177C502.511 424.048 502.743 423.993 502.973 424.024C503.202 424.054 503.412 424.168 503.564 424.343C503.715 424.518 503.798 424.742 503.795 424.973C503.793 425.204 503.706 425.427 503.551 425.599L462.34 460.761C462.173 460.902 461.962 460.981 461.743 460.984Z" fill="#F75028"/>
<path d="M641.512 505.821H509.791C509.61 505.821 509.433 505.77 509.28 505.673C509.128 505.576 509.006 505.437 508.93 505.273C508.854 505.109 508.826 504.927 508.85 504.748C508.874 504.568 508.949 504.4 509.065 504.262L526.924 483.037V418.307C526.926 415.392 528.085 412.597 530.147 410.536C532.208 408.475 535.003 407.316 537.918 407.313H641.394C644.308 407.317 647.102 408.477 649.163 410.538C651.224 412.599 652.384 415.393 652.387 418.307V494.828C652.384 497.722 651.241 500.498 649.205 502.556C647.17 504.613 644.406 505.786 641.512 505.821ZM511.829 503.925H641.394C643.806 503.923 646.118 502.963 647.824 501.258C649.529 499.552 650.489 497.24 650.491 494.828V418.307C650.489 415.895 649.529 413.583 647.824 411.877C646.118 410.172 643.806 409.212 641.394 409.21H537.918C535.505 409.212 533.193 410.172 531.487 411.877C529.782 413.583 528.823 415.895 528.82 418.307V483.383C528.82 483.607 528.741 483.824 528.597 483.995L511.829 503.925Z" fill="#08C7D1"/>
<path d="M626.417 438.005H551.888C551.636 438.005 551.395 437.905 551.217 437.727C551.039 437.55 550.939 437.308 550.939 437.057C550.939 436.806 551.039 436.564 551.217 436.387C551.395 436.209 551.636 436.109 551.888 436.109H626.417C626.668 436.109 626.909 436.209 627.087 436.387C627.265 436.564 627.365 436.806 627.365 437.057C627.365 437.308 627.265 437.55 627.087 437.727C626.909 437.905 626.668 438.005 626.417 438.005ZM626.417 458.571H551.888C551.636 458.571 551.395 458.471 551.217 458.293C551.039 458.115 550.939 457.874 550.939 457.622C550.939 457.371 551.039 457.13 551.217 456.952C551.395 456.774 551.636 456.674 551.888 456.674H626.417C626.668 456.674 626.909 456.774 627.087 456.952C627.265 457.13 627.365 457.371 627.365 457.622C627.365 457.874 627.265 458.115 627.087 458.293C626.909 458.471 626.668 458.571 626.417 458.571ZM606.326 479.131H551.888C551.636 479.131 551.395 479.031 551.217 478.853C551.039 478.676 550.939 478.434 550.939 478.183C550.939 477.931 551.039 477.69 551.217 477.513C551.395 477.335 551.636 477.235 551.888 477.235H606.326C606.577 477.235 606.818 477.335 606.996 477.513C607.174 477.69 607.274 477.931 607.274 478.183C607.274 478.434 607.174 478.676 606.996 478.853C606.818 479.031 606.577 479.131 606.326 479.131Z" fill="#08C7D1"/>
</g>
<defs>
<clipPath id="clip0_38_9679">
<rect width="454" height="390" fill="white" transform="translate(176 341)"/>
</clipPath>
</defs>
</svg>
