<svg width="15" height="14" viewBox="0 0 15 14" fill="none" xmlns="http://www.w3.org/2000/svg">
<path d="M0.5 7C0.5 8.85652 1.2375 10.637 2.55025 11.9497C3.86301 13.2625 5.64348 14 7.5 14C9.35652 14 11.137 13.2625 12.4497 11.9497C13.7625 10.637 14.5 8.85652 14.5 7C14.5 5.14348 13.7625 3.36301 12.4497 2.05025C11.137 0.737498 9.35652 0 7.5 0C5.64348 0 3.86301 0.737498 2.55025 2.05025C1.2375 3.36301 0.5 5.14348 0.5 7ZM7.08984 10.3086C6.83281 10.5656 6.41719 10.5656 6.16289 10.3086C5.90859 10.0516 5.90586 9.63594 6.16289 9.38164L8.5418 7.00273L6.16289 4.62383C5.90586 4.3668 5.90586 3.95117 6.16289 3.69687C6.41992 3.44258 6.83555 3.43984 7.08984 3.69687L9.93359 6.53516C10.1906 6.79219 10.1906 7.20781 9.93359 7.46211L7.08984 10.3086Z" fill="#0040C2"/>
</svg>
