<svg width="600" height="320" viewBox="0 0 600 320" fill="none" xmlns="http://www.w3.org/2000/svg">
<path d="M-87.0883 -1H-142.387V52.3333M-87.0883 -1V52.3333M-87.0883 -1H-31.7899M-87.0883 52.3333H-142.387M-87.0883 52.3333V105.667M-87.0883 52.3333H-31.7899M-142.387 52.3333V105.667M-87.0883 105.667H-142.387M-87.0883 105.667V159M-87.0883 105.667H-31.7899M-142.387 105.667V159M-87.0883 159H-142.387M-87.0883 159V212.333M-87.0883 159H-31.7899M-142.387 159V212.333M-87.0883 212.333H-142.387M-87.0883 212.333V265.667M-87.0883 212.333H-31.7899M-142.387 212.333V265.667M-87.0883 265.667H-142.387M-87.0883 265.667V319M-87.0883 265.667H-31.7899M-142.387 265.667V319H-87.0883M-87.0883 319H-31.7899M-31.7899 -1V52.3333M-31.7899 -1H23.5085M-31.7899 52.3333V105.667M-31.7899 52.3333H23.5085M-31.7899 105.667V159M-31.7899 105.667H23.5085M-31.7899 159V212.333M-31.7899 159H23.5085M-31.7899 212.333V265.667M-31.7899 212.333H23.5085M-31.7899 265.667V319M-31.7899 265.667H23.5085M-31.7899 319H23.5085M23.5085 -1V52.3333M23.5085 -1H78.8069M23.5085 52.3333V105.667M23.5085 52.3333H78.8069M23.5085 105.667V159M23.5085 105.667H78.8069M23.5085 159V212.333M23.5085 159H78.8069M23.5085 212.333V265.667M23.5085 212.333H78.8069M23.5085 265.667V319M23.5085 265.667H78.8069M23.5085 319H78.8069M78.8069 -1V52.3333M78.8069 -1H134.105M78.8069 52.3333V105.667M78.8069 52.3333H134.105M78.8069 105.667V159M78.8069 105.667H134.105M78.8069 159V212.333M78.8069 159H134.105M78.8069 212.333V265.667M78.8069 212.333H134.105M78.8069 265.667V319M78.8069 265.667H134.105M78.8069 319H134.105M134.105 -1V52.3333M134.105 -1H189.404M134.105 52.3333V105.667M134.105 52.3333H189.404M134.105 105.667V159M134.105 105.667H189.404M134.105 159V212.333M134.105 159H189.404M134.105 212.333V265.667M134.105 212.333H189.404M134.105 265.667V319M134.105 265.667H189.404M134.105 319H189.404M189.404 -1V52.3333M189.404 -1H244.702M189.404 52.3333V105.667M189.404 52.3333H244.702M189.404 105.667V159M189.404 105.667H244.702M189.404 159V212.333M189.404 159H244.702M189.404 212.333V265.667M189.404 212.333H244.702M189.404 265.667V319M189.404 265.667H244.702M189.404 319H244.702M244.702 -1V52.3333M244.702 -1H300.001M244.702 52.3333V105.667M244.702 52.3333H300.001M244.702 105.667V159M244.702 105.667H300.001M244.702 159V212.333M244.702 159H300.001M244.702 212.333V265.667M244.702 212.333H300.001M244.702 265.667V319M244.702 265.667H300.001M244.702 319H300.001M300.001 -1V52.3333M300.001 -1H355.299M300.001 52.3333V105.667M300.001 52.3333H355.299M300.001 105.667V159M300.001 105.667H355.299M300.001 159V212.333M300.001 159H355.299M300.001 212.333V265.667M300.001 212.333H355.299M300.001 265.667V319M300.001 265.667H355.299M300.001 319H355.299M355.299 -1V52.3333M355.299 -1H410.597M355.299 52.3333V105.667M355.299 52.3333H410.597M355.299 105.667V159M355.299 105.667H410.597M355.299 159V212.333M355.299 159H410.597M355.299 212.333V265.667M355.299 212.333H410.597M355.299 265.667V319M355.299 265.667H410.597M355.299 319H410.597M410.597 -1V52.3333M410.597 -1H465.896M410.597 52.3333V105.667M410.597 52.3333H465.896M410.597 105.667V159M410.597 105.667H465.896M410.597 159V212.333M410.597 159H465.896M410.597 212.333V265.667M410.597 212.333H465.896M410.597 265.667V319M410.597 265.667H465.896M410.597 319H465.896M465.896 -1V52.3333M465.896 -1H521.194M465.896 52.3333V105.667M465.896 52.3333H521.194M465.896 105.667V159M465.896 105.667H521.194M465.896 159V212.333M465.896 159H521.194M465.896 212.333V265.667M465.896 212.333H521.194M465.896 265.667V319M465.896 265.667H521.194M465.896 319H521.194M521.194 -1V52.3333M521.194 -1H576.493M521.194 52.3333V105.667M521.194 52.3333H576.493M521.194 105.667V159M521.194 105.667H576.493M521.194 159V212.333M521.194 159H576.493M521.194 212.333V265.667M521.194 212.333H576.493M521.194 265.667V319M521.194 265.667H576.493M521.194 319H576.493M576.493 -1V52.3333M576.493 -1H631.791M576.493 52.3333V105.667M576.493 52.3333H631.791M576.493 105.667V159M576.493 105.667H631.791M576.493 159V212.333M576.493 159H631.791M576.493 212.333V265.667M576.493 212.333H631.791M576.493 265.667V319M576.493 265.667H631.791M576.493 319H631.791M631.791 -1V52.3333M631.791 -1H687.089M631.791 52.3333V105.667M631.791 52.3333H687.089M631.791 105.667V159M631.791 105.667H687.089M631.791 159V212.333M631.791 159H687.089M631.791 212.333V265.667M631.791 212.333H687.089M631.791 265.667V319M631.791 265.667H687.089M631.791 319H687.089M687.089 -1V52.3333M687.089 -1H742.388V52.3333M687.089 52.3333V105.667M687.089 52.3333H742.388M687.089 105.667V159M687.089 105.667H742.388M687.089 159V212.333M687.089 159H742.388M687.089 212.333V265.667M687.089 212.333H742.388M687.089 265.667V319M687.089 265.667H742.388M687.089 319H742.388V265.667M742.388 52.3333V105.667M742.388 105.667V159M742.388 159V212.333M742.388 212.333V265.667" stroke="url(#paint0_radial_5693_38376)" strokeWidth="0.8"/>
<defs>
<radialGradient id="paint0_radial_5693_38376" cx="0" cy="0" r="1" gradientUnits="userSpaceOnUse" gradientTransform="translate(300.001 159) rotate(90) scale(160 442.387)">
<stop stop-color="#E1E4EA"/>
<stop offset="1" stop-color="#E1E4EA" stop-opacity="0"/>
</radialGradient>
</defs>
</svg>
