<svg width="600" height="320" viewBox="0 0 600 320" fill="none" xmlns="http://www.w3.org/2000/svg">
<g clip-path="url(#clip0_5693_38375)">
<path d="M-87.0883 -1H-142.387V52.3333M-87.0883 -1V52.3333M-87.0883 -1H-31.7899M-87.0883 52.3333H-142.387M-87.0883 52.3333V105.667M-87.0883 52.3333H-31.7899M-142.387 52.3333V105.667M-87.0883 105.667H-142.387M-87.0883 105.667V159M-87.0883 105.667H-31.7899M-142.387 105.667V159M-87.0883 159H-142.387M-87.0883 159V212.333M-87.0883 159H-31.7899M-142.387 159V212.333M-87.0883 212.333H-142.387M-87.0883 212.333V265.667M-87.0883 212.333H-31.7899M-142.387 212.333V265.667M-87.0883 265.667H-142.387M-87.0883 265.667V319M-87.0883 265.667H-31.7899M-142.387 265.667V319H-87.0883M-87.0883 319H-31.7899M-31.7899 -1V52.3333M-31.7899 -1H23.5085M-31.7899 52.3333V105.667M-31.7899 52.3333H23.5085M-31.7899 105.667V159M-31.7899 105.667H23.5085M-31.7899 159V212.333M-31.7899 159H23.5085M-31.7899 212.333V265.667M-31.7899 212.333H23.5085M-31.7899 265.667V319M-31.7899 265.667H23.5085M-31.7899 319H23.5085M23.5085 -1V52.3333M23.5085 -1H78.8069M23.5085 52.3333V105.667M23.5085 52.3333H78.8069M23.5085 105.667V159M23.5085 105.667H78.8069M23.5085 159V212.333M23.5085 159H78.8069M23.5085 212.333V265.667M23.5085 212.333H78.8069M23.5085 265.667V319M23.5085 265.667H78.8069M23.5085 319H78.8069M78.8069 -1V52.3333M78.8069 -1H134.105M78.8069 52.3333V105.667M78.8069 52.3333H134.105M78.8069 105.667V159M78.8069 105.667H134.105M78.8069 159V212.333M78.8069 159H134.105M78.8069 212.333V265.667M78.8069 212.333H134.105M78.8069 265.667V319M78.8069 265.667H134.105M78.8069 319H134.105M134.105 -1V52.3333M134.105 -1H189.404M134.105 52.3333V105.667M134.105 52.3333H189.404M134.105 105.667V159M134.105 105.667H189.404M134.105 159V212.333M134.105 159H189.404M134.105 212.333V265.667M134.105 212.333H189.404M134.105 265.667V319M134.105 265.667H189.404M134.105 319H189.404M189.404 -1V52.3333M189.404 -1H244.702M189.404 52.3333V105.667M189.404 52.3333H244.702M189.404 105.667V159M189.404 105.667H244.702M189.404 159V212.333M189.404 159H244.702M189.404 212.333V265.667M189.404 212.333H244.702M189.404 265.667V319M189.404 265.667H244.702M189.404 319H244.702M244.702 -1V52.3333M244.702 -1H300.001M244.702 52.3333V105.667M244.702 52.3333H300.001M244.702 105.667V159M244.702 105.667H300.001M244.702 159V212.333M244.702 159H300.001M244.702 212.333V265.667M244.702 212.333H300.001M244.702 265.667V319M244.702 265.667H300.001M244.702 319H300.001M300.001 -1V52.3333M300.001 -1H355.299M300.001 52.3333V105.667M300.001 52.3333H355.299M300.001 105.667V159M300.001 105.667H355.299M300.001 159V212.333M300.001 159H355.299M300.001 212.333V265.667M300.001 212.333H355.299M300.001 265.667V319M300.001 265.667H355.299M300.001 319H355.299M355.299 -1V52.3333M355.299 -1H410.597M355.299 52.3333V105.667M355.299 52.3333H410.597M355.299 105.667V159M355.299 105.667H410.597M355.299 159V212.333M355.299 159H410.597M355.299 212.333V265.667M355.299 212.333H410.597M355.299 265.667V319M355.299 265.667H410.597M355.299 319H410.597M410.597 -1V52.3333M410.597 -1H465.896M410.597 52.3333V105.667M410.597 52.3333H465.896M410.597 105.667V159M410.597 105.667H465.896M410.597 159V212.333M410.597 159H465.896M410.597 212.333V265.667M410.597 212.333H465.896M410.597 265.667V319M410.597 265.667H465.896M410.597 319H465.896M465.896 -1V52.3333M465.896 -1H521.194M465.896 52.3333V105.667M465.896 52.3333H521.194M465.896 105.667V159M465.896 105.667H521.194M465.896 159V212.333M465.896 159H521.194M465.896 212.333V265.667M465.896 212.333H521.194M465.896 265.667V319M465.896 265.667H521.194M465.896 319H521.194M521.194 -1V52.3333M521.194 -1H576.493M521.194 52.3333V105.667M521.194 52.3333H576.493M521.194 105.667V159M521.194 105.667H576.493M521.194 159V212.333M521.194 159H576.493M521.194 212.333V265.667M521.194 212.333H576.493M521.194 265.667V319M521.194 265.667H576.493M521.194 319H576.493M576.493 -1V52.3333M576.493 -1H631.791M576.493 52.3333V105.667M576.493 52.3333H631.791M576.493 105.667V159M576.493 105.667H631.791M576.493 159V212.333M576.493 159H631.791M576.493 212.333V265.667M576.493 212.333H631.791M576.493 265.667V319M576.493 265.667H631.791M576.493 319H631.791M631.791 -1V52.3333M631.791 -1H687.089M631.791 52.3333V105.667M631.791 52.3333H687.089M631.791 105.667V159M631.791 105.667H687.089M631.791 159V212.333M631.791 159H687.089M631.791 212.333V265.667M631.791 212.333H687.089M631.791 265.667V319M631.791 265.667H687.089M631.791 319H687.089M687.089 -1V52.3333M687.089 -1H742.388V52.3333M687.089 52.3333V105.667M687.089 52.3333H742.388M687.089 105.667V159M687.089 105.667H742.388M687.089 159V212.333M687.089 159H742.388M687.089 212.333V265.667M687.089 212.333H742.388M687.089 265.667V319M687.089 265.667H742.388M687.089 319H742.388V265.667M742.388 52.3333V105.667M742.388 105.667V159M742.388 159V212.333M742.388 212.333V265.667" stroke="url(#paint0_radial_5693_38375)" stroke-width="0.8"/>
<rect y="250.4" width="600" height="77.6002" fill="url(#paint1_linear_5693_38375)"/>
<path d="M284.234 406.702C376.906 406.702 452.033 331.575 452.033 238.902C452.033 146.229 376.906 71.1025 284.234 71.1025C191.56 71.1025 116.434 146.229 116.434 238.902C116.434 331.575 191.56 406.702 284.234 406.702Z" fill="url(#paint2_linear_5693_38375)"/>
<path d="M428.669 362.843C422.853 362.843 417.167 361.117 412.329 357.888C407.495 354.656 403.724 350.063 401.498 344.69C399.275 339.317 398.692 333.403 399.827 327.7C400.959 321.994 403.763 316.753 407.874 312.641C411.986 308.528 417.227 305.728 422.933 304.593C428.636 303.458 434.55 304.041 439.923 306.266C445.296 308.492 449.889 312.262 453.121 317.096C456.35 321.934 458.076 327.62 458.076 333.436C458.065 341.233 454.962 348.706 449.452 354.219C443.939 359.729 436.466 362.832 428.669 362.843ZM428.669 305.66C423.177 305.66 417.813 307.289 413.247 310.339C408.682 313.389 405.123 317.723 403.023 322.797C400.921 327.867 400.371 333.449 401.443 338.833C402.515 344.22 405.159 349.165 409.04 353.048C412.923 356.929 417.867 359.573 423.254 360.645C428.638 361.717 434.22 361.167 439.291 359.064C444.365 356.965 448.699 353.405 451.75 348.84C454.8 344.275 456.427 338.91 456.427 333.419C456.416 326.062 453.489 319.007 448.284 313.804C443.081 308.599 436.026 305.671 428.669 305.66Z" fill="#5396FA"/>
<path d="M337.906 134.592C348.951 119.708 349.033 101.057 338.089 92.935C327.145 84.813 309.318 90.2944 298.272 105.179C287.226 120.063 287.144 138.713 298.089 146.835C309.033 154.957 326.86 149.476 337.906 134.592Z" fill="#5396FA"/>
<path d="M309.978 151.41C305.443 151.41 301.183 150.154 297.611 147.507C286.317 139.128 286.323 119.922 297.624 104.699C308.926 89.4753 327.307 83.9071 338.595 92.2869C344.105 96.3765 347.115 103.11 347.082 111.251C347.046 119.293 344.028 127.763 338.581 135.101C330.847 145.515 319.801 151.41 309.978 151.41ZM326.194 90.0195C316.899 90.0195 306.361 95.6949 298.949 105.685C288.189 120.178 288.03 138.347 298.592 146.185C301.89 148.623 305.817 149.78 310.011 149.78C319.306 149.78 329.844 144.105 337.256 134.115C342.494 127.057 345.4 118.932 345.432 111.24C345.468 103.64 342.684 97.3797 337.613 93.6116C334.326 91.1738 330.385 90.0195 326.191 90.0195H326.194Z" fill="#0736BD"/>
<path d="M304.515 146.359C301.016 146.359 297.864 145.391 295.275 143.468C290.712 140.081 288.481 134.17 288.989 126.821C289.492 119.606 292.584 111.839 297.701 104.946C302.819 98.0532 309.357 92.8532 316.116 90.2725C323.003 87.656 329.308 88.0738 333.87 91.4681C338.433 94.8623 340.667 100.769 340.156 108.115C339.656 115.33 336.564 123.099 331.446 129.992C326.329 136.885 319.79 142.085 313.032 144.663C310.319 145.739 307.433 146.314 304.515 146.359ZM324.611 90.2285C316.388 90.2285 306.362 96.0414 299.023 105.927C294.093 112.57 291.114 120.032 290.635 126.933C290.165 133.702 292.161 139.103 296.259 142.146C304.831 148.508 320.024 142.616 330.121 129.008C335.052 122.365 338.031 114.906 338.512 108.002C338.982 101.233 336.998 95.827 332.889 92.8038C330.545 91.0531 327.706 90.2285 324.611 90.2285Z" fill="#0736BD"/>
<path d="M307.834 144.602L307.031 146.042L315.351 150.68L316.155 149.24L307.834 144.602Z" fill="#0736BD"/>
<path d="M322.695 138.692L321.887 140.127L330.174 144.795L330.982 143.36L322.695 138.692Z" fill="#0736BD"/>
<path d="M336.178 119.922L335.375 121.363L343.695 126.001L344.498 124.561L336.178 119.922Z" fill="#0736BD"/>
<path d="M339.561 109.197L338.758 110.637L345.932 114.636L346.734 113.196L339.561 109.197Z" fill="#0736BD"/>
<path d="M315.756 96.5027L314.285 97.2483L325.305 118.978L326.775 118.233L315.756 96.5027Z" fill="white"/>
<path d="M315.07 120.717L313.582 121.428L318.77 132.29L320.258 131.58L315.07 120.717Z" fill="white"/>
<path d="M303.531 118.217L302.043 118.928L307.949 131.294L309.437 130.583L303.531 118.217Z" fill="white"/>
<path d="M352.367 140.722L398.999 131.952C398.999 131.952 398.999 156.907 418.688 183.981L374.129 202.418C374.129 202.418 354.093 181.692 352.367 140.722Z" fill="white"/>
<path d="M374.13 203.242C374.02 203.242 373.91 203.219 373.808 203.176C373.707 203.133 373.613 203.069 373.536 202.989C373.33 202.775 368.383 197.602 363.161 187.307C358.357 177.833 352.442 162.068 351.544 140.757C351.535 140.559 351.599 140.364 351.722 140.208C351.846 140.053 352.022 139.947 352.217 139.911L398.849 131.141C398.967 131.119 399.091 131.123 399.206 131.153C399.324 131.184 399.432 131.239 399.525 131.316C399.618 131.393 399.695 131.49 399.745 131.6C399.797 131.709 399.825 131.828 399.825 131.949C399.825 132.012 399.858 138.243 402.276 147.67C404.508 156.366 409.282 169.64 419.357 183.495C419.432 183.596 419.481 183.712 419.503 183.835C419.525 183.958 419.519 184.084 419.484 184.204C419.451 184.324 419.39 184.435 419.308 184.528C419.223 184.622 419.121 184.695 419.006 184.743L374.446 203.179C374.347 203.221 374.24 203.243 374.13 203.242ZM353.223 141.403C354.21 162.057 359.956 177.341 364.631 186.562C368.93 195.038 373.102 200.029 374.35 201.436L417.411 183.619C407.581 169.835 402.881 156.684 400.663 148.019C398.739 140.502 398.305 135.074 398.206 132.941L353.223 141.403Z" fill="#0736BD"/>
<path d="M389.829 142.915L365.305 148.613L365.676 150.219L390.202 144.521L389.829 142.915Z" fill="#0736BD"/>
<path d="M388.089 152.228L371.852 156.372L372.261 157.97L388.496 153.825L388.089 152.228Z" fill="#0736BD"/>
<path d="M397.721 163.662L369.742 172.296L370.226 173.872L398.207 165.238L397.721 163.662Z" fill="#0736BD"/>
<path d="M396.302 172.999L381.793 178.179L382.348 179.732L396.857 174.552L396.302 172.999Z" fill="#0736BD"/>
<path d="M408.642 183.091C410.434 182.168 410.901 179.511 409.687 177.155C408.472 174.799 406.037 173.637 404.248 174.56C402.456 175.482 401.988 178.14 403.203 180.496C404.418 182.851 406.853 184.013 408.642 183.091Z" fill="#01227C"/>
<path d="M407.314 184.264C406.635 184.256 405.968 184.096 405.357 183.797C404.118 183.155 403.109 182.145 402.469 180.905C401.831 179.666 401.589 178.258 401.785 176.877C402.026 175.503 402.766 174.425 403.868 173.853C404.97 173.282 406.27 173.304 407.534 173.911C408.782 174.539 409.793 175.554 410.417 176.805C411.074 178.038 411.313 179.451 411.099 180.832C410.857 182.206 410.118 183.286 409.016 183.855C408.491 184.126 407.905 184.266 407.314 184.264ZM405.586 175.099C405.253 175.095 404.926 175.173 404.629 175.324C404.297 175.515 404.016 175.78 403.805 176.099C403.596 176.419 403.461 176.783 403.417 177.163C403.285 178.187 403.469 179.228 403.942 180.147C404.415 181.066 405.157 181.819 406.067 182.308C406.396 182.509 406.77 182.622 407.158 182.637C407.542 182.651 407.927 182.566 408.268 182.389C408.612 182.212 408.906 181.95 409.117 181.628C409.329 181.305 409.455 180.934 409.483 180.549C409.637 179.523 409.453 178.475 408.958 177.564C408.502 176.633 407.757 175.874 406.833 175.404C406.446 175.21 406.02 175.106 405.586 175.099Z" fill="#01227C"/>
<path d="M405.332 179.735L410.246 198.465L411.934 190.019L419.613 194.472L408.097 178.855L405.332 179.735Z" fill="#01227C"/>
<path d="M410.245 199.29C410.064 199.29 409.885 199.229 409.742 199.118C409.597 199.006 409.495 198.85 409.448 198.674L404.534 179.944C404.482 179.739 404.507 179.522 404.611 179.337C404.713 179.151 404.883 179.012 405.084 178.949L407.832 178.07C407.997 178.018 408.173 178.018 408.335 178.071C408.5 178.125 408.643 178.228 408.745 178.366L420.261 193.983C420.373 194.135 420.431 194.322 420.423 194.512C420.414 194.702 420.34 194.882 420.214 195.024C420.087 195.166 419.914 195.259 419.727 195.289C419.54 195.318 419.348 195.282 419.183 195.186L412.502 191.311L411.053 198.616C411.018 198.799 410.919 198.964 410.779 199.084C410.636 199.205 410.457 199.273 410.27 199.279L410.245 199.29ZM406.329 180.282L410.138 194.802L411.125 189.855C411.15 189.726 411.207 189.605 411.287 189.502C411.37 189.399 411.474 189.318 411.595 189.264C411.713 189.21 411.845 189.185 411.977 189.192C412.106 189.199 412.235 189.236 412.348 189.302L416.594 191.776L407.783 179.826L406.329 180.282Z" fill="#01227C"/>
<path d="M275.061 122.131L221.055 99.1729C218.916 98.2637 216.445 99.2605 215.536 101.399L198.532 141.401C197.623 143.539 198.619 146.01 200.758 146.919L254.765 169.877C256.903 170.786 259.374 169.789 260.283 167.651L277.287 127.649C278.196 125.51 277.2 123.04 275.061 122.131Z" fill="white"/>
<path d="M256.399 171.034C255.725 171.033 255.059 170.897 254.439 170.633L200.431 147.675C199.204 147.152 198.235 146.164 197.737 144.927C197.238 143.691 197.25 142.307 197.77 141.079L214.774 101.076C215.298 99.8503 216.286 98.8821 217.523 98.3833C218.759 97.8847 220.143 97.8962 221.371 98.416L275.376 121.373C276.602 121.898 277.57 122.886 278.069 124.122C278.568 125.358 278.557 126.741 278.04 127.969L261.038 167.972C260.65 168.881 260.004 169.656 259.178 170.2C258.354 170.745 257.387 171.034 256.399 171.034ZM255.085 169.11C255.91 169.46 256.841 169.469 257.672 169.133C258.503 168.798 259.167 168.146 259.518 167.321L276.528 127.323C276.876 126.498 276.882 125.568 276.547 124.737C276.212 123.906 275.562 123.241 274.739 122.888L220.736 99.9303C219.91 99.5827 218.98 99.5755 218.149 99.9108C217.318 100.246 216.653 100.896 216.3 101.72L199.298 141.725C198.948 142.551 198.939 143.482 199.275 144.313C199.61 145.145 200.262 145.81 201.088 146.161L255.085 169.11Z" fill="#5396FA"/>
<path d="M252.898 161.513L207.357 142.151C207.156 142.066 206.997 141.905 206.915 141.703C206.873 141.603 206.852 141.495 206.852 141.387C206.852 141.278 206.873 141.171 206.915 141.071L220.566 108.953L222.086 109.599L208.759 140.958L253.541 159.993L252.898 161.513Z" fill="#5396FA"/>
<path d="M208.022 142.14L207.324 140.645L234.272 128.063C234.452 127.978 234.657 127.962 234.848 128.016C235.04 128.071 235.205 128.193 235.314 128.36L242.539 139.46L263.545 129.445L264.254 130.932L242.6 141.258C242.419 141.344 242.214 141.362 242.021 141.308C241.828 141.254 241.662 141.132 241.553 140.964L234.322 129.86L208.022 142.14Z" fill="#5396FA"/>
<path d="M257.598 127.508L268.767 127.917L262.292 136.509L257.598 127.508Z" fill="#5396FA"/>
<path d="M262.29 137.327H262.224C262.084 137.316 261.951 137.27 261.834 137.193C261.718 137.116 261.623 137.011 261.558 136.888L256.864 127.884C256.797 127.756 256.764 127.612 256.77 127.467C256.776 127.322 256.82 127.182 256.897 127.059C256.974 126.938 257.082 126.838 257.21 126.771C257.338 126.704 257.481 126.672 257.625 126.677L268.792 127.087C268.943 127.092 269.089 127.139 269.215 127.222C269.341 127.304 269.442 127.42 269.506 127.556C269.571 127.692 269.598 127.843 269.583 127.993C269.568 128.143 269.512 128.286 269.422 128.406L262.949 137C262.872 137.102 262.772 137.185 262.658 137.242C262.543 137.298 262.417 137.328 262.29 137.327ZM258.991 128.376L262.43 134.972L267.165 128.684L258.991 128.376Z" fill="#0736BD"/>
<path d="M253.404 349.503C253.404 349.503 249.556 332.224 249.413 317.369C249.295 304.429 246.574 296.088 236.405 286.694C232.839 283.386 229.71 279.636 227.093 275.536C225.092 272.411 222.679 268.772 220.497 265.845C218.996 263.835 217.792 261.619 216.924 259.265C214.976 253.947 210.378 243.165 205.714 239.567C205.714 239.567 203.24 239.018 201.673 239.446C199.42 240.048 197.551 242.997 197.551 242.997C196.759 249.187 201.5 260.73 203.564 265.952C203.826 266.624 204.028 267.317 204.169 268.024C205.758 275.879 211.315 288.764 211.315 288.764C211.315 288.764 196.199 275.296 175.83 268.131L173.709 263.734C173.709 263.734 173.041 256.764 170.721 250.896C170.721 250.896 169.685 237.509 163.452 234.574C163.452 234.574 159.263 220.452 149.146 220.452L150.064 236.591C150.064 236.591 146.766 225.955 140.527 227.054C140.527 227.054 141.563 244.33 140.618 252.724C140.561 253.223 140.581 253.728 140.679 254.222C141.272 257.245 143.454 268.753 144.051 276.684C144.116 277.565 144.381 278.419 144.826 279.181C145.272 279.943 145.886 280.593 146.621 281.082C152.073 284.696 165.617 294.12 175.921 304.993C189.113 318.93 211.499 325.716 215.534 349.517L253.404 349.503Z" fill="#5396FA"/>
<path d="M181.304 297.96C176.56 291.344 164.264 281.857 159.185 278.086C157.813 277.073 156.892 275.564 156.618 273.881C155.015 264.053 151.55 255.165 150.527 252.675C150.287 252.094 150.145 251.477 150.107 250.85V250.811L149.832 230.05L151.481 230.028L151.756 250.767C151.784 251.207 151.883 251.64 152.05 252.048C153.092 254.579 156.615 263.613 158.248 273.614C158.452 274.875 159.143 276.006 160.171 276.764C165.305 280.582 177.761 290.195 182.648 296.998L181.304 297.96Z" fill="white"/>
<path d="M210.769 289.385C210.624 289.255 196.142 276.467 176.816 269.365C176.309 269.18 175.844 268.896 175.448 268.531C175.051 268.165 174.73 267.725 174.504 267.235C172.726 263.432 168.15 253.952 164.088 248.065C163.985 247.917 163.934 247.74 163.942 247.56C164.091 244.286 162.65 234.796 162.637 234.7L164.267 234.453C164.327 234.837 165.671 243.717 165.599 247.354C169.692 253.356 174.224 262.745 175.999 266.537C176.133 266.831 176.323 267.095 176.559 267.315C176.794 267.535 177.072 267.706 177.374 267.818C197.005 275.044 211.706 288.021 211.855 288.156L210.769 289.385Z" fill="#0736BD"/>
<path d="M212.921 262.963L208.336 264.613L208.894 266.165L213.479 264.514L212.921 262.963Z" fill="white"/>
<path d="M149.947 234.576C149.947 234.576 156.071 232.892 154.213 221.755C154.213 221.755 151.802 220.186 149.043 220.455L149.947 234.576Z" fill="white"/>
<path d="M140.997 240.342C140.997 240.342 147.396 239.292 145.538 228.815C145.538 228.815 143.463 226.323 140.527 226.691L140.997 240.342Z" fill="white"/>
<path d="M143.58 254.013L142.816 252.551C143.091 252.411 145.504 251.177 147.126 251.177V252.826C146.092 252.823 144.171 253.705 143.58 254.013Z" fill="white"/>
<path d="M148.479 278.677L147.715 277.22C147.99 277.077 150.403 275.846 152.024 275.846V277.495C150.994 277.495 149.07 278.366 148.479 278.677Z" fill="white"/>
<path d="M154.312 251.171L153.551 249.709C153.826 249.568 156.236 248.334 157.858 248.334V249.984C156.824 249.981 154.947 250.835 154.312 251.171Z" fill="white"/>
<path d="M161.867 275.173L161.098 273.711C161.372 273.57 163.786 272.336 165.407 272.336V273.985C164.379 273.983 162.502 274.843 161.867 275.173Z" fill="white"/>
<path d="M117.262 238.902H115.613C115.613 238.443 115.613 237.982 115.613 237.528L117.262 237.542C117.265 237.99 117.262 238.446 117.262 238.902ZM451.089 232.422C451.073 231.965 451.054 231.509 451.032 231.047L452.681 230.97L452.738 232.345L451.089 232.422ZM117.532 229.338L115.883 229.247L115.965 227.873L117.614 227.98L117.532 229.338ZM450.455 222.874C450.411 222.42 450.367 221.967 450.32 221.499L451.969 221.329C452.018 221.788 452.062 222.244 452.106 222.703L450.455 222.874ZM118.342 219.806L116.693 219.62C116.746 219.161 116.801 218.704 116.856 218.245L118.505 218.446C118.447 218.9 118.395 219.353 118.342 219.806ZM449.276 213.378C449.207 212.927 449.135 212.479 449.061 212.029L450.691 211.754C450.762 212.207 450.837 212.663 450.905 213.128L449.276 213.378ZM119.697 210.336L118.073 210.061C118.15 209.604 118.23 209.154 118.312 208.687L119.934 208.981C119.854 209.437 119.774 209.885 119.697 210.336ZM447.552 203.968C447.459 203.522 447.368 203.077 447.277 202.632L448.888 202.275C448.987 202.725 449.083 203.173 449.179 203.624L447.552 203.968ZM121.594 200.944L119.986 200.571C120.09 200.122 120.197 199.675 120.305 199.229L121.91 199.614C121.797 200.068 121.695 200.513 121.594 200.955V200.944ZM445.282 194.672C445.161 194.23 445.038 193.793 444.914 193.353L446.502 192.905C446.626 193.347 446.75 193.79 446.871 194.235L445.282 194.672ZM124.026 191.704L122.446 191.237C122.575 190.797 122.707 190.355 122.842 189.915L124.419 190.393C124.287 190.83 124.155 191.264 124.026 191.704ZM442.498 185.52C442.352 185.088 442.204 184.657 442.056 184.226L443.614 183.676C443.765 184.11 443.913 184.547 444.062 184.982L442.498 185.52ZM126.997 182.588L125.444 182.038C125.6 181.604 125.758 181.17 125.92 180.735L127.467 181.304C127.308 181.725 127.154 182.156 126.997 182.588ZM439.181 176.541C439.01 176.118 438.837 175.696 438.664 175.274L440.189 174.645C440.374 175.072 440.547 175.498 440.712 175.923L439.181 176.541ZM130.493 173.656L128.973 173.01C129.155 172.586 129.336 172.16 129.523 171.737L131.037 172.394C130.85 172.815 130.672 173.235 130.493 173.656ZM435.358 167.793C435.174 167.381 434.978 166.971 434.772 166.562L436.259 165.847C436.457 166.26 436.655 166.674 436.85 167.09L435.358 167.793ZM134.495 164.943L133.016 164.212L133.634 162.975L135.108 163.717L134.495 164.943ZM431.046 159.276C430.828 158.875 430.611 158.479 430.389 158.08L431.832 157.281C432.054 157.682 432.277 158.086 432.494 158.487L431.046 159.276ZM138.991 156.481L137.556 155.656C137.784 155.255 138.013 154.856 138.246 154.458L139.673 155.283C139.445 155.684 139.218 156.083 138.991 156.481ZM426.239 151.014C425.999 150.63 425.758 150.245 425.516 149.86L426.909 148.978C427.154 149.368 427.398 149.756 427.64 150.146L426.239 151.014ZM143.963 148.293L142.589 147.398C142.84 147.011 143.092 146.624 143.344 146.238L144.719 147.147C144.462 147.527 144.21 147.909 143.963 148.293ZM420.973 143.041C420.698 142.668 420.448 142.297 420.181 141.928L421.525 140.969C421.792 141.335 422.056 141.71 422.319 142.093L420.973 143.041ZM149.394 140.406L148.063 139.43C148.336 139.064 148.611 138.697 148.888 138.331L150.21 139.315C149.937 139.672 149.665 140.035 149.394 140.406ZM415.256 135.376L414.404 134.31L415.688 133.276C415.976 133.643 416.265 134.002 416.548 134.354L415.256 135.376ZM155.259 132.842L153.986 131.795C154.278 131.44 154.572 131.085 154.868 130.731L156.133 131.792C155.845 132.142 155.556 132.492 155.267 132.842H155.259ZM409.1 128.049C408.797 127.708 408.495 127.369 408.19 127.032L409.413 125.933C409.721 126.273 410.029 126.615 410.334 126.958L409.1 128.049ZM161.55 125.63L160.341 124.512C160.65 124.173 160.964 123.836 161.28 123.5L162.481 124.63L161.55 125.63ZM402.545 121.082C402.223 120.757 401.899 120.436 401.577 120.117L402.737 118.943C403.064 119.265 403.388 119.592 403.713 119.916L402.545 121.082ZM168.245 118.79L167.099 117.602C167.429 117.283 167.761 116.965 168.096 116.649L169.232 117.844L168.245 118.79ZM395.605 114.494L394.583 113.587L395.682 112.35L396.713 113.265L395.605 114.494ZM175.311 112.342L174.236 111.091C174.583 110.792 174.934 110.492 175.283 110.195L176.35 111.454L175.311 112.342ZM388.311 108.313L387.236 107.463L388.256 106.166L389.339 107.024L388.311 108.313ZM182.745 106.309L181.742 105.001L182.842 104.176L183.834 105.493L182.745 106.309ZM380.659 102.558L379.538 101.772L380.481 100.417C380.86 100.68 381.236 100.946 381.613 101.214L380.659 102.558ZM190.496 100.711L189.57 99.3365C189.949 99.0781 190.331 98.8198 190.713 98.5669L191.628 99.9411C191.241 100.199 190.864 100.455 190.488 100.711H190.496ZM372.689 97.2477C372.301 97.0059 371.914 96.7648 371.524 96.5249L372.387 95.1205C372.78 95.3623 373.173 95.605 373.563 95.8488L372.689 97.2477ZM198.551 95.5657L197.702 94.1503C198.098 93.9167 198.491 93.6803 198.887 93.4495L199.711 94.8704L198.551 95.5657ZM364.425 92.3996L363.221 91.7482L364.001 90.2943L365.216 90.9567L364.425 92.3996ZM206.882 90.8935L206.118 89.4313L207.338 88.7992L208.094 90.2668C207.679 90.473 207.272 90.6818 206.873 90.8935H206.882ZM355.891 88.0351L354.651 87.4525L355.347 85.9574C355.767 86.1525 356.171 86.3504 356.6 86.5483L355.891 88.0351ZM215.465 86.7077L214.786 85.2043C215.201 85.0147 215.611 84.8278 216.039 84.6546L216.707 86.1607L215.465 86.7077ZM347.113 84.1682L345.84 83.657L346.45 82.1261C346.879 82.2965 347.308 82.4669 347.734 82.6428L347.113 84.1682ZM224.26 83.0221L223.669 81.4857C224.098 81.3181 224.529 81.1559 224.958 80.9938L225.538 82.5384L224.26 83.0221ZM338.125 80.8234L336.823 80.3836L337.342 78.8198C337.782 78.9655 338.221 79.1111 338.658 79.2623L338.125 80.8234ZM233.285 79.8532L232.782 78.2811L234.099 77.8661L234.591 79.4409C234.154 79.5701 233.72 79.7048 233.285 79.8449V79.8532ZM328.979 77.998C328.539 77.8744 328.099 77.7562 327.659 77.638L328.085 76.0439L329.418 76.4095L328.979 77.998ZM242.479 77.1928L242.066 75.5959C242.512 75.4805 242.96 75.3678 243.405 75.2579L243.803 76.8575L242.479 77.1928ZM319.681 75.6976L318.342 75.4228L318.678 73.8095L320.027 74.0843L319.681 75.6976ZM251.796 75.0737L251.477 73.4577C251.928 73.367 252.378 73.2818 252.832 73.1829L253.137 74.8017L251.796 75.0737ZM310.268 73.9469C309.82 73.8755 309.369 73.8067 308.918 73.7408L309.16 72.1082L310.534 72.3171L310.268 73.9469ZM261.231 73.4989L261.006 71.8636L262.38 71.6822L262.591 73.3175C262.149 73.3752 261.69 73.4357 261.245 73.4989H261.231ZM300.791 72.7404L299.431 72.6112L299.579 70.9622L300.953 71.0913L300.791 72.7404ZM270.76 72.4655L270.628 70.8165L272.002 70.7121L272.12 72.3611L270.76 72.4655ZM291.249 72.0753L289.875 72.023L289.93 70.374C290.391 70.3878 290.85 70.407 291.304 70.4235L291.249 72.0753ZM280.316 71.9763L280.277 70.3273L281.651 70.2998L281.679 71.9488L280.316 71.9763Z" fill="#0736BD"/>
<path d="M284.227 407.527C262.078 407.546 240.143 403.195 219.677 394.728C199.211 386.26 180.616 373.84 164.955 358.177C149.294 342.516 136.875 323.918 128.408 303.453C119.942 282.986 115.594 261.051 115.613 238.902H117.262C117.262 330.973 192.167 405.878 284.238 405.878C376.309 405.878 451.213 330.973 451.213 238.902H452.862C452.881 261.053 448.534 282.99 440.066 303.458C431.598 323.926 419.175 342.522 403.512 358.185C387.849 373.848 369.251 386.268 348.784 394.733C328.314 403.201 306.377 407.549 284.227 407.527Z" fill="#0736BD"/>
<path d="M187.707 154.673L169.246 178.344L192.489 197.341C195.021 194.244 196.908 190.673 198.04 186.836C199.172 183 199.526 178.975 199.08 175C198.634 171.025 197.399 167.179 195.446 163.688C193.493 160.197 190.862 157.132 187.707 154.673Z" fill="#01227C"/>
<path d="M192.485 198.166C192.295 198.166 192.11 198.1 191.963 197.979L168.72 178.982C168.553 178.846 168.447 178.649 168.423 178.435C168.399 178.221 168.46 178.006 168.593 177.836L187.054 154.164C187.189 153.992 187.386 153.88 187.603 153.853C187.82 153.826 188.039 153.887 188.211 154.021C191.452 156.549 194.155 159.699 196.162 163.286C198.168 166.872 199.438 170.824 199.895 174.909C200.353 178.993 199.989 183.128 198.826 187.07C197.663 191.012 195.724 194.682 193.123 197.864C193.045 197.958 192.948 198.034 192.838 198.086C192.727 198.139 192.607 198.166 192.485 198.166ZM170.388 178.215L192.361 196.173C196.986 190.177 199.1 182.617 198.256 175.092C197.413 167.566 193.678 160.662 187.84 155.838L170.388 178.215Z" fill="#01227C"/>
<path d="M187.704 154.673C183.492 151.392 178.482 149.292 173.189 148.588C167.897 147.885 162.512 148.604 157.59 150.671L169.243 178.344L187.704 154.673Z" fill="white"/>
<path d="M169.239 179.169H169.131C168.989 179.15 168.854 179.094 168.739 179.007C168.625 178.92 168.536 178.804 168.48 178.672L156.827 151.001C156.742 150.8 156.74 150.573 156.822 150.37C156.904 150.168 157.063 150.006 157.264 149.921C162.322 147.796 167.855 147.057 173.293 147.779C178.732 148.501 183.88 150.659 188.208 154.029C188.38 154.164 188.492 154.361 188.519 154.578C188.546 154.795 188.485 155.014 188.351 155.187L169.89 178.85C169.813 178.949 169.714 179.03 169.601 179.085C169.488 179.14 169.364 179.169 169.239 179.169ZM158.671 151.122L169.453 176.728L186.537 154.824C182.577 151.916 177.948 150.053 173.078 149.406C168.208 148.759 163.253 149.349 158.671 151.122Z" fill="#0736BD"/>
<path d="M157.592 150.671C153.392 152.441 149.65 155.145 146.65 158.577C143.65 162.009 141.471 166.078 140.277 170.477C139.084 174.877 138.908 179.49 139.763 183.967C140.618 188.444 142.481 192.668 145.211 196.319C147.941 199.969 151.466 202.95 155.519 205.035C159.573 207.12 164.048 208.255 168.605 208.353C173.162 208.452 177.681 207.512 181.821 205.604C185.961 203.695 189.612 200.87 192.497 197.341L169.254 178.344L157.592 150.671Z" fill="#C7DBFD"/>
<path d="M169.241 209.187C162.121 209.186 155.22 206.721 149.71 202.212C144.2 197.703 140.419 191.426 139.009 184.447C137.599 177.468 138.647 170.217 141.975 163.922C145.303 157.627 150.705 152.677 157.266 149.912C157.367 149.871 157.474 149.849 157.582 149.849C157.691 149.849 157.798 149.871 157.898 149.912C157.999 149.954 158.09 150.014 158.167 150.09C158.244 150.167 158.305 150.258 158.346 150.358L169.923 177.841L193.009 196.706C193.177 196.843 193.285 197.041 193.309 197.256C193.319 197.364 193.308 197.473 193.277 197.577C193.245 197.68 193.193 197.777 193.125 197.861C190.236 201.406 186.594 204.262 182.462 206.221C178.33 208.181 173.814 209.194 169.241 209.187ZM157.148 151.762C153.181 153.573 149.67 156.249 146.872 159.595C144.075 162.94 142.063 166.87 140.983 171.095C139.904 175.32 139.784 179.734 140.634 184.011C141.484 188.288 143.281 192.321 145.893 195.813C148.506 199.305 151.867 202.167 155.731 204.189C159.594 206.212 163.862 207.343 168.22 207.5C172.578 207.656 176.916 206.835 180.915 205.096C184.915 203.356 188.473 200.743 191.33 197.448L168.733 178.982C168.629 178.896 168.548 178.787 168.496 178.663L157.148 151.762Z" fill="#0736BD"/>
<path d="M315.07 349.503C315.07 349.503 318.918 332.224 319.058 317.369C319.179 304.427 321.908 296.08 332.066 286.686C335.636 283.381 338.769 279.634 341.389 275.536C343.39 272.411 345.806 268.772 347.985 265.845C349.486 263.834 350.689 261.619 351.558 259.265C353.594 253.711 358.069 242.745 362.994 239.568C362.994 239.568 365.467 239.084 366.809 239.447C369.126 240.068 369.557 241.879 371.148 242.998C371.849 249.192 366.971 260.777 364.932 265.958C364.67 266.63 364.47 267.323 364.33 268.03C362.741 275.885 357.184 288.769 357.184 288.769C357.184 288.769 372.314 275.302 392.671 268.137L394.79 263.74C394.79 263.74 395.458 256.77 397.777 250.902C397.777 250.902 398.814 237.514 405.05 234.579C405.05 234.579 409.235 220.458 419.341 220.458L418.426 236.597C418.426 236.597 421.724 225.96 427.96 227.06C427.96 227.06 426.924 244.336 427.87 252.73C427.927 253.229 427.908 253.734 427.812 254.227C427.218 257.251 425.033 268.758 424.437 276.69C424.371 277.571 424.107 278.424 423.662 279.187C423.217 279.949 422.604 280.599 421.867 281.087C416.417 284.702 402.873 294.126 392.567 304.998C379.374 318.935 356.991 325.721 352.957 349.522L315.07 349.503Z" fill="#5396FA"/>
<path d="M387.174 297.96L385.836 296.998C390.714 290.195 403.178 280.582 408.309 276.764C409.337 276.005 410.027 274.875 410.233 273.614C411.863 263.613 415.387 254.579 416.428 252.048C416.596 251.64 416.695 251.207 416.725 250.767L417 230.028L418.649 230.05L418.374 250.811V250.85C418.336 251.477 418.195 252.094 417.956 252.675C416.931 255.165 413.465 264.053 411.863 273.881C411.588 275.564 410.668 277.073 409.296 278.086C404.223 281.857 391.921 291.344 387.174 297.96Z" fill="#0736BD"/>
<path d="M357.709 289.385L356.609 288.153C356.755 288.021 371.451 275.044 391.088 267.815C391.701 267.589 392.201 267.128 392.476 266.535C394.249 262.742 398.781 253.342 402.873 247.351C402.802 243.715 404.148 234.835 404.206 234.45L405.836 234.697C405.836 234.793 404.382 244.284 404.53 247.557C404.538 247.737 404.486 247.915 404.385 248.063C400.322 253.95 395.746 263.429 393.968 267.233C393.743 267.722 393.421 268.162 393.025 268.528C392.63 268.893 392.165 269.177 391.66 269.363C372.319 276.484 357.852 289.256 357.709 289.385Z" fill="white"/>
<path d="M355.557 262.972L354.996 264.524L359.583 266.175L360.141 264.623L355.557 262.972Z" fill="white"/>
<path d="M418.76 234.576C418.76 234.576 412.4 232.892 414.258 221.755C414.258 221.755 416.668 220.186 419.431 220.455L418.76 234.576Z" fill="white"/>
<path d="M427.479 240.342C427.479 240.342 421.098 239.293 422.939 228.816C422.939 228.816 425.08 226.342 428.015 226.721L427.479 240.342Z" fill="white"/>
<path d="M424.892 254.013C424.254 253.683 422.38 252.823 421.344 252.823V251.174C422.968 251.174 425.384 252.411 425.653 252.548L424.892 254.013Z" fill="white"/>
<path d="M419.997 278.677C419.36 278.344 417.483 277.487 416.449 277.487V275.838C418.071 275.838 420.489 277.072 420.759 277.212L419.997 278.677Z" fill="white"/>
<path d="M414.163 251.171C413.528 250.841 411.651 249.981 410.617 249.981V248.332C412.239 248.332 414.655 249.569 414.927 249.706L414.163 251.171Z" fill="white"/>
<path d="M406.611 275.173C405.973 274.843 404.096 273.983 403.062 273.983V272.334C404.684 272.334 407.103 273.571 407.372 273.708L406.611 275.173Z" fill="white"/>
<path d="M362.202 252.301C367.13 254.359 371.132 242.997 371.132 242.997C371.132 242.997 368.79 237.534 362.977 239.567C361.944 241.491 357.637 250.396 362.202 252.301Z" fill="white"/>
<path d="M206.501 252.301C201.576 254.359 197.574 242.997 197.574 242.997C197.574 242.997 199.916 237.534 205.726 239.567C206.759 241.491 211.069 250.396 206.501 252.301Z" fill="white"/>
</g>
<defs>
<radialGradient id="paint0_radial_5693_38375" cx="0" cy="0" r="1" gradientUnits="userSpaceOnUse" gradientTransform="translate(300.001 159) rotate(90) scale(160 442.387)">
<stop stop-color="#E1E4EA"/>
<stop offset="1" stop-color="#E1E4EA" stop-opacity="0"/>
</radialGradient>
<linearGradient id="paint1_linear_5693_38375" x1="300" y1="250.4" x2="300" y2="328" gradientUnits="userSpaceOnUse">
<stop stop-color="white" stop-opacity="0"/>
<stop offset="1" stop-color="white"/>
</linearGradient>
<linearGradient id="paint2_linear_5693_38375" x1="167.985" y1="382.976" x2="378.734" y2="121.786" gradientUnits="userSpaceOnUse">
<stop stop-color="white"/>
<stop offset="1" stop-color="#B8D4FD"/>
</linearGradient>
<clipPath id="clip0_5693_38375">
<rect width="600" height="320" fill="white"/>
</clipPath>
</defs>
</svg>
