<svg width="600" height="486" viewBox="0 0 600 486" fill="none" xmlns="http://www.w3.org/2000/svg">
<g clip-path="url(#clip0_5693_38495)">
<rect width="600" height="486" fill="white"/>
<g clip-path="url(#clip1_5693_38495)">
<path d="M-86.0883 -1H-141.387V52.3333M-86.0883 -1V52.3333M-86.0883 -1H-30.7899M-86.0883 52.3333H-141.387M-86.0883 52.3333V105.667M-86.0883 52.3333H-30.7899M-141.387 52.3333V105.667M-86.0883 105.667H-141.387M-86.0883 105.667V159M-86.0883 105.667H-30.7899M-141.387 105.667V159M-86.0883 159H-141.387M-86.0883 159V212.333M-86.0883 159H-30.7899M-141.387 159V212.333M-86.0883 212.333H-141.387M-86.0883 212.333V265.667M-86.0883 212.333H-30.7899M-141.387 212.333V265.667M-86.0883 265.667H-141.387M-86.0883 265.667V319M-86.0883 265.667H-30.7899M-141.387 265.667V319H-86.0883M-86.0883 319H-30.7899M-30.7899 -1V52.3333M-30.7899 -1H24.5085M-30.7899 52.3333V105.667M-30.7899 52.3333H24.5085M-30.7899 105.667V159M-30.7899 105.667H24.5085M-30.7899 159V212.333M-30.7899 159H24.5085M-30.7899 212.333V265.667M-30.7899 212.333H24.5085M-30.7899 265.667V319M-30.7899 265.667H24.5085M-30.7899 319H24.5085M24.5085 -1V52.3333M24.5085 -1H79.8069M24.5085 52.3333V105.667M24.5085 52.3333H79.8069M24.5085 105.667V159M24.5085 105.667H79.8069M24.5085 159V212.333M24.5085 159H79.8069M24.5085 212.333V265.667M24.5085 212.333H79.8069M24.5085 265.667V319M24.5085 265.667H79.8069M24.5085 319H79.8069M79.8069 -1V52.3333M79.8069 -1H135.105M79.8069 52.3333V105.667M79.8069 52.3333H135.105M79.8069 105.667V159M79.8069 105.667H135.105M79.8069 159V212.333M79.8069 159H135.105M79.8069 212.333V265.667M79.8069 212.333H135.105M79.8069 265.667V319M79.8069 265.667H135.105M79.8069 319H135.105M135.105 -1V52.3333M135.105 -1H190.404M135.105 52.3333V105.667M135.105 52.3333H190.404M135.105 105.667V159M135.105 105.667H190.404M135.105 159V212.333M135.105 159H190.404M135.105 212.333V265.667M135.105 212.333H190.404M135.105 265.667V319M135.105 265.667H190.404M135.105 319H190.404M190.404 -1V52.3333M190.404 -1H245.702M190.404 52.3333V105.667M190.404 52.3333H245.702M190.404 105.667V159M190.404 105.667H245.702M190.404 159V212.333M190.404 159H245.702M190.404 212.333V265.667M190.404 212.333H245.702M190.404 265.667V319M190.404 265.667H245.702M190.404 319H245.702M245.702 -1V52.3333M245.702 -1H301.001M245.702 52.3333V105.667M245.702 52.3333H301.001M245.702 105.667V159M245.702 105.667H301.001M245.702 159V212.333M245.702 159H301.001M245.702 212.333V265.667M245.702 212.333H301.001M245.702 265.667V319M245.702 265.667H301.001M245.702 319H301.001M301.001 -1V52.3333M301.001 -1H356.299M301.001 52.3333V105.667M301.001 52.3333H356.299M301.001 105.667V159M301.001 105.667H356.299M301.001 159V212.333M301.001 159H356.299M301.001 212.333V265.667M301.001 212.333H356.299M301.001 265.667V319M301.001 265.667H356.299M301.001 319H356.299M356.299 -1V52.3333M356.299 -1H411.597M356.299 52.3333V105.667M356.299 52.3333H411.597M356.299 105.667V159M356.299 105.667H411.597M356.299 159V212.333M356.299 159H411.597M356.299 212.333V265.667M356.299 212.333H411.597M356.299 265.667V319M356.299 265.667H411.597M356.299 319H411.597M411.597 -1V52.3333M411.597 -1H466.896M411.597 52.3333V105.667M411.597 52.3333H466.896M411.597 105.667V159M411.597 105.667H466.896M411.597 159V212.333M411.597 159H466.896M411.597 212.333V265.667M411.597 212.333H466.896M411.597 265.667V319M411.597 265.667H466.896M411.597 319H466.896M466.896 -1V52.3333M466.896 -1H522.194M466.896 52.3333V105.667M466.896 52.3333H522.194M466.896 105.667V159M466.896 105.667H522.194M466.896 159V212.333M466.896 159H522.194M466.896 212.333V265.667M466.896 212.333H522.194M466.896 265.667V319M466.896 265.667H522.194M466.896 319H522.194M522.194 -1V52.3333M522.194 -1H577.493M522.194 52.3333V105.667M522.194 52.3333H577.493M522.194 105.667V159M522.194 105.667H577.493M522.194 159V212.333M522.194 159H577.493M522.194 212.333V265.667M522.194 212.333H577.493M522.194 265.667V319M522.194 265.667H577.493M522.194 319H577.493M577.493 -1V52.3333M577.493 -1H632.791M577.493 52.3333V105.667M577.493 52.3333H632.791M577.493 105.667V159M577.493 105.667H632.791M577.493 159V212.333M577.493 159H632.791M577.493 212.333V265.667M577.493 212.333H632.791M577.493 265.667V319M577.493 265.667H632.791M577.493 319H632.791M632.791 -1V52.3333M632.791 -1H688.089M632.791 52.3333V105.667M632.791 52.3333H688.089M632.791 105.667V159M632.791 105.667H688.089M632.791 159V212.333M632.791 159H688.089M632.791 212.333V265.667M632.791 212.333H688.089M632.791 265.667V319M632.791 265.667H688.089M632.791 319H688.089M688.089 -1V52.3333M688.089 -1H743.388V52.3333M688.089 52.3333V105.667M688.089 52.3333H743.388M688.089 105.667V159M688.089 105.667H743.388M688.089 159V212.333M688.089 159H743.388M688.089 212.333V265.667M688.089 212.333H743.388M688.089 265.667V319M688.089 265.667H743.388M688.089 319H743.388V265.667M743.388 52.3333V105.667M743.388 105.667V159M743.388 159V212.333M743.388 212.333V265.667" stroke="url(#paint0_radial_5693_38495)" stroke-width="0.8"/>
<g filter="url(#filter0_d_5693_38495)">
<path d="M301 167C301 162.582 304.582 159 309 159H565C569.418 159 573 162.582 573 167V247C573 251.418 569.418 255 565 255H309C304.582 255 301 251.418 301 247V167Z" fill="#F4F4F5"/>
<path d="M309 159.25H565C569.28 159.25 572.75 162.72 572.75 167V247C572.75 251.28 569.28 254.75 565 254.75H309C304.72 254.75 301.25 251.28 301.25 247V167C301.25 162.72 304.72 159.25 309 159.25Z" stroke="#E4E4E7" stroke-width="0.5"/>
</g>
<g filter="url(#filter1_d_5693_38495)">
<path d="M29 71C29 66.5817 32.5817 63 37 63H293C297.418 63 301 66.5817 301 71V151C301 155.418 297.418 159 293 159H37C32.5817 159 29 155.418 29 151V71Z" fill="#EFF4FF"/>
<path d="M37 63.25H293C297.28 63.25 300.75 66.7198 300.75 71V151C300.75 155.28 297.28 158.75 293 158.75H37C32.7198 158.75 29.25 155.28 29.25 151V71C29.25 66.7198 32.7198 63.25 37 63.25Z" stroke="#0040C2" stroke-width="0.5"/>
</g>
</g>
<path d="M38.588 396.27C37.298 396.27 36.203 395.985 35.303 395.415C34.403 394.845 33.716 394.053 33.242 393.039C32.774 392.025 32.54 390.852 32.54 389.52C32.54 388.188 32.774 387.015 33.242 386.001C33.716 384.987 34.403 384.195 35.303 383.625C36.203 383.055 37.298 382.77 38.588 382.77C40.088 382.77 41.321 383.151 42.287 383.913C43.259 384.675 43.928 385.701 44.294 386.991L42.665 387.423C42.401 386.457 41.93 385.695 41.252 385.137C40.574 384.579 39.686 384.3 38.588 384.3C37.622 384.3 36.818 384.519 36.176 384.957C35.534 385.395 35.051 386.007 34.727 386.793C34.403 387.573 34.238 388.482 34.232 389.52C34.226 390.552 34.385 391.461 34.709 392.247C35.033 393.027 35.519 393.639 36.167 394.083C36.815 394.521 37.622 394.74 38.588 394.74C39.686 394.74 40.574 394.461 41.252 393.903C41.93 393.339 42.401 392.577 42.665 391.617L44.294 392.049C43.928 393.333 43.259 394.359 42.287 395.127C41.321 395.889 40.088 396.27 38.588 396.27ZM50.0478 396.27C49.0818 396.27 48.2478 396.051 47.5458 395.613C46.8498 395.175 46.3128 394.569 45.9348 393.795C45.5568 393.021 45.3678 392.133 45.3678 391.131C45.3678 390.111 45.5598 389.217 45.9438 388.449C46.3278 387.681 46.8708 387.084 47.5728 386.658C48.2748 386.226 49.0998 386.01 50.0478 386.01C51.0198 386.01 51.8568 386.229 52.5588 386.667C53.2608 387.099 53.7978 387.702 54.1698 388.476C54.5478 389.244 54.7368 390.129 54.7368 391.131C54.7368 392.145 54.5478 393.039 54.1698 393.813C53.7918 394.581 53.2518 395.184 52.5498 395.622C51.8478 396.054 51.0138 396.27 50.0478 396.27ZM50.0478 394.749C51.0558 394.749 51.8058 394.413 52.2978 393.741C52.7898 393.069 53.0358 392.199 53.0358 391.131C53.0358 390.033 52.7868 389.16 52.2888 388.512C51.7908 387.858 51.0438 387.531 50.0478 387.531C49.3698 387.531 48.8118 387.684 48.3738 387.99C47.9358 388.296 47.6088 388.719 47.3928 389.259C47.1768 389.799 47.0688 390.423 47.0688 391.131C47.0688 392.223 47.3208 393.099 47.8248 393.759C48.3288 394.419 49.0698 394.749 50.0478 394.749ZM56.3584 396V386.28H57.7894V388.629L57.5554 388.323C57.6694 388.023 57.8164 387.747 57.9964 387.495C58.1824 387.243 58.3894 387.036 58.6174 386.874C58.8694 386.67 59.1544 386.514 59.4724 386.406C59.7904 386.298 60.1144 386.235 60.4444 386.217C60.7744 386.193 61.0834 386.214 61.3714 386.28V387.783C61.0354 387.693 60.6664 387.669 60.2644 387.711C59.8624 387.753 59.4904 387.9 59.1484 388.152C58.8364 388.374 58.5934 388.644 58.4194 388.962C58.2514 389.28 58.1344 389.625 58.0684 389.997C58.0024 390.363 57.9694 390.738 57.9694 391.122V396H56.3584ZM67.1772 396.27C66.2652 396.27 65.4972 396.045 64.8732 395.595C64.2492 395.139 63.7752 394.524 63.4512 393.75C63.1332 392.97 62.9742 392.097 62.9742 391.131C62.9742 390.153 63.1332 389.277 63.4512 388.503C63.7752 387.729 64.2492 387.12 64.8732 386.676C65.5032 386.232 66.2742 386.01 67.1862 386.01C68.0862 386.01 68.8602 386.235 69.5082 386.685C70.1622 387.129 70.6632 387.738 71.0112 388.512C71.3592 389.286 71.5332 390.159 71.5332 391.131C71.5332 392.103 71.3592 392.976 71.0112 393.75C70.6632 394.524 70.1622 395.139 69.5082 395.595C68.8602 396.045 68.0832 396.27 67.1772 396.27ZM62.7042 400.32V386.28H64.1352V393.435H64.3152V400.32H62.7042ZM66.9792 394.803C67.6212 394.803 68.1522 394.641 68.5722 394.317C68.9922 393.993 69.3072 393.555 69.5172 393.003C69.7272 392.445 69.8322 391.821 69.8322 391.131C69.8322 390.447 69.7272 389.829 69.5172 389.277C69.3132 388.725 68.9952 388.287 68.5632 387.963C68.1372 387.639 67.5942 387.477 66.9342 387.477C66.3042 387.477 65.7822 387.633 65.3682 387.945C64.9542 388.251 64.6452 388.68 64.4412 389.232C64.2372 389.778 64.1352 390.411 64.1352 391.131C64.1352 391.839 64.2342 392.472 64.4322 393.03C64.6362 393.582 64.9482 394.017 65.3682 394.335C65.7882 394.647 66.3252 394.803 66.9792 394.803ZM77.2862 396.27C76.3202 396.27 75.4862 396.051 74.7842 395.613C74.0882 395.175 73.5512 394.569 73.1732 393.795C72.7952 393.021 72.6062 392.133 72.6062 391.131C72.6062 390.111 72.7982 389.217 73.1822 388.449C73.5662 387.681 74.1092 387.084 74.8112 386.658C75.5132 386.226 76.3382 386.01 77.2862 386.01C78.2582 386.01 79.0952 386.229 79.7972 386.667C80.4992 387.099 81.0362 387.702 81.4082 388.476C81.7862 389.244 81.9752 390.129 81.9752 391.131C81.9752 392.145 81.7862 393.039 81.4082 393.813C81.0302 394.581 80.4902 395.184 79.7882 395.622C79.0862 396.054 78.2522 396.27 77.2862 396.27ZM77.2862 394.749C78.2942 394.749 79.0442 394.413 79.5362 393.741C80.0282 393.069 80.2742 392.199 80.2742 391.131C80.2742 390.033 80.0252 389.16 79.5272 388.512C79.0292 387.858 78.2822 387.531 77.2862 387.531C76.6082 387.531 76.0502 387.684 75.6122 387.99C75.1742 388.296 74.8472 388.719 74.6312 389.259C74.4152 389.799 74.3072 390.423 74.3072 391.131C74.3072 392.223 74.5592 393.099 75.0632 393.759C75.5672 394.419 76.3082 394.749 77.2862 394.749ZM83.5967 396V386.28H85.0277V388.629L84.7937 388.323C84.9077 388.023 85.0547 387.747 85.2347 387.495C85.4207 387.243 85.6277 387.036 85.8557 386.874C86.1077 386.67 86.3927 386.514 86.7107 386.406C87.0287 386.298 87.3527 386.235 87.6827 386.217C88.0127 386.193 88.3217 386.214 88.6097 386.28V387.783C88.2737 387.693 87.9047 387.669 87.5027 387.711C87.1007 387.753 86.7287 387.9 86.3867 388.152C86.0747 388.374 85.8317 388.644 85.6577 388.962C85.4897 389.28 85.3727 389.625 85.3067 389.997C85.2407 390.363 85.2077 390.738 85.2077 391.122V396H83.5967ZM92.3982 396.27C91.6722 396.27 91.0632 396.138 90.5712 395.874C90.0852 395.604 89.7162 395.25 89.4642 394.812C89.2182 394.374 89.0952 393.894 89.0952 393.372C89.0952 392.862 89.1912 392.421 89.3832 392.049C89.5812 391.671 89.8572 391.359 90.2112 391.113C90.5652 390.861 90.9882 390.663 91.4802 390.519C91.9422 390.393 92.4582 390.285 93.0282 390.195C93.6042 390.099 94.1862 390.012 94.7742 389.934C95.3622 389.856 95.9112 389.781 96.4212 389.709L95.8452 390.042C95.8632 389.178 95.6892 388.539 95.3232 388.125C94.9632 387.711 94.3392 387.504 93.4512 387.504C92.8632 387.504 92.3472 387.639 91.9032 387.909C91.4652 388.173 91.1562 388.605 90.9762 389.205L89.4552 388.746C89.6892 387.894 90.1422 387.225 90.8142 386.739C91.4862 386.253 92.3712 386.01 93.4692 386.01C94.3512 386.01 95.1072 386.169 95.7372 386.487C96.3732 386.799 96.8292 387.273 97.1052 387.909C97.2432 388.209 97.3302 388.536 97.3662 388.89C97.4022 389.238 97.4202 389.604 97.4202 389.988V396H95.9982V393.669L96.3312 393.885C95.9652 394.671 95.4522 395.265 94.7922 395.667C94.1382 396.069 93.3402 396.27 92.3982 396.27ZM92.6412 394.929C93.2172 394.929 93.7152 394.827 94.1352 394.623C94.5612 394.413 94.9032 394.14 95.1612 393.804C95.4192 393.462 95.5872 393.09 95.6652 392.688C95.7552 392.388 95.8032 392.055 95.8092 391.689C95.8212 391.317 95.8272 391.032 95.8272 390.834L96.3852 391.077C95.8632 391.149 95.3502 391.218 94.8462 391.284C94.3422 391.35 93.8652 391.422 93.4152 391.5C92.9652 391.572 92.5602 391.659 92.2002 391.761C91.9362 391.845 91.6872 391.953 91.4532 392.085C91.2252 392.217 91.0392 392.388 90.8952 392.598C90.7572 392.802 90.6882 393.057 90.6882 393.363C90.6882 393.627 90.7542 393.879 90.8862 394.119C91.0242 394.359 91.2342 394.554 91.5162 394.704C91.8042 394.854 92.1792 394.929 92.6412 394.929ZM104.827 396C104.251 396.114 103.681 396.159 103.117 396.135C102.559 396.117 102.061 396.006 101.623 395.802C101.185 395.592 100.852 395.268 100.624 394.83C100.432 394.446 100.327 394.059 100.309 393.669C100.297 393.273 100.291 392.826 100.291 392.328V383.58H101.893V392.256C101.893 392.652 101.896 392.991 101.902 393.273C101.914 393.555 101.977 393.798 102.091 394.002C102.307 394.386 102.649 394.611 103.117 394.677C103.591 394.743 104.161 394.725 104.827 394.623V396ZM98.3202 387.603V386.28H104.827V387.603H98.3202ZM110.248 396.27C109.294 396.27 108.46 396.06 107.746 395.64C107.038 395.214 106.486 394.623 106.09 393.867C105.694 393.105 105.496 392.217 105.496 391.203C105.496 390.141 105.691 389.223 106.081 388.449C106.471 387.669 107.014 387.069 107.71 386.649C108.412 386.223 109.234 386.01 110.176 386.01C111.154 386.01 111.985 386.235 112.669 386.685C113.359 387.135 113.875 387.777 114.217 388.611C114.565 389.445 114.715 390.438 114.667 391.59H113.047V391.014C113.029 389.82 112.786 388.929 112.318 388.341C111.85 387.747 111.154 387.45 110.23 387.45C109.24 387.45 108.487 387.768 107.971 388.404C107.455 389.04 107.197 389.952 107.197 391.14C107.197 392.286 107.455 393.174 107.971 393.804C108.487 394.434 109.222 394.749 110.176 394.749C110.818 394.749 111.376 394.602 111.85 394.308C112.324 394.014 112.696 393.591 112.966 393.039L114.505 393.57C114.127 394.428 113.557 395.094 112.795 395.568C112.039 396.036 111.19 396.27 110.248 396.27ZM106.657 391.59V390.303H113.839V391.59H106.657ZM122.66 396V390.609L118.295 383.04H120.158L123.47 388.773L126.773 383.04H128.636L124.28 390.609V396H122.66ZM129.71 384.561V382.905H131.312V384.561H129.71ZM129.71 396V386.28H131.312V396H129.71ZM137.865 396.27C136.911 396.27 136.077 396.06 135.363 395.64C134.655 395.214 134.103 394.623 133.707 393.867C133.311 393.105 133.113 392.217 133.113 391.203C133.113 390.141 133.308 389.223 133.698 388.449C134.088 387.669 134.631 387.069 135.327 386.649C136.029 386.223 136.851 386.01 137.793 386.01C138.771 386.01 139.602 386.235 140.286 386.685C140.976 387.135 141.492 387.777 141.834 388.611C142.182 389.445 142.332 390.438 142.284 391.59H140.664V391.014C140.646 389.82 140.403 388.929 139.935 388.341C139.467 387.747 138.771 387.45 137.847 387.45C136.857 387.45 136.104 387.768 135.588 388.404C135.072 389.04 134.814 389.952 134.814 391.14C134.814 392.286 135.072 393.174 135.588 393.804C136.104 394.434 136.839 394.749 137.793 394.749C138.435 394.749 138.993 394.602 139.467 394.308C139.941 394.014 140.313 393.591 140.583 393.039L142.122 393.57C141.744 394.428 141.174 395.094 140.412 395.568C139.656 396.036 138.807 396.27 137.865 396.27ZM134.274 391.59V390.303H141.456V391.59H134.274ZM144.108 396V382.77H145.71V396H144.108ZM151.866 396.27C150.96 396.27 150.183 396.045 149.535 395.595C148.887 395.139 148.386 394.524 148.032 393.75C147.684 392.976 147.51 392.103 147.51 391.131C147.51 390.159 147.684 389.286 148.032 388.512C148.386 387.738 148.887 387.129 149.535 386.685C150.183 386.235 150.957 386.01 151.857 386.01C152.775 386.01 153.546 386.232 154.17 386.676C154.794 387.12 155.265 387.729 155.583 388.503C155.907 389.277 156.069 390.153 156.069 391.131C156.069 392.097 155.907 392.97 155.583 393.75C155.265 394.524 154.794 395.139 154.17 395.595C153.546 396.045 152.778 396.27 151.866 396.27ZM152.064 394.803C152.718 394.803 153.255 394.647 153.675 394.335C154.095 394.017 154.404 393.582 154.602 393.03C154.806 392.472 154.908 391.839 154.908 391.131C154.908 390.411 154.806 389.778 154.602 389.232C154.404 388.68 154.098 388.251 153.684 387.945C153.27 387.633 152.745 387.477 152.109 387.477C151.449 387.477 150.903 387.639 150.471 387.963C150.045 388.287 149.727 388.725 149.517 389.277C149.313 389.829 149.211 390.447 149.211 391.131C149.211 391.821 149.316 392.445 149.526 393.003C149.736 393.555 150.051 393.993 150.471 394.317C150.897 394.641 151.428 394.803 152.064 394.803ZM154.908 396V388.845H154.728V383.04H156.339V396H154.908ZM158.321 390.987V389.664H163.721V390.987H158.321ZM168.462 396.27C167.736 396.27 167.127 396.138 166.635 395.874C166.149 395.604 165.78 395.25 165.528 394.812C165.282 394.374 165.159 393.894 165.159 393.372C165.159 392.862 165.255 392.421 165.447 392.049C165.645 391.671 165.921 391.359 166.275 391.113C166.629 390.861 167.052 390.663 167.544 390.519C168.006 390.393 168.522 390.285 169.092 390.195C169.668 390.099 170.25 390.012 170.838 389.934C171.426 389.856 171.975 389.781 172.485 389.709L171.909 390.042C171.927 389.178 171.753 388.539 171.387 388.125C171.027 387.711 170.403 387.504 169.515 387.504C168.927 387.504 168.411 387.639 167.967 387.909C167.529 388.173 167.22 388.605 167.04 389.205L165.519 388.746C165.753 387.894 166.206 387.225 166.878 386.739C167.55 386.253 168.435 386.01 169.533 386.01C170.415 386.01 171.171 386.169 171.801 386.487C172.437 386.799 172.893 387.273 173.169 387.909C173.307 388.209 173.394 388.536 173.43 388.89C173.466 389.238 173.484 389.604 173.484 389.988V396H172.062V393.669L172.395 393.885C172.029 394.671 171.516 395.265 170.856 395.667C170.202 396.069 169.404 396.27 168.462 396.27ZM168.705 394.929C169.281 394.929 169.779 394.827 170.199 394.623C170.625 394.413 170.967 394.14 171.225 393.804C171.483 393.462 171.651 393.09 171.729 392.688C171.819 392.388 171.867 392.055 171.873 391.689C171.885 391.317 171.891 391.032 171.891 390.834L172.449 391.077C171.927 391.149 171.414 391.218 170.91 391.284C170.406 391.35 169.929 391.422 169.479 391.5C169.029 391.572 168.624 391.659 168.264 391.761C168 391.845 167.751 391.953 167.517 392.085C167.289 392.217 167.103 392.388 166.959 392.598C166.821 392.802 166.752 393.057 166.752 393.363C166.752 393.627 166.818 393.879 166.95 394.119C167.088 394.359 167.298 394.554 167.58 394.704C167.868 394.854 168.243 394.929 168.705 394.929ZM179.136 396.261C177.978 396.261 177.027 396.009 176.283 395.505C175.545 394.995 175.092 394.284 174.924 393.372L176.562 393.111C176.694 393.639 176.997 394.059 177.471 394.371C177.945 394.677 178.533 394.83 179.235 394.83C179.901 394.83 180.423 394.692 180.801 394.416C181.179 394.14 181.368 393.765 181.368 393.291C181.368 393.015 181.305 392.793 181.179 392.625C181.053 392.451 180.792 392.289 180.396 392.139C180.006 391.989 179.415 391.809 178.623 391.599C177.765 391.371 177.09 391.134 176.598 390.888C176.106 390.642 175.755 390.357 175.545 390.033C175.335 389.709 175.23 389.316 175.23 388.854C175.23 388.284 175.386 387.786 175.698 387.36C176.01 386.928 176.445 386.595 177.003 386.361C177.567 386.127 178.221 386.01 178.965 386.01C179.703 386.01 180.363 386.127 180.945 386.361C181.527 386.595 181.995 386.928 182.349 387.36C182.709 387.786 182.922 388.284 182.988 388.854L181.35 389.151C181.272 388.629 181.02 388.218 180.594 387.918C180.174 387.618 179.631 387.459 178.965 387.441C178.335 387.417 177.822 387.528 177.426 387.774C177.036 388.02 176.841 388.353 176.841 388.773C176.841 389.007 176.913 389.208 177.057 389.376C177.207 389.544 177.48 389.703 177.876 389.853C178.278 390.003 178.86 390.174 179.622 390.366C180.48 390.582 181.155 390.819 181.647 391.077C182.145 391.329 182.499 391.629 182.709 391.977C182.919 392.319 183.024 392.742 183.024 393.246C183.024 394.182 182.679 394.92 181.989 395.46C181.299 395.994 180.348 396.261 179.136 396.261ZM184.469 390.987V389.664H189.869V390.987H184.469ZM194.611 396.27C193.885 396.27 193.276 396.138 192.784 395.874C192.298 395.604 191.929 395.25 191.677 394.812C191.431 394.374 191.308 393.894 191.308 393.372C191.308 392.862 191.404 392.421 191.596 392.049C191.794 391.671 192.07 391.359 192.424 391.113C192.778 390.861 193.201 390.663 193.693 390.519C194.155 390.393 194.671 390.285 195.241 390.195C195.817 390.099 196.399 390.012 196.987 389.934C197.575 389.856 198.124 389.781 198.634 389.709L198.058 390.042C198.076 389.178 197.902 388.539 197.536 388.125C197.176 387.711 196.552 387.504 195.664 387.504C195.076 387.504 194.56 387.639 194.116 387.909C193.678 388.173 193.369 388.605 193.189 389.205L191.668 388.746C191.902 387.894 192.355 387.225 193.027 386.739C193.699 386.253 194.584 386.01 195.682 386.01C196.564 386.01 197.32 386.169 197.95 386.487C198.586 386.799 199.042 387.273 199.318 387.909C199.456 388.209 199.543 388.536 199.579 388.89C199.615 389.238 199.633 389.604 199.633 389.988V396H198.211V393.669L198.544 393.885C198.178 394.671 197.665 395.265 197.005 395.667C196.351 396.069 195.553 396.27 194.611 396.27ZM194.854 394.929C195.43 394.929 195.928 394.827 196.348 394.623C196.774 394.413 197.116 394.14 197.374 393.804C197.632 393.462 197.8 393.09 197.878 392.688C197.968 392.388 198.016 392.055 198.022 391.689C198.034 391.317 198.04 391.032 198.04 390.834L198.598 391.077C198.076 391.149 197.563 391.218 197.059 391.284C196.555 391.35 196.078 391.422 195.628 391.5C195.178 391.572 194.773 391.659 194.413 391.761C194.149 391.845 193.9 391.953 193.666 392.085C193.438 392.217 193.252 392.388 193.108 392.598C192.97 392.802 192.901 393.057 192.901 393.363C192.901 393.627 192.967 393.879 193.099 394.119C193.237 394.359 193.447 394.554 193.729 394.704C194.017 394.854 194.392 394.929 194.854 394.929ZM201.433 390.987V389.664H206.833V390.987H201.433ZM213.41 396.27C212.492 396.27 211.664 396.114 210.926 395.802C210.194 395.49 209.588 395.046 209.108 394.47C208.634 393.888 208.325 393.201 208.181 392.409L209.837 392.148C210.047 392.964 210.482 393.603 211.142 394.065C211.808 394.521 212.591 394.749 213.491 394.749C214.073 394.749 214.598 394.659 215.066 394.479C215.54 394.293 215.915 394.029 216.191 393.687C216.467 393.345 216.605 392.94 216.605 392.472C216.605 392.184 216.554 391.938 216.452 391.734C216.356 391.524 216.221 391.347 216.047 391.203C215.879 391.053 215.687 390.927 215.471 390.825C215.255 390.723 215.03 390.639 214.796 390.573L211.493 389.592C211.133 389.484 210.785 389.349 210.449 389.187C210.113 389.019 209.813 388.812 209.549 388.566C209.285 388.314 209.075 388.014 208.919 387.666C208.763 387.312 208.685 386.895 208.685 386.415C208.685 385.647 208.883 384.993 209.279 384.453C209.681 383.907 210.224 383.49 210.908 383.202C211.592 382.914 212.363 382.773 213.221 382.779C214.091 382.785 214.868 382.941 215.552 383.247C216.242 383.547 216.812 383.979 217.262 384.543C217.718 385.107 218.024 385.782 218.18 386.568L216.479 386.865C216.389 386.337 216.188 385.884 215.876 385.506C215.57 385.122 215.186 384.828 214.724 384.624C214.262 384.414 213.755 384.306 213.203 384.3C212.675 384.294 212.198 384.378 211.772 384.552C211.346 384.726 211.007 384.969 210.755 385.281C210.503 385.587 210.377 385.941 210.377 386.343C210.377 386.739 210.491 387.06 210.719 387.306C210.947 387.546 211.226 387.738 211.556 387.882C211.892 388.02 212.219 388.134 212.537 388.224L215.003 388.935C215.285 389.013 215.609 389.121 215.975 389.259C216.347 389.397 216.707 389.592 217.055 389.844C217.403 390.09 217.691 390.42 217.919 390.834C218.147 391.242 218.261 391.758 218.261 392.382C218.261 393.006 218.135 393.561 217.883 394.047C217.637 394.533 217.292 394.941 216.848 395.271C216.404 395.595 215.888 395.841 215.3 396.009C214.712 396.183 214.082 396.27 213.41 396.27ZM224.001 396.27C223.047 396.27 222.213 396.06 221.499 395.64C220.791 395.214 220.239 394.623 219.843 393.867C219.447 393.105 219.249 392.217 219.249 391.203C219.249 390.141 219.444 389.223 219.834 388.449C220.224 387.669 220.767 387.069 221.463 386.649C222.165 386.223 222.987 386.01 223.929 386.01C224.907 386.01 225.738 386.235 226.422 386.685C227.112 387.135 227.628 387.777 227.97 388.611C228.318 389.445 228.468 390.438 228.42 391.59H226.8V391.014C226.782 389.82 226.539 388.929 226.071 388.341C225.603 387.747 224.907 387.45 223.983 387.45C222.993 387.45 222.24 387.768 221.724 388.404C221.208 389.04 220.95 389.952 220.95 391.14C220.95 392.286 221.208 393.174 221.724 393.804C222.24 394.434 222.975 394.749 223.929 394.749C224.571 394.749 225.129 394.602 225.603 394.308C226.077 394.014 226.449 393.591 226.719 393.039L228.258 393.57C227.88 394.428 227.31 395.094 226.548 395.568C225.792 396.036 224.943 396.27 224.001 396.27ZM220.41 391.59V390.303H227.592V391.59H220.41ZM230.064 396V386.28H231.495V388.629L231.261 388.323C231.375 388.023 231.522 387.747 231.702 387.495C231.888 387.243 232.095 387.036 232.323 386.874C232.575 386.67 232.86 386.514 233.178 386.406C233.496 386.298 233.82 386.235 234.15 386.217C234.48 386.193 234.789 386.214 235.077 386.28V387.783C234.741 387.693 234.372 387.669 233.97 387.711C233.568 387.753 233.196 387.9 232.854 388.152C232.542 388.374 232.299 388.644 232.125 388.962C231.957 389.28 231.84 389.625 231.774 389.997C231.708 390.363 231.675 390.738 231.675 391.122V396H230.064ZM239.047 396L235.519 386.28H237.139L239.866 393.957L242.584 386.28H244.213L240.685 396H239.047ZM245.661 384.561V382.905H247.263V384.561H245.661ZM245.661 396V386.28H247.263V396H245.661ZM253.698 396.27C252.714 396.27 251.877 396.051 251.187 395.613C250.503 395.169 249.981 394.56 249.621 393.786C249.261 393.012 249.075 392.13 249.063 391.14C249.075 390.126 249.264 389.235 249.63 388.467C250.002 387.693 250.533 387.09 251.223 386.658C251.913 386.226 252.744 386.01 253.716 386.01C254.742 386.01 255.624 386.262 256.362 386.766C257.106 387.27 257.604 387.96 257.856 388.836L256.272 389.313C256.068 388.749 255.735 388.311 255.273 387.999C254.817 387.687 254.292 387.531 253.698 387.531C253.032 387.531 252.483 387.687 252.051 387.999C251.619 388.305 251.298 388.731 251.088 389.277C250.878 389.817 250.77 390.438 250.764 391.14C250.776 392.22 251.025 393.093 251.511 393.759C252.003 394.419 252.732 394.749 253.698 394.749C254.334 394.749 254.862 394.605 255.282 394.317C255.702 394.023 256.02 393.6 256.236 393.048L257.856 393.471C257.52 394.377 256.995 395.07 256.281 395.55C255.567 396.03 254.706 396.27 253.698 396.27ZM263.281 396.27C262.327 396.27 261.493 396.06 260.779 395.64C260.071 395.214 259.519 394.623 259.123 393.867C258.727 393.105 258.529 392.217 258.529 391.203C258.529 390.141 258.724 389.223 259.114 388.449C259.504 387.669 260.047 387.069 260.743 386.649C261.445 386.223 262.267 386.01 263.209 386.01C264.187 386.01 265.018 386.235 265.702 386.685C266.392 387.135 266.908 387.777 267.25 388.611C267.598 389.445 267.748 390.438 267.7 391.59H266.08V391.014C266.062 389.82 265.819 388.929 265.351 388.341C264.883 387.747 264.187 387.45 263.263 387.45C262.273 387.45 261.52 387.768 261.004 388.404C260.488 389.04 260.23 389.952 260.23 391.14C260.23 392.286 260.488 393.174 261.004 393.804C261.52 394.434 262.255 394.749 263.209 394.749C263.851 394.749 264.409 394.602 264.883 394.308C265.357 394.014 265.729 393.591 265.999 393.039L267.538 393.57C267.16 394.428 266.59 395.094 265.828 395.568C265.072 396.036 264.223 396.27 263.281 396.27ZM259.69 391.59V390.303H266.872V391.59H259.69Z" fill="#09090B"/>
<path d="M33.12 427V415.48H37.568C37.68 415.48 37.8053 415.485 37.944 415.496C38.088 415.501 38.232 415.517 38.376 415.544C38.9787 415.635 39.488 415.845 39.904 416.176C40.3253 416.501 40.6427 416.912 40.856 417.408C41.0747 417.904 41.184 418.453 41.184 419.056C41.184 419.653 41.0747 420.2 40.856 420.696C40.6373 421.192 40.3173 421.605 39.896 421.936C39.48 422.261 38.9733 422.469 38.376 422.56C38.232 422.581 38.088 422.597 37.944 422.608C37.8053 422.619 37.68 422.624 37.568 422.624H34.296V427H33.12ZM34.296 421.504H37.536C37.632 421.504 37.744 421.499 37.872 421.488C38 421.477 38.1253 421.459 38.248 421.432C38.6427 421.347 38.9653 421.184 39.216 420.944C39.472 420.704 39.6613 420.419 39.784 420.088C39.912 419.757 39.976 419.413 39.976 419.056C39.976 418.699 39.912 418.355 39.784 418.024C39.6613 417.688 39.472 417.4 39.216 417.16C38.9653 416.92 38.6427 416.757 38.248 416.672C38.1253 416.645 38 416.629 37.872 416.624C37.744 416.613 37.632 416.608 37.536 416.608H34.296V421.504ZM45.7603 427.216C45.2429 427.216 44.7896 427.136 44.4003 426.976C44.0163 426.816 43.6883 426.6 43.4163 426.328C43.1496 426.056 42.9336 425.747 42.7683 425.4C42.6029 425.048 42.4829 424.677 42.4083 424.288C42.3336 423.893 42.2963 423.501 42.2963 423.112V418.36H43.4803V422.768C43.4803 423.243 43.5256 423.683 43.6163 424.088C43.7069 424.493 43.8509 424.848 44.0483 425.152C44.2509 425.451 44.5096 425.683 44.8243 425.848C45.1443 426.013 45.5309 426.096 45.9843 426.096C46.4003 426.096 46.7656 426.024 47.0803 425.88C47.4003 425.736 47.6669 425.531 47.8803 425.264C48.0989 424.992 48.2643 424.664 48.3763 424.28C48.4883 423.891 48.5443 423.453 48.5443 422.968L49.3763 423.152C49.3763 424.037 49.2216 424.781 48.9123 425.384C48.6029 425.987 48.1763 426.443 47.6323 426.752C47.0883 427.061 46.4643 427.216 45.7603 427.216ZM48.6643 427V424.872H48.5443V418.36H49.7203V427H48.6643ZM56.3403 427C55.8549 427.101 55.3749 427.141 54.9003 427.12C54.4309 427.099 54.0096 426.997 53.6363 426.816C53.2683 426.635 52.9883 426.352 52.7963 425.968C52.6416 425.648 52.5563 425.325 52.5403 425C52.5296 424.669 52.5243 424.293 52.5243 423.872V415.96H53.6923V423.824C53.6923 424.187 53.6949 424.491 53.7003 424.736C53.7109 424.976 53.7669 425.189 53.8683 425.376C54.0603 425.733 54.3643 425.947 54.7803 426.016C55.2016 426.085 55.7216 426.069 56.3403 425.968V427ZM50.6763 419.368V418.36H56.3403V419.368H50.6763ZM60.7656 416.72V415.4H61.9416V416.72H60.7656ZM60.7656 427V418.36H61.9416V427H60.7656ZM67.372 427.24C66.5667 427.24 65.8787 427.04 65.308 426.64C64.7373 426.235 64.3 425.688 63.996 425C63.692 424.312 63.54 423.536 63.54 422.672C63.54 421.813 63.6893 421.04 63.988 420.352C64.292 419.664 64.7267 419.12 65.292 418.72C65.8573 418.32 66.5347 418.12 67.324 418.12C68.1347 418.12 68.8173 418.317 69.372 418.712C69.9267 419.107 70.3453 419.648 70.628 420.336C70.916 421.019 71.06 421.797 71.06 422.672C71.06 423.531 70.9187 424.307 70.636 425C70.3533 425.688 69.9373 426.235 69.388 426.64C68.8387 427.04 68.1667 427.24 67.372 427.24ZM67.492 426.144C68.1053 426.144 68.612 425.995 69.012 425.696C69.412 425.397 69.7107 424.987 69.908 424.464C70.1053 423.936 70.204 423.339 70.204 422.672C70.204 421.995 70.1053 421.397 69.908 420.88C69.7107 420.357 69.412 419.949 69.012 419.656C68.6173 419.363 68.1187 419.216 67.516 419.216C66.8973 419.216 66.3853 419.368 65.98 419.672C65.5747 419.976 65.2733 420.389 65.076 420.912C64.884 421.435 64.788 422.021 64.788 422.672C64.788 423.328 64.8867 423.92 65.084 424.448C65.2867 424.971 65.588 425.384 65.988 425.688C66.388 425.992 66.8893 426.144 67.492 426.144ZM70.204 427V420.496H70.076V415.48H71.26V427H70.204ZM73.3444 427V415.24H74.5204V427H73.3444ZM80.2547 427.24C79.4121 427.24 78.6814 427.053 78.0627 426.68C77.4494 426.307 76.9721 425.781 76.6307 425.104C76.2894 424.427 76.1187 423.632 76.1187 422.72C76.1187 421.776 76.2867 420.96 76.6227 420.272C76.9587 419.584 77.4307 419.053 78.0387 418.68C78.6521 418.307 79.3747 418.12 80.2067 418.12C81.0601 418.12 81.7881 418.317 82.3907 418.712C82.9934 419.101 83.4494 419.661 83.7587 420.392C84.0681 421.123 84.2094 421.995 84.1827 423.008H82.9827V422.592C82.9614 421.472 82.7187 420.627 82.2547 420.056C81.7961 419.485 81.1241 419.2 80.2387 419.2C79.3107 419.2 78.5987 419.501 78.1027 420.104C77.6121 420.707 77.3667 421.565 77.3667 422.68C77.3667 423.768 77.6121 424.613 78.1027 425.216C78.5987 425.813 79.3001 426.112 80.2067 426.112C80.8254 426.112 81.3641 425.971 81.8227 425.688C82.2867 425.4 82.6521 424.987 82.9187 424.448L84.0147 424.872C83.6734 425.624 83.1694 426.208 82.5027 426.624C81.8414 427.035 81.0921 427.24 80.2547 427.24ZM76.9507 423.008V422.024H83.5507V423.008H76.9507ZM89.3772 427V417.72C89.3772 417.496 89.3879 417.275 89.4092 417.056C89.4359 416.837 89.4866 416.629 89.5612 416.432C89.6359 416.229 89.7532 416.043 89.9132 415.872C90.0892 415.68 90.2812 415.541 90.4892 415.456C90.6972 415.365 90.9132 415.307 91.1372 415.28C91.3666 415.253 91.5906 415.24 91.8092 415.24H92.9132V416.232H91.8892C91.4412 416.232 91.1052 416.341 90.8812 416.56C90.6626 416.779 90.5532 417.123 90.5532 417.592V427H89.3772ZM87.8812 419.368V418.36H92.9132V419.368H87.8812ZM97.1771 427.216C96.6598 427.216 96.2065 427.136 95.8171 426.976C95.4331 426.816 95.1051 426.6 94.8331 426.328C94.5665 426.056 94.3505 425.747 94.1851 425.4C94.0198 425.048 93.8998 424.677 93.8251 424.288C93.7505 423.893 93.7131 423.501 93.7131 423.112V418.36H94.8971V422.768C94.8971 423.243 94.9425 423.683 95.0331 424.088C95.1238 424.493 95.2678 424.848 95.4651 425.152C95.6678 425.451 95.9265 425.683 96.2411 425.848C96.5611 426.013 96.9478 426.096 97.4011 426.096C97.8171 426.096 98.1825 426.024 98.4971 425.88C98.8171 425.736 99.0838 425.531 99.2971 425.264C99.5158 424.992 99.6811 424.664 99.7931 424.28C99.9051 423.891 99.9611 423.453 99.9611 422.968L100.793 423.152C100.793 424.037 100.638 424.781 100.329 425.384C100.02 425.987 99.5931 426.443 99.0491 426.752C98.5051 427.061 97.8811 427.216 97.1771 427.216ZM100.081 427V424.872H99.9611V418.36H101.137V427H100.081ZM109.293 427V422.592C109.293 422.112 109.248 421.672 109.157 421.272C109.066 420.867 108.92 420.515 108.717 420.216C108.52 419.912 108.261 419.677 107.941 419.512C107.626 419.347 107.242 419.264 106.789 419.264C106.373 419.264 106.005 419.336 105.685 419.48C105.37 419.624 105.104 419.832 104.885 420.104C104.672 420.371 104.509 420.696 104.397 421.08C104.285 421.464 104.229 421.901 104.229 422.392L103.397 422.208C103.397 421.323 103.552 420.579 103.861 419.976C104.17 419.373 104.597 418.917 105.141 418.608C105.685 418.299 106.309 418.144 107.013 418.144C107.53 418.144 107.981 418.224 108.365 418.384C108.754 418.544 109.082 418.76 109.349 419.032C109.621 419.304 109.84 419.616 110.005 419.968C110.17 420.315 110.29 420.685 110.365 421.08C110.44 421.469 110.477 421.859 110.477 422.248V427H109.293ZM103.045 427V418.36H104.109V420.488H104.229V427H103.045ZM115.523 427.24C114.717 427.24 114.029 427.04 113.459 426.64C112.888 426.235 112.451 425.688 112.147 425C111.843 424.312 111.691 423.536 111.691 422.672C111.691 421.813 111.84 421.04 112.139 420.352C112.443 419.664 112.877 419.12 113.443 418.72C114.008 418.32 114.685 418.12 115.475 418.12C116.285 418.12 116.968 418.317 117.523 418.712C118.077 419.107 118.496 419.648 118.779 420.336C119.067 421.019 119.211 421.797 119.211 422.672C119.211 423.531 119.069 424.307 118.787 425C118.504 425.688 118.088 426.235 117.539 426.64C116.989 427.04 116.317 427.24 115.523 427.24ZM115.643 426.144C116.256 426.144 116.763 425.995 117.163 425.696C117.563 425.397 117.861 424.987 118.059 424.464C118.256 423.936 118.355 423.339 118.355 422.672C118.355 421.995 118.256 421.397 118.059 420.88C117.861 420.357 117.563 419.949 117.163 419.656C116.768 419.363 116.269 419.216 115.667 419.216C115.048 419.216 114.536 419.368 114.131 419.672C113.725 419.976 113.424 420.389 113.227 420.912C113.035 421.435 112.939 422.021 112.939 422.672C112.939 423.328 113.037 423.92 113.235 424.448C113.437 424.971 113.739 425.384 114.139 425.688C114.539 425.992 115.04 426.144 115.643 426.144ZM118.355 427V420.496H118.227V415.48H119.411V427H118.355ZM124.559 427.232C123.546 427.232 122.711 427.013 122.055 426.576C121.404 426.139 121.004 425.531 120.855 424.752L122.055 424.552C122.183 425.043 122.474 425.435 122.927 425.728C123.386 426.016 123.951 426.16 124.623 426.16C125.279 426.16 125.796 426.024 126.175 425.752C126.554 425.475 126.743 425.099 126.743 424.624C126.743 424.357 126.682 424.141 126.559 423.976C126.442 423.805 126.199 423.648 125.831 423.504C125.463 423.36 124.914 423.189 124.183 422.992C123.399 422.779 122.786 422.565 122.343 422.352C121.9 422.139 121.586 421.893 121.399 421.616C121.212 421.333 121.119 420.989 121.119 420.584C121.119 420.093 121.258 419.664 121.535 419.296C121.812 418.923 122.196 418.635 122.687 418.432C123.178 418.224 123.748 418.12 124.399 418.12C125.05 418.12 125.631 418.227 126.143 418.44C126.66 418.648 127.076 418.941 127.391 419.32C127.706 419.699 127.892 420.139 127.951 420.64L126.751 420.856C126.671 420.349 126.418 419.949 125.991 419.656C125.57 419.357 125.034 419.203 124.383 419.192C123.77 419.176 123.271 419.293 122.887 419.544C122.503 419.789 122.311 420.117 122.311 420.528C122.311 420.757 122.38 420.955 122.519 421.12C122.658 421.28 122.908 421.432 123.271 421.576C123.639 421.72 124.162 421.877 124.839 422.048C125.634 422.251 126.258 422.464 126.711 422.688C127.164 422.912 127.487 423.176 127.679 423.48C127.871 423.784 127.967 424.16 127.967 424.608C127.967 425.424 127.663 426.067 127.055 426.536C126.452 427 125.62 427.232 124.559 427.232ZM137.008 427C136.523 427.101 136.043 427.141 135.568 427.12C135.099 427.099 134.678 426.997 134.304 426.816C133.936 426.635 133.656 426.352 133.464 425.968C133.31 425.648 133.224 425.325 133.208 425C133.198 424.669 133.192 424.293 133.192 423.872V415.96H134.36V423.824C134.36 424.187 134.363 424.491 134.368 424.736C134.379 424.976 134.435 425.189 134.536 425.376C134.728 425.733 135.032 425.947 135.448 426.016C135.87 426.085 136.39 426.069 137.008 425.968V427ZM131.344 419.368V418.36H137.008V419.368H131.344ZM141.686 427.24C140.827 427.24 140.094 427.045 139.486 426.656C138.878 426.267 138.411 425.728 138.086 425.04C137.761 424.352 137.598 423.563 137.598 422.672C137.598 421.765 137.763 420.971 138.094 420.288C138.425 419.605 138.894 419.075 139.502 418.696C140.115 418.312 140.843 418.12 141.686 418.12C142.55 418.12 143.286 418.315 143.894 418.704C144.507 419.088 144.974 419.624 145.294 420.312C145.619 420.995 145.782 421.781 145.782 422.672C145.782 423.579 145.619 424.376 145.294 425.064C144.969 425.747 144.499 426.28 143.886 426.664C143.273 427.048 142.539 427.24 141.686 427.24ZM141.686 426.112C142.646 426.112 143.361 425.795 143.83 425.16C144.299 424.52 144.534 423.691 144.534 422.672C144.534 421.627 144.297 420.795 143.822 420.176C143.353 419.557 142.641 419.248 141.686 419.248C141.041 419.248 140.507 419.395 140.086 419.688C139.67 419.976 139.358 420.379 139.15 420.896C138.947 421.408 138.846 422 138.846 422.672C138.846 423.712 139.086 424.547 139.566 425.176C140.046 425.8 140.753 426.112 141.686 426.112ZM151.95 427L149.31 418.352L150.486 418.36L152.534 425.072L154.59 418.36H155.662L157.718 425.072L159.782 418.36H160.95L158.31 427H157.286L155.126 420.12L152.974 427H151.95ZM165.367 427.24C164.508 427.24 163.775 427.045 163.167 426.656C162.559 426.267 162.092 425.728 161.767 425.04C161.441 424.352 161.279 423.563 161.279 422.672C161.279 421.765 161.444 420.971 161.775 420.288C162.105 419.605 162.575 419.075 163.183 418.696C163.796 418.312 164.524 418.12 165.367 418.12C166.231 418.12 166.967 418.315 167.575 418.704C168.188 419.088 168.655 419.624 168.975 420.312C169.3 420.995 169.463 421.781 169.463 422.672C169.463 423.579 169.3 424.376 168.975 425.064C168.649 425.747 168.18 426.28 167.567 426.664C166.953 427.048 166.22 427.24 165.367 427.24ZM165.367 426.112C166.327 426.112 167.041 425.795 167.511 425.16C167.98 424.52 168.215 423.691 168.215 422.672C168.215 421.627 167.977 420.795 167.503 420.176C167.033 419.557 166.321 419.248 165.367 419.248C164.721 419.248 164.188 419.395 163.767 419.688C163.351 419.976 163.039 420.379 162.831 420.896C162.628 421.408 162.527 422 162.527 422.672C162.527 423.712 162.767 424.547 163.247 425.176C163.727 425.8 164.433 426.112 165.367 426.112ZM170.908 427V418.36H171.964V420.44L171.756 420.168C171.852 419.912 171.977 419.677 172.132 419.464C172.286 419.245 172.454 419.067 172.636 418.928C172.86 418.731 173.121 418.581 173.42 418.48C173.718 418.373 174.02 418.312 174.324 418.296C174.628 418.275 174.905 418.296 175.156 418.36V419.464C174.841 419.384 174.497 419.365 174.124 419.408C173.75 419.451 173.406 419.6 173.092 419.856C172.804 420.08 172.588 420.349 172.444 420.664C172.3 420.973 172.204 421.304 172.156 421.656C172.108 422.003 172.084 422.347 172.084 422.688V427H170.908ZM176.345 427L176.353 415.48H177.537V422.52L181.393 418.36H182.961L178.913 422.68L183.489 427H181.777L177.537 422.84V427H176.345ZM189.326 427.24C188.675 427.24 188.128 427.123 187.686 426.888C187.248 426.653 186.92 426.341 186.702 425.952C186.483 425.563 186.374 425.139 186.374 424.68C186.374 424.211 186.467 423.811 186.654 423.48C186.846 423.144 187.104 422.869 187.43 422.656C187.76 422.443 188.142 422.28 188.574 422.168C189.011 422.061 189.494 421.968 190.022 421.888C190.555 421.803 191.075 421.731 191.582 421.672C192.094 421.608 192.542 421.547 192.926 421.488L192.51 421.744C192.526 420.891 192.36 420.259 192.014 419.848C191.667 419.437 191.064 419.232 190.206 419.232C189.614 419.232 189.112 419.365 188.702 419.632C188.296 419.899 188.011 420.32 187.846 420.896L186.702 420.56C186.899 419.787 187.296 419.187 187.894 418.76C188.491 418.333 189.267 418.12 190.222 418.12C191.011 418.12 191.68 418.269 192.23 418.568C192.784 418.861 193.176 419.288 193.406 419.848C193.512 420.099 193.582 420.379 193.614 420.688C193.646 420.997 193.662 421.312 193.662 421.632V427H192.614V424.832L192.918 424.96C192.624 425.701 192.168 426.267 191.55 426.656C190.931 427.045 190.19 427.24 189.326 427.24ZM189.462 426.224C190.011 426.224 190.491 426.125 190.902 425.928C191.312 425.731 191.643 425.461 191.894 425.12C192.144 424.773 192.307 424.384 192.382 423.952C192.446 423.675 192.48 423.371 192.486 423.04C192.491 422.704 192.494 422.453 192.494 422.288L192.942 422.52C192.542 422.573 192.107 422.627 191.638 422.68C191.174 422.733 190.715 422.795 190.262 422.864C189.814 422.933 189.408 423.016 189.046 423.112C188.8 423.181 188.563 423.28 188.334 423.408C188.104 423.531 187.915 423.696 187.766 423.904C187.622 424.112 187.55 424.371 187.55 424.68C187.55 424.931 187.611 425.173 187.734 425.408C187.862 425.643 188.064 425.837 188.342 425.992C188.624 426.147 188.998 426.224 189.462 426.224ZM201.664 427V422.592C201.664 422.112 201.619 421.672 201.528 421.272C201.438 420.867 201.291 420.515 201.088 420.216C200.891 419.912 200.632 419.677 200.312 419.512C199.998 419.347 199.614 419.264 199.16 419.264C198.744 419.264 198.376 419.336 198.056 419.48C197.742 419.624 197.475 419.832 197.256 420.104C197.043 420.371 196.88 420.696 196.768 421.08C196.656 421.464 196.6 421.901 196.6 422.392L195.768 422.208C195.768 421.323 195.923 420.579 196.232 419.976C196.542 419.373 196.968 418.917 197.512 418.608C198.056 418.299 198.68 418.144 199.384 418.144C199.902 418.144 200.352 418.224 200.736 418.384C201.126 418.544 201.454 418.76 201.72 419.032C201.992 419.304 202.211 419.616 202.376 419.968C202.542 420.315 202.662 420.685 202.736 421.08C202.811 421.469 202.848 421.859 202.848 422.248V427H201.664ZM195.416 427V418.36H196.48V420.488H196.6V427H195.416ZM207.894 427.24C207.089 427.24 206.401 427.04 205.83 426.64C205.259 426.235 204.822 425.688 204.518 425C204.214 424.312 204.062 423.536 204.062 422.672C204.062 421.813 204.211 421.04 204.51 420.352C204.814 419.664 205.249 419.12 205.814 418.72C206.379 418.32 207.057 418.12 207.846 418.12C208.657 418.12 209.339 418.317 209.894 418.712C210.449 419.107 210.867 419.648 211.15 420.336C211.438 421.019 211.582 421.797 211.582 422.672C211.582 423.531 211.441 424.307 211.158 425C210.875 425.688 210.459 426.235 209.91 426.64C209.361 427.04 208.689 427.24 207.894 427.24ZM208.014 426.144C208.627 426.144 209.134 425.995 209.534 425.696C209.934 425.397 210.233 424.987 210.43 424.464C210.627 423.936 210.726 423.339 210.726 422.672C210.726 421.995 210.627 421.397 210.43 420.88C210.233 420.357 209.934 419.949 209.534 419.656C209.139 419.363 208.641 419.216 208.038 419.216C207.419 419.216 206.907 419.368 206.502 419.672C206.097 419.976 205.795 420.389 205.598 420.912C205.406 421.435 205.31 422.021 205.31 422.672C205.31 423.328 205.409 423.92 205.606 424.448C205.809 424.971 206.11 425.384 206.51 425.688C206.91 425.992 207.411 426.144 208.014 426.144ZM210.726 427V420.496H210.598V415.48H211.782V427H210.726ZM220.245 427.24C219.403 427.24 218.672 427.053 218.053 426.68C217.44 426.307 216.963 425.781 216.621 425.104C216.28 424.427 216.109 423.632 216.109 422.72C216.109 421.776 216.277 420.96 216.613 420.272C216.949 419.584 217.421 419.053 218.029 418.68C218.643 418.307 219.365 418.12 220.197 418.12C221.051 418.12 221.779 418.317 222.381 418.712C222.984 419.101 223.44 419.661 223.749 420.392C224.059 421.123 224.2 421.995 224.173 423.008H222.973V422.592C222.952 421.472 222.709 420.627 222.245 420.056C221.787 419.485 221.115 419.2 220.229 419.2C219.301 419.2 218.589 419.501 218.093 420.104C217.603 420.707 217.357 421.565 217.357 422.68C217.357 423.768 217.603 424.613 218.093 425.216C218.589 425.813 219.291 426.112 220.197 426.112C220.816 426.112 221.355 425.971 221.813 425.688C222.277 425.4 222.643 424.987 222.909 424.448L224.005 424.872C223.664 425.624 223.16 426.208 222.493 426.624C221.832 427.035 221.083 427.24 220.245 427.24ZM216.941 423.008V422.024H223.541V423.008H216.941ZM227.944 427.24C227.294 427.24 226.747 427.123 226.304 426.888C225.867 426.653 225.539 426.341 225.32 425.952C225.102 425.563 224.992 425.139 224.992 424.68C224.992 424.211 225.086 423.811 225.272 423.48C225.464 423.144 225.723 422.869 226.048 422.656C226.379 422.443 226.76 422.28 227.192 422.168C227.63 422.061 228.112 421.968 228.64 421.888C229.174 421.803 229.694 421.731 230.2 421.672C230.712 421.608 231.16 421.547 231.544 421.488L231.128 421.744C231.144 420.891 230.979 420.259 230.632 419.848C230.286 419.437 229.683 419.232 228.824 419.232C228.232 419.232 227.731 419.365 227.32 419.632C226.915 419.899 226.63 420.32 226.464 420.896L225.32 420.56C225.518 419.787 225.915 419.187 226.512 418.76C227.11 418.333 227.886 418.12 228.84 418.12C229.63 418.12 230.299 418.269 230.848 418.568C231.403 418.861 231.795 419.288 232.024 419.848C232.131 420.099 232.2 420.379 232.232 420.688C232.264 420.997 232.28 421.312 232.28 421.632V427H231.232V424.832L231.536 424.96C231.243 425.701 230.787 426.267 230.168 426.656C229.55 427.045 228.808 427.24 227.944 427.24ZM228.08 426.224C228.63 426.224 229.11 426.125 229.52 425.928C229.931 425.731 230.262 425.461 230.512 425.12C230.763 424.773 230.926 424.384 231 423.952C231.064 423.675 231.099 423.371 231.104 423.04C231.11 422.704 231.112 422.453 231.112 422.288L231.56 422.52C231.16 422.573 230.726 422.627 230.256 422.68C229.792 422.733 229.334 422.795 228.88 422.864C228.432 422.933 228.027 423.016 227.664 423.112C227.419 423.181 227.182 423.28 226.952 423.408C226.723 423.531 226.534 423.696 226.384 423.904C226.24 424.112 226.168 424.371 226.168 424.68C226.168 424.931 226.23 425.173 226.352 425.408C226.48 425.643 226.683 425.837 226.96 425.992C227.243 426.147 227.616 426.224 228.08 426.224ZM234.043 427V418.36H235.099V420.44L234.891 420.168C234.987 419.912 235.112 419.677 235.267 419.464C235.422 419.245 235.59 419.067 235.771 418.928C235.995 418.731 236.256 418.581 236.555 418.48C236.854 418.373 237.155 418.312 237.459 418.296C237.763 418.275 238.04 418.296 238.291 418.36V419.464C237.976 419.384 237.632 419.365 237.259 419.408C236.886 419.451 236.542 419.6 236.227 419.856C235.939 420.08 235.723 420.349 235.579 420.664C235.435 420.973 235.339 421.304 235.291 421.656C235.243 422.003 235.219 422.347 235.219 422.688V427H234.043ZM245.729 427V422.592C245.729 422.112 245.683 421.672 245.593 421.272C245.502 420.867 245.355 420.515 245.153 420.216C244.955 419.912 244.697 419.677 244.377 419.512C244.062 419.347 243.678 419.264 243.225 419.264C242.809 419.264 242.441 419.336 242.121 419.48C241.806 419.624 241.539 419.832 241.321 420.104C241.107 420.371 240.945 420.696 240.833 421.08C240.721 421.464 240.665 421.901 240.665 422.392L239.833 422.208C239.833 421.323 239.987 420.579 240.297 419.976C240.606 419.373 241.033 418.917 241.577 418.608C242.121 418.299 242.745 418.144 243.449 418.144C243.966 418.144 244.417 418.224 244.801 418.384C245.19 418.544 245.518 418.76 245.785 419.032C246.057 419.304 246.275 419.616 246.441 419.968C246.606 420.315 246.726 420.685 246.801 421.08C246.875 421.469 246.913 421.859 246.913 422.248V427H245.729ZM239.481 427V418.36H240.545V420.488H240.665V427H239.481ZM251.712 427V415.24H252.888V427H251.712ZM258.574 427.24C257.716 427.24 256.982 427.045 256.374 426.656C255.766 426.267 255.3 425.728 254.974 425.04C254.649 424.352 254.486 423.563 254.486 422.672C254.486 421.765 254.652 420.971 254.982 420.288C255.313 419.605 255.782 419.075 256.39 418.696C257.004 418.312 257.732 418.12 258.574 418.12C259.438 418.12 260.174 418.315 260.782 418.704C261.396 419.088 261.862 419.624 262.182 420.312C262.508 420.995 262.67 421.781 262.67 422.672C262.67 423.579 262.508 424.376 262.182 425.064C261.857 425.747 261.388 426.28 260.774 426.664C260.161 427.048 259.428 427.24 258.574 427.24ZM258.574 426.112C259.534 426.112 260.249 425.795 260.718 425.16C261.188 424.52 261.422 423.691 261.422 422.672C261.422 421.627 261.185 420.795 260.71 420.176C260.241 419.557 259.529 419.248 258.574 419.248C257.929 419.248 257.396 419.395 256.974 419.688C256.558 419.976 256.246 420.379 256.038 420.896C255.836 421.408 255.734 422 255.734 422.672C255.734 423.712 255.974 424.547 256.454 425.176C256.934 425.8 257.641 426.112 258.574 426.112ZM265.642 427L263.002 418.352L264.178 418.36L266.226 425.072L268.282 418.36H269.354L271.41 425.072L273.474 418.36H274.642L272.002 427H270.978L268.818 420.12L266.666 427H265.642ZM275.604 422.464V421.456H280.404V422.464H275.604ZM282.162 427V418.36H283.218V420.44L283.01 420.168C283.106 419.912 283.232 419.677 283.386 419.464C283.541 419.245 283.709 419.067 283.89 418.928C284.114 418.731 284.376 418.581 284.674 418.48C284.973 418.373 285.274 418.312 285.578 418.296C285.882 418.275 286.16 418.296 286.41 418.36V419.464C286.096 419.384 285.752 419.365 285.378 419.408C285.005 419.451 284.661 419.6 284.346 419.856C284.058 420.08 283.842 420.349 283.698 420.664C283.554 420.973 283.458 421.304 283.41 421.656C283.362 422.003 283.338 422.347 283.338 422.688V427H282.162ZM287.768 416.72V415.4H288.944V416.72H287.768ZM287.768 427V418.36H288.944V427H287.768ZM294.246 427.232C293.233 427.232 292.398 427.013 291.742 426.576C291.092 426.139 290.692 425.531 290.542 424.752L291.742 424.552C291.87 425.043 292.161 425.435 292.614 425.728C293.073 426.016 293.638 426.16 294.31 426.16C294.966 426.16 295.484 426.024 295.862 425.752C296.241 425.475 296.43 425.099 296.43 424.624C296.43 424.357 296.369 424.141 296.246 423.976C296.129 423.805 295.886 423.648 295.518 423.504C295.15 423.36 294.601 423.189 293.87 422.992C293.086 422.779 292.473 422.565 292.03 422.352C291.588 422.139 291.273 421.893 291.086 421.616C290.9 421.333 290.806 420.989 290.806 420.584C290.806 420.093 290.945 419.664 291.222 419.296C291.5 418.923 291.884 418.635 292.374 418.432C292.865 418.224 293.436 418.12 294.086 418.12C294.737 418.12 295.318 418.227 295.83 418.44C296.348 418.648 296.764 418.941 297.078 419.32C297.393 419.699 297.58 420.139 297.638 420.64L296.438 420.856C296.358 420.349 296.105 419.949 295.678 419.656C295.257 419.357 294.721 419.203 294.07 419.192C293.457 419.176 292.958 419.293 292.574 419.544C292.19 419.789 291.998 420.117 291.998 420.528C291.998 420.757 292.068 420.955 292.206 421.12C292.345 421.28 292.596 421.432 292.958 421.576C293.326 421.72 293.849 421.877 294.526 422.048C295.321 422.251 295.945 422.464 296.398 422.688C296.852 422.912 297.174 423.176 297.366 423.48C297.558 423.784 297.654 424.16 297.654 424.608C297.654 425.424 297.35 426.067 296.742 426.536C296.14 427 295.308 427.232 294.246 427.232ZM299.101 427L299.109 415.48H300.293V422.52L304.149 418.36H305.717L301.669 422.68L306.245 427H304.533L300.293 422.84V427H299.101ZM310.841 430.84L312.513 426.304L312.537 427.648L308.753 418.36H310.001L313.105 426.128H312.593L315.457 418.36H316.657L312.017 430.84H310.841ZM317.887 416.72V415.4H319.063V416.72H317.887ZM317.887 427V418.36H319.063V427H317.887ZM324.797 427.24C323.955 427.24 323.224 427.053 322.605 426.68C321.992 426.307 321.515 425.781 321.173 425.104C320.832 424.427 320.661 423.632 320.661 422.72C320.661 421.776 320.829 420.96 321.165 420.272C321.501 419.584 321.973 419.053 322.581 418.68C323.195 418.307 323.917 418.12 324.749 418.12C325.603 418.12 326.331 418.317 326.933 418.712C327.536 419.101 327.992 419.661 328.301 420.392C328.611 421.123 328.752 421.995 328.725 423.008H327.525V422.592C327.504 421.472 327.261 420.627 326.797 420.056C326.339 419.485 325.667 419.2 324.781 419.2C323.853 419.2 323.141 419.501 322.645 420.104C322.155 420.707 321.909 421.565 321.909 422.68C321.909 423.768 322.155 424.613 322.645 425.216C323.141 425.813 323.843 426.112 324.749 426.112C325.368 426.112 325.907 425.971 326.365 425.688C326.829 425.4 327.195 424.987 327.461 424.448L328.557 424.872C328.216 425.624 327.712 426.208 327.045 426.624C326.384 427.035 325.635 427.24 324.797 427.24ZM321.493 423.008V422.024H328.093V423.008H321.493ZM330.341 427V415.24H331.517V427H330.341ZM336.947 427.24C336.142 427.24 335.454 427.04 334.883 426.64C334.312 426.235 333.875 425.688 333.571 425C333.267 424.312 333.115 423.536 333.115 422.672C333.115 421.813 333.264 421.04 333.563 420.352C333.867 419.664 334.302 419.12 334.867 418.72C335.432 418.32 336.11 418.12 336.899 418.12C337.71 418.12 338.392 418.317 338.947 418.712C339.502 419.107 339.92 419.648 340.203 420.336C340.491 421.019 340.635 421.797 340.635 422.672C340.635 423.531 340.494 424.307 340.211 425C339.928 425.688 339.512 426.235 338.963 426.64C338.414 427.04 337.742 427.24 336.947 427.24ZM337.067 426.144C337.68 426.144 338.187 425.995 338.587 425.696C338.987 425.397 339.286 424.987 339.483 424.464C339.68 423.936 339.779 423.339 339.779 422.672C339.779 421.995 339.68 421.397 339.483 420.88C339.286 420.357 338.987 419.949 338.587 419.656C338.192 419.363 337.694 419.216 337.091 419.216C336.472 419.216 335.96 419.368 335.555 419.672C335.15 419.976 334.848 420.389 334.651 420.912C334.459 421.435 334.363 422.021 334.363 422.672C334.363 423.328 334.462 423.92 334.659 424.448C334.862 424.971 335.163 425.384 335.563 425.688C335.963 425.992 336.464 426.144 337.067 426.144ZM339.779 427V420.496H339.651V415.48H340.835V427H339.779ZM347.482 427L344.842 418.352L346.018 418.36L348.066 425.072L350.122 418.36H351.194L353.25 425.072L355.314 418.36H356.482L353.842 427H352.818L350.658 420.12L348.506 427H347.482ZM357.764 416.72V415.4H358.94V416.72H357.764ZM357.764 427V418.36H358.94V427H357.764ZM365.722 427C365.237 427.101 364.757 427.141 364.282 427.12C363.813 427.099 363.391 426.997 363.018 426.816C362.65 426.635 362.37 426.352 362.178 425.968C362.023 425.648 361.938 425.325 361.922 425C361.911 424.669 361.906 424.293 361.906 423.872V415.96H363.074V423.824C363.074 424.187 363.077 424.491 363.082 424.736C363.093 424.976 363.149 425.189 363.25 425.376C363.442 425.733 363.746 425.947 364.162 426.016C364.583 426.085 365.103 426.069 365.722 425.968V427ZM360.058 419.368V418.36H365.722V419.368H360.058ZM373.344 427V422.592C373.344 422.112 373.299 421.672 373.208 421.272C373.118 420.867 372.971 420.515 372.768 420.216C372.571 419.912 372.312 419.677 371.992 419.512C371.678 419.347 371.294 419.264 370.84 419.264C370.424 419.264 370.056 419.336 369.736 419.48C369.422 419.624 369.155 419.832 368.936 420.104C368.723 420.371 368.56 420.696 368.448 421.08C368.336 421.464 368.28 421.901 368.28 422.392L367.448 422.208C367.448 421.323 367.603 420.579 367.912 419.976C368.222 419.373 368.648 418.917 369.192 418.608C369.736 418.299 370.36 418.144 371.064 418.144C371.582 418.144 372.032 418.224 372.416 418.384C372.806 418.544 373.134 418.76 373.4 419.032C373.672 419.304 373.891 419.616 374.056 419.968C374.222 420.315 374.342 420.685 374.416 421.08C374.491 421.469 374.528 421.859 374.528 422.248V427H373.344ZM367.096 427V415.48H368.16V421.984H368.28V427H367.096ZM380.023 427V417.72C380.023 417.496 380.034 417.275 380.055 417.056C380.082 416.837 380.133 416.629 380.207 416.432C380.282 416.229 380.399 416.043 380.559 415.872C380.735 415.68 380.927 415.541 381.135 415.456C381.343 415.365 381.559 415.307 381.783 415.28C382.013 415.253 382.237 415.24 382.455 415.24H383.559V416.232H382.535C382.087 416.232 381.751 416.341 381.527 416.56C381.309 416.779 381.199 417.123 381.199 417.592V427H380.023ZM378.527 419.368V418.36H383.559V419.368H378.527ZM387.823 427.216C387.306 427.216 386.853 427.136 386.463 426.976C386.079 426.816 385.751 426.6 385.479 426.328C385.213 426.056 384.997 425.747 384.831 425.4C384.666 425.048 384.546 424.677 384.471 424.288C384.397 423.893 384.359 423.501 384.359 423.112V418.36H385.543V422.768C385.543 423.243 385.589 423.683 385.679 424.088C385.77 424.493 385.914 424.848 386.111 425.152C386.314 425.451 386.573 425.683 386.887 425.848C387.207 426.013 387.594 426.096 388.047 426.096C388.463 426.096 388.829 426.024 389.143 425.88C389.463 425.736 389.73 425.531 389.943 425.264C390.162 424.992 390.327 424.664 390.439 424.28C390.551 423.891 390.607 423.453 390.607 422.968L391.439 423.152C391.439 424.037 391.285 424.781 390.975 425.384C390.666 425.987 390.239 426.443 389.695 426.752C389.151 427.061 388.527 427.216 387.823 427.216ZM390.727 427V424.872H390.607V418.36H391.783V427H390.727ZM393.859 427V415.24H395.035V427H393.859ZM397.274 427V415.24H398.45V427H397.274ZM407.563 419.368V418.36H409.963V419.368H407.563ZM404.267 427V417.72C404.267 417.496 404.278 417.275 404.299 417.056C404.326 416.837 404.377 416.629 404.451 416.432C404.526 416.229 404.643 416.043 404.803 415.872C404.979 415.68 405.171 415.541 405.379 415.456C405.587 415.365 405.803 415.307 406.027 415.28C406.257 415.253 406.481 415.24 406.699 415.24H407.803V416.232H406.779C406.331 416.232 405.995 416.341 405.771 416.56C405.553 416.779 405.443 417.123 405.443 417.592V427H404.267ZM402.771 419.368V418.36H407.803V419.368H402.771ZM409.827 427V415.24H411.003V427H409.827ZM416.732 427.24C415.889 427.24 415.158 427.053 414.54 426.68C413.926 426.307 413.449 425.781 413.108 425.104C412.766 424.427 412.596 423.632 412.596 422.72C412.596 421.776 412.764 420.96 413.1 420.272C413.436 419.584 413.908 419.053 414.516 418.68C415.129 418.307 415.852 418.12 416.684 418.12C417.537 418.12 418.265 418.317 418.868 418.712C419.47 419.101 419.926 419.661 420.236 420.392C420.545 421.123 420.686 421.995 420.66 423.008H419.46V422.592C419.438 421.472 419.196 420.627 418.732 420.056C418.273 419.485 417.601 419.2 416.716 419.2C415.788 419.2 415.076 419.501 414.58 420.104C414.089 420.707 413.844 421.565 413.844 422.68C413.844 423.768 414.089 424.613 414.58 425.216C415.076 425.813 415.777 426.112 416.684 426.112C417.302 426.112 417.841 425.971 418.3 425.688C418.764 425.4 419.129 424.987 419.396 424.448L420.492 424.872C420.15 425.624 419.646 426.208 418.98 426.624C418.318 427.035 417.569 427.24 416.732 427.24ZM413.428 423.008V422.024H420.028V423.008H413.428ZM420.842 427L424.218 422.632L420.914 418.36H422.322L424.906 421.728L427.466 418.36H428.874L425.57 422.632L428.954 427H427.538L424.906 423.536L422.258 427H420.842ZM430.08 416.72V415.4H431.256V416.72H430.08ZM430.08 427V418.36H431.256V427H430.08ZM437.214 427.24C436.42 427.24 435.748 427.04 435.198 426.64C434.649 426.235 434.233 425.688 433.95 425C433.668 424.307 433.526 423.531 433.526 422.672C433.526 421.797 433.668 421.019 433.95 420.336C434.238 419.648 434.66 419.107 435.214 418.712C435.769 418.317 436.452 418.12 437.262 418.12C438.052 418.12 438.729 418.32 439.294 418.72C439.86 419.12 440.292 419.664 440.59 420.352C440.894 421.04 441.046 421.813 441.046 422.672C441.046 423.536 440.894 424.312 440.59 425C440.286 425.688 439.849 426.235 439.278 426.64C438.708 427.04 438.02 427.24 437.214 427.24ZM433.326 427V415.48H434.51V420.496H434.382V427H433.326ZM437.094 426.144C437.697 426.144 438.198 425.992 438.598 425.688C438.998 425.384 439.297 424.971 439.494 424.448C439.697 423.92 439.798 423.328 439.798 422.672C439.798 422.021 439.7 421.435 439.502 420.912C439.305 420.389 439.004 419.976 438.598 419.672C438.198 419.368 437.689 419.216 437.07 419.216C436.468 419.216 435.966 419.363 435.566 419.656C435.172 419.949 434.876 420.357 434.678 420.88C434.481 421.397 434.382 421.995 434.382 422.672C434.382 423.339 434.481 423.936 434.678 424.464C434.876 424.987 435.174 425.397 435.574 425.696C435.974 425.995 436.481 426.144 437.094 426.144ZM442.643 416.72V415.4H443.819V416.72H442.643ZM442.643 427V418.36H443.819V427H442.643ZM446.057 427V415.24H447.233V427H446.057ZM449.472 416.72V415.4H450.648V416.72H449.472ZM449.472 427V418.36H450.648V427H449.472ZM457.43 427C456.945 427.101 456.465 427.141 455.99 427.12C455.521 427.099 455.1 426.997 454.726 426.816C454.358 426.635 454.078 426.352 453.886 425.968C453.732 425.648 453.646 425.325 453.63 425C453.62 424.669 453.614 424.293 453.614 423.872V415.96H454.782V423.824C454.782 424.187 454.785 424.491 454.79 424.736C454.801 424.976 454.857 425.189 454.958 425.376C455.15 425.733 455.454 425.947 455.87 426.016C456.292 426.085 456.812 426.069 457.43 425.968V427ZM451.766 419.368V418.36H457.43V419.368H451.766ZM459.81 430.84L461.482 426.304L461.506 427.648L457.722 418.36H458.97L462.074 426.128H461.562L464.426 418.36H465.626L460.986 430.84H459.81ZM465.638 427V425.632H467.006V427H465.638Z" fill="#71717A"/>
</g>
<defs>
<filter id="filter0_d_5693_38495" x="299" y="158" width="276" height="100" filterUnits="userSpaceOnUse" color-interpolation-filters="sRGB">
<feFlood flood-opacity="0" result="BackgroundImageFix"/>
<feColorMatrix in="SourceAlpha" type="matrix" values="0 0 0 0 0 0 0 0 0 0 0 0 0 0 0 0 0 0 127 0" result="hardAlpha"/>
<feOffset dy="1"/>
<feGaussianBlur stdDeviation="1"/>
<feComposite in2="hardAlpha" operator="out"/>
<feColorMatrix type="matrix" values="0 0 0 0 0.054902 0 0 0 0 0.0705882 0 0 0 0 0.105882 0 0 0 0.03 0"/>
<feBlend mode="normal" in2="BackgroundImageFix" result="effect1_dropShadow_5693_38495"/>
<feBlend mode="normal" in="SourceGraphic" in2="effect1_dropShadow_5693_38495" result="shape"/>
</filter>
<filter id="filter1_d_5693_38495" x="27" y="62" width="276" height="100" filterUnits="userSpaceOnUse" color-interpolation-filters="sRGB">
<feFlood flood-opacity="0" result="BackgroundImageFix"/>
<feColorMatrix in="SourceAlpha" type="matrix" values="0 0 0 0 0 0 0 0 0 0 0 0 0 0 0 0 0 0 127 0" result="hardAlpha"/>
<feOffset dy="1"/>
<feGaussianBlur stdDeviation="1"/>
<feComposite in2="hardAlpha" operator="out"/>
<feColorMatrix type="matrix" values="0 0 0 0 0.054902 0 0 0 0 0.0705882 0 0 0 0 0.105882 0 0 0 0.03 0"/>
<feBlend mode="normal" in2="BackgroundImageFix" result="effect1_dropShadow_5693_38495"/>
<feBlend mode="normal" in="SourceGraphic" in2="effect1_dropShadow_5693_38495" result="shape"/>
</filter>
<radialGradient id="paint0_radial_5693_38495" cx="0" cy="0" r="1" gradientUnits="userSpaceOnUse" gradientTransform="translate(301.001 159) rotate(90) scale(160 442.387)">
<stop stop-color="#E1E4EA"/>
<stop offset="1" stop-color="#E1E4EA" stop-opacity="0"/>
</radialGradient>
<clipPath id="clip0_5693_38495">
<rect width="600" height="486" fill="white"/>
</clipPath>
<clipPath id="clip1_5693_38495">
<rect width="600" height="320" fill="white"/>
</clipPath>
</defs>
</svg>
