<svg width="600" height="320" viewBox="0 0 600 320" fill="none" xmlns="http://www.w3.org/2000/svg">
<g clip-path="url(#clip0_5693_38496)">
<path d="M-86.0883 -1H-141.387V52.3333M-86.0883 -1V52.3333M-86.0883 -1H-30.7899M-86.0883 52.3333H-141.387M-86.0883 52.3333V105.667M-86.0883 52.3333H-30.7899M-141.387 52.3333V105.667M-86.0883 105.667H-141.387M-86.0883 105.667V159M-86.0883 105.667H-30.7899M-141.387 105.667V159M-86.0883 159H-141.387M-86.0883 159V212.333M-86.0883 159H-30.7899M-141.387 159V212.333M-86.0883 212.333H-141.387M-86.0883 212.333V265.667M-86.0883 212.333H-30.7899M-141.387 212.333V265.667M-86.0883 265.667H-141.387M-86.0883 265.667V319M-86.0883 265.667H-30.7899M-141.387 265.667V319H-86.0883M-86.0883 319H-30.7899M-30.7899 -1V52.3333M-30.7899 -1H24.5085M-30.7899 52.3333V105.667M-30.7899 52.3333H24.5085M-30.7899 105.667V159M-30.7899 105.667H24.5085M-30.7899 159V212.333M-30.7899 159H24.5085M-30.7899 212.333V265.667M-30.7899 212.333H24.5085M-30.7899 265.667V319M-30.7899 265.667H24.5085M-30.7899 319H24.5085M24.5085 -1V52.3333M24.5085 -1H79.8069M24.5085 52.3333V105.667M24.5085 52.3333H79.8069M24.5085 105.667V159M24.5085 105.667H79.8069M24.5085 159V212.333M24.5085 159H79.8069M24.5085 212.333V265.667M24.5085 212.333H79.8069M24.5085 265.667V319M24.5085 265.667H79.8069M24.5085 319H79.8069M79.8069 -1V52.3333M79.8069 -1H135.105M79.8069 52.3333V105.667M79.8069 52.3333H135.105M79.8069 105.667V159M79.8069 105.667H135.105M79.8069 159V212.333M79.8069 159H135.105M79.8069 212.333V265.667M79.8069 212.333H135.105M79.8069 265.667V319M79.8069 265.667H135.105M79.8069 319H135.105M135.105 -1V52.3333M135.105 -1H190.404M135.105 52.3333V105.667M135.105 52.3333H190.404M135.105 105.667V159M135.105 105.667H190.404M135.105 159V212.333M135.105 159H190.404M135.105 212.333V265.667M135.105 212.333H190.404M135.105 265.667V319M135.105 265.667H190.404M135.105 319H190.404M190.404 -1V52.3333M190.404 -1H245.702M190.404 52.3333V105.667M190.404 52.3333H245.702M190.404 105.667V159M190.404 105.667H245.702M190.404 159V212.333M190.404 159H245.702M190.404 212.333V265.667M190.404 212.333H245.702M190.404 265.667V319M190.404 265.667H245.702M190.404 319H245.702M245.702 -1V52.3333M245.702 -1H301.001M245.702 52.3333V105.667M245.702 52.3333H301.001M245.702 105.667V159M245.702 105.667H301.001M245.702 159V212.333M245.702 159H301.001M245.702 212.333V265.667M245.702 212.333H301.001M245.702 265.667V319M245.702 265.667H301.001M245.702 319H301.001M301.001 -1V52.3333M301.001 -1H356.299M301.001 52.3333V105.667M301.001 52.3333H356.299M301.001 105.667V159M301.001 105.667H356.299M301.001 159V212.333M301.001 159H356.299M301.001 212.333V265.667M301.001 212.333H356.299M301.001 265.667V319M301.001 265.667H356.299M301.001 319H356.299M356.299 -1V52.3333M356.299 -1H411.597M356.299 52.3333V105.667M356.299 52.3333H411.597M356.299 105.667V159M356.299 105.667H411.597M356.299 159V212.333M356.299 159H411.597M356.299 212.333V265.667M356.299 212.333H411.597M356.299 265.667V319M356.299 265.667H411.597M356.299 319H411.597M411.597 -1V52.3333M411.597 -1H466.896M411.597 52.3333V105.667M411.597 52.3333H466.896M411.597 105.667V159M411.597 105.667H466.896M411.597 159V212.333M411.597 159H466.896M411.597 212.333V265.667M411.597 212.333H466.896M411.597 265.667V319M411.597 265.667H466.896M411.597 319H466.896M466.896 -1V52.3333M466.896 -1H522.194M466.896 52.3333V105.667M466.896 52.3333H522.194M466.896 105.667V159M466.896 105.667H522.194M466.896 159V212.333M466.896 159H522.194M466.896 212.333V265.667M466.896 212.333H522.194M466.896 265.667V319M466.896 265.667H522.194M466.896 319H522.194M522.194 -1V52.3333M522.194 -1H577.493M522.194 52.3333V105.667M522.194 52.3333H577.493M522.194 105.667V159M522.194 105.667H577.493M522.194 159V212.333M522.194 159H577.493M522.194 212.333V265.667M522.194 212.333H577.493M522.194 265.667V319M522.194 265.667H577.493M522.194 319H577.493M577.493 -1V52.3333M577.493 -1H632.791M577.493 52.3333V105.667M577.493 52.3333H632.791M577.493 105.667V159M577.493 105.667H632.791M577.493 159V212.333M577.493 159H632.791M577.493 212.333V265.667M577.493 212.333H632.791M577.493 265.667V319M577.493 265.667H632.791M577.493 319H632.791M632.791 -1V52.3333M632.791 -1H688.089M632.791 52.3333V105.667M632.791 52.3333H688.089M632.791 105.667V159M632.791 105.667H688.089M632.791 159V212.333M632.791 159H688.089M632.791 212.333V265.667M632.791 212.333H688.089M632.791 265.667V319M632.791 265.667H688.089M632.791 319H688.089M688.089 -1V52.3333M688.089 -1H743.388V52.3333M688.089 52.3333V105.667M688.089 52.3333H743.388M688.089 105.667V159M688.089 105.667H743.388M688.089 159V212.333M688.089 159H743.388M688.089 212.333V265.667M688.089 212.333H743.388M688.089 265.667V319M688.089 265.667H743.388M688.089 319H743.388V265.667M743.388 52.3333V105.667M743.388 105.667V159M743.388 159V212.333M743.388 212.333V265.667" stroke="url(#paint0_radial_5693_38496)" strokeWidth="0.8"/>
<g filter="url(#filter0_d_5693_38496)">
<path d="M301 167C301 162.582 304.582 159 309 159H565C569.418 159 573 162.582 573 167V247C573 251.418 569.418 255 565 255H309C304.582 255 301 251.418 301 247V167Z" fill="#F4F4F5"/>
<path d="M309 159.25H565C569.28 159.25 572.75 162.72 572.75 167V247C572.75 251.28 569.28 254.75 565 254.75H309C304.72 254.75 301.25 251.28 301.25 247V167C301.25 162.72 304.72 159.25 309 159.25Z" stroke="#E4E4E7" strokeWidth="0.5"/>
</g>
<g filter="url(#filter1_d_5693_38496)">
<path d="M29 71C29 66.5817 32.5817 63 37 63H293C297.418 63 301 66.5817 301 71V151C301 155.418 297.418 159 293 159H37C32.5817 159 29 155.418 29 151V71Z" fill="#EFF4FF"/>
<path d="M37 63.25H293C297.28 63.25 300.75 66.7198 300.75 71V151C300.75 155.28 297.28 158.75 293 158.75H37C32.7198 158.75 29.25 155.28 29.25 151V71C29.25 66.7198 32.7198 63.25 37 63.25Z" stroke="#0040C2" strokeWidth="0.5"/>
</g>
</g>
<defs>
<filter id="filter0_d_5693_38496" x="299" y="158" width="276" height="100" filterUnits="userSpaceOnUse" color-interpolation-filters="sRGB">
<feFlood flood-opacity="0" result="BackgroundImageFix"/>
<feColorMatrix in="SourceAlpha" type="matrix" values="0 0 0 0 0 0 0 0 0 0 0 0 0 0 0 0 0 0 127 0" result="hardAlpha"/>
<feOffset dy="1"/>
<feGaussianBlur stdDeviation="1"/>
<feComposite in2="hardAlpha" operator="out"/>
<feColorMatrix type="matrix" values="0 0 0 0 0.054902 0 0 0 0 0.0705882 0 0 0 0 0.105882 0 0 0 0.03 0"/>
<feBlend mode="normal" in2="BackgroundImageFix" result="effect1_dropShadow_5693_38496"/>
<feBlend mode="normal" in="SourceGraphic" in2="effect1_dropShadow_5693_38496" result="shape"/>
</filter>
<filter id="filter1_d_5693_38496" x="27" y="62" width="276" height="100" filterUnits="userSpaceOnUse" color-interpolation-filters="sRGB">
<feFlood flood-opacity="0" result="BackgroundImageFix"/>
<feColorMatrix in="SourceAlpha" type="matrix" values="0 0 0 0 0 0 0 0 0 0 0 0 0 0 0 0 0 0 127 0" result="hardAlpha"/>
<feOffset dy="1"/>
<feGaussianBlur stdDeviation="1"/>
<feComposite in2="hardAlpha" operator="out"/>
<feColorMatrix type="matrix" values="0 0 0 0 0.054902 0 0 0 0 0.0705882 0 0 0 0 0.105882 0 0 0 0.03 0"/>
<feBlend mode="normal" in2="BackgroundImageFix" result="effect1_dropShadow_5693_38496"/>
<feBlend mode="normal" in="SourceGraphic" in2="effect1_dropShadow_5693_38496" result="shape"/>
</filter>
<radialGradient id="paint0_radial_5693_38496" cx="0" cy="0" r="1" gradientUnits="userSpaceOnUse" gradientTransform="translate(301.001 159) rotate(90) scale(160 442.387)">
<stop stop-color="#E1E4EA"/>
<stop offset="1" stop-color="#E1E4EA" stop-opacity="0"/>
</radialGradient>
<clipPath id="clip0_5693_38496">
<rect width="600" height="320" fill="white"/>
</clipPath>
</defs>
</svg>
