<svg width="600" height="320" viewBox="0 0 600 320" fill="none" xmlns="http://www.w3.org/2000/svg">
<g clip-path="url(#clip0_5693_38467)">
<path d="M-91.0883 -1H-146.387V52.3333M-91.0883 -1V52.3333M-91.0883 -1H-35.7899M-91.0883 52.3333H-146.387M-91.0883 52.3333V105.667M-91.0883 52.3333H-35.7899M-146.387 52.3333V105.667M-91.0883 105.667H-146.387M-91.0883 105.667V159M-91.0883 105.667H-35.7899M-146.387 105.667V159M-91.0883 159H-146.387M-91.0883 159V212.333M-91.0883 159H-35.7899M-146.387 159V212.333M-91.0883 212.333H-146.387M-91.0883 212.333V265.667M-91.0883 212.333H-35.7899M-146.387 212.333V265.667M-91.0883 265.667H-146.387M-91.0883 265.667V319M-91.0883 265.667H-35.7899M-146.387 265.667V319H-91.0883M-91.0883 319H-35.7899M-35.7899 -1V52.3333M-35.7899 -1H19.5085M-35.7899 52.3333V105.667M-35.7899 52.3333H19.5085M-35.7899 105.667V159M-35.7899 105.667H19.5085M-35.7899 159V212.333M-35.7899 159H19.5085M-35.7899 212.333V265.667M-35.7899 212.333H19.5085M-35.7899 265.667V319M-35.7899 265.667H19.5085M-35.7899 319H19.5085M19.5085 -1V52.3333M19.5085 -1H74.8069M19.5085 52.3333V105.667M19.5085 52.3333H74.8069M19.5085 105.667V159M19.5085 105.667H74.8069M19.5085 159V212.333M19.5085 159H74.8069M19.5085 212.333V265.667M19.5085 212.333H74.8069M19.5085 265.667V319M19.5085 265.667H74.8069M19.5085 319H74.8069M74.8069 -1V52.3333M74.8069 -1H130.105M74.8069 52.3333V105.667M74.8069 52.3333H130.105M74.8069 105.667V159M74.8069 105.667H130.105M74.8069 159V212.333M74.8069 159H130.105M74.8069 212.333V265.667M74.8069 212.333H130.105M74.8069 265.667V319M74.8069 265.667H130.105M74.8069 319H130.105M130.105 -1V52.3333M130.105 -1H185.404M130.105 52.3333V105.667M130.105 52.3333H185.404M130.105 105.667V159M130.105 105.667H185.404M130.105 159V212.333M130.105 159H185.404M130.105 212.333V265.667M130.105 212.333H185.404M130.105 265.667V319M130.105 265.667H185.404M130.105 319H185.404M185.404 -1V52.3333M185.404 -1H240.702M185.404 52.3333V105.667M185.404 52.3333H240.702M185.404 105.667V159M185.404 105.667H240.702M185.404 159V212.333M185.404 159H240.702M185.404 212.333V265.667M185.404 212.333H240.702M185.404 265.667V319M185.404 265.667H240.702M185.404 319H240.702M240.702 -1V52.3333M240.702 -1H296.001M240.702 52.3333V105.667M240.702 52.3333H296.001M240.702 105.667V159M240.702 105.667H296.001M240.702 159V212.333M240.702 159H296.001M240.702 212.333V265.667M240.702 212.333H296.001M240.702 265.667V319M240.702 265.667H296.001M240.702 319H296.001M296.001 -1V52.3333M296.001 -1H351.299M296.001 52.3333V105.667M296.001 52.3333H351.299M296.001 105.667V159M296.001 105.667H351.299M296.001 159V212.333M296.001 159H351.299M296.001 212.333V265.667M296.001 212.333H351.299M296.001 265.667V319M296.001 265.667H351.299M296.001 319H351.299M351.299 -1V52.3333M351.299 -1H406.597M351.299 52.3333V105.667M351.299 52.3333H406.597M351.299 105.667V159M351.299 105.667H406.597M351.299 159V212.333M351.299 159H406.597M351.299 212.333V265.667M351.299 212.333H406.597M351.299 265.667V319M351.299 265.667H406.597M351.299 319H406.597M406.597 -1V52.3333M406.597 -1H461.896M406.597 52.3333V105.667M406.597 52.3333H461.896M406.597 105.667V159M406.597 105.667H461.896M406.597 159V212.333M406.597 159H461.896M406.597 212.333V265.667M406.597 212.333H461.896M406.597 265.667V319M406.597 265.667H461.896M406.597 319H461.896M461.896 -1V52.3333M461.896 -1H517.194M461.896 52.3333V105.667M461.896 52.3333H517.194M461.896 105.667V159M461.896 105.667H517.194M461.896 159V212.333M461.896 159H517.194M461.896 212.333V265.667M461.896 212.333H517.194M461.896 265.667V319M461.896 265.667H517.194M461.896 319H517.194M517.194 -1V52.3333M517.194 -1H572.493M517.194 52.3333V105.667M517.194 52.3333H572.493M517.194 105.667V159M517.194 105.667H572.493M517.194 159V212.333M517.194 159H572.493M517.194 212.333V265.667M517.194 212.333H572.493M517.194 265.667V319M517.194 265.667H572.493M517.194 319H572.493M572.493 -1V52.3333M572.493 -1H627.791M572.493 52.3333V105.667M572.493 52.3333H627.791M572.493 105.667V159M572.493 105.667H627.791M572.493 159V212.333M572.493 159H627.791M572.493 212.333V265.667M572.493 212.333H627.791M572.493 265.667V319M572.493 265.667H627.791M572.493 319H627.791M627.791 -1V52.3333M627.791 -1H683.089M627.791 52.3333V105.667M627.791 52.3333H683.089M627.791 105.667V159M627.791 105.667H683.089M627.791 159V212.333M627.791 159H683.089M627.791 212.333V265.667M627.791 212.333H683.089M627.791 265.667V319M627.791 265.667H683.089M627.791 319H683.089M683.089 -1V52.3333M683.089 -1H738.388V52.3333M683.089 52.3333V105.667M683.089 52.3333H738.388M683.089 105.667V159M683.089 105.667H738.388M683.089 159V212.333M683.089 159H738.388M683.089 212.333V265.667M683.089 212.333H738.388M683.089 265.667V319M683.089 265.667H738.388M683.089 319H738.388V265.667M738.388 52.3333V105.667M738.388 105.667V159M738.388 159V212.333M738.388 212.333V265.667" stroke="url(#paint0_radial_5693_38467)" stroke-width="0.8"/>
<path d="M161.795 308.307C178.824 340.633 220.075 359.891 246.696 343.226C250.464 341.851 253.926 339.945 256.996 337.567C260.1 343.029 263.204 348.491 266.309 353.954C269.853 360.202 273.117 366.792 277.935 372.045C281.852 376.304 288.069 381.061 293.82 380.252C294.32 380.189 294.78 380.029 295.255 379.902C297.179 380.004 298.9 379.566 300.577 378.476L396.944 316.055C401.544 313.071 402.881 306.356 399.897 301.072L388.285 280.338C390.915 279.131 430.127 261.567 433.595 260.006L445.252 256.369C446.23 256.064 445.775 254.581 444.79 254.887L433.045 258.554C431.057 259.448 386.407 279.461 386.81 279.28C380.201 282.419 373.766 285.834 366.793 283.311C365.345 282.789 363.429 281.796 362.549 280.093C362.458 279.887 362.373 279.68 362.3 279.498C362.009 278.511 362.1 277.434 362.558 276.593C362.582 276.541 362.607 276.502 362.613 276.487C363.026 276.198 363.341 275.889 363.614 275.512C363.709 275.383 363.738 275.232 363.744 275.083L381.395 260.084C381.72 259.808 381.762 259.316 381.483 258.989C381.204 258.667 380.712 258.627 380.387 258.9C360.528 275.893 361.301 274.862 361.213 275.465C357.265 277.61 348.745 273.692 346.875 268.342C346.179 266.286 346.501 263.644 348.182 261.789C348.767 261.875 346.262 263.369 368.696 247.556C369.045 247.307 369.13 246.821 368.882 246.472C368.633 246.123 368.147 246.038 367.798 246.287L349.485 259.254C349.368 259.246 349.252 259.212 349.137 259.262C348.506 259.52 347.974 259.851 347.649 260.176C347.413 260.309 347.209 260.443 347.036 260.561C344.881 261.891 343.217 262.355 341.083 260.807C337.761 258.448 336.736 253.663 339.049 249.927C340.359 247.905 341.622 247.554 343.135 246.745C347.25 244.634 363.375 236.515 367.133 234.59C367.935 234.178 367.491 232.958 366.638 233.133L329.942 239.918C327.583 239.478 325.136 238.88 323.142 237.553C321.008 236.075 319.684 233.877 319.684 231.806C319.654 229.235 321.487 226.955 323.537 224.645C325.92 221.873 326.814 222.511 327.359 222.414L370.503 214.05C370.922 213.971 371.198 213.562 371.116 213.14C371.037 212.718 370.636 212.42 370.205 212.526L352.224 216.011L342.139 198.022C352.802 195.348 364.086 197.617 371.982 204.674C372.137 204.798 372.323 204.86 372.51 204.86H372.634L439.159 193.328C439.594 193.234 439.873 192.83 439.811 192.426C439.718 191.991 439.345 191.711 438.91 191.773L372.728 203.244C364.365 195.939 352.491 193.701 341.362 196.623L300.981 124.565C298.061 119.322 291.787 117.27 287.117 120.338C184.289 186.91 190.34 182.95 190.004 183.287C189.341 183.618 188.381 184.93 187.978 185.553C181.885 189.838 176.581 195.764 180.667 202.968C180.961 203.487 199.483 236.147 199.665 236.468C192.396 236.655 185.108 238.524 178.863 242.435C168.719 246.065 160.986 253.551 157.093 263.524C151.983 276.611 153.696 292.934 161.795 308.307ZM210.083 254.811C216.405 265.934 233.515 296.175 242.994 312.857C244.541 315.588 246.088 318.302 247.634 321.025C247.511 321.096 247.38 321.16 247.309 321.294C243.818 327.936 238.016 332.578 230.53 334.709C210.707 340.429 185.018 326.959 173.273 304.695C156.933 273.648 176.918 245.451 209.486 254.884C209.698 254.944 209.909 254.91 210.083 254.811ZM373.848 285.626L375.894 289.3C378.459 293.884 377.36 299.686 373.444 302.227L300.016 349.788C296.068 352.361 290.871 350.574 288.373 346.115L211.775 209.491C209.207 204.901 210.321 199.102 214.259 196.564L238.282 180.996L242.838 189.125L273.801 169.073L269.239 160.935L287.651 149.003C291.617 146.445 296.821 148.198 299.329 152.677L322.846 194.651C318.678 191.699 314.052 189.48 309.27 189.228C304.11 188.968 298.668 191.114 294.995 193.773C292.419 193.823 290.071 194.363 287.845 195.781C280.152 200.569 277.196 213.037 279.628 229.582L269.913 211.516C269.71 211.136 269.233 210.993 268.863 211.2C268.483 211.4 268.344 211.874 268.547 212.25C287.835 248.125 302.272 274.979 320.434 308.76C320.577 309.021 320.844 309.169 321.12 309.169C321.245 309.169 321.372 309.139 321.487 309.078C321.867 308.875 322.007 308.401 321.806 308.025L315.26 295.852C325.087 303.891 337.569 308.436 345.244 298.364C349.482 297.134 353.715 295.496 356.551 292.092C359.171 288.994 360.578 285.115 361.312 280.995C363.534 284.846 369.443 286.13 373.848 285.626ZM336.971 250.635C335.898 247.356 334.646 244.099 333.16 240.903L339.307 239.765C340.148 241.641 340.968 243.595 341.792 245.685C339.443 246.831 337.994 248.092 336.971 250.635ZM354.578 239.208C354.307 238.5 354.019 237.797 353.716 237.099L361.462 235.665L361.488 235.71C359.745 236.592 357.425 237.751 354.578 239.208ZM322.268 238.837C324.547 240.358 327.237 241.002 329.802 241.472C329.896 241.494 329.991 241.49 330.085 241.472L331.592 241.193C333.484 245.212 335.074 249.333 336.288 253.473C336.118 255.471 336.508 257.479 337.865 259.56C337.865 259.56 337.864 259.571 337.865 259.577C340.537 272.546 338.761 282.749 333.227 286.21C331.001 287.6 328.297 287.865 325.173 286.987C316.409 284.528 306.008 273.509 298.68 258.916C288.343 238.333 287.117 217.089 295.939 211.555C302.197 207.67 312.182 212.8 321.501 224.618C319.621 226.832 318.098 229.105 318.13 231.816C318.13 234.381 319.711 237.067 322.268 238.837ZM327.173 220.866C325.263 220.726 323.769 222.041 322.542 223.435C312.75 211.118 302.048 205.924 295.116 210.237C285.629 216.184 286.604 238.336 297.289 259.614C304.809 274.58 315.589 285.913 324.754 288.484C327.968 289.391 331.196 289.307 334.052 287.528C339.862 283.894 341.92 274.321 339.803 261.73C339.935 261.836 340.041 261.974 340.178 262.073C342.182 263.515 343.958 263.551 345.591 262.999C344.195 266.406 345.08 270.297 348.583 273.418C351.059 302.526 334.604 311.915 313.218 292.017C310.018 286.069 324.808 313.56 281.933 233.869C278.388 215.977 280.963 201.894 288.671 197.096C290.21 196.118 292.007 195.532 294.017 195.35C303.825 194.395 317.354 204.299 328.561 220.597L327.173 220.866ZM190.874 184.592C190.936 184.561 190.998 184.53 191.03 184.468C191.368 184.129 185.702 187.852 287.956 121.643C291.965 119.066 297.116 120.852 299.613 125.311L339.838 197.027L340.616 198.425L350.641 216.317L343.592 217.683C338.723 209.985 332.968 202.892 325.994 197.093L300.683 151.918C297.709 146.609 291.498 144.677 286.807 147.698L213.415 195.259C208.8 198.231 207.459 204.955 210.421 210.25L287.02 346.873C289.96 352.133 296.173 354.148 300.863 351.093L374.288 303.532C378.878 300.551 380.208 293.827 377.251 288.545L375.487 285.374C379.365 284.605 383.115 282.766 386.892 280.984L398.56 301.818C401.109 306.418 400.021 312.201 396.104 314.75L299.738 377.17C295.703 379.783 290.522 377.925 288.049 373.502L189.133 196.996C186.771 192.768 187.486 187.421 190.874 184.592ZM202.274 242.034C202.462 242.06 202.626 242.011 202.771 241.928C204.893 245.684 207.033 249.441 209.167 253.198C175.815 244.102 155.008 273.324 171.898 305.417C183.396 327.217 209.558 342.369 230.958 336.203C238.696 334 244.718 329.237 248.438 322.439C250.601 326.246 252.764 330.06 254.928 333.863C254.842 333.913 254.756 333.965 254.695 334.041C232.789 361.77 182.818 344.876 163.167 307.585C143.837 270.881 164.016 236.04 202.274 242.034Z" fill="#0040C2"/>
<path d="M203.936 272.361C201.86 272.71 201.242 273.023 197.341 274.101L193.884 267.731C193.68 267.355 193.21 267.212 192.83 267.419C192.454 267.622 192.314 268.096 192.518 268.472L195.811 274.54L188.978 276.498C188.407 276.665 188.055 276.972 187.922 277.424C187.551 278.68 187.793 277.887 208.376 317.29C208.735 317.973 209.169 318.446 209.682 318.714C210.957 319.389 211.454 318.655 217.956 316.963L221.952 324.324C222.092 324.585 222.359 324.73 222.635 324.73C223.224 324.73 223.597 324.099 223.318 323.583L219.486 316.524L224.642 315.046C225.125 314.908 225.52 314.724 225.961 314.564L230.003 322.013C230.205 322.391 230.677 322.53 231.056 322.326C231.433 322.123 231.573 321.649 231.369 321.273L227.427 314.007C233.421 311.182 234.145 306.073 230.923 299.959C228.323 295.028 223.978 291.746 218.522 291.856C221.266 289.499 222.351 285.587 219.675 280.494C216.443 274.368 211.285 271.75 205.593 272.155L201.935 265.421C201.731 265.039 201.255 264.905 200.881 265.108C200.505 265.315 200.365 265.785 200.568 266.162L203.936 272.361ZM227.623 300.976C230.639 306.71 228.828 310.242 222.723 311.995L211.06 315.341L202.223 298.574L213.889 295.229C220.395 293.36 224.711 295.459 227.623 300.976ZM216.406 281.571C219.22 286.922 217.393 290.629 211.436 292.336L200.578 295.451L192.023 279.222L202.882 276.107C208.819 274.407 213.565 276.192 216.406 281.571Z" fill="#0040C2"/>
<path d="M313.191 249.365C311.095 250.994 310.003 250.71 308.959 248.871C307.619 246.501 307.849 243.729 309.02 241.506L309.202 241.825L309.162 241.245C309.433 240.768 309.751 240.31 310.116 239.866C311.436 238.258 312.763 237.265 314.854 237.368C317.035 237.346 316.976 233.722 315.012 233.455C312.965 233.129 310.942 234.036 309.399 235.337C308.236 233.527 308.114 232.381 306.958 232.238C305.466 232.16 304.81 234.066 305.513 235.307L307.04 238.006C302.21 245.15 305.873 253.814 310.07 254.532C313.187 255.067 316.037 251.856 317.596 250.847C318.508 250.153 319.96 249.179 320.923 249.678C321.962 250.219 322.669 252.136 322.781 253.448C322.863 254.38 322.723 255.361 322.368 256.366C321.529 258.72 319.157 261.303 317.669 262.012C316.794 262.425 315.953 262.668 315.17 262.732C313.802 262.839 313.386 264.271 313.774 265.412C314.031 266.158 314.628 266.736 315.449 266.73C317.761 266.736 319.975 265.355 321.6 263.737C322.683 265.408 322.857 266.632 323.989 266.742C324.499 266.776 324.913 266.585 325.24 266.192L325.246 266.189C325.837 265.466 325.859 264.417 325.434 263.676L323.88 260.929C328.522 253.545 325.005 245.585 320.856 245.294C318.082 244.992 315.068 248.102 313.191 249.365Z" fill="#0040C2"/>
<path d="M326.858 155.12C331.035 153.949 335.209 152.768 339.38 151.584C342.31 150.764 344.122 152.488 347.173 153.684C370.729 162.932 396.361 146.71 398.344 121.675C399.977 101.032 384.51 82.9059 363.864 81.2727C337.317 79.1364 317.066 104.694 325.082 130.042C326.201 133.575 328.435 136.196 327.917 139.529C325.79 153.951 325.534 153.638 325.908 154.134C325.718 154.716 326.26 155.281 326.858 155.12ZM329.453 139.766C330.059 135.842 327.655 133.014 326.563 129.574C318.861 105.232 338.289 80.8184 363.742 82.8209C383.577 84.3911 398.366 101.715 396.795 121.554C394.884 145.693 370.181 161.037 347.741 152.239C345.318 151.284 343.413 149.811 340.883 149.811C339.551 149.811 340.174 149.77 327.365 153.363L329.453 139.766Z" fill="#0040C2"/>
<path d="M375.483 131.875C369.958 137.522 361.443 139.911 353.781 137.965C353.374 137.871 352.94 138.111 352.837 138.527C352.731 138.942 352.983 139.364 353.398 139.471C361.614 141.567 370.716 138.97 376.595 132.962C382.502 126.924 384.852 117.765 382.584 109.629C382.469 109.216 382.038 108.989 381.625 109.089C381.212 109.204 380.969 109.635 381.084 110.048C383.206 117.659 381.009 126.226 375.483 131.875Z" fill="#0040C2"/>
<path d="M339.082 119.49C339.507 119.49 339.856 119.147 339.859 118.719C339.981 104.81 352.895 94.3205 366.631 97.265C367.053 97.3591 367.466 97.0889 367.554 96.67C367.645 96.248 367.378 95.8351 366.959 95.7471C352.337 92.6035 338.44 103.744 338.305 118.706C338.302 119.134 338.645 119.487 339.076 119.49H339.082Z" fill="#0040C2"/>
<path d="M347.391 134.95L356.953 135.831C357.363 135.852 357.758 135.554 357.797 135.126C357.837 134.701 357.521 134.322 357.093 134.282L345.797 133.241C345.23 133.122 344.669 133.901 345.105 134.48L352.554 144.479C352.816 144.83 353.309 144.89 353.641 144.637C353.984 144.382 354.057 143.894 353.799 143.551L347.391 134.95Z" fill="#0040C2"/>
<path d="M373.107 99.4296L360.851 100.207C359.857 100.27 359.904 101.758 360.9 101.758C361.213 101.758 375.259 100.885 374.946 100.869C375.616 100.829 375.922 100.013 375.441 99.5389L364.676 89.0049C364.373 88.7043 363.881 88.7104 363.578 89.017C363.277 89.3236 363.283 89.8154 363.59 90.1159L373.107 99.4296Z" fill="#0040C2"/>
</g>
<defs>
<radialGradient id="paint0_radial_5693_38467" cx="0" cy="0" r="1" gradientUnits="userSpaceOnUse" gradientTransform="translate(296.001 159) rotate(90) scale(160 442.387)">
<stop stop-color="#E1E4EA"/>
<stop offset="1" stop-color="#E1E4EA" stop-opacity="0"/>
</radialGradient>
<clipPath id="clip0_5693_38467">
<rect width="600" height="320" fill="white"/>
</clipPath>
</defs>
</svg>
