<svg width="600" height="320" viewBox="0 0 600 320" fill="none" xmlns="http://www.w3.org/2000/svg">
<g clip-path="url(#clip0_5693_38467)">
<path d="M-91.0883 -1H-146.387V52.3333M-91.0883 -1V52.3333M-91.0883 -1H-35.7899M-91.0883 52.3333H-146.387M-91.0883 52.3333V105.667M-91.0883 52.3333H-35.7899M-146.387 52.3333V105.667M-91.0883 105.667H-146.387M-91.0883 105.667V159M-91.0883 105.667H-35.7899M-146.387 105.667V159M-91.0883 159H-146.387M-91.0883 159V212.333M-91.0883 159H-35.7899M-146.387 159V212.333M-91.0883 212.333H-146.387M-91.0883 212.333V265.667M-91.0883 212.333H-35.7899M-146.387 212.333V265.667M-91.0883 265.667H-146.387M-91.0883 265.667V319M-91.0883 265.667H-35.7899M-146.387 265.667V319H-91.0883M-91.0883 319H-35.7899M-35.7899 -1V52.3333M-35.7899 -1H19.5085M-35.7899 52.3333V105.667M-35.7899 52.3333H19.5085M-35.7899 105.667V159M-35.7899 105.667H19.5085M-35.7899 159V212.333M-35.7899 159H19.5085M-35.7899 212.333V265.667M-35.7899 212.333H19.5085M-35.7899 265.667V319M-35.7899 265.667H19.5085M-35.7899 319H19.5085M19.5085 -1V52.3333M19.5085 -1H74.8069M19.5085 52.3333V105.667M19.5085 52.3333H74.8069M19.5085 105.667V159M19.5085 105.667H74.8069M19.5085 159V212.333M19.5085 159H74.8069M19.5085 212.333V265.667M19.5085 212.333H74.8069M19.5085 265.667V319M19.5085 265.667H74.8069M19.5085 319H74.8069M74.8069 -1V52.3333M74.8069 -1H130.105M74.8069 52.3333V105.667M74.8069 52.3333H130.105M74.8069 105.667V159M74.8069 105.667H130.105M74.8069 159V212.333M74.8069 159H130.105M74.8069 212.333V265.667M74.8069 212.333H130.105M74.8069 265.667V319M74.8069 265.667H130.105M74.8069 319H130.105M130.105 -1V52.3333M130.105 -1H185.404M130.105 52.3333V105.667M130.105 52.3333H185.404M130.105 105.667V159M130.105 105.667H185.404M130.105 159V212.333M130.105 159H185.404M130.105 212.333V265.667M130.105 212.333H185.404M130.105 265.667V319M130.105 265.667H185.404M130.105 319H185.404M185.404 -1V52.3333M185.404 -1H240.702M185.404 52.3333V105.667M185.404 52.3333H240.702M185.404 105.667V159M185.404 105.667H240.702M185.404 159V212.333M185.404 159H240.702M185.404 212.333V265.667M185.404 212.333H240.702M185.404 265.667V319M185.404 265.667H240.702M185.404 319H240.702M240.702 -1V52.3333M240.702 -1H296.001M240.702 52.3333V105.667M240.702 52.3333H296.001M240.702 105.667V159M240.702 105.667H296.001M240.702 159V212.333M240.702 159H296.001M240.702 212.333V265.667M240.702 212.333H296.001M240.702 265.667V319M240.702 265.667H296.001M240.702 319H296.001M296.001 -1V52.3333M296.001 -1H351.299M296.001 52.3333V105.667M296.001 52.3333H351.299M296.001 105.667V159M296.001 105.667H351.299M296.001 159V212.333M296.001 159H351.299M296.001 212.333V265.667M296.001 212.333H351.299M296.001 265.667V319M296.001 265.667H351.299M296.001 319H351.299M351.299 -1V52.3333M351.299 -1H406.597M351.299 52.3333V105.667M351.299 52.3333H406.597M351.299 105.667V159M351.299 105.667H406.597M351.299 159V212.333M351.299 159H406.597M351.299 212.333V265.667M351.299 212.333H406.597M351.299 265.667V319M351.299 265.667H406.597M351.299 319H406.597M406.597 -1V52.3333M406.597 -1H461.896M406.597 52.3333V105.667M406.597 52.3333H461.896M406.597 105.667V159M406.597 105.667H461.896M406.597 159V212.333M406.597 159H461.896M406.597 212.333V265.667M406.597 212.333H461.896M406.597 265.667V319M406.597 265.667H461.896M406.597 319H461.896M461.896 -1V52.3333M461.896 -1H517.194M461.896 52.3333V105.667M461.896 52.3333H517.194M461.896 105.667V159M461.896 105.667H517.194M461.896 159V212.333M461.896 159H517.194M461.896 212.333V265.667M461.896 212.333H517.194M461.896 265.667V319M461.896 265.667H517.194M461.896 319H517.194M517.194 -1V52.3333M517.194 -1H572.493M517.194 52.3333V105.667M517.194 52.3333H572.493M517.194 105.667V159M517.194 105.667H572.493M517.194 159V212.333M517.194 159H572.493M517.194 212.333V265.667M517.194 212.333H572.493M517.194 265.667V319M517.194 265.667H572.493M517.194 319H572.493M572.493 -1V52.3333M572.493 -1H627.791M572.493 52.3333V105.667M572.493 52.3333H627.791M572.493 105.667V159M572.493 105.667H627.791M572.493 159V212.333M572.493 159H627.791M572.493 212.333V265.667M572.493 212.333H627.791M572.493 265.667V319M572.493 265.667H627.791M572.493 319H627.791M627.791 -1V52.3333M627.791 -1H683.089M627.791 52.3333V105.667M627.791 52.3333H683.089M627.791 105.667V159M627.791 105.667H683.089M627.791 159V212.333M627.791 159H683.089M627.791 212.333V265.667M627.791 212.333H683.089M627.791 265.667V319M627.791 265.667H683.089M627.791 319H683.089M683.089 -1V52.3333M683.089 -1H738.388V52.3333M683.089 52.3333V105.667M683.089 52.3333H738.388M683.089 105.667V159M683.089 105.667H738.388M683.089 159V212.333M683.089 159H738.388M683.089 212.333V265.667M683.089 212.333H738.388M683.089 265.667V319M683.089 265.667H738.388M683.089 319H738.388V265.667M738.388 52.3333V105.667M738.388 105.667V159M738.388 159V212.333M738.388 212.333V265.667" stroke="url(#paint0_radial_5693_38467)" strokeWidth="0.8"/>
<g clip-path="url(#clip1_5693_38467)">
<rect x="110.07" y="51.6011" width="379.86" height="194.399" rx="8.93788" fill="white"/>
<g filter="url(#filter0_f_5693_38467)">
<circle cx="427.364" cy="192.373" r="197.751" fill="url(#paint1_linear_5693_38467)"/>
<circle cx="427.364" cy="192.373" r="197.192" stroke="white" strokeWidth="1.11724"/>
</g>
<g filter="url(#filter1_f_5693_38467)">
<circle cx="172.075" cy="140.421" r="211.716" fill="#FAEEF8"/>
</g>
<g clip-path="url(#clip2_5693_38467)">
<mask id="path-6-inside-1_5693_38467" fill="white">
<path d="M176 122.938C176 118.002 180.002 114 184.938 114H415.062C419.998 114 424 118.002 424 122.938V245.834H176V122.938Z"/>
</mask>
<path d="M176 122.938C176 118.002 180.002 114 184.938 114H415.062C419.998 114 424 118.002 424 122.938V245.834H176V122.938Z" fill="white"/>
<path d="M174.883 122.938C174.883 117.385 179.385 112.883 184.938 112.883H415.062C420.615 112.883 425.117 117.385 425.117 122.938H422.883C422.883 118.619 419.381 115.117 415.062 115.117H184.938C180.619 115.117 177.117 118.619 177.117 122.938H174.883ZM424 245.834H176H424ZM174.883 245.834V122.938C174.883 117.385 179.385 112.883 184.938 112.883V115.117C180.619 115.117 177.117 118.619 177.117 122.938V245.834H174.883ZM415.062 112.883C420.615 112.883 425.117 117.385 425.117 122.938V245.834H422.883V122.938C422.883 118.619 419.381 115.117 415.062 115.117V112.883Z" fill="#E4E8EE" mask="url(#path-6-inside-1_5693_38467)"/>
<path d="M289.125 131.82V126.133H289.983V131.082H292.56V131.82H289.125ZM295.269 131.906C294.87 131.906 294.521 131.815 294.222 131.631C293.924 131.448 293.693 131.192 293.528 130.862C293.363 130.533 293.281 130.148 293.281 129.707C293.281 129.264 293.363 128.877 293.528 128.546C293.693 128.215 293.924 127.957 294.222 127.774C294.521 127.591 294.87 127.499 295.269 127.499C295.669 127.499 296.018 127.591 296.316 127.774C296.615 127.957 296.846 128.215 297.011 128.546C297.176 128.877 297.258 129.264 297.258 129.707C297.258 130.148 297.176 130.533 297.011 130.862C296.846 131.192 296.615 131.448 296.316 131.631C296.018 131.815 295.669 131.906 295.269 131.906ZM295.272 131.209C295.531 131.209 295.746 131.141 295.917 131.004C296.087 130.867 296.213 130.684 296.294 130.457C296.378 130.229 296.419 129.978 296.419 129.704C296.419 129.432 296.378 129.182 296.294 128.954C296.213 128.725 296.087 128.54 295.917 128.402C295.746 128.263 295.531 128.193 295.272 128.193C295.011 128.193 294.795 128.263 294.622 128.402C294.452 128.54 294.325 128.725 294.242 128.954C294.16 129.182 294.12 129.432 294.12 129.704C294.12 129.978 294.16 130.229 294.242 130.457C294.325 130.684 294.452 130.867 294.622 131.004C294.795 131.141 295.011 131.209 295.272 131.209ZM299.973 133.509C299.635 133.509 299.343 133.464 299.099 133.376C298.856 133.287 298.658 133.169 298.504 133.023C298.351 132.877 298.236 132.716 298.16 132.542L298.874 132.248C298.924 132.329 298.99 132.416 299.074 132.506C299.159 132.599 299.274 132.678 299.418 132.742C299.564 132.807 299.752 132.84 299.982 132.84C300.296 132.84 300.557 132.763 300.762 132.609C300.968 132.457 301.07 132.215 301.07 131.881V131.043H301.018C300.968 131.133 300.895 131.234 300.801 131.345C300.708 131.456 300.581 131.553 300.418 131.634C300.255 131.716 300.043 131.756 299.782 131.756C299.445 131.756 299.141 131.678 298.871 131.52C298.602 131.361 298.389 131.127 298.232 130.818C298.077 130.507 297.999 130.124 297.999 129.671C297.999 129.217 298.076 128.828 298.229 128.504C298.385 128.18 298.598 127.932 298.868 127.76C299.138 127.586 299.445 127.499 299.787 127.499C300.052 127.499 300.266 127.543 300.429 127.632C300.592 127.719 300.719 127.821 300.809 127.938C300.902 128.054 300.973 128.157 301.023 128.246H301.084V127.555H301.898V131.915C301.898 132.281 301.813 132.582 301.642 132.817C301.472 133.052 301.242 133.227 300.951 133.339C300.662 133.452 300.336 133.509 299.973 133.509ZM299.965 131.068C300.204 131.068 300.406 131.012 300.57 130.901C300.737 130.788 300.863 130.627 300.948 130.418C301.035 130.207 301.079 129.954 301.079 129.66C301.079 129.373 301.036 129.12 300.951 128.901C300.866 128.683 300.741 128.513 300.576 128.39C300.411 128.266 300.208 128.204 299.965 128.204C299.715 128.204 299.507 128.269 299.34 128.399C299.174 128.527 299.048 128.701 298.962 128.921C298.879 129.141 298.837 129.387 298.837 129.66C298.837 129.939 298.88 130.185 298.965 130.396C299.05 130.607 299.176 130.771 299.343 130.89C299.511 131.008 299.719 131.068 299.965 131.068ZM305.081 131.82V127.555H305.912V131.82H305.081ZM305.501 126.896C305.356 126.896 305.232 126.848 305.129 126.752C305.027 126.654 304.976 126.537 304.976 126.402C304.976 126.265 305.027 126.148 305.129 126.052C305.232 125.954 305.356 125.905 305.501 125.905C305.645 125.905 305.768 125.954 305.87 126.052C305.974 126.148 306.026 126.265 306.026 126.402C306.026 126.537 305.974 126.654 305.87 126.752C305.768 126.848 305.645 126.896 305.501 126.896ZM307.859 129.287V131.82H307.029V127.555H307.826V128.249H307.879C307.977 128.023 308.131 127.841 308.34 127.704C308.551 127.567 308.817 127.499 309.137 127.499C309.427 127.499 309.682 127.56 309.901 127.682C310.119 127.803 310.288 127.982 310.409 128.221C310.529 128.46 310.589 128.755 310.589 129.107V131.82H309.759V129.207C309.759 128.898 309.678 128.656 309.517 128.482C309.356 128.306 309.135 128.218 308.854 128.218C308.661 128.218 308.49 128.26 308.34 128.343C308.192 128.427 308.074 128.549 307.987 128.71C307.902 128.869 307.859 129.062 307.859 129.287Z" fill="#201F23"/>
<rect x="202.445" y="169.1" width="196" height="20.1724" rx="4.46894" fill="#0040C2"/>
<path d="M290.459 178.334H289.868C289.833 178.164 289.772 178.015 289.685 177.886C289.599 177.758 289.495 177.65 289.371 177.563C289.249 177.474 289.113 177.407 288.964 177.363C288.815 177.318 288.659 177.296 288.497 177.296C288.202 177.296 287.935 177.371 287.695 177.52C287.457 177.669 287.267 177.889 287.126 178.179C286.986 178.47 286.917 178.826 286.917 179.248C286.917 179.67 286.986 180.026 287.126 180.317C287.267 180.607 287.457 180.827 287.695 180.976C287.935 181.125 288.202 181.2 288.497 181.2C288.659 181.2 288.815 181.178 288.964 181.133C289.113 181.089 289.249 181.023 289.371 180.936C289.495 180.847 289.599 180.738 289.685 180.61C289.772 180.479 289.833 180.33 289.868 180.162H290.459C290.414 180.411 290.333 180.634 290.216 180.831C290.098 181.028 289.952 181.195 289.778 181.333C289.603 181.47 289.407 181.574 289.19 181.645C288.974 181.716 288.743 181.752 288.497 181.752C288.081 181.752 287.712 181.651 287.388 181.447C287.064 181.244 286.809 180.956 286.624 180.581C286.438 180.206 286.345 179.762 286.345 179.248C286.345 178.734 286.438 178.289 286.624 177.915C286.809 177.54 287.064 177.252 287.388 177.048C287.712 176.845 288.081 176.744 288.497 176.744C288.743 176.744 288.974 176.779 289.19 176.851C289.407 176.922 289.603 177.027 289.778 177.165C289.952 177.302 290.098 177.468 290.216 177.665C290.333 177.86 290.414 178.083 290.459 178.334ZM292.822 181.762C292.492 181.762 292.202 181.683 291.953 181.526C291.705 181.369 291.512 181.149 291.372 180.867C291.234 180.584 291.165 180.254 291.165 179.876C291.165 179.496 291.234 179.163 291.372 178.879C291.512 178.595 291.705 178.374 291.953 178.217C292.202 178.06 292.492 177.982 292.822 177.982C293.152 177.982 293.441 178.06 293.688 178.217C293.938 178.374 294.131 178.595 294.269 178.879C294.409 179.163 294.479 179.496 294.479 179.876C294.479 180.254 294.409 180.584 294.269 180.867C294.131 181.149 293.938 181.369 293.688 181.526C293.441 181.683 293.152 181.762 292.822 181.762ZM292.822 181.257C293.073 181.257 293.279 181.193 293.441 181.064C293.603 180.936 293.723 180.767 293.8 180.557C293.878 180.348 293.917 180.121 293.917 179.876C293.917 179.632 293.878 179.404 293.8 179.193C293.723 178.982 293.603 178.812 293.441 178.681C293.279 178.551 293.073 178.486 292.822 178.486C292.571 178.486 292.365 178.551 292.203 178.681C292.041 178.812 291.921 178.982 291.844 179.193C291.766 179.404 291.727 179.632 291.727 179.876C291.727 180.121 291.766 180.348 291.844 180.557C291.921 180.767 292.041 180.936 292.203 181.064C292.365 181.193 292.571 181.257 292.822 181.257ZM295.898 179.486V181.686H295.336V178.029H295.879V178.6H295.927C296.012 178.415 296.142 178.266 296.317 178.153C296.492 178.039 296.717 177.982 296.993 177.982C297.241 177.982 297.457 178.032 297.643 178.134C297.829 178.234 297.973 178.386 298.076 178.591C298.179 178.794 298.231 179.051 298.231 179.362V181.686H297.669V179.4C297.669 179.113 297.595 178.889 297.445 178.729C297.296 178.567 297.091 178.486 296.831 178.486C296.652 178.486 296.492 178.525 296.35 178.603C296.211 178.681 296.1 178.794 296.019 178.943C295.939 179.092 295.898 179.273 295.898 179.486ZM300.848 178.029V178.505H298.953V178.029H300.848ZM299.505 177.153H300.067V180.638C300.067 180.797 300.09 180.916 300.136 180.995C300.184 181.073 300.244 181.125 300.317 181.152C300.391 181.178 300.47 181.19 300.552 181.19C300.614 181.19 300.665 181.187 300.705 181.181C300.745 181.173 300.776 181.167 300.8 181.162L300.914 181.667C300.876 181.681 300.823 181.695 300.755 181.709C300.687 181.725 300.6 181.733 300.495 181.733C300.337 181.733 300.181 181.699 300.029 181.631C299.878 181.563 299.753 181.459 299.653 181.319C299.554 181.179 299.505 181.003 299.505 180.79V177.153ZM301.693 181.686V178.029H302.255V181.686H301.693ZM301.978 177.42C301.869 177.42 301.774 177.382 301.695 177.308C301.617 177.233 301.578 177.144 301.578 177.039C301.578 176.934 301.617 176.844 301.695 176.77C301.774 176.695 301.869 176.658 301.978 176.658C302.088 176.658 302.182 176.695 302.259 176.77C302.339 176.844 302.378 176.934 302.378 177.039C302.378 177.144 302.339 177.233 302.259 177.308C302.182 177.382 302.088 177.42 301.978 177.42ZM303.845 179.486V181.686H303.283V178.029H303.826V178.6H303.874C303.96 178.415 304.09 178.266 304.264 178.153C304.439 178.039 304.664 177.982 304.94 177.982C305.188 177.982 305.404 178.032 305.59 178.134C305.776 178.234 305.92 178.386 306.023 178.591C306.127 178.794 306.178 179.051 306.178 179.362V181.686H305.616V179.4C305.616 179.113 305.542 178.889 305.393 178.729C305.243 178.567 305.039 178.486 304.778 178.486C304.599 178.486 304.439 178.525 304.298 178.603C304.158 178.681 304.048 178.794 303.967 178.943C303.886 179.092 303.845 179.273 303.845 179.486ZM309.509 180.191V178.029H310.071V181.686H309.509V181.067H309.471C309.385 181.252 309.252 181.41 309.071 181.54C308.89 181.669 308.662 181.733 308.385 181.733C308.157 181.733 307.954 181.683 307.776 181.583C307.598 181.482 307.459 181.329 307.357 181.126C307.256 180.921 307.205 180.664 307.205 180.352V178.029H307.767V180.314C307.767 180.581 307.841 180.794 307.99 180.952C308.141 181.111 308.333 181.19 308.566 181.19C308.706 181.19 308.848 181.155 308.992 181.083C309.138 181.012 309.261 180.902 309.359 180.755C309.459 180.607 309.509 180.419 309.509 180.191ZM312.633 181.762C312.28 181.762 311.977 181.684 311.721 181.528C311.467 181.371 311.271 181.152 311.133 180.871C310.997 180.589 310.928 180.26 310.928 179.886C310.928 179.511 310.997 179.181 311.133 178.896C311.271 178.608 311.463 178.385 311.709 178.224C311.957 178.062 312.246 177.982 312.576 177.982C312.766 177.982 312.954 178.013 313.14 178.077C313.326 178.14 313.495 178.243 313.647 178.386C313.799 178.527 313.921 178.715 314.011 178.948C314.102 179.181 314.147 179.469 314.147 179.81V180.048H311.328V179.562H313.575C313.575 179.356 313.534 179.172 313.452 179.01C313.371 178.848 313.255 178.72 313.104 178.627C312.955 178.533 312.779 178.486 312.576 178.486C312.352 178.486 312.158 178.542 311.995 178.653C311.833 178.762 311.708 178.905 311.621 179.081C311.534 179.257 311.49 179.446 311.49 179.648V179.972C311.49 180.248 311.538 180.482 311.633 180.674C311.73 180.864 311.864 181.009 312.035 181.109C312.207 181.208 312.406 181.257 312.633 181.257C312.78 181.257 312.914 181.236 313.033 181.195C313.153 181.152 313.257 181.089 313.345 181.005C313.432 180.919 313.499 180.813 313.547 180.686L314.09 180.838C314.033 181.022 313.936 181.184 313.802 181.324C313.667 181.462 313.5 181.57 313.302 181.647C313.103 181.724 312.88 181.762 312.633 181.762Z" fill="white"/>
<rect x="201.945" y="211.1" width="197" height="20.1724" rx="4.46894" fill="#201F23"/>
<path d="M269.536 223.686V218.81H270.126V223.162H272.392V223.686H269.536ZM274.716 223.762C274.385 223.762 274.096 223.683 273.847 223.526C273.599 223.369 273.406 223.149 273.266 222.867C273.128 222.584 273.059 222.254 273.059 221.876C273.059 221.496 273.128 221.163 273.266 220.879C273.406 220.595 273.599 220.374 273.847 220.217C274.096 220.06 274.385 219.982 274.716 219.982C275.046 219.982 275.335 220.06 275.582 220.217C275.831 220.374 276.025 220.595 276.163 220.879C276.303 221.163 276.372 221.496 276.372 221.876C276.372 222.254 276.303 222.584 276.163 222.867C276.025 223.149 275.831 223.369 275.582 223.526C275.335 223.683 275.046 223.762 274.716 223.762ZM274.716 223.257C274.966 223.257 275.173 223.193 275.335 223.064C275.496 222.936 275.616 222.767 275.694 222.557C275.772 222.348 275.811 222.121 275.811 221.876C275.811 221.632 275.772 221.404 275.694 221.193C275.616 220.982 275.496 220.812 275.335 220.681C275.173 220.551 274.966 220.486 274.716 220.486C274.465 220.486 274.259 220.551 274.097 220.681C273.935 220.812 273.815 220.982 273.737 221.193C273.659 221.404 273.621 221.632 273.621 221.876C273.621 222.121 273.659 222.348 273.737 222.557C273.815 222.767 273.935 222.936 274.097 223.064C274.259 223.193 274.465 223.257 274.716 223.257ZM278.706 225.133C278.434 225.133 278.201 225.098 278.006 225.028C277.811 224.96 277.648 224.869 277.518 224.757C277.389 224.646 277.287 224.527 277.211 224.4L277.658 224.085C277.709 224.152 277.773 224.228 277.851 224.314C277.929 224.401 278.035 224.477 278.17 224.54C278.307 224.605 278.485 224.638 278.706 224.638C279.001 224.638 279.245 224.566 279.437 224.423C279.629 224.281 279.725 224.057 279.725 223.752V223.009H279.677C279.636 223.076 279.577 223.159 279.501 223.257C279.426 223.354 279.318 223.44 279.177 223.517C279.038 223.591 278.849 223.628 278.611 223.628C278.315 223.628 278.05 223.559 277.816 223.419C277.582 223.279 277.397 223.076 277.261 222.81C277.126 222.543 277.059 222.219 277.059 221.838C277.059 221.464 277.124 221.138 277.256 220.86C277.388 220.581 277.571 220.365 277.806 220.212C278.041 220.058 278.312 219.982 278.62 219.982C278.858 219.982 279.047 220.021 279.187 220.101C279.328 220.178 279.436 220.267 279.51 220.367C279.587 220.466 279.645 220.546 279.687 220.61H279.744V220.029H280.286V223.79C280.286 224.105 280.215 224.36 280.072 224.557C279.931 224.755 279.741 224.9 279.501 224.992C279.263 225.086 278.998 225.133 278.706 225.133ZM278.687 223.124C278.912 223.124 279.103 223.072 279.258 222.969C279.414 222.866 279.532 222.717 279.613 222.524C279.694 222.33 279.734 222.099 279.734 221.829C279.734 221.565 279.695 221.333 279.615 221.131C279.536 220.93 279.418 220.772 279.263 220.658C279.107 220.543 278.915 220.486 278.687 220.486C278.449 220.486 278.25 220.546 278.092 220.667C277.935 220.788 277.816 220.95 277.737 221.153C277.659 221.356 277.62 221.581 277.62 221.829C277.62 222.083 277.66 222.307 277.739 222.502C277.82 222.696 277.939 222.848 278.096 222.96C278.255 223.069 278.452 223.124 278.687 223.124ZM283.2 223.686V220.029H283.762V223.686H283.2ZM283.486 219.42C283.376 219.42 283.282 219.382 283.203 219.308C283.125 219.233 283.086 219.144 283.086 219.039C283.086 218.934 283.125 218.844 283.203 218.77C283.282 218.695 283.376 218.658 283.486 218.658C283.595 218.658 283.689 218.695 283.767 218.77C283.846 218.844 283.886 218.934 283.886 219.039C283.886 219.144 283.846 219.233 283.767 219.308C283.689 219.382 283.595 219.42 283.486 219.42ZM285.353 221.486V223.686H284.791V220.029H285.334V220.6H285.381C285.467 220.415 285.597 220.266 285.772 220.153C285.946 220.039 286.172 219.982 286.448 219.982C286.695 219.982 286.912 220.032 287.098 220.134C287.283 220.234 287.428 220.386 287.531 220.591C287.634 220.794 287.686 221.051 287.686 221.362V223.686H287.124V221.4C287.124 221.113 287.049 220.889 286.9 220.729C286.751 220.567 286.546 220.486 286.286 220.486C286.107 220.486 285.946 220.525 285.805 220.603C285.665 220.681 285.555 220.794 285.474 220.943C285.393 221.092 285.353 221.273 285.353 221.486ZM291.426 223.686L290.312 220.029H290.902L291.693 222.829H291.731L292.511 220.029H293.111L293.883 222.819H293.921L294.711 220.029H295.301L294.187 223.686H293.635L292.835 220.877H292.778L291.978 223.686H291.426ZM296.044 223.686V220.029H296.606V223.686H296.044ZM296.33 219.42C296.22 219.42 296.126 219.382 296.046 219.308C295.969 219.233 295.93 219.144 295.93 219.039C295.93 218.934 295.969 218.844 296.046 218.77C296.126 218.695 296.22 218.658 296.33 218.658C296.439 218.658 296.533 218.695 296.611 218.77C296.69 218.844 296.73 218.934 296.73 219.039C296.73 219.144 296.69 219.233 296.611 219.308C296.533 219.382 296.439 219.42 296.33 219.42ZM299.225 220.029V220.505H297.33V220.029H299.225ZM297.882 219.153H298.444V222.638C298.444 222.797 298.467 222.916 298.513 222.995C298.561 223.073 298.621 223.125 298.694 223.152C298.769 223.178 298.847 223.19 298.93 223.19C298.992 223.19 299.042 223.187 299.082 223.181C299.122 223.173 299.154 223.167 299.177 223.162L299.292 223.667C299.253 223.681 299.2 223.695 299.132 223.709C299.064 223.725 298.977 223.733 298.873 223.733C298.714 223.733 298.558 223.699 298.406 223.631C298.255 223.563 298.13 223.459 298.03 223.319C297.932 223.179 297.882 223.003 297.882 222.79V219.153ZM300.71 221.486V223.686H300.149V218.81H300.71V220.6H300.758C300.844 220.412 300.972 220.262 301.144 220.151C301.317 220.038 301.547 219.982 301.834 219.982C302.083 219.982 302.301 220.032 302.489 220.132C302.676 220.23 302.821 220.381 302.924 220.586C303.029 220.789 303.081 221.048 303.081 221.362V223.686H302.52V221.4C302.52 221.11 302.444 220.885 302.293 220.727C302.144 220.566 301.937 220.486 301.672 220.486C301.488 220.486 301.323 220.525 301.177 220.603C301.032 220.681 300.918 220.794 300.834 220.943C300.752 221.092 300.71 221.273 300.71 221.486ZM305.994 225.057V220.029H306.537V220.61H306.604C306.645 220.546 306.702 220.466 306.775 220.367C306.85 220.267 306.956 220.178 307.094 220.101C307.234 220.021 307.423 219.982 307.661 219.982C307.969 219.982 308.24 220.058 308.475 220.212C308.71 220.366 308.893 220.585 309.025 220.867C309.156 221.15 309.222 221.483 309.222 221.867C309.222 222.254 309.156 222.59 309.025 222.874C308.893 223.156 308.711 223.375 308.477 223.531C308.244 223.685 307.975 223.762 307.67 223.762C307.435 223.762 307.247 223.723 307.106 223.645C306.965 223.566 306.856 223.476 306.78 223.376C306.704 223.275 306.645 223.19 306.604 223.124H306.556V225.057H305.994ZM306.547 221.857C306.547 222.133 306.587 222.377 306.668 222.588C306.749 222.798 306.867 222.962 307.023 223.081C307.178 223.198 307.369 223.257 307.594 223.257C307.829 223.257 308.025 223.195 308.182 223.071C308.341 222.946 308.46 222.778 308.539 222.567C308.62 222.354 308.661 222.118 308.661 221.857C308.661 221.6 308.621 221.369 308.542 221.162C308.464 220.954 308.346 220.79 308.187 220.669C308.03 220.547 307.832 220.486 307.594 220.486C307.366 220.486 307.174 220.544 307.018 220.66C306.862 220.774 306.745 220.935 306.666 221.141C306.586 221.346 306.547 221.584 306.547 221.857ZM311.155 223.771C310.924 223.771 310.713 223.728 310.524 223.64C310.336 223.551 310.186 223.424 310.075 223.257C309.963 223.089 309.908 222.886 309.908 222.648C309.908 222.438 309.949 222.268 310.032 222.138C310.114 222.007 310.224 221.903 310.363 221.829C310.501 221.754 310.653 221.699 310.82 221.662C310.988 221.624 311.157 221.594 311.327 221.572C311.549 221.543 311.729 221.522 311.867 221.507C312.007 221.492 312.108 221.465 312.172 221.429C312.237 221.392 312.269 221.329 312.269 221.238V221.219C312.269 220.985 312.205 220.802 312.077 220.672C311.95 220.542 311.757 220.477 311.498 220.477C311.23 220.477 311.02 220.535 310.867 220.653C310.715 220.77 310.608 220.896 310.546 221.029L310.013 220.839C310.108 220.616 310.235 220.443 310.394 220.32C310.554 220.194 310.728 220.107 310.917 220.058C311.108 220.007 311.295 219.982 311.479 219.982C311.596 219.982 311.731 219.996 311.884 220.024C312.038 220.051 312.186 220.108 312.329 220.193C312.473 220.279 312.593 220.408 312.688 220.581C312.784 220.754 312.831 220.986 312.831 221.277V223.686H312.269V223.19H312.241C312.203 223.27 312.139 223.355 312.05 223.445C311.961 223.536 311.843 223.613 311.696 223.676C311.548 223.74 311.368 223.771 311.155 223.771ZM311.241 223.267C311.463 223.267 311.65 223.223 311.803 223.136C311.957 223.048 312.073 222.936 312.15 222.798C312.23 222.66 312.269 222.514 312.269 222.362V221.848C312.246 221.876 312.193 221.903 312.112 221.926C312.033 221.949 311.941 221.968 311.836 221.986C311.733 222.002 311.632 222.016 311.534 222.029C311.437 222.04 311.358 222.049 311.298 222.057C311.152 222.076 311.016 222.107 310.889 222.15C310.763 222.191 310.662 222.254 310.584 222.338C310.508 222.421 310.47 222.533 310.47 222.676C310.47 222.871 310.542 223.019 310.686 223.119C310.832 223.217 311.017 223.267 311.241 223.267ZM316.446 220.848L315.942 220.991C315.91 220.907 315.863 220.825 315.801 220.746C315.741 220.665 315.659 220.598 315.554 220.546C315.449 220.493 315.315 220.467 315.151 220.467C314.928 220.467 314.741 220.519 314.592 220.622C314.444 220.723 314.371 220.853 314.371 221.01C314.371 221.15 314.421 221.26 314.523 221.341C314.625 221.422 314.783 221.489 314.999 221.543L315.542 221.676C315.869 221.756 316.112 221.877 316.273 222.041C316.433 222.203 316.513 222.411 316.513 222.667C316.513 222.876 316.453 223.063 316.332 223.228C316.213 223.394 316.047 223.524 315.832 223.619C315.618 223.714 315.369 223.762 315.085 223.762C314.712 223.762 314.403 223.681 314.159 223.519C313.914 223.357 313.76 223.121 313.695 222.81L314.228 222.676C314.279 222.873 314.375 223.021 314.516 223.119C314.659 223.217 314.845 223.267 315.075 223.267C315.337 223.267 315.545 223.211 315.699 223.1C315.855 222.987 315.932 222.852 315.932 222.695C315.932 222.568 315.888 222.462 315.799 222.376C315.71 222.289 315.574 222.224 315.39 222.181L314.78 222.038C314.445 221.959 314.199 221.836 314.042 221.669C313.887 221.501 313.809 221.291 313.809 221.038C313.809 220.832 313.867 220.65 313.983 220.491C314.1 220.332 314.26 220.208 314.461 220.117C314.664 220.027 314.894 219.982 315.151 219.982C315.513 219.982 315.797 220.061 316.004 220.22C316.212 220.378 316.359 220.588 316.446 220.848ZM319.949 220.848L319.444 220.991C319.412 220.907 319.366 220.825 319.304 220.746C319.243 220.665 319.161 220.598 319.056 220.546C318.951 220.493 318.817 220.467 318.654 220.467C318.43 220.467 318.244 220.519 318.094 220.622C317.947 220.723 317.873 220.853 317.873 221.01C317.873 221.15 317.924 221.26 318.025 221.341C318.127 221.422 318.286 221.489 318.501 221.543L319.044 221.676C319.371 221.756 319.615 221.877 319.775 222.041C319.935 222.203 320.015 222.411 320.015 222.667C320.015 222.876 319.955 223.063 319.834 223.228C319.715 223.394 319.549 223.524 319.335 223.619C319.12 223.714 318.871 223.762 318.587 223.762C318.214 223.762 317.905 223.681 317.661 223.519C317.417 223.357 317.262 223.121 317.197 222.81L317.73 222.676C317.781 222.873 317.877 223.021 318.018 223.119C318.161 223.217 318.347 223.267 318.578 223.267C318.839 223.267 319.047 223.211 319.201 223.1C319.357 222.987 319.435 222.852 319.435 222.695C319.435 222.568 319.39 222.462 319.301 222.376C319.212 222.289 319.076 222.224 318.892 222.181L318.282 222.038C317.948 221.959 317.702 221.836 317.544 221.669C317.389 221.501 317.311 221.291 317.311 221.038C317.311 220.832 317.369 220.65 317.485 220.491C317.602 220.332 317.762 220.208 317.963 220.117C318.167 220.027 318.397 219.982 318.654 219.982C319.016 219.982 319.3 220.061 319.506 220.22C319.714 220.378 319.861 220.588 319.949 220.848ZM321.385 222.352L321.375 221.657H321.489L323.089 220.029H323.784L322.08 221.753H322.032L321.385 222.352ZM320.861 223.686V218.81H321.423V223.686H320.861ZM323.184 223.686L321.756 221.876L322.156 221.486L323.899 223.686H323.184ZM325.89 223.762C325.537 223.762 325.234 223.684 324.978 223.528C324.724 223.371 324.528 223.152 324.39 222.871C324.254 222.589 324.185 222.26 324.185 221.886C324.185 221.511 324.254 221.181 324.39 220.896C324.528 220.608 324.72 220.385 324.966 220.224C325.214 220.062 325.503 219.982 325.833 219.982C326.023 219.982 326.211 220.013 326.397 220.077C326.583 220.14 326.752 220.243 326.904 220.386C327.056 220.527 327.178 220.715 327.268 220.948C327.359 221.181 327.404 221.469 327.404 221.81V222.048H324.585V221.562H326.832C326.832 221.356 326.791 221.172 326.709 221.01C326.628 220.848 326.512 220.72 326.361 220.627C326.212 220.533 326.036 220.486 325.833 220.486C325.609 220.486 325.415 220.542 325.252 220.653C325.09 220.762 324.965 220.905 324.878 221.081C324.791 221.257 324.747 221.446 324.747 221.648V221.972C324.747 222.248 324.795 222.482 324.89 222.674C324.987 222.864 325.121 223.009 325.292 223.109C325.464 223.208 325.663 223.257 325.89 223.257C326.037 223.257 326.171 223.236 326.29 223.195C326.41 223.152 326.514 223.089 326.602 223.005C326.689 222.919 326.756 222.813 326.804 222.686L327.347 222.838C327.29 223.022 327.193 223.184 327.059 223.324C326.924 223.462 326.757 223.57 326.559 223.647C326.36 223.724 326.137 223.762 325.89 223.762ZM328.509 225.057C328.414 225.057 328.329 225.049 328.254 225.033C328.18 225.019 328.128 225.004 328.099 224.99L328.242 224.495C328.379 224.53 328.499 224.543 328.604 224.533C328.709 224.523 328.802 224.477 328.883 224.393C328.965 224.31 329.041 224.176 329.109 223.99L329.214 223.705L327.861 220.029H328.471L329.48 222.943H329.518L330.528 220.029H331.137L329.585 224.219C329.515 224.408 329.429 224.564 329.325 224.688C329.222 224.813 329.102 224.906 328.966 224.966C328.831 225.027 328.679 225.057 328.509 225.057Z" fill="white"/>
<path d="M300.475 200.527C300.475 200.961 300.396 201.333 300.237 201.646C300.079 201.956 299.861 202.196 299.585 202.364C299.31 202.53 298.997 202.614 298.646 202.614C298.295 202.614 297.981 202.53 297.704 202.364C297.429 202.196 297.212 201.956 297.053 201.644C296.895 201.332 296.815 200.959 296.815 200.527C296.815 200.093 296.895 199.721 297.053 199.41C297.212 199.098 297.429 198.858 297.704 198.692C297.981 198.524 298.295 198.44 298.646 198.44C298.997 198.44 299.31 198.524 299.585 198.692C299.861 198.858 300.079 199.098 300.237 199.41C300.396 199.721 300.475 200.093 300.475 200.527ZM299.868 200.527C299.868 200.196 299.815 199.918 299.708 199.692C299.602 199.464 299.456 199.292 299.271 199.176C299.087 199.058 298.879 198.999 298.646 198.999C298.412 198.999 298.203 199.058 298.02 199.176C297.836 199.292 297.69 199.464 297.583 199.692C297.477 199.918 297.424 200.196 297.424 200.527C297.424 200.857 297.477 201.136 297.583 201.364C297.69 201.59 297.836 201.762 298.02 201.88C298.203 201.996 298.412 202.054 298.646 202.054C298.879 202.054 299.087 201.996 299.271 201.88C299.456 201.762 299.602 201.59 299.708 201.364C299.815 201.136 299.868 200.857 299.868 200.527ZM301.192 202.558V199.511H301.765V199.995H301.797C301.853 199.831 301.95 199.702 302.091 199.608C302.232 199.513 302.392 199.465 302.571 199.465C302.608 199.465 302.651 199.467 302.702 199.469C302.753 199.472 302.794 199.475 302.823 199.479V200.047C302.799 200.04 302.757 200.033 302.696 200.025C302.635 200.016 302.574 200.011 302.513 200.011C302.373 200.011 302.248 200.041 302.138 200.1C302.03 200.158 301.944 200.24 301.88 200.344C301.817 200.447 301.785 200.565 301.785 200.697V202.558H301.192Z" fill="#8E8684"/>
<path fill-rule="evenodd" clip-rule="evenodd" d="M410.997 129.641L412.968 127.669C413.114 127.524 413.114 127.289 412.968 127.143C412.822 126.997 412.587 126.997 412.441 127.143L410.47 129.114L408.499 127.143C408.353 126.997 408.118 126.997 407.972 127.143C407.827 127.289 407.827 127.524 407.972 127.669L409.944 129.641L407.972 131.612C407.827 131.757 407.827 131.993 407.972 132.138C408.045 132.211 408.14 132.248 408.236 132.248C408.331 132.248 408.426 132.211 408.499 132.138L410.47 130.167L412.441 132.138C412.514 132.211 412.609 132.248 412.705 132.248C412.8 132.248 412.895 132.211 412.968 132.138C413.114 131.993 413.114 131.757 412.968 131.612L410.997 129.641Z" fill="#36364A"/>
<path d="M217.63 148.734C218.129 148.734 218.61 148.931 218.963 149.285C219.317 149.639 219.515 150.116 219.515 150.615V153.557C219.515 154.596 218.669 155.437 217.63 155.437H213.951C212.911 155.437 212.066 154.596 212.066 153.557V150.615C212.066 149.576 212.908 148.734 213.951 148.734H217.63ZM218.051 150.67C217.973 150.666 217.898 150.693 217.842 150.745L216.163 152.086C215.947 152.265 215.637 152.265 215.418 152.086L213.742 150.745C213.626 150.659 213.466 150.67 213.37 150.771C213.269 150.872 213.258 151.032 213.343 151.143L213.392 151.192L215.087 152.514C215.295 152.678 215.548 152.767 215.813 152.767C216.077 152.767 216.334 152.678 216.542 152.514L218.222 151.169L218.252 151.14C218.341 151.032 218.341 150.875 218.248 150.767C218.196 150.712 218.125 150.678 218.051 150.67Z" fill="#777584"/>
<path d="M224.2 154.617V149.741H227.142V150.265H224.79V151.912H226.99V152.436H224.79V154.093H227.18V154.617H224.2ZM228.692 152.417V154.617H228.13V150.96H228.673V151.532H228.72C228.806 151.346 228.936 151.197 229.111 151.084C229.285 150.97 229.511 150.913 229.787 150.913C230.034 150.913 230.251 150.963 230.437 151.065C230.622 151.165 230.767 151.317 230.87 151.522C230.973 151.725 231.025 151.982 231.025 152.293V154.617H230.463V152.331C230.463 152.044 230.388 151.82 230.239 151.66C230.09 151.498 229.885 151.417 229.625 151.417C229.446 151.417 229.285 151.456 229.144 151.534C229.004 151.612 228.894 151.725 228.813 151.874C228.732 152.024 228.692 152.204 228.692 152.417ZM233.641 150.96V151.436H231.746V150.96H233.641ZM232.299 150.084H232.86V153.569C232.86 153.728 232.883 153.847 232.93 153.926C232.977 154.004 233.037 154.056 233.11 154.083C233.185 154.109 233.264 154.122 233.346 154.122C233.408 154.122 233.459 154.118 233.498 154.112C233.538 154.104 233.57 154.098 233.594 154.093L233.708 154.598C233.67 154.612 233.617 154.626 233.548 154.641C233.48 154.656 233.394 154.664 233.289 154.664C233.13 154.664 232.975 154.63 232.822 154.562C232.672 154.494 232.546 154.39 232.446 154.25C232.348 154.11 232.299 153.934 232.299 153.722V150.084ZM235.98 154.693C235.628 154.693 235.324 154.615 235.068 154.46C234.814 154.302 234.618 154.083 234.48 153.803C234.344 153.52 234.276 153.192 234.276 152.817C234.276 152.443 234.344 152.112 234.48 151.827C234.618 151.54 234.81 151.316 235.056 151.155C235.304 150.994 235.593 150.913 235.923 150.913C236.113 150.913 236.301 150.944 236.487 151.008C236.673 151.071 236.842 151.175 236.994 151.317C237.147 151.459 237.268 151.646 237.358 151.879C237.449 152.112 237.494 152.4 237.494 152.741V152.979H234.676V152.493H236.923C236.923 152.287 236.882 152.103 236.799 151.941C236.718 151.779 236.602 151.651 236.451 151.558C236.302 151.464 236.126 151.417 235.923 151.417C235.699 151.417 235.506 151.473 235.342 151.584C235.18 151.693 235.056 151.836 234.968 152.012C234.881 152.189 234.837 152.377 234.837 152.579V152.903C234.837 153.179 234.885 153.413 234.98 153.605C235.077 153.795 235.211 153.941 235.383 154.041C235.554 154.139 235.753 154.188 235.98 154.188C236.128 154.188 236.261 154.168 236.38 154.126C236.501 154.083 236.605 154.02 236.692 153.936C236.779 153.85 236.847 153.744 236.894 153.617L237.437 153.769C237.38 153.953 237.284 154.115 237.149 154.255C237.014 154.393 236.847 154.501 236.649 154.579C236.451 154.655 236.228 154.693 235.98 154.693ZM238.349 154.617V150.96H238.891V151.513H238.93C238.996 151.332 239.117 151.185 239.291 151.072C239.466 150.959 239.663 150.903 239.882 150.903C239.923 150.903 239.975 150.904 240.036 150.906C240.098 150.907 240.145 150.91 240.177 150.913V151.484C240.158 151.479 240.114 151.472 240.046 151.463C239.979 151.451 239.909 151.446 239.834 151.446C239.656 151.446 239.498 151.483 239.358 151.558C239.22 151.631 239.11 151.732 239.029 151.862C238.95 151.991 238.91 152.138 238.91 152.303V154.617H238.349ZM243.09 155.988C242.995 155.988 242.91 155.98 242.835 155.964C242.761 155.95 242.709 155.935 242.681 155.921L242.823 155.426C242.96 155.461 243.08 155.474 243.185 155.464C243.29 155.455 243.383 155.408 243.464 155.324C243.546 155.241 243.622 155.107 243.69 154.921L243.795 154.636L242.442 150.96H243.052L244.061 153.874H244.099L245.109 150.96H245.718L244.166 155.15C244.096 155.339 244.01 155.495 243.906 155.619C243.803 155.744 243.684 155.837 243.547 155.897C243.412 155.958 243.26 155.988 243.09 155.988ZM247.814 154.693C247.484 154.693 247.194 154.614 246.945 154.457C246.698 154.3 246.504 154.08 246.364 153.798C246.226 153.515 246.157 153.185 246.157 152.808C246.157 152.427 246.226 152.094 246.364 151.81C246.504 151.526 246.698 151.305 246.945 151.148C247.194 150.991 247.484 150.913 247.814 150.913C248.144 150.913 248.433 150.991 248.681 151.148C248.93 151.305 249.123 151.526 249.261 151.81C249.401 152.094 249.471 152.427 249.471 152.808C249.471 153.185 249.401 153.515 249.261 153.798C249.123 154.08 248.93 154.3 248.681 154.457C248.433 154.614 248.144 154.693 247.814 154.693ZM247.814 154.188C248.065 154.188 248.271 154.124 248.433 153.995C248.595 153.867 248.715 153.698 248.792 153.488C248.87 153.279 248.909 153.052 248.909 152.808C248.909 152.563 248.87 152.335 248.792 152.124C248.715 151.913 248.595 151.743 248.433 151.613C248.271 151.482 248.065 151.417 247.814 151.417C247.563 151.417 247.357 151.482 247.195 151.613C247.033 151.743 246.913 151.913 246.836 152.124C246.758 152.335 246.719 152.563 246.719 152.808C246.719 153.052 246.758 153.279 246.836 153.488C246.913 153.698 247.033 153.867 247.195 153.995C247.357 154.124 247.563 154.188 247.814 154.188ZM252.633 153.122V150.96H253.194V154.617H252.633V153.998H252.595C252.509 154.183 252.376 154.341 252.195 154.471C252.014 154.6 251.785 154.664 251.509 154.664C251.281 154.664 251.077 154.614 250.9 154.514C250.722 154.413 250.582 154.26 250.481 154.057C250.379 153.853 250.328 153.595 250.328 153.284V150.96H250.89V153.246C250.89 153.512 250.965 153.725 251.114 153.884C251.265 154.042 251.457 154.122 251.69 154.122C251.83 154.122 251.972 154.086 252.116 154.014C252.262 153.943 252.384 153.834 252.483 153.686C252.583 153.538 252.633 153.35 252.633 153.122ZM254.223 154.617V150.96H254.766V151.513H254.804C254.871 151.332 254.992 151.185 255.166 151.072C255.341 150.959 255.537 150.903 255.756 150.903C255.798 150.903 255.849 150.904 255.911 150.906C255.973 150.907 256.02 150.91 256.052 150.913V151.484C256.033 151.479 255.989 151.472 255.921 151.463C255.854 151.451 255.783 151.446 255.709 151.446C255.531 151.446 255.372 151.483 255.233 151.558C255.095 151.631 254.985 151.732 254.904 151.862C254.825 151.991 254.785 152.138 254.785 152.303V154.617H254.223ZM260.136 154.693C259.784 154.693 259.48 154.615 259.224 154.46C258.97 154.302 258.774 154.083 258.636 153.803C258.5 153.52 258.432 153.192 258.432 152.817C258.432 152.443 258.5 152.112 258.636 151.827C258.774 151.54 258.966 151.316 259.212 151.155C259.46 150.994 259.749 150.913 260.079 150.913C260.269 150.913 260.457 150.944 260.643 151.008C260.829 151.071 260.998 151.175 261.15 151.317C261.302 151.459 261.424 151.646 261.514 151.879C261.605 152.112 261.65 152.4 261.65 152.741V152.979H258.831V152.493H261.079C261.079 152.287 261.037 152.103 260.955 151.941C260.874 151.779 260.758 151.651 260.607 151.558C260.458 151.464 260.282 151.417 260.079 151.417C259.855 151.417 259.661 151.473 259.498 151.584C259.336 151.693 259.212 151.836 259.124 152.012C259.037 152.189 258.993 152.377 258.993 152.579V152.903C258.993 153.179 259.041 153.413 259.136 153.605C259.233 153.795 259.367 153.941 259.538 154.041C259.71 154.139 259.909 154.188 260.136 154.188C260.284 154.188 260.417 154.168 260.536 154.126C260.656 154.083 260.76 154.02 260.848 153.936C260.935 153.85 261.002 153.744 261.05 153.617L261.593 153.769C261.536 153.953 261.44 154.115 261.305 154.255C261.17 154.393 261.003 154.501 260.805 154.579C260.606 154.655 260.384 154.693 260.136 154.693ZM262.505 154.617V150.96H263.047V151.532H263.095C263.171 151.336 263.294 151.185 263.464 151.077C263.634 150.967 263.838 150.913 264.076 150.913C264.317 150.913 264.518 150.967 264.678 151.077C264.84 151.185 264.966 151.336 265.056 151.532H265.094C265.188 151.343 265.329 151.193 265.516 151.082C265.703 150.969 265.928 150.913 266.189 150.913C266.516 150.913 266.784 151.015 266.992 151.22C267.2 151.423 267.304 151.74 267.304 152.17V154.617H266.742V152.17C266.742 151.9 266.668 151.707 266.52 151.591C266.373 151.475 266.199 151.417 265.999 151.417C265.742 151.417 265.543 151.495 265.402 151.651C265.26 151.805 265.19 152 265.19 152.236V154.617H264.618V152.112C264.618 151.905 264.551 151.737 264.416 151.61C264.281 151.482 264.107 151.417 263.895 151.417C263.749 151.417 263.612 151.456 263.485 151.534C263.36 151.612 263.258 151.72 263.181 151.858C263.104 151.994 263.066 152.152 263.066 152.331V154.617H262.505ZM269.407 154.702C269.175 154.702 268.965 154.659 268.776 154.571C268.587 154.483 268.437 154.355 268.326 154.188C268.215 154.02 268.159 153.817 268.159 153.579C268.159 153.369 268.201 153.2 268.283 153.069C268.366 152.938 268.476 152.835 268.614 152.76C268.752 152.685 268.904 152.63 269.071 152.593C269.239 152.555 269.408 152.525 269.578 152.503C269.8 152.474 269.98 152.453 270.118 152.439C270.258 152.423 270.36 152.397 270.423 152.36C270.488 152.324 270.521 152.26 270.521 152.17V152.151C270.521 151.916 270.456 151.733 270.328 151.603C270.201 151.473 270.008 151.408 269.749 151.408C269.481 151.408 269.271 151.467 269.119 151.584C268.966 151.701 268.859 151.827 268.797 151.96L268.264 151.77C268.359 151.547 268.486 151.374 268.645 151.251C268.805 151.125 268.98 151.038 269.169 150.989C269.359 150.938 269.546 150.913 269.73 150.913C269.848 150.913 269.983 150.927 270.135 150.956C270.289 150.983 270.437 151.039 270.58 151.125C270.725 151.21 270.844 151.34 270.94 151.513C271.035 151.686 271.083 151.917 271.083 152.208V154.617H270.521V154.122H270.492C270.454 154.201 270.391 154.286 270.302 154.376C270.213 154.467 270.095 154.544 269.947 154.607C269.799 154.671 269.619 154.702 269.407 154.702ZM269.492 154.198C269.715 154.198 269.902 154.154 270.054 154.067C270.208 153.98 270.324 153.867 270.402 153.729C270.481 153.591 270.521 153.446 270.521 153.293V152.779C270.497 152.808 270.445 152.834 270.364 152.858C270.284 152.88 270.192 152.9 270.088 152.917C269.984 152.933 269.884 152.947 269.785 152.96C269.688 152.971 269.61 152.981 269.55 152.988C269.404 153.007 269.267 153.038 269.14 153.081C269.015 153.123 268.913 153.185 268.835 153.269C268.759 153.352 268.721 153.465 268.721 153.607C268.721 153.803 268.793 153.95 268.938 154.05C269.084 154.149 269.269 154.198 269.492 154.198ZM272.108 154.617V150.96H272.67V154.617H272.108ZM272.394 150.351C272.284 150.351 272.19 150.314 272.11 150.239C272.033 150.164 271.994 150.075 271.994 149.97C271.994 149.865 272.033 149.776 272.11 149.701C272.19 149.626 272.284 149.589 272.394 149.589C272.503 149.589 272.597 149.626 272.674 149.701C272.754 149.776 272.794 149.865 272.794 149.97C272.794 150.075 272.754 150.164 272.674 150.239C272.597 150.314 272.503 150.351 272.394 150.351ZM274.26 149.741V154.617H273.699V149.741H274.26Z" fill="#777584"/>
<rect x="202.381" y="142.31" width="196.128" height="19.5516" rx="4.18963" stroke="#E4E8EE" strokeWidth="0.558618"/>
</g>
</g>
<rect y="250.4" width="600" height="77.6002" fill="url(#paint2_linear_5693_38467)"/>
</g>
<defs>
<filter id="filter0_f_5693_38467" x="-105.557" y="-340.548" width="1065.84" height="1065.84" filterUnits="userSpaceOnUse" color-interpolation-filters="sRGB">
<feFlood flood-opacity="0" result="BackgroundImageFix"/>
<feBlend mode="normal" in="SourceGraphic" in2="BackgroundImageFix" result="shape"/>
<feGaussianBlur stdDeviation="167.585" result="effect1_foregroundBlur_5693_38467"/>
</filter>
<filter id="filter1_f_5693_38467" x="-374.811" y="-406.465" width="1093.77" height="1093.77" filterUnits="userSpaceOnUse" color-interpolation-filters="sRGB">
<feFlood flood-opacity="0" result="BackgroundImageFix"/>
<feBlend mode="normal" in="SourceGraphic" in2="BackgroundImageFix" result="shape"/>
<feGaussianBlur stdDeviation="167.585" result="effect1_foregroundBlur_5693_38467"/>
</filter>
<radialGradient id="paint0_radial_5693_38467" cx="0" cy="0" r="1" gradientUnits="userSpaceOnUse" gradientTransform="translate(296.001 159) rotate(90) scale(160 442.387)">
<stop stop-color="#E1E4EA"/>
<stop offset="1" stop-color="#E1E4EA" stop-opacity="0"/>
</radialGradient>
<linearGradient id="paint1_linear_5693_38467" x1="357.978" y1="100.56" x2="492.909" y2="269.813" gradientUnits="userSpaceOnUse">
<stop stop-color="#EEF7FD"/>
<stop offset="1" stop-color="#E3EFF8"/>
</linearGradient>
<linearGradient id="paint2_linear_5693_38467" x1="300" y1="250.4" x2="300" y2="328" gradientUnits="userSpaceOnUse">
<stop stop-color="white" stop-opacity="0"/>
<stop offset="1" stop-color="white"/>
</linearGradient>
<clipPath id="clip0_5693_38467">
<rect width="600" height="320" fill="white"/>
</clipPath>
<clipPath id="clip1_5693_38467">
<rect x="110.07" y="51.6011" width="379.86" height="194.399" rx="8.93788" fill="white"/>
</clipPath>
<clipPath id="clip2_5693_38467">
<rect width="248" height="132" fill="white" transform="translate(176 114)"/>
</clipPath>
</defs>
</svg>
