<svg width="600" height="320" viewBox="0 0 600 320" fill="none" xmlns="http://www.w3.org/2000/svg">
<g clip-path="url(#clip0_5693_38496)">
<path d="M-86.0883 -1H-141.387V52.3333M-86.0883 -1V52.3333M-86.0883 -1H-30.7899M-86.0883 52.3333H-141.387M-86.0883 52.3333V105.667M-86.0883 52.3333H-30.7899M-141.387 52.3333V105.667M-86.0883 105.667H-141.387M-86.0883 105.667V159M-86.0883 105.667H-30.7899M-141.387 105.667V159M-86.0883 159H-141.387M-86.0883 159V212.333M-86.0883 159H-30.7899M-141.387 159V212.333M-86.0883 212.333H-141.387M-86.0883 212.333V265.667M-86.0883 212.333H-30.7899M-141.387 212.333V265.667M-86.0883 265.667H-141.387M-86.0883 265.667V319M-86.0883 265.667H-30.7899M-141.387 265.667V319H-86.0883M-86.0883 319H-30.7899M-30.7899 -1V52.3333M-30.7899 -1H24.5085M-30.7899 52.3333V105.667M-30.7899 52.3333H24.5085M-30.7899 105.667V159M-30.7899 105.667H24.5085M-30.7899 159V212.333M-30.7899 159H24.5085M-30.7899 212.333V265.667M-30.7899 212.333H24.5085M-30.7899 265.667V319M-30.7899 265.667H24.5085M-30.7899 319H24.5085M24.5085 -1V52.3333M24.5085 -1H79.8069M24.5085 52.3333V105.667M24.5085 52.3333H79.8069M24.5085 105.667V159M24.5085 105.667H79.8069M24.5085 159V212.333M24.5085 159H79.8069M24.5085 212.333V265.667M24.5085 212.333H79.8069M24.5085 265.667V319M24.5085 265.667H79.8069M24.5085 319H79.8069M79.8069 -1V52.3333M79.8069 -1H135.105M79.8069 52.3333V105.667M79.8069 52.3333H135.105M79.8069 105.667V159M79.8069 105.667H135.105M79.8069 159V212.333M79.8069 159H135.105M79.8069 212.333V265.667M79.8069 212.333H135.105M79.8069 265.667V319M79.8069 265.667H135.105M79.8069 319H135.105M135.105 -1V52.3333M135.105 -1H190.404M135.105 52.3333V105.667M135.105 52.3333H190.404M135.105 105.667V159M135.105 105.667H190.404M135.105 159V212.333M135.105 159H190.404M135.105 212.333V265.667M135.105 212.333H190.404M135.105 265.667V319M135.105 265.667H190.404M135.105 319H190.404M190.404 -1V52.3333M190.404 -1H245.702M190.404 52.3333V105.667M190.404 52.3333H245.702M190.404 105.667V159M190.404 105.667H245.702M190.404 159V212.333M190.404 159H245.702M190.404 212.333V265.667M190.404 212.333H245.702M190.404 265.667V319M190.404 265.667H245.702M190.404 319H245.702M245.702 -1V52.3333M245.702 -1H301.001M245.702 52.3333V105.667M245.702 52.3333H301.001M245.702 105.667V159M245.702 105.667H301.001M245.702 159V212.333M245.702 159H301.001M245.702 212.333V265.667M245.702 212.333H301.001M245.702 265.667V319M245.702 265.667H301.001M245.702 319H301.001M301.001 -1V52.3333M301.001 -1H356.299M301.001 52.3333V105.667M301.001 52.3333H356.299M301.001 105.667V159M301.001 105.667H356.299M301.001 159V212.333M301.001 159H356.299M301.001 212.333V265.667M301.001 212.333H356.299M301.001 265.667V319M301.001 265.667H356.299M301.001 319H356.299M356.299 -1V52.3333M356.299 -1H411.597M356.299 52.3333V105.667M356.299 52.3333H411.597M356.299 105.667V159M356.299 105.667H411.597M356.299 159V212.333M356.299 159H411.597M356.299 212.333V265.667M356.299 212.333H411.597M356.299 265.667V319M356.299 265.667H411.597M356.299 319H411.597M411.597 -1V52.3333M411.597 -1H466.896M411.597 52.3333V105.667M411.597 52.3333H466.896M411.597 105.667V159M411.597 105.667H466.896M411.597 159V212.333M411.597 159H466.896M411.597 212.333V265.667M411.597 212.333H466.896M411.597 265.667V319M411.597 265.667H466.896M411.597 319H466.896M466.896 -1V52.3333M466.896 -1H522.194M466.896 52.3333V105.667M466.896 52.3333H522.194M466.896 105.667V159M466.896 105.667H522.194M466.896 159V212.333M466.896 159H522.194M466.896 212.333V265.667M466.896 212.333H522.194M466.896 265.667V319M466.896 265.667H522.194M466.896 319H522.194M522.194 -1V52.3333M522.194 -1H577.493M522.194 52.3333V105.667M522.194 52.3333H577.493M522.194 105.667V159M522.194 105.667H577.493M522.194 159V212.333M522.194 159H577.493M522.194 212.333V265.667M522.194 212.333H577.493M522.194 265.667V319M522.194 265.667H577.493M522.194 319H577.493M577.493 -1V52.3333M577.493 -1H632.791M577.493 52.3333V105.667M577.493 52.3333H632.791M577.493 105.667V159M577.493 105.667H632.791M577.493 159V212.333M577.493 159H632.791M577.493 212.333V265.667M577.493 212.333H632.791M577.493 265.667V319M577.493 265.667H632.791M577.493 319H632.791M632.791 -1V52.3333M632.791 -1H688.089M632.791 52.3333V105.667M632.791 52.3333H688.089M632.791 105.667V159M632.791 105.667H688.089M632.791 159V212.333M632.791 159H688.089M632.791 212.333V265.667M632.791 212.333H688.089M632.791 265.667V319M632.791 265.667H688.089M632.791 319H688.089M688.089 -1V52.3333M688.089 -1H743.388V52.3333M688.089 52.3333V105.667M688.089 52.3333H743.388M688.089 105.667V159M688.089 105.667H743.388M688.089 159V212.333M688.089 159H743.388M688.089 212.333V265.667M688.089 212.333H743.388M688.089 265.667V319M688.089 265.667H743.388M688.089 319H743.388V265.667M743.388 52.3333V105.667M743.388 105.667V159M743.388 159V212.333M743.388 212.333V265.667" stroke="url(#paint0_radial_5693_38496)" stroke-width="0.8"/>
<path d="M245.044 75.2755C244.717 75.3467 217.386 81.2942 219.124 80.916C216.483 75.6667 209.115 61.0605 207.68 57.9631C207.485 57.6045 207.55 57.1806 207.81 56.8873C217.691 45.5542 217.112 45.5475 218.211 45.3782C218.535 45.3197 227.834 43.6412 227.242 43.7481L228.286 48.6386L222.058 60.9301L245.044 75.2755Z" fill="#0E2365"/>
<path d="M241.359 56.5285L225.221 59.6259C224.925 59.7735 224.363 59.505 224.275 58.9738C224.177 58.5499 224.471 58.1263 224.895 58.0284L241.033 54.8984C241.49 54.8333 241.913 55.1266 242.011 55.5505C242.076 56.007 241.783 56.4308 241.359 56.5285ZM245.761 49.1603L227.242 43.748H227.209L217.07 55.6157C216.869 56.0174 219.343 60.5066 228.611 78.862C228.942 78.7902 259.785 72.0926 257.889 72.5043L245.761 49.1603Z" fill="#C3D7F9"/>
<path d="M192.737 190.724L172.294 91.0548C172.205 90.6197 172.482 90.1941 172.917 90.1007L311.09 60.1394C311.771 60.0004 312.369 60.8357 312.424 61.2881L327.113 123.179C327.359 124.222 325.783 124.595 325.537 123.552L310.895 61.8387L174.042 91.5136L194.325 190.398C194.537 191.445 192.956 191.787 192.737 190.724Z" fill="#0E2365"/>
<path d="M300.505 139.602C298.818 142.106 298.038 143.997 297.18 145.96L296.006 146.319C283.051 140.286 269.096 144.626 262.783 155.871C183.746 178.606 210.779 170.83 204.977 172.499L190.566 102.271L294.473 79.7749C291.93 83.8503 289.974 88.2846 288.703 92.8489C268.163 97.802 339.469 80.6066 194.74 115.508C194.283 115.508 193.925 115.9 193.925 116.323C193.925 116.78 194.283 117.138 194.74 117.138C336.785 83.0139 269.349 99.2146 288.246 94.6747C288.181 94.8703 288.116 95.0985 288.083 95.2942C284.543 110.818 288.881 128.352 300.505 139.602Z" fill="#0E2365"/>
<path d="M302.985 139.647C305.501 136.001 309.171 133.177 312.866 130.778L300.439 78.4707L296.754 79.2532C283.557 99.2778 286.634 124.908 302.985 139.647Z" fill="#0E2365"/>
<path d="M288.928 163.011C288.782 165.207 286.954 166.42 284.821 166.043C281.245 165.421 279.627 160.898 282.082 159.001C284.63 156.983 289.091 159.442 288.928 163.011Z" fill="#FBD072"/>
<path d="M288.471 177.715C288.22 179.012 288.169 180.061 288.112 180.78C287.269 182.129 285.303 182.53 283.808 181.888H283.776C283.302 180.587 281.709 178.184 280.711 176.998C281.373 173.189 287.146 173.576 288.471 177.715Z" fill="#FBD072"/>
<path d="M284.625 183.747C285.263 183.929 286.908 183.817 288.113 182.997C288.179 185.899 288.7 188.703 289.646 191.344C288.505 191.344 287.364 191.181 286.255 190.92C286.147 190.595 286.042 187.394 284.625 183.747Z" fill="#FBD072"/>
<path d="M294.376 199.397C292.105 199.851 289.024 199.981 285.703 199.462C286.192 197.147 286.388 194.865 286.355 192.615C287.659 192.876 288.963 193.006 290.3 193.006C291.311 195.354 292.68 197.506 294.376 199.397Z" fill="#FBD072"/>
<path d="M290.133 171.521C289.644 172.76 289.253 173.999 288.959 175.27C288.568 174.716 288.047 174.26 287.492 173.868C287.916 172.792 288.536 171.847 289.318 171.032C289.579 171.195 289.84 171.358 290.133 171.521Z" fill="#FBD072"/>
<path d="M295.089 162.913C293.687 164.315 290.752 169.539 290.752 170.021C289.514 169.336 288.47 168.358 287.72 167.217C288.079 167.054 288.438 166.923 288.764 166.662C289.839 165.815 290.492 164.543 290.557 163.109C290.77 158.266 284.823 154.726 281.069 157.729C277.099 160.857 280.196 167.738 285.568 167.738C285.731 167.738 285.894 167.673 286.057 167.673C286.579 168.554 287.231 169.369 288.046 170.053C287.199 170.934 286.547 171.977 286.09 173.118C283.061 172.017 280.306 173.407 279.472 175.596C279.439 175.563 279.439 175.563 279.406 175.53C279.374 175.465 279.309 175.433 279.276 175.433C276.37 172.347 272.488 170.183 268.615 169.173C268.299 154.819 282.257 145.813 295.382 152.284C294.665 155.903 294.567 159.49 295.089 162.913Z" fill="#FBD072"/>
<path d="M296.918 146.742C296.436 148.008 295.925 149.798 295.744 150.655C281.991 144.183 266.988 153.218 266.988 168.782C264.543 168.26 262.032 168.163 259.555 168.391C259.689 149.618 278.105 137.982 296.005 146.318C296.299 146.449 296.625 146.579 296.918 146.742Z" fill="#FBD072"/>
<path d="M173.085 90.8926C129.038 106.086 140.808 188.8 191.539 191.115C191.865 191.017 192.549 190.822 193.528 190.561L173.085 90.8926ZM166.499 169.956C166.304 169.956 166.108 169.891 165.978 169.728C160.142 164.544 156.164 156.882 154.795 148.144C153.621 140.841 154.24 132.658 156.588 123.822C156.812 122.776 158.396 123.159 158.153 124.213C155.871 132.853 155.284 140.808 156.392 147.883C157.729 156.262 161.511 163.598 167.053 168.521C167.616 169.028 167.221 169.956 166.499 169.956ZM165.88 154.632C162.261 148.927 161.25 141.623 163.109 135.103C163.206 134.679 163.663 134.418 164.119 134.549C164.543 134.679 164.771 135.135 164.674 135.559C162.913 141.623 163.891 148.437 167.249 153.752C167.866 154.677 166.456 155.555 165.88 154.632Z" fill="#558DFD"/>
<path d="M192.737 190.724L172.482 91.9694C146.999 101.428 141.217 134.553 151.538 159.77C151.943 160.762 150.444 161.377 150.038 160.383C139.179 133.85 145.778 99.4301 172.824 90.1262C173.284 89.9677 173.782 90.2459 173.883 90.729L194.326 190.398C194.537 191.445 192.957 191.787 192.737 190.724Z" fill="#0E2365"/>
<path d="M284.667 241.942L190.932 191.895C190.348 191.583 190.366 190.74 190.959 190.452C191.135 190.366 193.131 189.829 193.321 189.778C199.861 187.923 220.077 182.217 243.258 175.697C244.308 175.417 244.718 176.969 243.698 177.257C207.599 187.41 198.441 190.022 193.473 191.416L285.429 240.512C286.372 241.017 285.611 242.445 284.667 241.942Z" fill="#0E2365"/>
<path d="M428.758 196.888C428.911 196.84 429.055 196.795 429.207 196.746C430.056 196.476 429.968 195.375 429.226 195.208C428.571 194.955 416.158 189.046 396.023 179.398C395.623 179.202 395.137 179.372 394.943 179.779C394.75 180.183 394.921 180.667 395.324 180.86C430.699 197.807 428.155 196.466 428.758 196.888Z" fill="#0E2365"/>
<path d="M231.645 195.419C231.612 195.517 231.612 195.615 231.612 195.647L231.352 195.517C231.449 195.484 231.58 195.452 231.645 195.419Z" fill="#0E2365"/>
<path d="M309.077 218.372L286.939 225.382C286.611 225.206 272.846 217.815 273.702 218.274C277.224 215.568 280.321 212.08 282.571 207.939V207.906C283.612 205.918 284.013 204.987 284.494 203.603C292.924 201.417 294.016 201.745 295.873 200.505H304.676C303.1 206.388 304.353 213.6 309.077 218.372Z" fill="#0E2365"/>
<path d="M367.632 191.213V199.82C367.056 200.003 341.274 208.153 342.365 207.808C343.31 204.939 343.636 202.037 343.375 199.266L343.343 199.233C343.343 198.839 343.192 197.918 343.049 197.114C342.554 195.231 342.495 195.182 342.495 195.125C342.137 194.053 341.114 191.77 340.637 191.213H367.632Z" fill="#0E2365"/>
<path d="M285.048 240.664C280.356 238.349 192.682 190.946 191.798 190.468C191.221 190.154 190.519 190.629 190.609 191.288L202.384 278.594C202.555 279.62 203.118 280.468 203.974 280.983C211.606 285.537 261.113 315.74 264.545 317.838C264.789 318.064 265.1 318.106 265.369 318.021V316.618C264.774 316.327 264.268 315.942 263.826 315.5C254.659 309.906 212.052 283.918 204.806 279.594C204.366 279.329 204.074 278.879 203.985 278.354L192.427 192.65C204.156 198.991 279.884 239.923 284.333 242.116C284.733 242.316 285.219 242.151 285.417 241.748C285.615 241.347 285.45 240.862 285.048 240.664Z" fill="#0E2365"/>
<path d="M264.296 317.057C285.325 235.318 283.416 242.688 283.595 242.213C283.722 241.877 283.831 241.589 283.883 241.218C283.927 240.908 284.146 240.651 284.443 240.558C438.212 192.654 428.759 195.162 429.356 195.716C429.574 195.921 429.668 196.227 429.592 196.517C408.758 274.836 410.282 270.122 409.628 270.345L265.336 318.028C264.734 318.232 264.135 317.679 264.296 317.057ZM285.385 241.963C274.216 284.883 297.206 195.606 266.234 316.025L408.699 268.945C410.145 263.341 423.899 211.614 427.647 197.525C413.981 201.827 308.812 234.65 285.385 241.963Z" fill="#0E2365"/>
<path d="M405.94 219.024C386.639 225.055 354.002 235.227 298.74 252.475C297.631 252.833 296.751 253.746 296.457 254.855L286.937 291.827C286.644 293.066 287.785 294.142 288.959 293.751L395.376 258.572C396.452 258.213 397.235 257.365 397.528 256.322C399.289 249.606 402.223 238.553 407.113 220.197C407.309 219.48 406.657 218.795 405.94 219.024ZM362.577 262.223L337.994 268.744H337.799C336.866 268.744 336.659 267.427 337.57 267.146L362.153 260.658C362.61 260.528 363.034 260.789 363.164 261.245C363.262 261.669 363.001 262.125 362.577 262.223ZM383.932 241.129C353.83 250.238 316.06 259.908 314.976 259.908C314.047 259.908 313.864 258.49 314.781 258.278C337.766 252.703 360.849 246.411 383.476 239.564C384.505 239.247 384.982 240.829 383.932 241.129Z" fill="#01B990"/>
<path d="M288.045 287.562C287.613 287.451 287.352 287.008 287.463 286.575L294.375 259.721C294.647 258.673 296.209 259.093 295.945 260.126L289.032 286.98C288.928 287.381 288.522 287.673 288.045 287.562Z" fill="#0E2365"/>
<path d="M296.026 290.1L387.841 260.668C388.876 260.353 389.348 261.886 388.335 262.213L296.519 291.644C295.473 291.966 295.024 290.419 296.026 290.1Z" fill="#0E2365"/>
<path d="M398.322 253.314C397.89 253.201 397.632 252.757 397.746 252.324C399.144 247.03 401.462 238.29 405.321 223.763C405.599 222.718 407.159 223.147 406.887 224.177C403.029 238.705 400.711 247.445 399.312 252.739C399.195 253.178 398.742 253.429 398.322 253.314Z" fill="#0E2365"/>
<path d="M310.943 247.762C310.818 247.332 311.066 246.883 311.495 246.758C353.376 234.612 378.092 227.44 392.713 223.192C393.145 223.059 393.593 223.313 393.718 223.744C393.843 224.174 393.594 224.623 393.166 224.748C378.545 228.997 353.828 236.168 311.947 248.315C311.524 248.438 311.068 248.196 310.943 247.762Z" fill="#0E2365"/>
<path d="M395.929 183.356C388.028 200.776 365.457 206.435 350.121 193.495C363.957 201.131 382.819 193.929 390.158 177.748C395.212 166.565 393.125 154.567 385.822 147.133C397.298 155.023 401.863 170.249 395.929 183.356Z" fill="#FBD072"/>
<path d="M379.516 199.299C379.22 199.299 378.933 199.134 378.791 198.851C377.543 196.357 375.875 194.16 373.834 192.32C373.502 192.021 373.475 191.508 373.776 191.176C374.078 190.845 374.589 190.817 374.919 191.117C377.111 193.092 378.9 195.451 380.24 198.126C380.44 198.527 380.278 199.012 379.878 199.213C379.762 199.272 379.637 199.299 379.516 199.299Z" fill="#0E2365"/>
<path d="M392.839 185.858C391.609 182.614 388.937 180.085 385.692 179.093C384.669 178.778 385.139 177.227 386.167 177.542C389.886 178.681 392.948 181.575 394.354 185.284C394.513 185.703 394.302 186.171 393.885 186.329C393.449 186.489 392.994 186.266 392.839 185.858Z" fill="#0E2365"/>
<path d="M396.909 166.337C393.992 162.466 389.203 162.63 389.527 162.708C388.459 162.708 388.454 161.099 389.517 161.088C392.851 161.091 396.188 162.686 398.203 165.363C398.472 165.72 398.401 166.228 398.044 166.497C397.687 166.765 397.18 166.697 396.909 166.337Z" fill="#0E2365"/>
<path d="M352.179 171.619C351.788 171.489 351.397 171.424 350.875 171.424C353.99 166.961 356.274 161.361 356.939 155.48C356.972 155.513 356.972 155.513 357.004 155.513L357.82 155.806C355.715 161.15 354.705 166.087 352.179 171.619Z" fill="#FBD072"/>
<path d="M370.631 160.925C371.316 163.055 368.625 165.52 366.556 165.261C364.665 165.185 362.861 164.021 361.503 163.827C361.209 163.761 360.85 163.664 360.72 163.598C360.657 163.472 362.806 156.915 362.872 156.784C362.872 156.817 362.904 156.817 362.937 156.817C365.087 157.269 369.992 158.935 370.631 160.925Z" fill="#FBD072"/>
<path d="M364.63 168.424C361.887 167.615 360.776 167.306 359.707 167.087C359.707 167.152 359.674 167.185 359.674 167.217C358.151 171.688 357.674 173.794 357.457 174.227C357.751 174.39 358.468 174.716 360.098 175.107C360.647 175.261 362.312 175.784 363.522 175.825C366.273 175.939 368.306 173.496 368.086 171.293C367.949 169.515 366.476 168.951 364.63 168.424ZM364.63 168.424C361.887 167.615 360.776 167.306 359.707 167.087C359.707 167.152 359.674 167.185 359.674 167.217C358.151 171.688 357.674 173.794 357.457 174.227C357.751 174.39 358.468 174.716 360.098 175.107C360.647 175.261 362.312 175.784 363.522 175.825C366.273 175.939 368.306 173.496 368.086 171.293C367.949 169.515 366.476 168.951 364.63 168.424ZM372.455 157.208C372.357 157.11 372.194 157.012 371.999 156.915C370.049 155.615 370.372 155.18 371.086 153.752L371.477 152.774C371.053 152.513 370.433 152.415 369.912 152.317C369.488 152.252 369.39 152.285 369.358 152.317C369.358 152.317 369.358 152.317 369.358 152.35V152.513C369.087 153.409 369.386 155.623 367.532 155.252L366.652 155.089C365.244 154.854 364.445 153.757 365.25 152.644C365.51 152.317 365.641 151.926 365.771 151.47C365.282 151.339 364.826 151.274 364.369 151.242C363.747 152.485 364.402 153.035 363.782 153.654C363.183 154.082 363.182 153.718 358.077 152.35L357.49 153.948C357.49 153.948 357.523 153.948 357.555 153.98L359.153 154.567C359.575 154.708 359.786 155.178 359.642 155.61C357.332 161.424 356.02 167.343 353.317 173.086C353.118 173.484 352.567 173.694 352.143 173.412C351.784 173.184 351.524 173.086 351.1 173.053C350.937 173.64 350.774 174.227 350.676 174.781C351.466 175.177 353.841 176.175 354.197 176.085C354.762 176.015 355.235 176.53 355.11 177.096L354.523 179.607C354.816 179.737 355.142 179.867 355.436 179.965L356.153 178.237C356.186 178.172 356.284 177.976 356.284 177.911C356.067 177.263 356.686 176.719 357.327 176.933C359.588 177.686 359.613 177.461 359.935 177.944C360.227 178.527 359.849 178.795 359.153 181.269C359.74 181.498 360.392 181.563 361.044 181.465C361.076 181.074 361.239 180.585 361.435 180.128C361.596 179.804 361.611 179.169 362.022 178.759C362.647 178.133 363.434 178.684 365.608 178.563C367.956 178.465 370.205 176.933 371.086 174.879C371.966 172.89 371.477 170.413 369.912 168.88C369.404 168.372 369.669 167.478 370.499 167.478C372.622 167.696 375.191 165.497 375.031 161.903C374.948 159.752 374.109 158.655 372.455 157.208ZM363.717 177.455C363.393 177.409 363.025 177.601 360.098 176.803C353.946 175.306 355.953 174.085 356.186 172.923C356.37 172.309 357.066 169.752 358.109 166.761C358.272 166.272 358.598 165.228 359.837 165.457C361.525 165.802 362.774 166.187 365.087 166.859C366.717 167.348 368.379 167.935 369.194 169.434C371.012 172.463 368.194 177.455 363.717 177.455ZM366.717 166.891H366.489C364.944 166.844 363.485 166.183 362.902 165.978C361.036 165.261 361.662 165.57 361.174 165.424C360.685 165.326 360.131 165.196 359.707 164.837C358.762 164.153 359.12 163.109 359.283 162.588C359.83 160.846 360.681 158.129 361.272 156.426C361.5 155.676 361.957 154.958 363.261 155.219C365.282 155.643 367.434 156.426 369.292 157.501C370.531 158.186 371.738 159.034 372.194 160.436C373.143 163.541 370.031 166.891 366.717 166.891ZM364.63 168.424C361.887 167.615 360.776 167.306 359.707 167.087C359.707 167.152 359.674 167.185 359.674 167.217C358.151 171.688 357.674 173.794 357.457 174.227C357.751 174.39 358.468 174.716 360.098 175.107C360.647 175.261 362.312 175.784 363.522 175.825C366.918 175.966 368.96 172.317 367.793 170.217C367.238 169.271 365.999 168.815 364.63 168.424Z" fill="#FBD072"/>
<path d="M345.66 177.52C346.964 176.313 348.138 175.009 349.279 173.64C349.181 173.999 349.116 174.357 349.051 174.716C349.018 174.846 348.953 175.27 349.214 175.629C349.593 176.293 352.493 177.321 353.224 177.552C353.257 177.552 353.289 177.585 353.322 177.585C352.725 180.496 351.993 180.597 355.539 181.726C355.637 181.726 355.865 181.791 356.126 181.726C356.354 181.628 356.647 181.334 356.745 181.106L357.691 178.856C357.691 178.824 357.691 178.791 357.723 178.791C357.854 178.824 358.017 178.856 358.18 178.922L357.463 181.171C357.301 181.817 357.511 182.262 358.082 182.573C359.131 183.097 361.287 183.453 362.092 182.736C362.557 182.323 362.516 181.798 362.94 180.78C363.005 180.65 363.07 180.454 363.103 180.226C363.136 180.193 363.136 180.161 363.136 180.095C363.461 180.117 364.412 180.258 365.711 180.193C371.349 179.945 375.194 173.899 372.036 168.912C375.106 168.104 376.781 165.083 376.666 161.87C376.533 157.342 372.775 155.599 372.232 155.056C372.297 154.926 372.575 154.417 372.591 154.371C373.082 153.177 373.299 152.841 373.21 152.35C372.921 151.29 371.263 150.861 370.178 150.72C368.898 150.487 367.949 150.924 367.765 152.22L367.537 153.589L366.95 153.491C366.852 153.458 366.787 153.458 366.722 153.426C367.113 152.806 367.276 152.154 367.439 151.535C367.606 150.701 367.314 150.304 366.559 150.002C365.711 149.742 364.798 149.579 363.918 149.579C363.109 149.477 362.592 151.166 362.483 151.926C357.591 150.509 357.883 150.443 357.137 150.818C357.137 150.035 357.071 149.285 357.006 148.535C370.243 142.306 383.806 151.152 383.806 165.359C383.806 180.248 368.924 191.791 355.767 187.007C351.235 185.344 347.682 182.019 345.66 177.52Z" fill="#FBD072"/>
<path d="M390.163 177.748C380.501 199.05 352.831 203.034 341.551 185.508C342.17 183.65 342.594 181.791 342.79 179.933H342.822C343.344 179.541 343.866 179.118 344.387 178.661C349.844 189.97 363.79 193.165 374.708 185.606C389.778 175.173 388.821 152.062 372.524 146.058C367.34 144.167 361.732 144.623 356.777 146.873C356.521 145.167 355.914 142.898 355.864 142.797C362.645 139.57 370.34 138.918 377.317 141.591C391.398 146.975 396.672 163.343 390.163 177.748Z" fill="#FBD072"/>
<path d="M347.802 193.035C347.431 192.785 347.333 192.282 347.585 191.91C347.836 191.539 348.343 191.443 348.71 191.693C362.154 200.777 381.932 193.94 389.423 177.414C394.594 166.005 392.282 153.471 383.669 146.225C383.327 145.937 383.283 145.426 383.571 145.083C383.861 144.741 384.37 144.697 384.713 144.985C393.887 152.705 396.372 166.005 390.898 178.082C383.058 195.384 362.193 202.75 347.802 193.035Z" fill="#0E2365"/>
<path d="M259.631 170.591C259.082 162.389 262.068 155.244 266.594 150.817C259.909 155.304 255.454 162.555 254.289 170.591H259.631Z" fill="#FBD072"/>
<path d="M296.554 198.917C293.423 199.745 290.194 199.959 287 199.603V203.496C289.707 203.123 292.407 202.375 295.023 201.189C295.831 200.826 296.566 200.371 297.322 199.943C297.031 199.626 296.773 199.284 296.554 198.917Z" fill="#FBD072"/>
<path d="M254.475 169.99C254.115 169.724 254.037 169.218 254.301 168.857C255.546 167.162 257.355 165.856 259.394 165.177C259.818 165.033 260.277 165.267 260.42 165.689C260.56 166.115 260.331 166.574 259.907 166.715C258.182 167.287 256.656 168.39 255.608 169.816C255.339 170.181 254.83 170.251 254.475 169.99Z" fill="#0E2365"/>
<path d="M285.573 200.263C285.132 200.192 284.831 199.776 284.901 199.334C284.972 198.891 285.397 198.599 285.829 198.662C290.245 199.372 294.697 198.934 298.713 197.401C299.126 197.24 299.597 197.45 299.759 197.868C299.918 198.285 299.71 198.754 299.292 198.914C294.87 200.604 290.101 200.99 285.573 200.263Z" fill="#0E2365"/>
<path d="M258.707 168.383C258.777 160.543 262.055 153.343 267.703 148.631C268.043 148.345 268.556 148.389 268.844 148.734C269.13 149.077 269.084 149.588 268.741 149.874C263.458 154.282 260.392 161.033 260.327 168.398C260.316 169.476 258.699 169.461 258.707 168.383Z" fill="#0E2365"/>
<path d="M360.528 172.173C356.355 181.334 348.497 187.725 339.531 190.268C340.925 187.791 342.305 183.87 342.792 179.932C358.809 167.808 362.053 144.771 349.378 131.582C362.158 140.45 367.212 157.469 360.528 172.173Z" fill="#C3D7F9"/>
<path d="M341.324 189.581C339.914 186.763 338.028 184.276 335.717 182.189C335.385 181.89 335.358 181.377 335.658 181.045C335.957 180.714 336.472 180.687 336.802 180.986C339.264 183.208 341.273 185.856 342.773 188.856C342.973 189.256 342.811 189.742 342.411 189.943C342.012 190.143 341.525 189.98 341.324 189.581Z" fill="#0E2365"/>
<path d="M357.152 174.949C355.758 171.265 352.722 168.392 349.034 167.262C348.607 167.131 348.366 166.677 348.496 166.25C348.627 165.823 349.081 165.582 349.509 165.712C353.673 166.989 357.097 170.227 358.668 174.376C358.826 174.793 358.616 175.262 358.196 175.42C357.774 175.578 357.311 175.366 357.152 174.949Z" fill="#0E2365"/>
<path d="M361.731 152.927C359.783 150.341 356.574 148.807 353.339 148.794C352.149 148.578 352.305 147.174 353.446 147.174C357.139 147.174 360.799 148.996 363.025 151.952C363.294 152.31 363.223 152.817 362.865 153.086C362.508 153.354 362.001 153.286 361.731 152.927Z" fill="#0E2365"/>
<path d="M329.848 153.817L330.434 153.882L330.337 154.078C330.174 153.98 330.011 153.882 329.848 153.817Z" fill="#C3D7F9"/>
<path d="M327.174 151.502C326.913 151.796 326.848 152.22 326.978 152.611C325.576 152.089 324.109 151.73 322.609 151.502L331.999 139.602L335.52 140.776L327.174 151.502Z" fill="#C3D7F9"/>
<path d="M341.617 167.543C339.822 162.159 336.321 157.735 331.738 154.893C331.851 154.569 332.509 153.893 332.064 153.002C331.836 152.611 331.477 152.35 331.021 152.317L328.804 152.089L337.052 141.46C337.569 140.887 337.416 139.676 336.433 139.374L332.292 137.972C331.771 137.809 331.216 137.972 330.858 138.396L320.751 151.241C320.555 151.209 320.327 151.209 320.098 151.209L315.893 150.785C315.404 150.72 314.915 150.981 314.686 151.437C310.154 152.089 305.753 153.85 301.841 156.588C301.569 142.734 313.152 130.571 326.521 130.571C345.032 130.571 353.212 152.356 341.617 167.543Z" fill="#C3D7F9"/>
<path d="M342.792 179.932C343.281 176.281 343.052 172.727 342.172 169.401C353.216 156.35 349.68 135.887 334.119 130.245C317.428 124.175 299.029 139.539 300.244 157.762C298.353 159.262 296.593 161.022 295.027 162.978C291.621 138.354 317.049 116.466 339.564 125.093C361.643 133.505 363.143 164.76 342.792 179.932Z" fill="#C3D7F9"/>
<path d="M342.82 180.742C341.938 180.742 341.688 179.563 342.445 179.2C358.434 166.878 361.592 143.054 346.79 130.237C346.451 129.944 346.415 129.433 346.708 129.094C347 128.754 347.513 128.719 347.85 129.012C363.541 142.57 360.134 167.722 343.312 180.576C343.172 180.684 342.998 180.742 342.82 180.742Z" fill="#0E2365"/>
<path d="M343.342 198.973C343.081 197.742 343.406 198.368 342.559 195.321C342.527 195.289 342.494 195.224 342.494 195.126C341.926 193.422 340.873 191.288 339.723 189.909C344.977 179.4 344.121 166.729 336.137 158.447C349.368 167.607 352.588 185.849 343.342 198.973Z" fill="#FBD072"/>
<path d="M342.954 196.762C341.736 193.547 339.086 191.038 335.866 190.052C335.439 189.921 335.198 189.467 335.328 189.04C335.459 188.611 335.914 188.37 336.341 188.502C340.037 189.635 343.076 192.509 344.47 196.189C344.628 196.607 344.418 197.075 343.998 197.234C343.576 197.391 343.113 197.179 342.954 196.762Z" fill="#0E2365"/>
<path d="M347 177.391C344.118 173.563 339.355 173.714 339.679 173.792C338.611 173.792 338.606 172.183 339.67 172.172C343.226 172.172 346.39 173.89 348.294 176.417C348.563 176.774 348.492 177.282 348.134 177.551C347.777 177.819 347.271 177.751 347 177.391Z" fill="#0E2365"/>
<path d="M324.857 170.738C320.048 184.264 320.083 183.626 320.195 184.073C319.673 184.236 319.152 184.399 318.63 184.595L322.086 174.879C322.354 174.208 321.513 173.448 320.847 173.966C312.563 179.918 312.399 180.362 311.881 180.259C311.848 180.226 311.718 180.226 311.653 180.03L309.208 172.303C308.992 171.584 307.989 171.486 307.675 172.271L304.056 182.345C303.861 182.899 303.339 183.226 303.013 183.193L298.937 182.411C298.154 182.149 299.045 180.6 299.785 180.748L302.459 181.269C302.882 181.335 303.241 181.106 303.372 180.748L308.001 167.771C308.304 167.045 309.165 166.664 309.338 167.185L312.501 177.226C312.645 177.733 313.33 177.959 313.739 177.618C323.854 170.389 324.197 169.618 324.759 169.956C324.89 170.054 324.955 170.38 324.857 170.738Z" fill="#FBD072"/>
<path d="M332.419 184.465C332.386 184.432 332.353 184.399 332.321 184.399C329.256 183.226 325.996 182.965 322.8 183.454L322.051 183.323L326.387 171.293C327.182 168.979 324.904 167.39 323.094 168.782L313.704 175.629L310.868 166.696C310.262 164.609 307.309 164.953 306.466 167.25L302.065 179.541L300.076 179.15C298.902 178.922 297.631 179.737 297.174 181.041C296.662 182.45 297.438 183.801 298.609 184.008L302.684 184.79C303.858 184.986 305.162 184.171 305.618 182.899L308.39 175.107L310.118 180.519C310.517 181.852 312.106 182.366 313.443 181.4L319.671 176.835C316.613 185.47 316.704 184.885 316.704 185.443C311.349 188.101 307.295 192.936 305.586 197.636C301.315 195.941 297.989 192.68 296.098 188.377C288.877 172.155 305.48 152.857 322.246 158.805C332.492 162.518 336.515 174.535 332.419 184.465Z" fill="#FBD072"/>
<path d="M340.309 188.703C340.146 189.094 339.951 189.518 339.723 189.909C338.278 187.982 336.286 186.268 333.919 185.116C336.201 179.313 336.169 172.988 333.789 167.641C326.459 150.87 302.09 152.805 294.6 171.195C290.053 182.314 294.287 194.977 305.065 199.168C304.41 201.002 303.967 203.504 304.054 205.917C303.891 205.885 303.728 205.82 303.565 205.754C286.811 199.613 281.928 175.781 297.534 160.175C308.769 148.985 325.964 147.992 336.136 158.447C343.862 166.46 344.871 178.553 340.309 188.703Z" fill="#FBD072"/>
<path d="M339.373 190.609C338.973 190.41 338.799 189.948 338.998 189.547C344.556 178.432 342.987 165.158 333.854 157.436C333.513 157.148 333.468 156.635 333.758 156.295C334.047 155.955 334.56 155.915 334.899 156.199C335.849 157.002 336.683 157.823 337.375 158.64C337.511 158.701 338.453 159.896 338.531 159.996C344.626 168.122 345.787 179.633 340.471 190.223C340.273 190.62 339.775 190.813 339.373 190.609Z" fill="#0E2365"/>
<path d="M303.894 206.712C303.321 206.595 300.722 205.543 298.257 203.883C297.885 203.633 297.787 203.128 298.037 202.758C298.288 202.386 298.795 202.291 299.162 202.538C301.385 204.036 303.849 205.049 304.217 205.124C304.655 205.214 304.938 205.641 304.85 206.079C304.757 206.527 304.321 206.8 303.894 206.712Z" fill="#0E2365"/>
<path d="M280.909 222.154L273.703 218.274C277.224 215.568 280.322 212.079 282.571 207.939V207.906C288.992 195.646 286.743 183.102 279.409 175.531C295.468 186.59 296.159 210.15 280.909 222.154Z" fill="#C3D7F9"/>
<path d="M286.257 213.859C285.039 210.642 282.389 208.133 279.169 207.149C278.146 206.834 278.616 205.279 279.644 205.599C283.338 206.73 286.377 209.603 287.773 213.286C287.931 213.704 287.721 214.172 287.301 214.33C286.879 214.488 286.416 214.276 286.257 213.859Z" fill="#0E2365"/>
<path d="M290.302 194.488C287.436 190.679 282.655 190.81 282.979 190.887C281.941 190.887 281.83 189.267 283.082 189.267C286.365 189.267 289.618 190.887 291.596 193.514C291.865 193.871 291.794 194.379 291.436 194.648C291.079 194.916 290.572 194.848 290.302 194.488Z" fill="#0E2365"/>
<path d="M265.552 175.889C251.893 170.951 237 183.559 237.741 197.994L243.675 201.19C243.675 200.994 243.806 200.831 244.001 200.701C246.349 199.331 248.468 198.81 250.359 199.103C254.289 199.758 255.626 203.442 258.64 204.711C259.879 205.233 261.737 205.233 262.748 204.189C263.074 203.863 263.596 203.863 263.922 204.157C264.215 204.482 264.248 205.004 263.922 205.33C262.976 206.276 261.64 206.667 260.368 206.667C253.699 206.667 253.389 197.197 245.142 201.972L265.911 213.155C281.15 204.265 281.083 181.632 265.552 175.889ZM267.019 196.332C264.496 198.991 260.058 199.325 257.564 196.755C256.157 195.231 255.665 192.622 251.859 193.528C250.652 193.789 249.446 194.441 248.142 195.451C247.215 196.125 246.309 194.778 247.131 194.18C248.631 193.006 250.033 192.256 251.5 191.93C256.558 190.777 257.752 194.628 258.77 195.647C260.387 197.398 263.871 197.338 265.846 195.223C266.57 194.418 267.773 195.577 267.019 196.332ZM269.79 190.137C268.975 191.18 267.606 191.637 266.302 191.637C262.018 191.637 260.916 187.267 257.825 186.322C256.358 185.833 254.402 186.257 253.195 187.366C252.364 188.046 251.301 186.913 252.087 186.127C253.75 184.66 256.293 184.105 258.347 184.757C261.329 185.751 262.669 188.959 265.161 189.811C266.204 190.202 267.802 190.039 268.519 189.126C268.78 188.768 269.301 188.703 269.66 188.996C269.986 189.257 270.051 189.778 269.79 190.137ZM244.816 202.135C244.914 202.07 245.045 202.005 245.142 201.972L243.675 201.19C243.378 201.883 244.174 202.51 244.816 202.135Z" fill="#C3D7F9"/>
<path d="M282.569 207.906V207.939C280.32 212.079 277.222 215.568 273.701 218.274L266.724 214.525C282.995 205.244 283.065 180.619 266.105 174.357C253.47 169.791 238.672 179.105 236.403 193.724C236.142 195.224 236.044 196.691 236.142 198.093C235.818 197.918 231.286 195.472 231.61 195.647C231.61 195.615 231.61 195.517 231.643 195.419C235.005 171.326 264.436 159.671 279.277 175.433C279.309 175.433 279.374 175.466 279.407 175.531C286.657 183.015 289.049 195.534 282.569 207.906Z" fill="#C3D7F9"/>
<path d="M273.206 217.623C288.281 206.101 289.425 184.86 277.152 174.53C276.81 174.24 276.765 173.729 277.053 173.387C277.346 173.047 277.857 173.006 278.196 173.289C278.783 173.784 279.34 174.31 279.865 174.868L279.862 174.871C279.9 174.901 279.935 174.935 279.968 174.969C291.086 186.072 289.382 207.301 274.19 218.911C273.347 219.554 272.352 218.276 273.206 217.623Z" fill="#0E2365"/>
<path d="M342.366 207.808C343.311 204.939 343.637 202.037 343.376 199.266L343.344 199.234C343.344 198.839 343.193 197.918 343.05 197.114C342.555 195.231 342.496 195.182 342.496 195.126C342.138 194.054 341.115 191.77 340.638 191.213C340.638 191.181 340.605 191.181 340.605 191.148C340.143 190.397 338.83 188.724 338.453 188.442C338.518 188.475 338.584 188.54 338.649 188.605C344.42 192.648 347.68 199.332 347.419 206.211L342.366 207.808Z" fill="#C3D7F9"/>
<path d="M346.094 202.168C344.057 199.46 340.703 199.6 341.027 199.678C339.959 199.678 339.954 198.069 341.017 198.058C341.046 198.058 341.074 198.058 341.101 198.058C343.527 198.058 345.928 199.254 347.389 201.193C347.658 201.551 347.586 202.059 347.229 202.328C346.872 202.595 346.365 202.527 346.094 202.168Z" fill="#0E2365"/>
<path d="M343.376 199.266L343.343 199.234C343.343 198.839 343.193 197.918 343.05 197.114C342.554 195.231 342.495 195.182 342.495 195.125C342.138 194.054 341.115 191.77 340.637 191.213C340.637 191.181 340.604 191.181 340.604 191.148C338.827 188.26 336.033 185.857 332.323 184.399C318.721 179.23 303.538 191.687 304.056 205.917C304.121 210.71 305.882 215.144 309.077 218.372C309.402 218.269 314.358 216.704 314.032 216.807C307.838 213.057 305.458 204.874 308.49 197.473C313.893 184.321 331.48 182.611 337.018 194.93C339.174 199.8 338.552 205.57 336.105 209.797L342.365 207.808C343.31 204.939 343.636 202.037 343.376 199.266ZM335.518 195.582C330.659 184.62 314.948 186.115 309.99 198.093C307.218 204.874 309.436 212.34 315.141 215.601L334.442 209.471C336.87 205.549 337.543 200.127 335.518 195.582ZM327.498 205.689C325.313 207.678 322.738 209.275 319.966 210.286C319.901 210.351 319.803 210.351 319.705 210.351C319.128 210.351 318.838 209.883 318.89 209.406C319.282 206.798 319.477 204.124 319.542 201.483C318.02 202.16 317.736 202.396 317.358 202.396C316.494 202.396 316.251 201.192 317.032 200.831L319.542 199.657C319.542 198.353 319.608 197.049 319.542 195.745C319.468 194.709 321.09 194.486 321.173 195.647C321.238 196.723 321.173 197.832 321.205 198.908L324.303 197.473C325.292 197.016 325.957 198.492 324.987 198.94L321.205 200.701C321.14 203.211 321.01 205.754 320.684 208.232C322.77 207.287 324.727 206.015 326.389 204.483C326.748 204.189 327.237 204.222 327.563 204.548C327.856 204.874 327.824 205.396 327.498 205.689Z" fill="#C3D7F9"/>
<path d="M342.368 208.619C341.817 208.619 341.425 208.079 341.599 207.555C342.494 204.833 342.824 202.083 342.575 199.38C342.536 199.224 342.536 199.078 342.536 198.972C341.491 192.046 338.422 189.844 338.06 189.136C337.965 189.089 337.906 189.047 337.838 188.967C337.534 188.608 337.156 188.252 336.716 187.907C336.364 187.63 336.303 187.12 336.579 186.769C336.857 186.418 337.365 186.361 337.716 186.631C340.15 188.539 342.562 192.274 343.343 195.104C343.749 196.562 343.861 196.922 343.861 197.115C343.948 197.532 344.156 198.794 344.156 198.972C344.21 199.083 344.187 199.11 344.187 199.233C344.461 202.129 344.108 205.113 343.137 208.062C343.024 208.404 342.708 208.619 342.368 208.619Z" fill="#0E2365"/>
<path d="M230.963 196.221C230.57 196.004 230.428 195.512 230.643 195.12C230.862 194.727 231.358 194.587 231.744 194.8C307.479 235.519 281.358 221.475 287.009 224.513L347.182 205.45C348.217 205.135 348.682 206.675 347.669 206.994L287.17 226.16C286.438 226.395 288.344 226.854 230.963 196.221Z" fill="#0E2365"/>
<path d="M255.437 278.059L201.043 250.775C200.09 250.294 200.807 248.84 201.771 249.325L256.165 276.61C257.115 277.092 256.408 278.531 255.437 278.059Z" fill="#0E2365"/>
<path d="M237.434 241.508L200.528 223.494C200.127 223.297 199.96 222.813 200.157 222.41C200.354 222.01 200.84 221.847 201.24 222.038L238.146 240.052C239.103 240.52 238.406 241.974 237.434 241.508Z" fill="#0E2365"/>
<path d="M231.351 196.551C229.247 196.309 206.675 193.71 208.116 193.876C207.671 193.824 207.353 193.422 207.404 192.977C207.454 192.533 207.863 192.224 208.302 192.265L231.443 194.936C232.45 195.054 232.363 196.551 231.351 196.551Z" fill="#0E2365"/>
<path d="M284.473 235.213L286.235 225.314C286.425 224.253 288.018 224.547 287.83 225.599L286.067 235.498C285.878 236.566 284.284 236.266 284.473 235.213Z" fill="#0E2365"/>
<path d="M344.419 107.325C344.387 107.292 344.354 107.292 344.354 107.259C339.04 103.934 335.584 98.6196 334.377 92.5554C334.214 92.6531 334.084 92.751 333.921 92.8814C330.856 95.294 326.813 99.6629 329.063 102.891C330.139 104.423 332.454 105.01 334.606 104.456C332.552 105.597 331.182 107.977 331.574 109.9C332.03 112.28 334.801 113.682 337.638 113.226C339.724 112.835 341.713 111.563 343.017 109.9C343.148 109.248 343.539 108.564 344.126 108.074C343.865 108.694 343.507 109.313 343.017 109.9C342.789 111.139 343.278 112.378 344.322 112.998C345.984 113.976 348.462 113.584 350.451 112.574C351.56 112.02 352.538 111.302 353.483 110.552C350.084 110.103 347.183 108.983 344.419 107.325ZM456.477 43.5198C454.811 34.8526 448.205 27.9407 438.48 26.5009C436.785 26.3053 435.644 26.4683 433.948 26.8268C426.563 28.4094 419.07 29.3421 412.43 25.7509C406.319 22.4233 403.517 14.5627 397.954 14.7635C393.911 14.8461 389.184 19.4004 389.184 25.0337C389.118 31.1175 394.08 35.5918 397.204 40.0638C398.769 42.3787 400.041 44.8566 400.954 47.4975C393.896 54.6391 388.049 60.6752 380.055 66.766C386.217 74.0365 387.358 85.1217 382.109 95.0331C376.632 105.336 365.905 111.302 355.537 110.748C356.026 111.563 357.037 112.248 358.08 112.541C365.838 114.674 375.31 109.469 385.206 105.238C393.65 101.652 402.551 100.119 410.995 96.4352C432.253 87.0779 460.944 65.7553 456.477 43.5198Z" fill="#71A0FF"/>
<path d="M344.144 108.065C343.53 108.578 343.158 109.233 343.031 109.893C343.499 109.329 343.867 108.703 344.144 108.065Z" fill="#FCA8D7"/>
<path d="M334.625 104.451C335.122 104.322 335.597 104.129 336.064 103.888C335.554 104 335.079 104.193 334.625 104.451Z" fill="#FCA8D7"/>
<path d="M382.955 94.083C382.006 94.083 381.838 92.7223 382.755 92.4882C386.816 91.4455 390.045 90.2636 392.918 88.7717C393.314 88.5628 393.804 88.7179 394.01 89.1166C394.217 89.5137 394.062 90.0026 393.665 90.2083C389.314 92.4703 383.464 94.083 382.955 94.083Z" fill="#0E2365"/>
<path d="M384.941 83.5349C387.169 82.2882 388.895 81.1617 390.376 79.9877C391.214 79.3175 392.223 80.5902 391.382 81.2566C389.833 82.486 388.037 83.6583 385.732 84.9494C384.791 85.4733 384.012 84.0539 384.941 83.5349Z" fill="#0E2365"/>
<path d="M342.953 109.597C342.692 108.661 342.652 107.662 342.837 106.628C342.915 106.186 343.347 105.9 343.777 105.973C344.217 106.052 344.511 106.473 344.432 106.913C344.291 107.705 344.318 108.461 344.513 109.161C344.633 109.593 344.381 110.039 343.951 110.159C343.526 110.279 343.074 110.032 342.953 109.597Z" fill="#0E2365"/>
<path d="M384.016 76.1429C383.717 75.8091 383.745 75.2965 384.077 74.999C384.687 74.4532 385.264 73.9089 385.84 73.333C386.156 73.0166 386.669 73.0166 386.985 73.333C387.302 73.6495 387.302 74.1621 386.985 74.4785C386.387 75.0766 385.791 75.6398 385.16 76.2046C384.825 76.505 384.314 76.4742 384.016 76.1429Z" fill="#0E2365"/>
<path d="M334.369 104.881C333.952 104.715 333.752 104.243 333.918 103.829C334.509 102.346 335.438 100.895 336.675 99.5126C336.976 99.1804 337.487 99.1551 337.819 99.4509C338.152 99.7484 338.18 100.261 337.881 100.595C336.772 101.834 335.944 103.125 335.421 104.43C335.254 104.848 334.78 105.047 334.369 104.881Z" fill="#0E2365"/>
<path d="M393.991 91.9202C393.496 90.6561 392.483 89.6388 391.142 89.0518C390.732 88.873 390.545 88.3952 390.724 87.9854C390.904 87.5772 391.382 87.3921 391.79 87.5677C393.529 88.3272 394.847 89.6625 395.501 91.3285C395.664 91.7446 395.458 92.2145 395.042 92.3791C394.635 92.5391 394.159 92.3442 393.991 91.9202Z" fill="#0E2365"/>
<path d="M391.691 81.9053C391.279 81.4749 390.727 81.1553 390.093 80.9829C389.661 80.8642 389.408 80.4196 389.525 79.9877C389.643 79.5589 390.091 79.3105 390.52 79.4197C391.825 79.7753 393.815 80.9948 392.836 81.9306C392.514 82.2395 391.998 82.2283 391.691 81.9053Z" fill="#0E2365"/>
<path d="M386.659 75.1308C386.266 74.8096 385.728 74.5992 385.145 74.5391C384.701 74.4948 384.376 74.0961 384.422 73.6515C384.468 73.2038 384.88 72.881 385.31 72.9285C386.643 73.0634 388.638 73.9894 387.799 75.0169C387.516 75.3645 387.004 75.414 386.659 75.1308Z" fill="#0E2365"/>
<path d="M403.724 53.727C402.541 50.5516 400.972 47.5265 399.06 44.734C398.807 44.3654 398.9 43.8607 399.271 43.6091C399.639 43.356 400.144 43.4493 400.396 43.8195C402.383 46.7196 404.014 49.8618 405.243 53.1606C405.4 53.5798 405.186 54.0466 404.767 54.2032C404.354 54.3574 403.883 54.1511 403.724 53.727Z" fill="#0E2365"/>
<path d="M442.846 76.1826C442.48 75.9232 442.395 75.4185 442.653 75.053C445.588 70.9093 446.777 65.454 445.839 60.4608C445.757 60.0209 446.045 59.5969 446.485 59.5146C446.91 59.4339 447.347 59.7187 447.431 60.1602C448.466 65.6581 447.206 71.4267 443.975 75.9896C443.719 76.3511 443.217 76.4429 442.846 76.1826Z" fill="#0E2365"/>
<path d="M387.096 100.543C378.688 116.382 357.396 119.823 344.418 107.325C357.813 115.363 374.875 108.659 382.107 95.0333C387.389 85.0893 386.216 73.939 379.988 66.6685C390.063 74.5911 393.29 88.8061 387.096 100.543Z" fill="#FBD072"/>
<path d="M370.343 113.847C369.34 111.485 367.935 109.37 366.165 107.558C365.851 107.238 365.858 106.724 366.177 106.413C366.5 106.098 367.013 106.109 367.323 106.425C369.236 108.382 370.753 110.665 371.834 113.214C372.009 113.626 371.816 114.102 371.405 114.276C371.002 114.449 370.519 114.265 370.343 113.847Z" fill="#0E2365"/>
<path d="M384.039 102.679C383.099 99.6347 380.797 97.1634 377.881 96.0669C377.462 95.9103 377.25 95.4436 377.408 95.0243C377.566 94.605 378.031 94.3851 378.451 94.5512C381.833 95.8217 384.501 98.6823 385.586 102.201C385.719 102.628 385.478 103.082 385.051 103.214C384.646 103.343 384.176 103.122 384.039 102.679Z" fill="#0E2365"/>
<path d="M388.932 84.9349C387.498 82.7578 384.992 81.3228 382.394 81.1883C381.302 81.1343 381.423 79.4433 382.476 79.5714C385.581 79.7296 388.573 81.4431 390.286 84.0425C390.531 84.4159 390.428 84.9191 390.055 85.1659C389.684 85.4088 389.182 85.3112 388.932 84.9349Z" fill="#0E2365"/>
<path d="M368.743 77.3948C363.586 89.6354 363.414 89.2069 363.69 89.8494C363.967 90.4045 364.505 90.2724 367.081 91.0883C367.146 91.186 367.146 91.3816 367.048 91.6425C366.852 92.1316 366.331 92.425 366.07 92.3273L361.929 91.186C361.688 90.825 362.194 90.3016 366.037 81.1443C366.354 80.3527 365.479 79.7228 364.864 80.1336L356.745 85.3175C356.493 85.4859 356.122 85.5584 356.061 85.2522L354.235 77.949C354.079 77.1699 352.972 77.1445 352.702 77.8187L348.757 86.9803C348.562 87.4367 348.073 87.7301 347.779 87.665L343.9 86.589C343.647 86.0843 344.371 85.1976 344.91 85.3175L347.388 85.9369C347.779 86.0348 348.171 85.8392 348.334 85.4804L353.387 73.7433C353.744 72.9574 354.528 72.8717 354.528 73.2215L356.876 82.7419C357.003 83.2521 357.596 83.5272 358.115 83.2308L368.124 76.8406C368.727 76.4637 368.979 76.8637 368.743 77.3948Z" fill="#FBD072"/>
<path d="M380.054 66.7657C380.054 66.7331 380.021 66.7004 379.989 66.668C368.829 53.5283 346.357 57.4697 337.246 74.5906C330.655 86.957 334.166 100.884 344.353 107.259C344.353 107.292 344.386 107.292 344.419 107.324C357.662 115.272 374.773 108.829 382.108 95.0328C387.357 85.1214 386.216 74.0362 380.054 66.7657ZM367.958 101.097C357.116 108.053 343.795 103.977 339.561 92.6855C337.637 87.469 338.028 81.4046 340.604 76.0578C345.723 65.5268 357.851 60.4733 367.697 64.7443C382.054 70.9859 382.158 91.9881 367.958 101.097ZM367.045 66.2441C357.961 62.2518 346.752 67.0736 342.071 76.775C337.396 86.5082 340.83 97.5858 349.863 101.488C362.302 106.902 376.924 96.0494 376.924 81.9914C376.924 74.5962 372.844 68.7491 367.045 66.2441ZM370.24 78.0466L365.545 88.936C366.891 89.3845 367.962 89.2041 368.545 90.3705C369.355 91.9019 367.77 94.3437 365.676 93.9244L361.666 92.8811C360.603 92.6155 359.874 91.444 360.459 89.9793L363.491 82.9371L357.623 86.6863C356.427 87.4838 354.885 87.1291 354.46 85.6432L353.254 80.6874L350.254 87.632C349.766 88.8057 348.494 89.5228 347.386 89.2295L343.636 88.2841C342.465 87.991 341.909 86.7156 342.43 85.3497C342.951 84.176 344.223 83.4587 345.332 83.7522L347.092 84.2087L351.885 73.0908C352.764 71.0404 355.551 70.7569 356.123 72.8299L358.21 81.2416L367.241 75.4708C369.136 74.2777 371.106 75.9535 370.24 78.0466Z" fill="#FBD072"/>
<path d="M342.127 106.715C341.773 106.443 341.708 105.934 341.982 105.579C342.256 105.226 342.765 105.165 343.118 105.434C354.965 114.567 373.54 109.417 381.387 94.6496C386.801 84.4574 385.401 72.7969 377.902 65.6361C377.579 65.3275 377.566 64.8149 377.876 64.4906C378.185 64.1694 378.696 64.1583 379.022 64.4653C387.051 72.1324 388.576 84.5681 382.817 95.4091C374.66 110.763 354.987 116.632 342.127 106.715Z" fill="#0E2365"/>
<path d="M176.62 245.095L177.778 226.163L163.403 243.487C162.794 244.225 161.624 243.463 162.056 242.606L175.233 216.437C168.263 216.792 159.981 218.739 150.589 222.238C149.741 222.562 149.076 221.416 149.804 220.842C158.444 214.023 167.045 209.397 174.783 207.389L156.883 191.431C156.112 190.744 157.092 189.56 157.911 190.181C177.257 204.809 181.157 203.23 180.321 205.082C180.136 205.492 179.652 205.676 179.25 205.489C175.951 204.002 172.285 201.975 168.284 199.424L177.021 207.212C177.513 207.653 177.297 208.467 176.653 208.607C169.993 210.058 162.582 213.615 155.005 218.974C163.136 216.312 170.368 214.899 176.555 214.768C176.834 214.756 177.106 214.904 177.258 215.146C177.723 215.883 177.516 215.172 166.711 236.963L178.115 223.22C178.615 222.618 179.596 223.009 179.547 223.786L178.549 240.114C179.954 236.35 181.125 232.677 182.039 229.145C182.151 228.713 182.582 228.457 183.028 228.565C183.46 228.677 183.721 229.12 183.609 229.553C182.294 234.619 180.466 239.97 178.175 245.456C177.83 246.294 176.566 246.003 176.62 245.095Z" fill="#0E2365"/>
<path d="M167.819 248.715C169.65 246.61 171.123 244.298 172.077 242.031C172.252 241.619 172.725 241.43 173.138 241.599C173.55 241.773 173.744 242.248 173.57 242.661C172.55 245.083 170.983 247.545 169.044 249.779C168.333 250.587 167.12 249.524 167.819 248.715Z" fill="#0E2365"/>
<path d="M158.766 201.974C155.959 199.604 152.459 197.423 148.643 195.666C148.237 195.479 148.059 194.998 148.246 194.591C148.434 194.183 148.92 194.011 149.32 194.194C153.268 196.012 156.894 198.273 159.81 200.736C160.63 201.427 159.585 202.665 158.766 201.974Z" fill="#0E2365"/>
<path d="M368.74 306.516C368.571 306.102 368.769 305.63 369.183 305.459L408.538 289.359C409.534 288.958 410.142 290.451 409.152 290.859L369.797 306.959C369.381 307.128 368.909 306.93 368.74 306.516Z" fill="#0E2365"/>
<path d="M392.744 313.576C392.45 313.576 392.167 313.414 392.023 313.136C391.819 312.737 391.977 312.247 392.376 312.044L405.196 305.488C405.594 305.292 406.08 305.443 406.286 305.839C406.49 306.238 406.332 306.728 405.933 306.931L393.113 313.487C392.996 313.547 392.869 313.576 392.744 313.576Z" fill="#0E2365"/>
<path d="M332.731 60.9611C332.315 60.7965 332.111 60.3266 332.276 59.9105C333.844 55.9488 336.905 52.5392 340.679 50.5552C341.071 50.348 341.563 50.4967 341.772 50.8954C341.981 51.2909 341.829 51.7798 341.432 51.9887C337.997 53.7955 335.209 56.8997 333.782 60.5054C333.611 60.9356 333.126 61.1227 332.731 60.9611Z" fill="#0E2365"/>
<path d="M389.302 133.911C388.878 133.768 388.65 133.31 388.792 132.886C391.354 125.26 396.292 118.38 402.695 113.517C403.054 113.248 403.557 113.316 403.831 113.672C404.101 114.029 404.032 114.537 403.676 114.808C397.527 119.477 392.787 126.081 390.327 133.401C390.179 133.842 389.701 134.051 389.302 133.911Z" fill="#0E2365"/>
</g>
<defs>
<radialGradient id="paint0_radial_5693_38496" cx="0" cy="0" r="1" gradientUnits="userSpaceOnUse" gradientTransform="translate(301.001 159) rotate(90) scale(160 442.387)">
<stop stop-color="#E1E4EA"/>
<stop offset="1" stop-color="#E1E4EA" stop-opacity="0"/>
</radialGradient>
<clipPath id="clip0_5693_38496">
<rect width="600" height="320" fill="white"/>
</clipPath>
</defs>
</svg>
