<svg width="600" height="320" viewBox="0 0 600 320" fill="none" xmlns="http://www.w3.org/2000/svg">
<g clip-path="url(#clip0_6057_60286)">
<path d="M-87.0883 -6H-142.387V47.3333M-87.0883 -6V47.3333M-87.0883 -6H-31.7899M-87.0883 47.3333H-142.387M-87.0883 47.3333V100.667M-87.0883 47.3333H-31.7899M-142.387 47.3333V100.667M-87.0883 100.667H-142.387M-87.0883 100.667V154M-87.0883 100.667H-31.7899M-142.387 100.667V154M-87.0883 154H-142.387M-87.0883 154V207.333M-87.0883 154H-31.7899M-142.387 154V207.333M-87.0883 207.333H-142.387M-87.0883 207.333V260.667M-87.0883 207.333H-31.7899M-142.387 207.333V260.667M-87.0883 260.667H-142.387M-87.0883 260.667V314M-87.0883 260.667H-31.7899M-142.387 260.667V314H-87.0883M-87.0883 314H-31.7899M-31.7899 -6V47.3333M-31.7899 -6H23.5085M-31.7899 47.3333V100.667M-31.7899 47.3333H23.5085M-31.7899 100.667V154M-31.7899 100.667H23.5085M-31.7899 154V207.333M-31.7899 154H23.5085M-31.7899 207.333V260.667M-31.7899 207.333H23.5085M-31.7899 260.667V314M-31.7899 260.667H23.5085M-31.7899 314H23.5085M23.5085 -6V47.3333M23.5085 -6H78.8069M23.5085 47.3333V100.667M23.5085 47.3333H78.8069M23.5085 100.667V154M23.5085 100.667H78.8069M23.5085 154V207.333M23.5085 154H78.8069M23.5085 207.333V260.667M23.5085 207.333H78.8069M23.5085 260.667V314M23.5085 260.667H78.8069M23.5085 314H78.8069M78.8069 -6V47.3333M78.8069 -6H134.105M78.8069 47.3333V100.667M78.8069 47.3333H134.105M78.8069 100.667V154M78.8069 100.667H134.105M78.8069 154V207.333M78.8069 154H134.105M78.8069 207.333V260.667M78.8069 207.333H134.105M78.8069 260.667V314M78.8069 260.667H134.105M78.8069 314H134.105M134.105 -6V47.3333M134.105 -6H189.404M134.105 47.3333V100.667M134.105 47.3333H189.404M134.105 100.667V154M134.105 100.667H189.404M134.105 154V207.333M134.105 154H189.404M134.105 207.333V260.667M134.105 207.333H189.404M134.105 260.667V314M134.105 260.667H189.404M134.105 314H189.404M189.404 -6V47.3333M189.404 -6H244.702M189.404 47.3333V100.667M189.404 47.3333H244.702M189.404 100.667V154M189.404 100.667H244.702M189.404 154V207.333M189.404 154H244.702M189.404 207.333V260.667M189.404 207.333H244.702M189.404 260.667V314M189.404 260.667H244.702M189.404 314H244.702M244.702 -6V47.3333M244.702 -6H300.001M244.702 47.3333V100.667M244.702 47.3333H300.001M244.702 100.667V154M244.702 100.667H300.001M244.702 154V207.333M244.702 154H300.001M244.702 207.333V260.667M244.702 207.333H300.001M244.702 260.667V314M244.702 260.667H300.001M244.702 314H300.001M300.001 -6V47.3333M300.001 -6H355.299M300.001 47.3333V100.667M300.001 47.3333H355.299M300.001 100.667V154M300.001 100.667H355.299M300.001 154V207.333M300.001 154H355.299M300.001 207.333V260.667M300.001 207.333H355.299M300.001 260.667V314M300.001 260.667H355.299M300.001 314H355.299M355.299 -6V47.3333M355.299 -6H410.597M355.299 47.3333V100.667M355.299 47.3333H410.597M355.299 100.667V154M355.299 100.667H410.597M355.299 154V207.333M355.299 154H410.597M355.299 207.333V260.667M355.299 207.333H410.597M355.299 260.667V314M355.299 260.667H410.597M355.299 314H410.597M410.597 -6V47.3333M410.597 -6H465.896M410.597 47.3333V100.667M410.597 47.3333H465.896M410.597 100.667V154M410.597 100.667H465.896M410.597 154V207.333M410.597 154H465.896M410.597 207.333V260.667M410.597 207.333H465.896M410.597 260.667V314M410.597 260.667H465.896M410.597 314H465.896M465.896 -6V47.3333M465.896 -6H521.194M465.896 47.3333V100.667M465.896 47.3333H521.194M465.896 100.667V154M465.896 100.667H521.194M465.896 154V207.333M465.896 154H521.194M465.896 207.333V260.667M465.896 207.333H521.194M465.896 260.667V314M465.896 260.667H521.194M465.896 314H521.194M521.194 -6V47.3333M521.194 -6H576.493M521.194 47.3333V100.667M521.194 47.3333H576.493M521.194 100.667V154M521.194 100.667H576.493M521.194 154V207.333M521.194 154H576.493M521.194 207.333V260.667M521.194 207.333H576.493M521.194 260.667V314M521.194 260.667H576.493M521.194 314H576.493M576.493 -6V47.3333M576.493 -6H631.791M576.493 47.3333V100.667M576.493 47.3333H631.791M576.493 100.667V154M576.493 100.667H631.791M576.493 154V207.333M576.493 154H631.791M576.493 207.333V260.667M576.493 207.333H631.791M576.493 260.667V314M576.493 260.667H631.791M576.493 314H631.791M631.791 -6V47.3333M631.791 -6H687.089M631.791 47.3333V100.667M631.791 47.3333H687.089M631.791 100.667V154M631.791 100.667H687.089M631.791 154V207.333M631.791 154H687.089M631.791 207.333V260.667M631.791 207.333H687.089M631.791 260.667V314M631.791 260.667H687.089M631.791 314H687.089M687.089 -6V47.3333M687.089 -6H742.388V47.3333M687.089 47.3333V100.667M687.089 47.3333H742.388M687.089 100.667V154M687.089 100.667H742.388M687.089 154V207.333M687.089 154H742.388M687.089 207.333V260.667M687.089 207.333H742.388M687.089 260.667V314M687.089 260.667H742.388M687.089 314H742.388V260.667M742.388 47.3333V100.667M742.388 100.667V154M742.388 154V207.333M742.388 207.333V260.667" stroke="url(#paint0_radial_6057_60286)" stroke-width="0.8"/>
<path d="M307.369 440.914C414.985 440.914 502.226 353.673 502.226 246.057C502.226 138.44 414.985 51.2 307.369 51.2C199.752 51.2 112.512 138.44 112.512 246.057C112.512 353.673 199.752 440.914 307.369 440.914Z" fill="#E8EEF9"/>
<path d="M138.534 117.819C138.302 117.819 138.069 117.752 137.866 117.608C137.338 117.238 137.209 116.511 137.577 115.982C139.263 113.572 141.577 111.595 144.454 110.109C145.026 109.814 145.732 110.037 146.029 110.61C146.324 111.184 146.101 111.888 145.528 112.183C142.988 113.494 140.959 115.222 139.492 117.32C139.265 117.647 138.902 117.819 138.534 117.819Z" fill="black"/>
<path d="M468.023 323.457C467.54 323.457 467.089 323.156 466.921 322.675C465.324 318.106 462.958 313.078 459.891 307.732C459.569 307.173 459.764 306.459 460.323 306.137C460.88 305.816 461.596 306.008 461.918 306.569C465.058 312.039 467.482 317.198 469.129 321.905C469.342 322.513 469.021 323.18 468.412 323.393C468.279 323.436 468.15 323.457 468.023 323.457ZM451.778 294.271C451.414 294.271 451.057 294.103 450.828 293.784C447.785 289.544 444.348 285.108 440.619 280.598C440.207 280.101 440.277 279.366 440.774 278.954C441.272 278.542 442.007 278.612 442.419 279.11C446.181 283.66 449.648 288.139 452.725 292.422C453.099 292.946 452.981 293.675 452.456 294.052C452.251 294.199 452.014 294.271 451.778 294.271ZM430.502 268.397C430.186 268.397 429.871 268.27 429.639 268.018C426.021 264.067 422.136 260.004 418.093 255.941C417.638 255.484 417.64 254.745 418.097 254.288C418.554 253.833 419.293 253.835 419.75 254.292C423.815 258.378 427.721 262.463 431.364 266.439C431.8 266.914 431.767 267.653 431.292 268.089C431.067 268.294 430.784 268.397 430.502 268.397ZM406.894 244.615C406.608 244.615 406.321 244.511 406.096 244.3C402.118 240.57 397.957 236.788 393.722 233.052C393.238 232.624 393.191 231.887 393.617 231.403C394.043 230.92 394.783 230.873 395.266 231.299C399.518 235.049 403.7 238.85 407.693 242.596C408.162 243.038 408.187 243.777 407.746 244.246C407.515 244.49 407.204 244.615 406.894 244.615ZM381.77 222.435C381.505 222.435 381.241 222.347 381.022 222.165C376.807 218.651 372.439 215.101 368.038 211.62C367.532 211.218 367.446 210.485 367.845 209.979C368.247 209.474 368.98 209.387 369.486 209.789C373.903 213.285 378.288 216.844 382.517 220.373C383.013 220.787 383.078 221.522 382.667 222.017C382.437 222.292 382.105 222.435 381.77 222.435ZM355.494 201.634C355.248 201.634 355.002 201.558 354.791 201.398C350.386 198.085 345.848 194.752 341.305 191.496C340.781 191.121 340.66 190.39 341.035 189.866C341.412 189.342 342.141 189.221 342.665 189.598C347.224 192.864 351.777 196.207 356.196 199.53C356.71 199.918 356.815 200.651 356.428 201.167C356.198 201.474 355.848 201.634 355.494 201.634ZM328.253 182.114C328.026 182.114 327.797 182.049 327.596 181.912C322.974 178.76 318.288 175.643 313.665 172.644C313.125 172.294 312.971 171.569 313.321 171.028C313.674 170.486 314.397 170.334 314.937 170.684C319.574 173.691 324.276 176.82 328.911 179.98C329.443 180.343 329.582 181.07 329.218 181.604C328.993 181.936 328.626 182.114 328.253 182.114ZM300.13 163.885C299.921 163.885 299.71 163.83 299.52 163.713C294.732 160.772 289.9 157.886 285.157 155.138C284.598 154.814 284.41 154.1 284.731 153.543C285.055 152.984 285.772 152.795 286.327 153.117C291.086 155.875 295.936 158.771 300.74 161.722C301.289 162.06 301.461 162.779 301.125 163.33C300.906 163.688 300.523 163.885 300.13 163.885ZM271.13 147.091C270.942 147.091 270.752 147.046 270.573 146.95C265.617 144.257 260.634 141.646 255.762 139.19C255.187 138.899 254.955 138.197 255.246 137.621C255.537 137.046 256.239 136.815 256.815 137.103C261.708 139.571 266.711 142.193 271.69 144.898C272.257 145.205 272.468 145.916 272.159 146.483C271.946 146.87 271.544 147.091 271.13 147.091ZM241.201 132.024C241.037 132.024 240.871 131.989 240.712 131.916C235.524 129.52 230.373 127.267 225.405 125.215C224.809 124.969 224.524 124.285 224.77 123.689C225.016 123.093 225.698 122.808 226.296 123.054C231.293 125.116 236.472 127.384 241.69 129.792C242.276 130.062 242.532 130.757 242.262 131.342C242.065 131.772 241.641 132.024 241.201 132.024ZM210.211 119.29C210.082 119.29 209.948 119.267 209.822 119.222C204.314 117.27 198.969 115.567 193.933 114.158C193.313 113.983 192.948 113.338 193.124 112.718C193.298 112.095 193.939 111.733 194.564 111.907C199.649 113.328 205.046 115.048 210.604 117.021C211.212 117.236 211.53 117.903 211.315 118.512C211.14 118.991 210.69 119.29 210.211 119.29ZM177.922 110.453C177.856 110.453 177.789 110.447 177.721 110.436C171.647 109.388 166.119 108.89 161.272 108.956C161.265 108.956 161.261 108.956 161.257 108.956C160.618 108.956 160.098 108.444 160.09 107.803C160.082 107.157 160.598 106.627 161.243 106.619C166.207 106.555 171.903 107.061 178.118 108.134C178.753 108.243 179.181 108.847 179.071 109.484C178.975 110.051 178.479 110.453 177.922 110.453Z" fill="black"/>
<path d="M500.152 189.004C499.556 189.004 499.048 188.551 498.991 187.945C498.727 185.166 498.114 182.464 497.17 179.911C496.947 179.304 497.256 178.633 497.862 178.409C498.464 178.186 499.138 178.495 499.364 179.1C500.377 181.844 501.035 184.744 501.317 187.724C501.379 188.367 500.908 188.936 500.265 188.998C500.226 189.002 500.189 189.004 500.152 189.004Z" fill="black"/>
<path d="M184.524 360.364C183.883 360.364 183.359 359.846 183.357 359.203C183.353 358.558 183.873 358.031 184.518 358.027C190.052 357.992 195.845 357.775 201.74 357.38C202.379 357.329 202.94 357.822 202.985 358.467C203.028 359.111 202.54 359.668 201.897 359.711C195.956 360.108 190.115 360.329 184.534 360.362C184.528 360.364 184.526 360.364 184.524 360.364ZM167.231 359.844C167.204 359.844 167.175 359.844 167.149 359.842C161.068 359.418 155.25 358.73 149.851 357.8C149.217 357.691 148.789 357.085 148.899 356.45C149.01 355.815 149.618 355.387 150.249 355.498C155.569 356.415 161.308 357.091 167.311 357.511C167.954 357.556 168.439 358.113 168.394 358.758C168.351 359.371 167.839 359.844 167.231 359.844ZM219.043 358.105C218.459 358.105 217.956 357.669 217.884 357.075C217.808 356.434 218.265 355.852 218.906 355.776C224.476 355.115 230.225 354.302 235.99 353.358C236.621 353.253 237.227 353.683 237.332 354.32C237.436 354.957 237.004 355.557 236.367 355.662C230.569 356.612 224.788 357.431 219.18 358.097C219.135 358.103 219.09 358.105 219.043 358.105ZM133.252 353.726C133.132 353.726 133.009 353.708 132.888 353.667C126.84 351.68 121.464 349.245 116.913 346.427C116.365 346.087 116.195 345.368 116.535 344.82C116.875 344.271 117.595 344.101 118.142 344.441C122.539 347.162 127.745 349.52 133.617 351.447C134.229 351.648 134.563 352.309 134.362 352.921C134.201 353.413 133.742 353.726 133.252 353.726ZM253.196 352.532C252.653 352.532 252.167 352.151 252.053 351.598C251.924 350.966 252.331 350.349 252.962 350.22C258.502 349.081 264.169 347.81 269.805 346.433C270.432 346.278 271.064 346.665 271.216 347.292C271.369 347.918 270.984 348.551 270.358 348.703C264.693 350.085 259 351.365 253.431 352.508C253.353 352.524 253.275 352.532 253.196 352.532ZM286.82 344.344C286.31 344.344 285.841 344.007 285.695 343.492C285.521 342.872 285.884 342.227 286.504 342.053C291.987 340.515 297.553 338.852 303.05 337.111C303.671 336.916 304.322 337.258 304.516 337.873C304.711 338.487 304.371 339.145 303.757 339.339C298.235 341.086 292.644 342.757 287.137 344.303C287.031 344.33 286.926 344.344 286.82 344.344ZM319.817 333.908C319.336 333.908 318.883 333.607 318.715 333.128C318.502 332.519 318.822 331.852 319.43 331.639C322.117 330.695 324.849 329.709 327.55 328.712C330.231 327.723 332.951 326.695 335.63 325.656C336.234 325.425 336.91 325.722 337.141 326.324C337.374 326.926 337.075 327.602 336.473 327.836C333.782 328.878 331.052 329.91 328.359 330.903C325.646 331.905 322.903 332.894 320.204 333.842C320.077 333.887 319.946 333.908 319.817 333.908ZM352.096 321.411C351.641 321.411 351.209 321.143 351.02 320.698C350.768 320.104 351.045 319.418 351.639 319.166C356.949 316.914 362.262 314.558 367.427 312.166C368.013 311.894 368.707 312.15 368.979 312.736C369.25 313.321 368.996 314.016 368.41 314.286C363.222 316.688 357.887 319.054 352.552 321.317C352.401 321.38 352.247 321.411 352.096 321.411ZM383.495 306.852C383.069 306.852 382.658 306.616 382.453 306.211C382.162 305.635 382.394 304.933 382.969 304.642C388.14 302.027 393.275 299.311 398.231 296.571C398.792 296.257 399.505 296.462 399.818 297.027C400.131 297.593 399.927 298.303 399.361 298.615C394.381 301.369 389.222 304.097 384.024 306.727C383.852 306.811 383.672 306.852 383.495 306.852ZM413.775 290.091C413.38 290.091 412.995 289.89 412.776 289.528C412.442 288.977 412.616 288.258 413.169 287.922C418.17 284.889 423.067 281.772 427.724 278.655C428.259 278.296 428.984 278.44 429.344 278.976C429.702 279.513 429.559 280.238 429.022 280.596C424.335 283.732 419.409 286.869 414.377 289.919C414.191 290.036 413.982 290.091 413.775 290.091ZM442.517 270.817C442.16 270.817 441.808 270.655 441.581 270.348C441.196 269.83 441.302 269.099 441.818 268.714C446.555 265.181 451.102 261.579 455.327 258.009C455.821 257.593 456.558 257.655 456.974 258.148C457.389 258.642 457.328 259.377 456.834 259.795C452.572 263.395 447.989 267.026 443.215 270.588C443.004 270.741 442.758 270.817 442.517 270.817ZM468.883 248.428C468.582 248.428 468.279 248.312 468.049 248.08C467.597 247.619 467.603 246.88 468.064 246.428C472.352 242.209 476.274 237.961 479.721 233.806C480.132 233.31 480.868 233.24 481.365 233.652C481.861 234.064 481.931 234.801 481.519 235.297C478.023 239.513 474.046 243.818 469.702 248.093C469.475 248.316 469.18 248.428 468.883 248.428ZM490.725 221.69C490.518 221.69 490.309 221.634 490.118 221.52C489.568 221.184 489.391 220.467 489.725 219.914C492.93 214.634 495.353 209.461 496.924 204.536C497.118 203.921 497.774 203.581 498.392 203.778C499.007 203.975 499.347 204.632 499.15 205.246C497.524 210.346 495.025 215.689 491.724 221.127C491.503 221.489 491.118 221.69 490.725 221.69Z" fill="black"/>
<path d="M464.596 261.036C464.078 268.636 463.056 276.081 461.553 283.341C460.783 287.074 459.896 290.754 458.88 294.381C457.342 299.905 455.526 305.299 453.445 310.567C427.72 375.8 362.014 419.858 288.315 414.841C276.424 414.032 264.922 411.986 253.914 408.834C244.627 406.182 235.701 402.745 227.196 398.61C171.79 371.646 134.297 314.855 134.119 250.446C134.102 246.505 134.229 242.545 134.5 238.557C140.707 147.399 219.633 78.5468 310.791 84.7543C321.636 85.4936 332.166 87.2631 342.286 89.948C370.603 97.4826 395.759 112.284 415.813 132.112C430.573 146.708 442.558 164.024 450.995 183.173C458.97 201.236 463.783 220.926 464.785 241.508C465.104 247.939 465.045 254.452 464.596 261.036Z" fill="#509DFF"/>
<path d="M342.283 89.9543C342.138 94.8163 339.932 99.6557 335.947 102.468C330.52 106.299 322.6 106.77 318.889 112.288C315.799 116.904 317.05 123.034 316.356 128.549C315.893 132.291 314.461 135.913 312.235 138.953C309.9 142.152 306.755 144.669 303.658 147.145C297.057 152.41 290.518 157.737 283.979 163.072C279.541 166.697 272.514 171.604 266.849 167.49C265.563 166.558 264.576 165.261 264.009 163.785C262.409 159.726 264.308 156.18 266.407 153.065C267.861 150.895 269.475 148.777 270.269 146.297C271.064 143.817 270.874 140.82 269.047 138.961C267.732 137.642 265.848 137.12 264.046 136.7C259.012 135.535 253.873 134.801 248.714 134.515C246.169 134.363 244.348 136.937 245.362 139.289C245.798 140.306 246.109 141.347 246.158 142.416C246.298 144.894 247.657 148.441 246.04 150.602C245.208 151.708 243.85 152.318 242.484 152.566C239.996 153.02 238.188 151.704 235.902 151.108C233.131 150.403 230.536 149.195 227.78 148.417C221.062 146.522 212.837 148.748 209.554 154.898C206.284 161.049 210.652 170.355 217.613 170.269C224.103 170.185 229.674 162.961 235.861 164.907C238.857 165.857 240.848 168.845 241.505 171.917C242.163 175.002 241.726 178.186 241.284 181.303C240.334 188.006 239.216 195.072 234.911 200.298C231.73 204.163 227.157 206.549 222.77 208.949C217.335 211.915 209.538 214.948 205.116 219.31C201.213 223.158 200.732 232.802 199.415 238.262C198.817 240.767 198.192 243.335 196.638 245.391C195.094 247.437 192.378 248.832 189.928 248.05C186.299 246.88 185.329 241.977 182.099 239.935C179.238 238.129 175.42 239.096 172.447 240.726C169.119 242.551 166.114 245.287 164.785 248.848C163.446 252.41 164.087 256.842 166.956 259.342C171.482 263.27 179.355 261.239 183.492 265.57C186.973 269.22 186.611 276.314 191.354 278.02C199.14 280.809 205.878 271.428 214.011 272.98C218.062 273.75 221.697 277.234 225.73 276.335C229.539 275.497 232.375 270.895 236.295 272.294C237.356 272.663 238.212 273.465 238.794 274.416C240.26 276.873 240.061 279.646 240.285 282.329C241.016 291.244 246.758 299.565 254.821 303.428C258.87 305.359 263.353 306.203 267.455 308.007C271.556 309.811 275.49 312.943 276.42 317.327C277.3 321.481 275.305 325.634 273.38 329.419C272.063 331.995 270.749 334.561 269.432 337.138C265.975 343.912 262.508 350.697 259.04 357.482C251.219 372.781 246.285 392.235 253.459 407.851C253.613 408.179 253.754 408.508 253.918 408.836C251.432 408.13 248.983 407.359 246.549 406.536C239.889 404.294 233.434 401.639 227.2 398.615C226.065 390.957 226.358 383.099 225.512 375.396C223.765 359.479 216.987 344.164 206.384 332.165C202.044 327.252 196.949 322.681 194.6 316.563C192.325 310.659 193.007 303.718 196.376 298.375C198.319 295.283 195.268 290.005 191.933 288.518C188.601 287.019 184.804 287.033 181.284 286.071C175.887 284.606 171.333 280.928 167.577 276.789C163.81 272.65 160.685 267.971 157.001 263.76C153.298 259.504 149.044 255.736 144.391 252.557C141.907 250.864 139.019 249.285 136.054 249.807C135.366 249.924 134.725 250.145 134.122 250.454C134.106 246.514 134.233 242.553 134.503 238.565C140.711 147.407 219.637 78.5551 310.795 84.7626C321.633 85.4978 332.166 87.2673 342.283 89.9543Z" fill="#1C7DC6"/>
<g opacity="0.2">
<path d="M198.605 125.723C194.39 128.004 189.334 131.193 186.305 134.906C173.837 150.19 163.255 164.571 155.687 182.786C152.501 190.456 148.403 197.751 145.689 205.603C143.903 210.772 140.717 227.432 140.839 229.067C140.962 230.701 143.997 232.993 145.572 233.439C147.524 233.992 149.511 232.452 150.451 230.656C151.393 228.86 151.667 226.785 152.501 224.936C153.334 223.086 155.061 221.354 157.078 221.553C158.624 221.704 159.814 222.912 161.031 223.877C162.249 224.842 163.955 225.624 165.301 224.85C167.037 223.85 166.747 221.19 167.965 219.601C169.302 217.858 171.944 217.952 174.074 218.487C176.204 219.021 178.5 219.818 180.515 218.947C183.768 217.545 184.216 212.756 187.278 210.975C189.715 209.557 192.771 210.573 195.591 210.567C200.203 210.555 204.276 207.735 208.012 205.029C212.929 201.468 217.844 197.908 222.761 194.347C224.179 193.321 225.766 191.9 225.448 190.179C225.197 188.811 223.738 187.935 222.35 187.873C220.961 187.812 219.628 188.371 218.352 188.926C214.737 190.497 211.059 192.129 207.135 192.495C203.211 192.862 198.915 191.727 196.477 188.631C195.195 187.003 194.517 184.969 193.268 183.314C192.021 181.66 189.797 180.39 187.904 181.234C192.885 177.451 193.029 168.876 188.177 164.927C185.4 162.666 181.32 161.677 179.825 158.423C178.338 155.191 180.241 151.419 182.535 148.701C186.371 144.155 191.48 140.693 197.127 138.815C200.979 137.535 205.163 136.933 208.507 134.631C210.998 132.917 214.778 127.265 211.344 124.746C207.985 122.278 201.843 123.969 198.605 125.723Z" fill="white"/>
</g>
<g opacity="0.2">
<path d="M282.794 121.52C281.684 122.587 280.642 123.765 280.005 125.166C279.368 126.566 279.173 128.227 279.765 129.647C280.857 132.262 284.091 133.196 286.921 133.313C290.839 133.474 294.865 132.663 298.169 130.55C301.472 128.436 303.973 124.936 304.427 121.043C304.689 118.8 304.282 115.761 302.693 114.012C301.286 112.466 298.001 113.656 296.178 114.119C291.185 115.388 286.513 117.946 282.794 121.52Z" fill="white"/>
</g>
<g opacity="0.2">
<path d="M235.912 112.384C235.357 113.572 234.88 114.862 235.021 116.167C235.162 117.471 236.1 118.772 237.405 118.923C238.529 119.054 239.586 118.327 240.326 117.469C241.065 116.611 241.616 115.593 242.431 114.809C245.237 112.109 250.504 112.73 252.55 109.416C253.511 107.86 253.535 105.685 254.993 104.583C256.419 103.508 258.59 103.983 260.023 102.92C261.152 102.082 261.477 100.405 260.908 99.121C258.934 94.6687 254.111 97.5502 251.114 98.5763C246.719 100.079 242.937 102.691 239.902 106.221C238.302 108.083 236.95 110.16 235.912 112.384Z" fill="white"/>
</g>
<path d="M464.388 261.021C463.87 268.622 462.848 276.066 461.345 283.326C461.121 283.058 460.921 282.771 460.734 282.472C459.028 279.669 459.432 276.142 459.061 272.879C458.486 267.804 455.784 263.014 451.739 259.885C447.707 256.77 442.382 255.353 437.319 256.074C435.159 256.377 433.019 257.052 430.835 256.882C428.052 256.672 425.58 255.109 423.274 253.538C420.978 251.978 418.613 250.302 415.858 249.819C413.116 249.336 409.87 250.431 408.838 253.026C407.886 255.418 409.153 258.214 411.066 259.946C412.977 261.689 415.422 262.668 417.685 263.919C419.588 264.97 423.225 267.303 423.008 269.855C422.787 272.296 419.227 273.996 417.229 274.508C414.394 275.214 411.384 275.108 408.621 276.06C405.858 277.002 403.257 279.589 403.763 282.466C404.289 285.52 407.867 287.123 408.987 290.007C410.491 293.861 407.073 297.83 403.646 300.13C400.21 302.43 396.073 304.683 395.174 308.723C393.978 314.028 399.212 319.344 397.713 324.585C396.906 327.416 394.295 329.355 391.62 330.611C388.958 331.856 386.042 332.634 383.584 334.254C381.126 335.874 379.103 338.678 379.574 341.584C380.236 345.721 385.358 348 386.031 352.127C386.726 356.419 382.38 359.667 378.603 361.824C373.547 364.706 368.503 367.587 363.446 370.467C360.216 372.31 356.641 374.216 352.989 373.551C348.979 372.828 346.036 368.996 345.323 364.988C344.609 360.968 345.712 356.841 347.308 353.089C348.942 349.229 351.103 345.516 351.703 341.377C352.303 337.238 350.812 332.386 346.976 330.709C344.867 329.775 342.219 329.859 340.631 328.192C338.942 326.431 339.276 323.623 339.724 321.229C340.742 315.781 341.578 310.78 342.073 305.262C342.378 301.906 339.577 298.576 336.216 298.314C333.041 298.053 330.213 300.12 327.538 301.859C324.864 303.595 321.48 305.121 318.601 303.751C316.231 302.625 315.089 299.925 314.36 297.396C313.643 294.867 313.051 292.129 311.181 290.279C309.844 288.971 308.025 288.287 306.401 287.342C300.302 283.779 297.341 276.699 294.783 270.117C293.466 266.748 292.151 263.004 293.445 259.627C294.22 257.605 295.84 256.037 297.412 254.531C300.697 251.398 303.995 248.254 307.28 245.121C309.111 243.38 310.939 241.629 312.963 240.111C318.757 235.745 325.824 233.439 332.831 231.557C337.189 230.383 342.393 229.519 345.776 232.515C347.689 234.215 348.524 236.773 349.608 239.083C350.691 241.396 352.373 243.759 354.885 244.236C356.337 244.511 357.814 244.095 359.235 243.677C364.058 242.282 368.867 240.779 373.717 239.474C377.08 238.584 379.787 238.307 379.443 233.853C379.224 230.94 376.914 228.315 374.057 227.727C369.979 226.879 365.873 229.824 361.771 229.161C356.149 228.262 353.452 221.321 348.123 219.334C344.025 217.815 339.47 219.601 335.661 221.755C331.85 223.91 328.053 226.525 323.68 226.775C319.32 227.017 314.399 223.566 315.087 219.244C315.531 216.422 318.124 214.438 320.696 213.219C323.281 211.99 326.136 211.155 328.243 209.213C331.215 206.487 332.042 202.221 333.259 198.375C334.485 194.521 336.787 190.388 340.744 189.616C345.569 188.672 349.964 193.249 354.879 193.069C359.399 192.905 362.723 188.875 365.091 185.032C366.842 182.19 368.415 179.247 369.815 176.226C371.153 173.345 372.349 170.123 371.493 167.059C370.637 164.006 366.813 161.673 364.179 163.445C362.293 164.71 361.908 167.317 362.072 169.576C362.248 171.837 362.78 174.166 362.084 176.324C361.32 178.676 359.176 180.371 356.858 181.223C354.529 182.073 352.018 182.21 349.552 182.327C346.216 182.495 342.163 182.274 340.551 179.355C338.884 176.302 341.106 172.656 343.247 169.918C351.195 159.676 359.735 148.99 371.786 144.216C374.559 143.122 377.639 142.367 380.514 143.143C383.392 143.909 385.927 146.637 385.581 149.598C385.392 151.243 384.407 152.666 383.861 154.231C383.326 155.795 383.426 157.853 384.852 158.697C386.718 159.801 388.907 157.954 390.293 156.27C394.993 150.556 399.696 144.832 404.406 139.118C406.427 136.657 408.553 134.113 411.461 132.819C412.627 132.294 414.056 132.086 415.602 132.092C428.554 144.898 439.365 159.797 447.529 176.195C448.667 178.489 449.749 180.812 450.785 183.152C457.335 197.98 461.746 213.903 463.675 230.523C464.097 234.15 464.398 237.801 464.574 241.488C464.896 247.925 464.836 254.437 464.388 261.021Z" fill="#1C7DC6"/>
<g opacity="0.2">
<path d="M381.123 175.384C380.935 181.717 373.25 186.378 374.154 192.649C374.51 195.129 376.165 197.865 374.684 199.887C373.312 201.761 370.453 201.281 368.192 200.747C359.625 198.717 350.573 198.766 342.027 200.886C339.491 201.515 336.614 202.717 336.018 205.261C335.457 207.659 337.439 210.09 339.796 210.792C342.154 211.495 344.705 210.878 347.001 209.992C349.297 209.105 351.519 207.941 353.942 207.513C361.634 206.149 369.382 212.388 376.921 210.346C381.735 209.043 385.289 204.093 384.981 199.115C384.834 196.71 383.896 194.298 384.439 191.949C384.904 189.938 386.417 188.297 388.178 187.222C389.94 186.145 391.947 185.557 393.927 184.977C400.583 183.036 407.239 181.092 413.895 179.151C416.068 178.516 418.296 177.856 420.096 176.484C422.818 174.412 424.219 170.748 423.596 167.383C422.976 164.018 420.371 161.104 417.104 160.088C414.29 159.213 411.216 159.691 408.435 160.668C405.654 161.642 403.067 163.094 400.348 164.229C396.538 165.82 392.469 166.785 388.35 167.074C385.932 167.244 382.884 167.059 381.127 165.149C379.782 163.686 380.226 159.338 377.336 159.832C374.379 160.336 377.115 165.071 377.904 166.582C379.345 169.345 381.219 172.138 381.123 175.384Z" fill="white"/>
</g>
<g opacity="0.2">
<path d="M259.035 357.48C251.214 372.779 246.28 392.233 253.454 407.849C253.608 408.177 253.749 408.506 253.913 408.834C251.427 408.127 248.977 407.357 246.544 406.534C245.108 405.69 243.787 404.656 242.647 403.505C235.532 396.339 233.234 384.817 237.064 375.468C238.895 370.975 241.983 367.016 243.29 362.342C245.209 355.418 242.942 348.123 241.367 341.115C239.399 332.315 239.153 321.909 247.937 316.801C252.666 314.063 266.576 313.244 265.365 322.013C264.96 324.915 261.955 326.982 261.691 329.904C261.396 333.273 264.835 335.767 268.058 336.755C268.509 336.894 268.974 337.015 269.426 337.133C265.971 343.912 262.502 350.695 259.035 357.48Z" fill="white"/>
</g>
<g opacity="0.2">
<path d="M236.018 318.665C235.217 320.278 234.427 321.892 233.626 323.504C233.016 324.747 232.379 326.019 231.381 326.971C230.384 327.934 228.928 328.538 227.593 328.151C225.496 327.547 224.734 325.015 224.433 322.857C224.142 320.686 223.763 318.181 221.862 317.108C218.862 315.423 215.358 318.859 211.934 318.55C210.047 318.378 208.407 317.026 207.51 315.363C206.615 313.69 206.363 311.753 206.371 309.854C206.382 304.226 208.573 298.629 212.386 294.488C213.795 292.96 215.421 291.633 217.185 290.548C222.608 291.289 229.462 294.4 229.583 298.095C229.659 300.194 228.912 302.328 229.397 304.378C230.05 307.175 232.707 308.947 234.716 311.015C236.716 313.086 238.074 316.656 236.018 318.665Z" fill="white"/>
</g>
<g opacity="0.2">
<path d="M248.295 165.05C248.748 172.534 253.057 179.308 253.941 186.753C254.466 191.17 253.761 195.633 253.059 200.026C252.391 204.196 251.725 208.363 251.058 212.533C250.64 215.142 250.167 217.882 248.504 219.935C246.546 222.351 243.29 223.34 240.185 223.539C237.08 223.738 233.963 223.281 230.856 223.424C220.899 223.887 211.622 231.174 208.814 240.738C208.087 243.212 207.782 245.954 208.834 248.308C209.887 250.661 212.648 252.379 215.089 251.552C218.14 250.517 218.957 246.557 221.37 244.423C223.793 242.278 227.383 242.307 230.615 242.454C235.966 242.698 241.582 243.022 246.139 245.838C250.042 248.25 252.85 252.324 257.079 254.105C261.238 255.859 266.395 254.91 269.662 251.795C272.926 248.68 274.114 243.573 272.56 239.335C271.19 235.604 267.876 231.95 269.285 228.233C271.089 223.476 278.728 223.908 281.376 219.562C283.975 215.298 280.09 209.465 282.077 204.886C284.379 199.586 292.694 199.592 295.563 194.574C298.047 190.228 294.742 184.461 290.207 182.339C285.673 180.218 280.43 180.601 275.425 180.623C270.418 180.644 264.964 180.07 261.349 176.607C258.504 173.881 257.351 169.884 256.313 166.082C255.735 163.965 254.929 156.186 251.994 156.457C248.971 156.737 248.168 162.947 248.295 165.05Z" fill="white"/>
</g>
<g opacity="0.2">
<path d="M278.481 237.453C279.49 238.78 281.444 238.954 283.072 238.594C286.253 237.889 289.003 235.469 290.165 232.431C291.082 230.029 291.107 226.478 288.1 225.706C283.318 224.475 275.159 233.093 278.481 237.453Z" fill="white"/>
</g>
<g opacity="0.2">
<path d="M303.637 179.689C302.853 181.035 302.334 182.819 303.244 184.082C304.147 185.34 306.084 185.409 307.456 184.691C308.829 183.972 309.787 182.68 310.768 181.481C311.749 180.283 312.972 177.816 314.467 177.42C316.552 176.869 318.821 179.263 320.775 178.35C322.407 177.586 323.158 175.462 322.589 173.752C319.759 165.253 305.941 175.743 303.637 179.689Z" fill="white"/>
</g>
<g opacity="0.2">
<path d="M321.33 141.435C320.711 143.36 320.322 145.43 320.775 147.401C321.227 149.371 322.683 151.212 324.662 151.626C326.835 152.08 329.034 150.741 330.409 148.998C331.783 147.255 332.563 145.129 333.634 143.186C334.705 141.242 336.221 139.36 338.349 138.729C340.958 137.957 344.626 139.073 345.932 135.924C347.126 133.042 344.745 130.097 342.68 128.368C337.257 123.83 331.076 127.349 326.962 131.83C324.43 134.586 322.475 137.869 321.33 141.435Z" fill="white"/>
</g>
<g opacity="0.2">
<path d="M351.622 116.652C352.652 118.206 352.3 120.246 352.183 122.108C352.066 123.969 352.486 126.222 354.214 126.925C355.763 127.553 357.561 126.492 358.421 125.059C359.281 123.625 359.478 121.909 359.853 120.279C360.231 118.626 360.881 117.061 362.306 116.058C363.688 115.085 365.562 115.173 366.187 113.314C367.133 110.496 363.301 107.344 361.092 106.25C358.872 105.15 356.559 105.343 354.216 105.908C352.003 106.44 346.391 107.344 345.068 109.199C342.379 112.97 350.237 114.565 351.622 116.652Z" fill="white"/>
</g>
<path d="M459.034 294.392C457.496 299.915 455.679 305.31 453.598 310.577C452.916 310.915 452.187 311.161 451.421 311.284C447.471 311.937 443.194 309.483 439.529 311.122C435.512 312.922 434.785 318.433 431.461 321.313C428.428 323.959 423.55 323.768 420.275 321.429C417.001 319.099 415.247 315.031 415.039 311.013C414.819 306.995 415.968 303.014 417.558 299.325C421.518 290.128 428.314 282.175 436.784 276.83L432.023 279.677C435.67 279.124 440.249 278.624 443.928 278.919C447.596 279.202 451.307 280.42 453.965 282.97C456.867 285.768 458.182 289.829 458.921 293.796C458.964 293.992 458.993 294.191 459.034 294.392Z" fill="#1C7DC6"/>
<g opacity="0.2">
<path d="M463.679 230.531C463.558 230.533 463.45 230.527 463.329 230.519C457.213 230.091 450.015 226.584 445.726 230.943C443.181 233.513 443.127 237.84 440.573 240.388C436.609 244.33 430.065 241.658 424.544 240.754C417.536 239.608 410.028 242.069 405.043 247.138C400.068 252.209 397.744 259.762 399.024 266.75C400.046 272.371 403.193 278.18 400.992 283.439C398.62 289.104 391.096 291.191 388.659 296.829C385.404 304.341 393.019 313.362 389.752 320.872C386.787 327.68 377.03 328.552 372.598 334.504C369.831 338.231 369.668 343.222 369.778 347.871C369.891 352.508 370.094 357.425 367.853 361.486C365.602 365.545 359.868 368.062 356.175 365.254C352.725 362.617 353.079 357.409 353.787 353.122C356.249 338.073 358.711 323.037 361.172 307.988C361.94 303.323 362.702 298.57 362.055 293.886C361.42 289.202 359.151 284.496 355.104 282.059C350.953 279.56 345.767 279.81 341.049 278.72C336.328 277.631 331.298 273.867 332.052 269.078C332.853 263.932 339.712 262.119 344.686 263.641C349.661 265.175 353.851 268.73 358.868 270.115C368.648 272.787 378.578 266.619 386.127 259.848C395.206 251.701 403.632 240.427 401.498 228.411C400.279 221.505 395.778 213.979 399.663 208.144C402.876 203.327 409.677 203.165 415.397 202.283C425.719 200.694 435.345 194.996 441.71 186.73C444.178 183.519 446.109 179.966 447.528 176.199C448.667 178.493 449.749 180.816 450.785 183.157C457.336 197.988 461.75 213.911 463.679 230.531Z" fill="white"/>
</g>
<path d="M443.885 356.669C439.122 356.669 433.742 356.157 427.893 355.148C427.258 355.039 426.83 354.435 426.94 353.798C427.049 353.163 427.655 352.731 428.29 352.846C434.36 353.892 439.867 354.392 444.739 354.326C444.746 354.326 444.75 354.326 444.754 354.326C445.393 354.326 445.913 354.839 445.921 355.48C445.929 356.125 445.413 356.655 444.768 356.663C444.477 356.667 444.182 356.669 443.885 356.669ZM411.767 351.416C411.662 351.416 411.558 351.402 411.451 351.373C406.366 349.952 400.97 348.232 395.411 346.259C394.803 346.044 394.486 345.377 394.701 344.768C394.916 344.16 395.587 343.843 396.192 344.058C401.699 346.01 407.044 347.714 412.08 349.123C412.7 349.297 413.065 349.942 412.889 350.562C412.748 351.078 412.279 351.416 411.767 351.416ZM380.162 340.314C380.014 340.314 379.863 340.285 379.717 340.226C374.72 338.164 369.541 335.897 364.323 333.488C363.737 333.218 363.481 332.523 363.751 331.938C364.022 331.352 364.714 331.094 365.302 331.366C370.489 333.763 375.64 336.015 380.608 338.067C381.204 338.313 381.489 338.997 381.243 339.593C381.055 340.042 380.621 340.314 380.162 340.314ZM349.722 326.304C349.544 326.304 349.366 326.263 349.196 326.179C344.303 323.711 339.3 321.09 334.321 318.384C333.754 318.077 333.543 317.366 333.852 316.801C334.162 316.234 334.87 316.025 335.436 316.332C340.392 319.025 345.375 321.636 350.247 324.092C350.822 324.383 351.054 325.085 350.763 325.661C350.56 326.068 350.15 326.304 349.722 326.304ZM320.268 310.321C320.069 310.321 319.867 310.27 319.682 310.163C314.919 307.403 310.069 304.507 305.269 301.558C304.72 301.22 304.548 300.501 304.884 299.952C305.221 299.401 305.942 299.231 306.491 299.569C311.275 302.508 316.107 305.394 320.854 308.144C321.413 308.468 321.601 309.182 321.28 309.74C321.063 310.112 320.669 310.321 320.268 310.321ZM291.711 292.784C291.492 292.784 291.272 292.723 291.076 292.596C286.435 289.587 281.733 286.458 277.1 283.298C276.568 282.933 276.431 282.206 276.793 281.674C277.156 281.141 277.885 281.004 278.417 281.367C283.033 284.516 287.721 287.633 292.346 290.634C292.886 290.984 293.04 291.709 292.69 292.25C292.469 292.598 292.094 292.784 291.711 292.784ZM264.026 273.902C263.79 273.902 263.553 273.83 263.346 273.682C258.787 270.416 254.234 267.074 249.815 263.75C249.301 263.363 249.196 262.629 249.583 262.113C249.97 261.597 250.704 261.495 251.22 261.882C255.625 265.195 260.163 268.528 264.706 271.784C265.23 272.159 265.351 272.89 264.976 273.414C264.749 273.732 264.39 273.902 264.026 273.902ZM237.248 253.747C236.994 253.747 236.738 253.665 236.523 253.495C232.106 249.999 227.721 246.44 223.492 242.911C222.996 242.498 222.931 241.762 223.342 241.267C223.756 240.771 224.493 240.705 224.989 241.117C229.204 244.632 233.572 248.181 237.973 251.662C238.479 252.064 238.565 252.797 238.166 253.303C237.934 253.596 237.594 253.747 237.248 253.747ZM211.519 232.274C211.245 232.274 210.97 232.178 210.747 231.981C206.496 228.231 202.314 224.43 198.32 220.684C197.851 220.242 197.826 219.503 198.267 219.034C198.707 218.563 199.446 218.54 199.917 218.98C203.895 222.71 208.056 226.492 212.291 230.228C212.775 230.656 212.822 231.393 212.396 231.877C212.164 232.141 211.843 232.274 211.519 232.274ZM187.091 209.334C186.792 209.334 186.491 209.22 186.263 208.99C182.198 204.904 178.293 200.819 174.649 196.843C174.213 196.368 174.246 195.629 174.721 195.193C175.196 194.759 175.935 194.789 176.372 195.264C179.99 199.215 183.875 203.278 187.918 207.342C188.373 207.798 188.371 208.538 187.914 208.994C187.689 209.22 187.39 209.334 187.091 209.334ZM164.493 184.596C164.157 184.596 163.823 184.451 163.592 184.173C159.832 179.624 156.363 175.145 153.284 170.861C152.91 170.336 153.028 169.607 153.553 169.23C154.077 168.856 154.806 168.972 155.183 169.499C158.23 173.74 161.665 178.178 165.392 182.684C165.804 183.181 165.734 183.917 165.237 184.328C165.019 184.508 164.757 184.596 164.493 184.596ZM145.111 157.299C144.705 157.299 144.312 157.088 144.097 156.711C140.957 151.241 138.533 146.082 136.886 141.375C136.673 140.767 136.995 140.1 137.603 139.887C138.213 139.674 138.879 139.995 139.092 140.603C140.689 145.172 143.055 150.2 146.123 155.546C146.444 156.105 146.25 156.819 145.69 157.141C145.51 157.25 145.309 157.299 145.111 157.299Z" fill="black"/>
<path d="M135.581 125.774C135.532 125.774 135.483 125.772 135.431 125.764C134.792 125.682 134.338 125.098 134.42 124.457C134.829 121.244 135.89 118.391 137.574 115.982C137.942 115.454 138.671 115.325 139.2 115.693C139.728 116.062 139.857 116.791 139.488 117.32C138.022 119.417 137.098 121.915 136.736 124.75C136.662 125.342 136.16 125.774 135.581 125.774Z" fill="black"/>
<path d="M100.832 327.451C100.357 327.451 99.9106 327.158 99.7365 326.687C98.7228 323.94 98.0654 321.038 97.7827 318.063C97.7213 317.42 98.1923 316.85 98.8354 316.789C99.4621 316.723 100.048 317.198 100.109 317.841C100.373 320.616 100.986 323.32 101.93 325.878C102.153 326.484 101.844 327.154 101.238 327.379C101.105 327.426 100.967 327.451 100.832 327.451Z" fill="black"/>
<path d="M101.062 302.062C100.946 302.062 100.825 302.043 100.708 302.006C100.094 301.81 99.7537 301.152 99.9503 300.538C101.576 295.438 104.077 290.095 107.378 284.658C107.714 284.107 108.433 283.933 108.984 284.267C109.535 284.602 109.711 285.319 109.377 285.872C106.172 291.152 103.749 296.325 102.179 301.251C102.017 301.744 101.558 302.062 101.062 302.062ZM118.479 272.404C118.216 272.404 117.952 272.316 117.733 272.136C117.237 271.725 117.168 270.987 117.579 270.492C121.075 266.275 125.053 261.97 129.396 257.696C129.857 257.245 130.595 257.249 131.049 257.71C131.502 258.171 131.496 258.91 131.035 259.363C126.746 263.582 122.824 267.829 119.378 271.985C119.148 272.259 118.814 272.404 118.479 272.404ZM143.022 248.054C142.69 248.054 142.36 247.912 142.129 247.64C141.713 247.147 141.775 246.411 142.268 245.993C146.53 242.393 151.113 238.762 155.887 235.201C156.403 234.815 157.137 234.922 157.522 235.438C157.907 235.956 157.8 236.687 157.284 237.072C152.547 240.605 148 244.208 143.775 247.777C143.556 247.964 143.288 248.054 143.022 248.054ZM170.727 227.328C170.35 227.328 169.982 227.146 169.754 226.81C169.396 226.273 169.539 225.548 170.076 225.19C174.764 222.054 179.689 218.917 184.721 215.867C185.268 215.534 185.989 215.708 186.325 216.261C186.659 216.812 186.484 217.53 185.931 217.866C180.93 220.899 176.033 224.016 171.376 227.133C171.176 227.265 170.95 227.328 170.727 227.328ZM200.306 209.363C199.895 209.363 199.497 209.146 199.284 208.761C198.971 208.196 199.176 207.485 199.741 207.174C204.722 204.419 209.881 201.691 215.079 199.062C215.654 198.771 216.357 199 216.647 199.576C216.938 200.151 216.707 200.854 216.131 201.144C210.96 203.76 205.826 206.475 200.87 209.216C200.691 209.316 200.499 209.363 200.306 209.363ZM231.184 193.726C230.744 193.726 230.322 193.475 230.123 193.049C229.853 192.463 230.107 191.769 230.693 191.498C235.88 189.096 241.215 186.731 246.55 184.467C247.146 184.216 247.83 184.492 248.082 185.086C248.334 185.68 248.058 186.366 247.464 186.618C242.151 188.871 236.841 191.226 231.676 193.618C231.516 193.692 231.35 193.726 231.184 193.726ZM263.049 180.21C262.58 180.21 262.14 179.925 261.959 179.462C261.726 178.86 262.025 178.184 262.627 177.951C265.314 176.91 268.044 175.878 270.739 174.883C273.447 173.883 276.191 172.894 278.892 171.944C279.503 171.729 280.168 172.05 280.381 172.659C280.594 173.267 280.275 173.935 279.666 174.148C276.975 175.094 274.243 176.079 271.546 177.074C268.861 178.065 266.143 179.094 263.467 180.13C263.332 180.185 263.188 180.21 263.049 180.21ZM295.696 168.731C295.2 168.731 294.74 168.413 294.582 167.916C294.387 167.301 294.727 166.644 295.342 166.449C300.859 164.702 306.45 163.033 311.961 161.485C312.582 161.311 313.227 161.673 313.401 162.294C313.575 162.914 313.213 163.559 312.592 163.734C307.108 165.274 301.539 166.937 296.046 168.675C295.932 168.712 295.813 168.731 295.696 168.731ZM481.573 161.522C481.364 161.522 481.151 161.466 480.958 161.348C476.561 158.626 471.355 156.269 465.483 154.341C464.871 154.141 464.537 153.479 464.738 152.867C464.939 152.254 465.6 151.923 466.213 152.121C472.26 154.108 477.636 156.543 482.187 159.361C482.736 159.701 482.906 160.42 482.566 160.969C482.345 161.325 481.964 161.522 481.573 161.522ZM329.017 159.386C328.491 159.386 328.014 159.027 327.882 158.495C327.729 157.868 328.114 157.235 328.741 157.084C334.405 155.701 340.099 154.421 345.667 153.278C346.294 153.147 346.917 153.555 347.048 154.188C347.177 154.821 346.769 155.437 346.138 155.566C340.598 156.705 334.932 157.977 329.296 159.353C329.201 159.373 329.109 159.386 329.017 159.386ZM362.92 152.443C362.358 152.443 361.863 152.037 361.769 151.464C361.664 150.827 362.096 150.227 362.733 150.123C368.531 149.172 374.313 148.353 379.92 147.687C380.565 147.61 381.143 148.068 381.219 148.709C381.294 149.35 380.838 149.932 380.197 150.008C374.626 150.669 368.877 151.482 363.112 152.427C363.045 152.439 362.981 152.443 362.92 152.443ZM449.052 150.307C448.987 150.307 448.919 150.301 448.852 150.288C443.531 149.371 437.792 148.695 431.79 148.275C431.147 148.23 430.661 147.673 430.706 147.028C430.751 146.385 431.302 145.902 431.954 145.945C438.034 146.369 443.853 147.057 449.251 147.986C449.886 148.095 450.314 148.701 450.203 149.336C450.105 149.905 449.611 150.307 449.052 150.307ZM397.283 148.408C396.675 148.408 396.161 147.935 396.118 147.319C396.075 146.676 396.562 146.119 397.205 146.076C403.144 145.678 408.985 145.457 414.568 145.422C414.57 145.422 414.574 145.422 414.576 145.422C415.217 145.422 415.742 145.941 415.744 146.584C415.748 147.229 415.228 147.755 414.582 147.759C409.047 147.794 403.253 148.011 397.361 148.406C397.336 148.406 397.31 148.408 397.283 148.408Z" fill="black"/>
<path d="M498.269 180.673C497.794 180.673 497.348 180.38 497.173 179.909C496.229 177.353 494.939 174.901 493.333 172.62C492.963 172.091 493.09 171.364 493.618 170.992C494.144 170.621 494.874 170.746 495.244 171.276C496.965 173.724 498.351 176.355 499.365 179.1C499.588 179.706 499.279 180.376 498.673 180.601C498.539 180.65 498.402 180.673 498.269 180.673Z" fill="black"/>
<path d="M170.938 132.832C174.872 114.86 163.885 97.1888 146.4 93.362C128.914 89.5352 111.551 101.002 107.618 118.973C103.685 136.945 114.671 154.616 132.156 158.443C149.642 162.27 167.005 150.803 170.938 132.832Z" fill="#F57F35"/>
<path d="M142.437 158.056C160.336 158.056 174.847 143.546 174.847 125.647C174.847 107.747 160.336 93.2371 142.437 93.2371C124.538 93.2371 110.027 107.747 110.027 125.647C110.027 143.546 124.538 158.056 142.437 158.056Z" fill="#FFCD3B"/>
<path d="M166.439 126.179C166.166 138.435 156.752 148.349 144.853 149.533C143.886 149.631 142.903 149.67 141.906 149.649C128.653 149.357 118.143 138.369 118.436 125.116C118.729 111.864 129.716 101.353 142.969 101.646C143.505 101.659 144.036 101.687 144.562 101.734C157.061 102.832 166.721 113.461 166.439 126.179Z" fill="#F57F35"/>
<g opacity="0.1">
<path d="M166.437 126.179C166.165 138.434 156.75 148.349 144.851 149.533C145.169 149.334 145.494 149.131 145.826 148.924C186.282 123.82 144.562 101.736 144.562 101.736C157.059 102.832 166.72 113.461 166.437 126.179Z" fill="black"/>
</g>
<path d="M142.448 150.434C142.261 150.434 142.079 150.432 141.891 150.428L141.925 148.871C142.1 148.875 142.274 148.877 142.448 148.877C155.018 148.877 165.383 138.795 165.664 126.165C165.948 113.361 155.76 102.711 142.956 102.427L142.99 100.87C156.655 101.173 167.523 112.536 167.22 126.2C166.919 139.674 155.86 150.432 142.448 150.434Z" fill="black"/>
<path d="M143.646 113.645L143.705 115.96L143.761 115.958C144.637 115.935 145.641 116.06 146.771 116.332C148.25 116.689 148.997 117.172 149.014 117.782C149.034 118.585 148.637 118.997 147.826 119.017C147.461 119.026 146.818 118.946 145.895 118.772C144.973 118.6 144.266 118.524 143.773 118.544L143.914 124.117C145.936 124.248 147.531 124.871 148.7 125.983C149.767 127.015 150.32 128.278 150.359 129.775C150.406 131.608 149.81 133.144 148.571 134.381C147.478 135.469 146.03 136.204 144.23 136.587L144.322 140.228C144.33 140.585 144.221 140.882 143.996 141.119C143.769 141.359 143.478 141.482 143.122 141.492C142.317 141.513 141.907 141.121 141.887 140.319L141.799 136.829C137.344 136.878 135.087 135.78 135.032 133.534C135.012 132.712 135.38 132.292 136.138 132.274C136.566 132.264 136.98 132.422 137.383 132.749C137.979 133.237 138.43 133.554 138.735 133.702C139.474 134.048 140.476 134.232 141.735 134.257L141.539 126.495L141.43 126.497C140.015 126.478 138.782 126.163 137.735 125.548C136.437 124.797 135.771 123.722 135.737 122.325C135.704 121.076 136.259 119.882 137.4 118.749C138.45 117.7 139.747 116.922 141.285 116.418L141.219 113.791C141.211 113.435 141.324 113.135 141.559 112.892C141.795 112.648 142.092 112.523 142.446 112.513C143.222 112.49 143.625 112.869 143.646 113.645ZM141.467 123.959L141.342 119.044C139.544 119.773 138.661 120.856 138.698 122.288C138.723 123.175 139.646 123.732 141.467 123.959ZM143.978 126.785L144.158 133.904C145.118 133.552 145.913 133.048 146.544 132.393C147.246 131.645 147.586 130.847 147.566 129.997C147.525 128.409 146.329 127.338 143.978 126.785Z" fill="white"/>
<path d="M456.875 363.122C461.203 343.346 449.113 323.901 429.872 319.69C410.631 315.479 391.524 328.097 387.196 347.873C382.868 367.649 394.957 387.094 414.199 391.305C433.44 395.516 452.547 382.898 456.875 363.122Z" fill="#F57F35"/>
<path d="M425.508 390.885C445.204 390.885 461.172 374.918 461.172 355.221C461.172 335.525 445.204 319.558 425.508 319.558C405.811 319.558 389.844 335.525 389.844 355.221C389.844 374.918 405.811 390.885 425.508 390.885Z" fill="#FFCD3B"/>
<path d="M395.005 193.784C395.005 249.625 328.873 294.543 328.873 294.543C328.873 294.543 262.727 249.625 262.727 193.784C262.727 157.264 292.339 127.652 328.873 127.652C365.393 127.652 395.005 157.266 395.005 193.784Z" fill="#FF4A60"/>
<path d="M328.866 239.841C354.422 239.841 375.139 219.125 375.139 193.569C375.139 168.013 354.422 147.296 328.866 147.296C303.311 147.296 282.594 168.013 282.594 193.569C282.594 219.125 303.311 239.841 328.866 239.841Z" fill="#EF2043"/>
<path d="M328.865 232.86C350.565 232.86 368.156 215.268 368.156 193.569C368.156 171.869 350.565 154.278 328.865 154.278C307.165 154.278 289.574 171.869 289.574 193.569C289.574 215.268 307.165 232.86 328.865 232.86Z" fill="white"/>
<path d="M329.57 213.346L328.515 220.238C328.208 222.185 327.01 223.16 324.919 223.16C324.09 223.16 323.479 222.872 323.092 222.292C322.703 221.712 322.574 221.028 322.699 220.238L323.645 214.118L322.591 214.174C319.578 214.34 316.905 214.008 314.568 213.18C312.234 212.353 311.066 211.214 311.066 209.762C311.066 208.679 311.445 207.677 312.203 206.758C312.961 205.838 314.222 205.38 315.99 205.38C316.766 205.38 317.964 205.646 319.588 206.178C321.321 206.692 322.429 206.95 322.916 206.95C323.404 206.95 324.008 206.914 324.729 206.84L326.621 194.712C323.338 194.49 320.647 193.733 318.546 192.438C316.444 191.142 315.394 189.485 315.394 187.464C315.394 184.652 316.782 181.85 319.559 179.057C322.337 176.263 325.816 174.234 330.002 172.966L330.731 168.417C331.073 166.267 332.22 165.192 334.168 165.192C336.079 165.192 336.873 166.267 336.548 168.417L335.98 172.083C338.09 172.194 340.322 172.685 342.675 173.558C345.028 174.43 346.206 175.446 346.206 176.603C346.206 177.523 345.768 178.428 344.893 179.319C344.019 180.21 343.005 180.656 341.85 180.656C340.93 180.656 339.749 180.464 338.307 180.077C337.045 179.8 335.88 179.618 334.817 179.526L333.492 187.988H334.059C336.783 187.988 339.396 188.838 341.905 190.538C344.412 192.238 345.665 194.798 345.665 198.214C345.665 205.93 340.3 210.975 329.57 213.346ZM328.839 180.709C325.431 181.959 323.725 183.484 323.725 185.285C323.725 186.552 325.06 187.361 327.729 187.711L328.839 180.709ZM330.787 205.435C335.35 204.315 337.631 202.256 337.631 199.26C337.631 196.725 335.898 195.283 332.437 194.933L330.787 205.435Z" fill="#FFCD3B"/>
</g>
<defs>
<radialGradient id="paint0_radial_6057_60286" cx="0" cy="0" r="1" gradientUnits="userSpaceOnUse" gradientTransform="translate(300.001 154) rotate(90) scale(160 442.387)">
<stop stop-color="#E1E4EA"/>
<stop offset="1" stop-color="#E1E4EA" stop-opacity="0"/>
</radialGradient>
<clipPath id="clip0_6057_60286">
<rect width="600" height="320" fill="white"/>
</clipPath>
</defs>
</svg>
