<svg width="620" height="696" viewBox="0 0 620 696" fill="none" xmlns="http://www.w3.org/2000/svg">
<path opacity="0.05" d="M696 348C696 416.828 675.59 484.11 637.351 541.338C599.113 598.567 544.763 643.171 481.174 669.51C417.585 695.849 347.614 702.741 280.109 689.313C212.603 675.886 150.596 642.742 101.927 594.073C53.2582 545.404 20.1144 483.397 6.68672 415.891C-6.74093 348.386 0.150627 278.415 26.4899 214.826C52.8292 151.237 97.4333 96.8873 154.662 58.6486C211.89 20.4098 279.172 -8.20764e-07 348 0V102.18C299.381 102.18 251.854 116.597 211.43 143.608C171.005 170.619 139.497 209.011 120.892 253.929C102.286 298.846 97.4179 348.273 106.903 395.957C116.388 443.642 139.8 487.443 174.179 521.821C208.557 556.2 252.358 579.612 300.043 589.097C347.727 598.582 397.154 593.714 442.071 575.108C486.989 556.503 525.381 524.995 552.392 484.57C579.403 444.146 593.82 396.619 593.82 348H696Z" fill="url(#paint0_linear_6051_55232)"/>
<defs>
<linearGradient id="paint0_linear_6051_55232" x1="348" y1="0" x2="348" y2="696" gradientUnits="userSpaceOnUse">
<stop stop-color="white" stop-opacity="0"/>
<stop offset="1" stop-color="#0040C2"/>
</linearGradient>
</defs>
</svg>
