<svg width="520" height="386" viewBox="0 0 520 386" fill="none" xmlns="http://www.w3.org/2000/svg">
<path opacity="0.05" d="M0.117188 259.507C0.117188 208.183 15.3366 158.011 43.8508 115.337C72.3651 72.6623 112.893 39.4015 160.311 19.7606C207.728 0.119629 259.905 -5.01935 310.243 4.99353C360.581 15.0064 406.82 39.7214 443.111 76.0131C479.403 112.305 504.118 158.543 514.131 208.881C524.144 259.219 519.005 311.396 499.364 358.814C479.723 406.231 446.462 446.759 403.788 475.274C361.113 503.788 310.941 519.007 259.617 519.007V442.813C295.872 442.813 331.312 432.062 361.456 411.92C391.601 391.779 415.096 363.15 428.97 329.655C442.844 296.161 446.474 259.304 439.401 223.746C432.328 188.188 414.87 155.526 389.234 129.891C363.598 104.255 330.936 86.7966 295.378 79.7238C259.821 72.6508 222.964 76.2809 189.469 90.1549C155.974 104.029 127.346 127.524 107.204 157.668C87.0621 187.813 76.3114 223.253 76.3115 259.507H0.117188Z" fill="url(#paint0_linear_6051_55379)"/>
<defs>
<linearGradient id="paint0_linear_6051_55379" x1="259.617" y1="430.507" x2="259.617" y2="0.00731139" gradientUnits="userSpaceOnUse">
<stop stop-color="white" stop-opacity="0"/>
<stop offset="1" stop-color="white"/>
</linearGradient>
</defs>
</svg>
