<svg width="241" height="48" viewBox="0 0 241 48" fill="none" xmlns="http://www.w3.org/2000/svg">
<g clip-path="url(#clip0_0_8701)">
<path fill-rule="evenodd" clip-rule="evenodd" d="M78.3441 44.864C89.867 44.864 99.2081 35.5229 99.2081 24C99.2081 12.4771 89.867 3.13599 78.3441 3.13599C70.5706 3.13599 63.7901 7.38714 60.2005 13.6914L69.4244 16.3749H70.3338C70.9872 15.4866 72.7009 14.1089 74.3279 15.7051L73.6312 16.7493C73.1768 18.302 74.4655 19.4231 76.6734 21.3427C76.9099 21.5483 77.1901 21.7075 77.5011 21.7463C79.0838 21.9434 80.9435 21.0815 82.9559 18.0898V20.2451C82.9559 21.0486 82.7488 21.9696 81.9109 23.556C84.7451 22.7473 85.8739 19.8425 86.7353 17.6259C86.9117 17.1721 87.0769 16.7472 87.2431 16.3749C87.8023 19.7611 87.4335 23.8773 84.324 27.7318C84.373 28.5177 84.2179 30.2163 83.8607 31.3827C83.2121 33.5006 81.6837 34.9546 78.6853 36.1209C78.7879 35.0649 78.0259 32.5763 75.9388 32.4653C73.9025 32.3569 72.3184 32.8799 70.8767 33.356C69.237 33.8975 67.7816 34.3781 66.0544 33.7996C67.0648 32.4339 66.5885 31.6318 66.0017 30.6437C65.4329 29.6858 64.7602 28.553 65.2382 26.5625C64.4939 27.1311 63.9875 28.7339 64.9975 31.9156C64.447 32.2402 62.5951 32.8396 61.0016 33.3553L61.0015 33.3553C60.6028 33.4844 60.2203 33.6082 59.8784 33.7211C63.3739 40.3473 70.3315 44.864 78.3441 44.864ZM74.7865 23.0357L72.0511 21.0031C72.0511 21.0031 71.7668 22.0859 72.8497 22.9027C73.9325 23.7196 74.7865 23.0357 74.7865 23.0357Z" fill="#EFEDFD"/>
<path d="M116.96 35.5V18.6001H119.707V22.5991H119.36C119.754 21.2313 120.438 20.1997 121.411 19.5042C122.385 18.7856 123.671 18.3683 125.271 18.2524L126.279 18.1481L126.488 20.5822L124.715 20.7909C123.138 20.93 121.921 21.44 121.063 22.3209C120.229 23.1786 119.812 24.3609 119.812 25.8678V35.5H116.96ZM131.38 41.7592L134.544 34.6307V35.8477L127.137 18.6001H130.197L136.248 33.4136H135.309L141.429 18.6001H144.385L134.335 41.7592H131.38ZM146.251 35.5V18.6001H148.998V22.3557H148.616C149.103 21.0111 149.891 20.0027 150.981 19.3304C152.093 18.6349 153.368 18.2872 154.806 18.2872C156.15 18.2872 157.263 18.5306 158.144 19.0174C159.048 19.4811 159.72 20.2113 160.161 21.2081C160.601 22.205 160.821 23.4568 160.821 24.9637V35.5H158.005V25.1375C158.005 24.0943 157.866 23.2366 157.587 22.5643C157.332 21.892 156.915 21.3936 156.336 21.069C155.779 20.7445 155.049 20.5822 154.145 20.5822C153.125 20.5822 152.232 20.8025 151.467 21.2429C150.702 21.6834 150.111 22.2977 149.694 23.0859C149.277 23.8741 149.068 24.8014 149.068 25.8678V35.5H146.251ZM171.996 35.813C170.35 35.813 168.925 35.4536 167.719 34.735C166.514 34.0163 165.575 33.0079 164.902 31.7097C164.253 30.3883 163.929 28.8351 163.929 27.0501C163.929 25.265 164.253 23.7234 164.902 22.4252C165.575 21.1038 166.514 20.0838 167.719 19.3652C168.925 18.6465 170.35 18.2872 171.996 18.2872C173.642 18.2872 175.068 18.6465 176.273 19.3652C177.479 20.0838 178.406 21.1038 179.055 22.4252C179.727 23.7234 180.064 25.265 180.064 27.0501C180.064 28.8351 179.727 30.3883 179.055 31.7097C178.406 33.0079 177.479 34.0163 176.273 34.735C175.068 35.4536 173.642 35.813 171.996 35.813ZM171.996 33.5527C173.596 33.5527 174.859 32.9963 175.786 31.8836C176.737 30.7476 177.212 29.1249 177.212 27.0153C177.212 24.9289 176.737 23.3293 175.786 22.2166C174.859 21.1038 173.596 20.5474 171.996 20.5474C170.42 20.5474 169.156 21.1038 168.206 22.2166C167.255 23.3293 166.78 24.9289 166.78 27.0153C166.78 29.1249 167.255 30.7476 168.206 31.8836C169.156 32.9963 170.42 33.5527 171.996 33.5527Z" fill="white"/>
</g>
<defs>
<clipPath id="clip0_0_8701">
<rect width="240.998" height="47" fill="white" transform="translate(0 0.5)"/>
</clipPath>
</defs>
</svg>
