<svg width="14" height="15" viewBox="0 0 14 15" fill="none" xmlns="http://www.w3.org/2000/svg">
<path d="M0 7.5C0 9.35652 0.737498 11.137 2.05025 12.4497C3.36301 13.7625 5.14348 14.5 7 14.5C8.85652 14.5 10.637 13.7625 11.9497 12.4497C13.2625 11.137 14 9.35652 14 7.5C14 5.64348 13.2625 3.86301 11.9497 2.55025C10.637 1.2375 8.85652 0.5 7 0.5C5.14348 0.5 3.36301 1.2375 2.05025 2.55025C0.737498 3.86301 0 5.64348 0 7.5ZM6.58984 10.8086C6.33281 11.0656 5.91719 11.0656 5.66289 10.8086C5.40859 10.5516 5.40586 10.1359 5.66289 9.88164L8.0418 7.50273L5.66289 5.12383C5.40586 4.8668 5.40586 4.45117 5.66289 4.19687C5.91992 3.94258 6.33555 3.93984 6.58984 4.19687L9.43359 7.03516C9.69063 7.29219 9.69063 7.70781 9.43359 7.96211L6.58984 10.8086Z" fill="white"/>
</svg>
