<svg width="124" height="47" viewBox="0 0 124 47" fill="none" xmlns="http://www.w3.org/2000/svg">
<path fill-rule="evenodd" clip-rule="evenodd" d="M19.6617 44.3639C31.1846 44.3639 40.5257 35.0228 40.5257 23.4999C40.5257 11.977 31.1846 2.63586 19.6617 2.63586C11.8878 2.63586 5.10685 6.88752 1.51742 13.1924L10.7376 15.8748H11.647C12.3004 14.9865 14.0141 13.6089 15.6411 15.205L14.9444 16.2492C14.49 17.8019 15.7787 18.923 17.9866 20.8426C18.2231 21.0482 18.5033 21.2074 18.8143 21.2462C20.397 21.4433 22.2567 20.5814 24.2691 17.5897V19.745C24.2691 20.5485 24.062 21.4696 23.2241 23.0559C26.0583 22.2472 27.1871 19.3424 28.0485 17.1258C28.2249 16.672 28.3901 16.2471 28.5563 15.8748C29.1155 19.261 28.7467 23.3772 25.6372 27.2317C25.6862 28.0176 25.5311 29.7162 25.1739 30.8826C24.5253 33.0005 22.9969 34.4545 19.9985 35.6208C20.1011 34.5649 19.3391 32.0762 17.252 31.9652C15.2157 31.8568 13.6316 32.3799 12.1899 32.8559C10.5502 33.3974 9.09477 33.878 7.36757 33.2995C8.37802 31.9338 7.90168 31.1317 7.31493 30.1436C6.74606 29.1857 6.07341 28.053 6.55135 26.0624C5.80708 26.631 5.30073 28.2338 6.31071 31.4155C5.76017 31.7401 3.90833 32.3395 2.31479 32.8552L2.31474 32.8552C1.91749 32.9838 1.5363 33.1072 1.19531 33.2198C4.69063 39.8467 11.6486 44.3639 19.6617 44.3639ZM16.0997 22.5356L13.3643 20.503C13.3643 20.503 13.08 21.5858 14.1629 22.4027C15.2457 23.2195 16.0997 22.5356 16.0997 22.5356Z" fill="#EFEDFD"/>
<path d="M58.2795 35V18.1001H61.0266V22.0991H60.6789C61.073 20.7313 61.7568 19.6997 62.7305 19.0042C63.7041 18.2856 64.9908 17.8683 66.5903 17.7524L67.5988 17.6481L67.8074 20.0822L66.034 20.2909C64.4576 20.43 63.2405 20.94 62.3828 21.8209C61.5482 22.6786 61.1309 23.8609 61.1309 25.3678V35H58.2795ZM72.699 41.2592L75.8634 34.1307V35.3477L68.4567 18.1001H71.5167L77.5673 32.9136H76.6284L82.7485 18.1001H85.7043L75.6548 41.2592H72.699ZM87.5706 35V18.1001H90.3177V21.8557H89.9352C90.4221 20.5111 91.2102 19.5027 92.2998 18.8304C93.4126 18.1349 94.6876 17.7872 96.1249 17.7872C97.4695 17.7872 98.5822 18.0306 99.4631 18.5174C100.367 18.9811 101.04 19.7113 101.48 20.7081C101.92 21.705 102.141 22.9568 102.141 24.4637V35H99.324V24.6375C99.324 23.5943 99.1849 22.7366 98.9068 22.0643C98.6517 21.392 98.2345 20.8936 97.6549 20.569C97.0985 20.2445 96.3683 20.0822 95.4642 20.0822C94.4442 20.0822 93.5517 20.3025 92.7866 20.7429C92.0216 21.1834 91.4305 21.7977 91.0132 22.5859C90.5959 23.3741 90.3873 24.3014 90.3873 25.3678V35H87.5706ZM113.315 35.313C111.669 35.313 110.244 34.9536 109.038 34.235C107.833 33.5163 106.894 32.5079 106.222 31.2097C105.573 29.8883 105.248 28.3351 105.248 26.5501C105.248 24.765 105.573 23.2234 106.222 21.9252C106.894 20.6038 107.833 19.5838 109.038 18.8652C110.244 18.1465 111.669 17.7872 113.315 17.7872C114.961 17.7872 116.387 18.1465 117.593 18.8652C118.798 19.5838 119.725 20.6038 120.374 21.9252C121.047 23.2234 121.383 24.765 121.383 26.5501C121.383 28.3351 121.047 29.8883 120.374 31.2097C119.725 32.5079 118.798 33.5163 117.593 34.235C116.387 34.9536 114.961 35.313 113.315 35.313ZM113.315 33.0527C114.915 33.0527 116.178 32.4963 117.106 31.3836C118.056 30.2476 118.531 28.6249 118.531 26.5153C118.531 24.4289 118.056 22.8293 117.106 21.7166C116.178 20.6038 114.915 20.0474 113.315 20.0474C111.739 20.0474 110.476 20.6038 109.525 21.7166C108.575 22.8293 108.099 24.4289 108.099 26.5153C108.099 28.6249 108.575 30.2476 109.525 31.3836C110.476 32.4963 111.739 33.0527 113.315 33.0527Z" fill="white"/>
</svg>
