<svg width="88" height="32" viewBox="0 0 88 32" fill="none" xmlns="http://www.w3.org/2000/svg">
<path fill-rule="evenodd" clip-rule="evenodd" d="M13.1948 30C20.9268 30 27.1948 23.732 27.1948 16C27.1948 8.26801 20.9268 2 13.1948 2C7.97871 2 3.42888 4.85257 1.02022 9.08281L7.20961 10.8835H7.8198C8.25826 10.2874 9.40813 9.36298 10.4999 10.434L10.0324 11.1347C9.72747 12.1766 10.5922 12.9289 12.0737 14.2169C12.2324 14.3549 12.4204 14.4617 12.6291 14.4877C13.6911 14.62 14.939 14.0417 16.2894 12.0342V13.4804C16.2894 14.0196 16.1504 14.6376 15.5882 15.7021C17.4899 15.1594 18.2474 13.2103 18.8254 11.7229C18.9438 11.4184 19.0546 11.1333 19.1662 10.8835C19.5414 13.1556 19.2939 15.9177 17.2074 18.5041C17.2402 19.0314 17.1362 20.1712 16.8965 20.9539C16.4613 22.375 15.4357 23.3507 13.4238 24.1332C13.4926 23.4247 12.9813 21.7548 11.5808 21.6803C10.2144 21.6075 9.15149 21.9585 8.18411 22.278C7.08387 22.6413 6.10723 22.9638 4.94825 22.5757C5.62628 21.6592 5.30664 21.121 4.91293 20.458C4.53121 19.8152 4.07986 19.0551 4.40056 17.7195C3.90115 18.101 3.56138 19.1765 4.23909 21.3114C3.86967 21.5293 2.62708 21.9314 1.55779 22.2775L1.55778 22.2775L1.55772 22.2775C1.29019 22.3641 1.03351 22.4472 0.804077 22.523C3.14962 26.9692 7.81827 30 13.1948 30ZM10.8076 15.3529L8.97211 13.989C8.97211 13.989 8.78139 14.7156 9.50798 15.2637C10.2346 15.8118 10.8076 15.3529 10.8076 15.3529Z" fill="#0040C2"/>
<path d="M39.1067 24V12.66H40.95V14.69C41.5567 13.3211 42.8011 12.5667 44.6833 12.4267L45.36 12.3567L45.5 13.99L44.31 14.13C43.2367 14.2233 42.42 14.5656 41.86 15.1567C41.3 15.7322 41.02 16.5256 41.02 17.5367V24H39.1067ZM48.7824 28.2L50.719 23.8133L45.9357 12.66H47.989L51.7457 21.8533L55.5257 12.66H57.509L50.7657 28.2H48.7824ZM58.7614 24V12.66H60.6047V14.5967C60.978 13.8811 61.5069 13.3444 62.1914 12.9867C62.8758 12.6289 63.6458 12.45 64.5014 12.45C67.1925 12.45 68.538 13.9433 68.538 16.93V24H66.648V17.0467C66.648 15.9889 66.438 15.2189 66.018 14.7367C65.6136 14.2389 64.9603 13.99 64.058 13.99C63.0158 13.99 62.1836 14.3167 61.5614 14.97C60.9547 15.6078 60.6514 16.4633 60.6514 17.5367V24H58.7614ZM76.0364 24.21C74.932 24.21 73.9753 23.9689 73.1664 23.4867C72.3575 23.0044 71.7275 22.3278 71.2764 21.4567C70.8409 20.57 70.6231 19.5278 70.6231 18.33C70.6231 17.1322 70.8409 16.0978 71.2764 15.2267C71.7275 14.34 72.3575 13.6556 73.1664 13.1733C73.9753 12.6911 74.932 12.45 76.0364 12.45C77.1253 12.45 78.0742 12.6911 78.8831 13.1733C79.7075 13.6556 80.3375 14.34 80.7731 15.2267C81.2242 16.0978 81.4498 17.1322 81.4498 18.33C81.4498 19.5278 81.2242 20.57 80.7731 21.4567C80.3375 22.3278 79.7075 23.0044 78.8831 23.4867C78.0742 23.9689 77.1253 24.21 76.0364 24.21ZM76.0364 22.6933C77.0942 22.6933 77.942 22.32 78.5798 21.5733C79.2175 20.8111 79.5364 19.73 79.5364 18.33C79.5364 16.9144 79.2175 15.8333 78.5798 15.0867C77.942 14.34 77.0942 13.9667 76.0364 13.9667C74.9631 13.9667 74.1075 14.34 73.4698 15.0867C72.8475 15.8333 72.5364 16.9144 72.5364 18.33C72.5364 19.73 72.8475 20.8111 73.4698 21.5733C74.1075 22.32 74.9631 22.6933 76.0364 22.6933Z" fill="#261E63"/>
<path d="M82.7612 24V21.62H85.1412V24H82.7612Z" fill="#0040C2"/>
</svg>
