<svg width="80" height="28" viewBox="0 0 80 28" fill="none" xmlns="http://www.w3.org/2000/svg">
<path fill-rule="evenodd" clip-rule="evenodd" d="M11.3098 26C17.9372 26 23.3098 20.6274 23.3098 14C23.3098 7.37258 17.9372 2 11.3098 2C6.83888 2 2.93902 4.44507 0.874457 8.071L6.17966 9.61445H6.70268C7.07851 9.10352 8.06411 8.31116 8.99988 9.22916L8.59919 9.82978C8.33783 10.7228 9.07903 11.3676 10.3489 12.4717C10.4849 12.5899 10.6461 12.6815 10.825 12.7038C11.7352 12.8172 12.8049 12.3215 13.9623 10.6008V11.8404C13.9623 12.3025 13.8432 12.8323 13.3613 13.7447C14.9914 13.2795 15.6406 11.6088 16.1361 10.334C16.2375 10.073 16.3325 9.82853 16.4281 9.61445C16.7497 11.562 16.5376 13.9295 14.7492 16.1464C14.7774 16.5984 14.6882 17.5753 14.4827 18.2462C14.1096 19.4643 13.2306 20.3006 11.5061 20.9714C11.5651 20.3641 11.1268 18.9327 9.92644 18.8688C8.75521 18.8065 7.84413 19.1073 7.01495 19.3812C6.07188 19.6926 5.23476 19.969 4.24136 19.6363C4.82252 18.8508 4.54855 18.3895 4.21108 17.8212C3.8839 17.2702 3.49702 16.6187 3.77191 15.4739C3.34384 15.8009 3.05261 16.7227 3.6335 18.5527C3.31686 18.7394 2.25177 19.0841 1.33524 19.3808L1.33522 19.3808C1.10591 19.455 0.885891 19.5262 0.689224 19.5912C2.69969 23.4022 6.70138 26 11.3098 26ZM9.26369 13.4454L7.69038 12.2764C7.69038 12.2764 7.5269 12.8991 8.1497 13.3689C8.77249 13.8387 9.26369 13.4454 9.26369 13.4454Z" fill="#0040C2"/>
<path d="M33.74 20.5V6.4H39.32C40.84 6.4 42 6.75333 42.8 7.46C43.6133 8.16667 44.02 9.17333 44.02 10.48C44.02 11.52 43.7333 12.3733 43.16 13.04C42.6 13.7067 41.8 14.14 40.76 14.34C41.3733 14.5533 41.9 15.0733 42.34 15.9L44.82 20.5H43.02L40.58 15.98C40.2733 15.42 39.92 15.04 39.52 14.84C39.12 14.64 38.5933 14.54 37.94 14.54H35.38V20.5H33.74ZM35.38 13.24H39.08C41.2933 13.24 42.4 12.32 42.4 10.48C42.4 8.66667 41.2933 7.76 39.08 7.76H35.38V13.24ZM47.4189 24.1L49.0789 20.34L44.9789 10.78H46.7389L49.9589 18.66L53.1989 10.78H54.8989L49.1189 24.1H47.4189ZM55.9723 20.5V10.78H57.5523V12.44C57.8723 11.8267 58.3257 11.3667 58.9123 11.06C59.499 10.7533 60.159 10.6 60.8923 10.6C63.199 10.6 64.3523 11.88 64.3523 14.44V20.5H62.7323V14.54C62.7323 13.6333 62.5523 12.9733 62.1923 12.56C61.8457 12.1333 61.2857 11.92 60.5123 11.92C59.619 11.92 58.9057 12.2 58.3723 12.76C57.8523 13.3067 57.5923 14.04 57.5923 14.96V20.5H55.9723ZM70.7795 20.68C69.8329 20.68 69.0129 20.4733 68.3195 20.06C67.6262 19.6467 67.0862 19.0667 66.6995 18.32C66.3262 17.56 66.1395 16.6667 66.1395 15.64C66.1395 14.6133 66.3262 13.7267 66.6995 12.98C67.0862 12.22 67.6262 11.6333 68.3195 11.22C69.0129 10.8067 69.8329 10.6 70.7795 10.6C71.7129 10.6 72.5262 10.8067 73.2195 11.22C73.9262 11.6333 74.4662 12.22 74.8395 12.98C75.2262 13.7267 75.4195 14.6133 75.4195 15.64C75.4195 16.6667 75.2262 17.56 74.8395 18.32C74.4662 19.0667 73.9262 19.6467 73.2195 20.06C72.5262 20.4733 71.7129 20.68 70.7795 20.68ZM70.7795 19.38C71.6862 19.38 72.4129 19.06 72.9595 18.42C73.5062 17.7667 73.7795 16.84 73.7795 15.64C73.7795 14.4267 73.5062 13.5 72.9595 12.86C72.4129 12.22 71.6862 11.9 70.7795 11.9C69.8595 11.9 69.1262 12.22 68.5795 12.86C68.0462 13.5 67.7795 14.4267 67.7795 15.64C67.7795 16.84 68.0462 17.7667 68.5795 18.42C69.1262 19.06 69.8595 19.38 70.7795 19.38Z" fill="#261E63"/>
<path d="M76.5436 20.5V18.46H78.5836V20.5H76.5436Z" fill="#0040C2"/>
</svg>
